# Exported using automatic converter by Erwin Coumans
mtllib HeadPitch.mtl
#object HeadPitch_JULIETTE_OEIL_GA

v 0.956276 -0.074846 0.567481
v 0.959433 -0.047554 0.584175
v 0.961371 -0.106589 0.585051
v 0.979055 -0.057998 0.614297
v 0.964084 -0.118424 0.611467
v 0.954768 0.000002 0.552943
v 0.983466 0.000002 0.613581
v 0.956276 0.074850 0.567481
v 0.961371 0.106593 0.585051
v 0.959433 0.047557 0.584175
v 0.964084 0.118427 0.611467
v 0.979055 0.058001 0.614297
v 0.961871 0.000002 0.586948
v 0.811595 0.412774 1.020980
v 0.808755 0.458499 1.035450
v 0.818664 0.409029 1.168590
v 0.809983 0.327448 1.039140
v 0.806493 0.501615 1.070600
v 0.777311 0.461956 1.336450
v 0.776150 0.384460 1.352470
v 0.780992 0.514438 1.287160
v 0.799643 0.534170 1.128560
v 0.805373 0.282667 1.080470
v 0.801021 0.259803 1.125550
v 0.794766 0.249623 1.180100
v 0.792833 0.543485 1.191380
v 0.787086 0.530888 1.254740
v 0.786489 0.264578 1.257210
v 0.805373 -0.282665 1.080470
v 0.801021 -0.259801 1.125550
v 0.816019 -0.409026 1.168590
v 0.787087 -0.530885 1.254740
v 0.792834 -0.543483 1.191380
v 0.794767 -0.249620 1.180100
v 0.786489 -0.264576 1.257210
v 0.799644 -0.534168 1.128560
v 0.806494 -0.501613 1.070600
v 0.811596 -0.412772 1.020980
v 0.809984 -0.327445 1.039140
v 0.780993 -0.514435 1.287160
v 0.808756 -0.458496 1.035450
v 0.776151 -0.384458 1.352470
v 0.777312 -0.461953 1.336450
v 0.789715 0.315766 1.321680
v 0.783920 -0.313301 1.316080
v 0.934921 0.075525 1.534100
v 0.930508 0.116763 1.536870
v -0.004227 0.943707 1.132010
v 0.926095 0.158000 1.539640
usemtl face_tex

vn 0.007863 0.002198 0.005773
vn 0.009344 -0.000390 -0.003540
vn 0.007134 0.006513 0.002585
vn 0.005152 -0.000408 -0.008561
vn 0.005465 0.006747 -0.004961
vn 0.007200 0.000000 0.006939
vn 0.004575 0.000000 -0.008892
vn 0.007863 -0.002198 0.005773
vn 0.007134 -0.006513 0.002585
vn 0.009344 0.000390 -0.003540
vn 0.005465 -0.006747 -0.004961
vn 0.005152 0.000408 -0.008561
vn 0.009128 0.000000 -0.004083
vn 0.008548 0.001634 0.004925
vn 0.009307 0.001774 0.003199
vn 0.009963 0.000198 0.000838
vn 0.008329 0.001628 0.005288
vn 0.009860 0.001081 0.001271
vn 0.008933 -0.002238 -0.003898
vn 0.008798 0.000896 -0.004668
vn 0.009416 -0.002819 -0.001841
vn 0.009972 0.000074 0.000737
vn 0.008798 0.002871 0.003788
vn 0.008896 0.004184 0.001831
vn 0.008790 0.004751 0.000396
vn 0.009905 -0.001373 0.000076
vn 0.009643 -0.002587 -0.000563
vn 0.008795 0.004345 -0.001939
vn 0.008762 -0.002929 0.003825
vn 0.008860 -0.004250 0.001852
vn 0.009958 -0.000157 0.000902
vn 0.009621 0.002661 -0.000590
vn 0.009899 0.001416 -0.000049
vn 0.008756 -0.004814 0.000393
vn 0.008702 -0.004592 -0.001782
vn 0.009985 0.000204 0.000499
vn 0.009879 -0.000907 0.001252
vn 0.008512 -0.001623 0.004991
vn 0.008290 -0.001661 0.005339
vn 0.009389 0.002784 -0.002021
vn 0.009291 -0.001729 0.003269
vn 0.008712 -0.000724 -0.004856
vn 0.009006 0.001690 -0.004005
vn 0.008511 0.003815 -0.003605
vn 0.008690 -0.003623 -0.003370
vn 0.009777 0.000887 0.001905
vn 0.008273 0.000446 0.005600
vn 0.000354 0.009903 -0.001343
vn 0.008832 0.001623 0.004400

vt 0.383676 0.135076
vt 0.409098 0.157859
vt 0.327635 0.171976
vt 0.390308 0.207857
vt 0.318303 0.208069
vt 0.497469 0.122613
vt 0.502518 0.206351
vt 0.595956 0.141269
vt 0.655220 0.178041
vt 0.568401 0.163315
vt 0.671811 0.211998
vt 0.597234 0.209287
vt 0.499299 0.164004
vt 0.721989 0.342753
vt 0.809982 0.344966
vt 0.829557 0.520449
vt 0.612513 0.357966
vt 0.857830 0.345951
vt 0.875884 0.664938
vt 0.800023 0.697684
vt 0.904965 0.637293
vt 0.968067 0.361474
vt 0.596070 0.444450
vt 0.595655 0.530914
vt 0.613963 0.594006
vt 0.976104 0.466692
vt 0.951434 0.564828
vt 0.631923 0.610853
vt 0.395315 0.457521
vt 0.399975 0.527559
vt 0.158288 0.540190
vt 0.016438 0.492946
vt 0.028833 0.368909
vt 0.388636 0.594337
vt 0.287714 0.693452
vt 0.124785 0.358516
vt 0.210087 0.350266
vt 0.312599 0.353845
vt 0.378141 0.363943
vt 0.035414 0.562262
vt 0.264722 0.351428
vt 0.116151 0.670926
vt 0.078046 0.630311
vt 0.715891 0.686420
vt 0.193682 0.709198
vt 1.000000 0.000000
vt 0.499999 0.000000
vt 1.000000 1.000000
vt 0.000000 0.000000
s off
f 1/1/1 2/2/2 3/3/3
f 4/4/4 5/5/5 3/3/3
f 2/2/2 1/1/1 6/6/6
f 7/7/7 4/4/4 2/2/2
f 8/8/8 9/9/9 10/10/10
f 9/9/9 11/11/11 12/12/12
f 10/10/10 13/13/13 6/6/6
f 10/10/10 12/12/12 7/7/7
f 14/14/14 15/15/15 16/16/16
f 17/17/17 14/14/14 16/16/16
f 15/15/15 18/18/18 16/16/16
f 19/19/19 20/20/20 16/16/16
f 21/21/21 19/19/19 16/16/16
f 18/18/18 22/22/22 16/16/16
f 23/23/23 17/17/17 16/16/16
f 24/24/24 23/23/23 16/16/16
f 25/25/25 24/24/24 16/16/16
f 22/22/22 26/26/26 16/16/16
f 27/27/27 21/21/21 16/16/16
f 26/26/26 27/27/27 16/16/16
f 28/28/28 25/25/25 16/16/16
f 29/29/29 30/30/30 31/31/31
f 32/32/32 33/33/33 31/31/31
f 34/34/34 35/35/35 31/31/31
f 36/36/36 37/37/37 31/31/31
f 38/38/38 39/39/39 31/31/31
f 39/39/39 29/29/29 31/31/31
f 40/40/40 32/32/32 31/31/31
f 37/37/37 41/41/41 31/31/31
f 33/33/33 36/36/36 31/31/31
f 30/30/30 34/34/34 31/31/31
f 42/42/42 43/43/43 31/31/31
f 43/43/43 40/40/40 31/31/31
f 41/41/41 38/38/38 31/31/31
f 20/20/20 44/44/44 16/16/16
f 44/44/44 28/28/28 16/16/16
f 35/35/35 45/45/45 31/31/31
f 45/45/45 42/42/42 31/31/31
f 46/46/46 47/47/47 48/48/48
f 47/47/47 49/49/49 48/48/48
f 2/2/2 4/4/4 3/3/3
f 13/13/13 2/2/2 6/6/6
f 13/13/13 7/7/7 2/2/2
f 10/10/10 9/9/9 12/12/12
f 8/8/8 10/10/10 6/6/6
f 13/13/13 10/10/10 7/7/7
