# Exported using automatic converter by Erwin Coumans
mtllib HeadPitch.mtl
#object HeadPitch_JULIETTE_OEIL_GA

v 0.251148 0.989530 0.943691
v 0.219971 0.985596 0.912763
v -0.004227 0.943707 1.132010
v -0.292250 1.028210 1.115220
v -0.280720 1.040880 1.199880
v 0.293703 1.000070 1.026550
v 0.187317 1.046360 1.357570
v 0.251148 1.033960 1.293080
v 0.099202 1.054970 1.402500
v -0.164623 0.990738 0.875767
v -0.229620 1.001680 0.936902
v 0.293703 1.023430 1.210230
v 0.184865 0.981167 0.877939
v 0.101345 0.975798 0.835722
v 0.008761 0.973948 0.821176
v -0.276935 1.016380 1.025040
v 0.308367 1.011750 1.118390
v 0.301828 1.006540 1.077430
v -0.082469 0.981513 0.836026
v -0.169221 1.058320 1.358220
v -0.091310 1.061280 1.399200
v -0.235929 1.052330 1.291030
v 0.016956 1.061230 1.416060
v 0.203181 0.983478 0.896108
v -0.091307 -1.061280 1.399200
v -0.169218 -1.058320 1.358220
v -0.016276 -0.950680 1.123900
v 0.301831 -1.006540 1.077430
v 0.308370 -1.011740 1.118390
v -0.082466 -0.981512 0.836026
v 0.008764 -0.973948 0.821176
v -0.235926 -1.052330 1.291030
v -0.164620 -0.990738 0.875767
v -0.292248 -1.028210 1.115220
v -0.276933 -1.016380 1.025040
v 0.101347 -0.975797 0.835722
v 0.184868 -0.981166 0.877939
v 0.293706 -1.000060 1.026550
v 0.016959 -1.061230 1.416060
v -0.280717 -1.040880 1.199880
v 0.099205 -1.054970 1.402500
v 0.203184 -0.983477 0.896108
v 0.293706 -1.023420 1.210230
v 0.251150 -1.033960 1.293080
v 0.187319 -1.046360 1.357570
v 0.251150 -0.989528 0.943691
v 0.219973 -0.985595 0.912763
v -0.229617 -1.001680 0.936902
usemtl ear_tex

vn -0.006251 0.006705 0.003995
vn -0.005502 0.006785 0.004867
vn 0.000354 0.009903 -0.001343
vn 0.008195 0.005701 -0.000589
vn 0.007832 0.005416 -0.003052
vn -0.007512 0.006392 0.001644
vn -0.004682 0.005148 -0.007182
vn -0.006330 0.005648 -0.005294
vn -0.002571 0.004857 -0.008354
vn 0.004923 0.006444 0.005850
vn 0.006654 0.006137 0.004248
vn -0.007542 0.005797 -0.003082
vn -0.004850 0.006359 0.006002
vn -0.002568 0.006550 0.007106
vn 0.000317 0.006745 0.007376
vn 0.007866 0.005861 0.001942
vn -0.008016 0.005941 -0.000665
vn -0.007769 0.006280 0.000442
vn 0.002767 0.006637 0.006949
vn 0.004951 0.004894 -0.007178
vn 0.002668 0.004922 -0.008285
vn 0.006681 0.005120 -0.005398
vn -0.000197 0.004753 -0.008796
vn -0.005712 0.006567 0.004923
vn 0.002641 -0.005028 -0.008231
vn 0.004911 -0.004985 -0.007143
vn 0.000477 -0.009896 -0.001357
vn -0.007674 -0.006398 0.000411
vn -0.007930 -0.006053 -0.000681
vn 0.002755 -0.006691 0.006902
vn 0.000311 -0.006810 0.007316
vn 0.006637 -0.005196 -0.005381
vn 0.004902 -0.006493 0.005813
vn 0.008156 -0.005755 -0.000601
vn 0.007834 -0.005909 0.001924
vn -0.002554 -0.006629 0.007038
vn -0.004816 -0.006447 0.005936
vn -0.007433 -0.006495 0.001602
vn -0.000198 -0.004870 -0.008732
vn 0.007788 -0.005480 -0.003051
vn -0.002547 -0.004982 -0.008288
vn -0.005656 -0.006666 0.004854
vn -0.007455 -0.005916 -0.003069
vn -0.006252 -0.005771 -0.005254
vn -0.004627 -0.005273 -0.007126
vn -0.006189 -0.006796 0.003937
vn -0.005442 -0.006882 0.004797
vn 0.006628 -0.006184 0.004222

vt 0.839045 0.808466
vt 0.787068 0.849638
vt 0.486687 0.490010
vt 0.046402 0.417061
vt 0.085980 0.293077
vt 0.917648 0.691435
vt 0.823862 0.170726
vt 0.904998 0.282105
vt 0.702400 0.083726
vt 0.166328 0.812567
vt 0.088301 0.701689
vt 0.952267 0.414973
vt 0.684735 0.921305
vt 0.547575 0.956386
vt 0.406310 0.947818
vt 0.043394 0.556032
vt 0.956606 0.555919
vt 0.939317 0.616382
vt 0.275823 0.897187
vt 0.292511 0.085386
vt 0.418300 0.043384
vt 0.176224 0.168367
vt 0.583220 0.043384
vt 0.737187 0.886753
vt 0.084427 0.697100
vt 0.045617 0.570548
vt 0.481480 0.472843
vt 0.853679 0.785726
vt 0.813513 0.836669
vt 0.694106 0.084826
vt 0.811036 0.160660
vt 0.045617 0.428000
vt 0.561979 0.045605
vt 0.172041 0.178387
vt 0.282913 0.095283
vt 0.900207 0.269743
vt 0.951784 0.400882
vt 0.901789 0.724244
vt 0.180116 0.831130
vt 0.094491 0.282436
vt 0.282036 0.904643
vt 0.954383 0.463397
vt 0.696460 0.915205
vt 0.560992 0.954139
vt 0.423303 0.952845
vt 0.950570 0.592064
vt 0.953437 0.525859
vt 0.426921 0.046990
s off
f 1/1/1 2/2/2 3/3/3
f 4/4/4 5/5/5 3/3/3
f 6/6/6 1/1/1 3/3/3
f 7/7/7 8/8/8 3/3/3
f 9/9/9 7/7/7 3/3/3
f 10/10/10 11/11/11 3/3/3
f 8/8/8 12/12/12 3/3/3
f 13/13/13 14/14/14 3/3/3
f 14/14/14 15/15/15 3/3/3
f 11/11/11 16/16/16 3/3/3
f 17/17/17 18/18/18 3/3/3
f 15/15/15 19/19/19 3/3/3
f 19/19/19 10/10/10 3/3/3
f 20/20/20 21/21/21 3/3/3
f 18/18/18 6/6/6 3/3/3
f 16/16/16 4/4/4 3/3/3
f 12/12/12 17/17/17 3/3/3
f 22/22/22 20/20/20 3/3/3
f 21/21/21 23/23/23 3/3/3
f 5/5/5 22/22/22 3/3/3
f 23/23/23 9/9/9 3/3/3
f 24/24/24 13/13/13 3/3/3
f 2/2/2 24/24/24 3/3/3
f 25/25/25 26/26/26 27/27/27
f 28/28/28 29/29/29 27/27/27
f 30/30/30 31/31/31 27/27/27
f 26/26/26 32/32/32 27/27/27
f 33/33/33 30/30/30 27/27/27
f 34/34/34 35/35/35 27/27/27
f 36/36/36 37/37/37 27/27/27
f 38/38/38 28/28/28 27/27/27
f 39/39/39 25/25/25 27/27/27
f 31/31/31 36/36/36 27/27/27
f 32/32/32 40/40/40 27/27/27
f 41/41/41 39/39/39 27/27/27
f 37/37/37 42/42/42 27/27/27
f 29/29/29 43/43/43 27/27/27
f 44/44/44 45/45/45 27/27/27
f 43/43/43 44/44/44 27/27/27
f 46/46/46 38/38/38 27/27/27
f 42/42/42 47/47/47 27/27/27
f 45/45/45 41/41/41 27/27/27
f 35/35/35 48/48/48 27/27/27
f 40/40/40 34/34/34 27/27/27
f 48/48/48 33/33/33 27/27/27
f 47/47/47 46/46/46 27/27/27
