# Exported using automatic converter by Erwin Coumans
mtllib KneePitch.mtl
#object KneePitch_GROUPE_01

v -0.097176 2.131650 -2.587370
v -0.447635 1.938540 -2.598490
v -0.308168 1.793380 -2.170410
v 1.380680 0.695662 -1.791460
v 1.461690 1.086960 -1.864470
v 1.238060 1.066800 -1.763130
v -0.450348 1.140650 -1.144840
v -0.824349 0.981719 -1.243390
v -0.722074 0.934270 -0.964124
v 0.532722 0.457120 -0.948985
v 0.621387 0.494017 -1.243890
v 0.505165 0.769349 -1.213620
v -1.196750 1.227670 -2.243950
v -0.891459 1.067470 -1.513750
v -0.683289 1.379890 -1.887320
v -0.427101 1.241350 -1.417820
v -0.304694 1.481940 -1.792830
v 1.554430 1.440270 -1.962660
v 1.645320 1.731420 -2.097200
v 1.405740 1.785020 -1.991600
v 0.642810 0.883138 -1.488690
v 0.792409 0.598904 -1.482550
v 1.015430 0.683455 -1.615790
v 0.839925 2.296140 -2.263980
v 1.201480 2.222900 -2.268810
v 1.167120 2.299390 -2.663810
v 0.641040 1.896340 -1.883480
v 0.493538 1.166750 -1.494810
v 0.965617 1.386990 -1.716080
v 1.082370 1.835960 -1.893610
v 1.271660 1.354370 -1.814640
v 1.517290 2.066470 -2.276830
v 1.520520 2.119920 -2.702280
v 0.990497 1.035610 -1.665990
v 1.204390 0.778590 -1.711490
v -0.064867 1.189170 -1.195320
v -0.095271 1.106140 -0.945503
v 0.244040 0.974398 -0.954317
v 0.140523 1.728580 -1.861580
v -0.037027 1.265210 -1.424070
v 0.220051 2.294640 -2.626310
v 0.231586 2.144900 -2.239940
v -0.406081 1.078380 -0.885584
v -0.506434 0.828693 -0.228660
v -0.126120 1.002200 -0.126301
v 0.224776 0.945193 -0.148807
v 0.388223 0.716042 -0.951654
v 0.453027 0.742640 -0.210761
v 0.533402 0.547514 -0.216099
v 0.875376 0.137046 -1.488430
v 1.163090 0.197915 -1.666690
v 1.273270 0.302124 -1.720530
v 1.345820 0.515151 -1.764510
v 0.591207 0.115738 -0.257657
v 0.597974 0.123198 -0.994517
v 1.242930 2.233090 -2.906760
v 0.893793 2.335180 -2.910800
v 0.877730 2.371760 -2.669620
v 0.161259 2.283680 -2.889540
v -0.168957 2.156630 -2.827780
v -1.225550 1.334690 -2.655170
v -0.853840 1.599900 -2.454920
v 1.711950 1.921260 -2.324110
v 1.727700 1.956270 -2.650920
v -0.001320 1.994590 -2.212590
v -0.940000 1.658710 -2.732280
v 1.713830 1.921880 -2.933060
v -0.912465 0.708029 -0.960235
v -0.675799 0.603160 -0.280022
v -1.023170 0.765383 -1.248910
v -1.365950 1.085420 -2.266180
v -1.117710 0.822093 -1.493770
v -1.380440 1.271810 -2.608740
v 0.300830 1.041520 -1.224290
v 1.705960 1.900310 -3.064000
v 1.476150 2.085160 -3.064000
v 1.291990 2.190190 -3.064000
v 1.493960 2.099110 -2.918840
v 0.903996 2.311940 -3.064000
v 0.122295 2.276420 -3.064000
v -0.229532 2.159210 -3.064000
v -0.674473 1.938210 -3.058450
v -0.561054 1.938380 -2.828470
v -1.098440 1.635690 -2.976480
v -1.172150 1.582460 -2.937620
v -0.310698 0.957353 -0.172869
v -0.097171 -2.131650 -2.587370
v -0.001315 -1.994590 -2.212590
v -0.308163 -1.793380 -2.170410
v 1.380680 -0.695659 -1.791460
v 1.204400 -0.778588 -1.711490
v 1.238070 -1.066790 -1.763130
v -0.450345 -1.140650 -1.144840
v -0.406078 -1.078380 -0.885584
v -0.722071 -0.934273 -0.964124
v 0.532723 -0.457119 -0.948985
v 0.388225 -0.716042 -0.951654
v 0.505167 -0.769348 -1.213620
v -1.196750 -1.227680 -2.243950
v -0.853835 -1.599900 -2.454920
v -0.683286 -1.379900 -1.887320
v -0.304690 -1.481940 -1.792830
v -0.427098 -1.241360 -1.417820
v 1.405750 -1.785010 -1.991600
v 1.645320 -1.731410 -2.097200
v 1.554440 -1.440260 -1.962660
v 0.642812 -0.883137 -1.488690
v 0.990500 -1.035610 -1.665990
v 1.015430 -0.683453 -1.615790
v 1.167120 -2.299390 -2.663810
v 1.201490 -2.222900 -2.268810
v 0.839931 -2.296140 -2.263980
v 0.641045 -1.896330 -1.883480
v 1.082370 -1.835950 -1.893610
v 0.965621 -1.386990 -1.716080
v 1.271660 -1.354370 -1.814640
v 1.520530 -2.119910 -2.702280
v 1.517300 -2.066470 -2.276830
v 0.244043 -0.974399 -0.954317
v -0.095268 -1.106140 -0.945503
v -0.064864 -1.189180 -1.195320
v 0.140527 -1.728580 -1.861580
v 0.493541 -1.166750 -1.494810
v 0.231591 -2.144900 -2.239940
v 0.220057 -2.294640 -2.626310
v -0.310695 -0.957354 -0.172869
v -0.506432 -0.828695 -0.228660
v 0.224779 -0.945193 -0.148807
v -0.126117 -1.002200 -0.126301
v 0.533404 -0.547514 -0.216099
v 0.453029 -0.742639 -0.210761
v 0.792410 -0.598903 -1.482550
v 1.163090 -0.197913 -1.666690
v 1.273270 -0.302121 -1.720530
v 1.345820 -0.515148 -1.764510
v 0.591207 -0.115737 -0.257657
v 0.597974 -0.123197 -0.994517
v 0.621388 -0.494016 -1.243890
v 1.242930 -2.233090 -2.906760
v 1.493960 -2.099110 -2.918840
v 0.893799 -2.335180 -2.910800
v 0.877736 -2.371760 -2.669620
v -0.168952 -2.156630 -2.827780
v -0.447630 -1.938540 -2.598490
v -1.225550 -1.334690 -2.655170
v -0.939996 -1.658710 -2.732280
v 1.727700 -1.956260 -2.650920
v -0.561049 -1.938380 -2.828470
v 1.713830 -1.921880 -2.933060
v 1.711950 -1.921260 -2.324110
v -0.675797 -0.603162 -0.280022
v -0.912463 -0.708032 -0.960235
v -1.023170 -0.765386 -1.248910
v -0.824346 -0.981721 -1.243390
v -1.117710 -0.822096 -1.493770
v -1.365950 -1.085420 -2.266180
v -1.380430 -1.271810 -2.608740
v 1.461700 -1.086950 -1.864470
v 0.300833 -1.041520 -1.224290
v 1.476150 -2.085160 -3.064000
v 1.705970 -1.900300 -3.064000
v 1.292000 -2.190190 -3.064000
v 0.904002 -2.311940 -3.064000
v 0.161265 -2.283680 -2.889540
v -0.229526 -2.159210 -3.064000
v -0.674468 -1.938210 -3.058450
v -1.098440 -1.635700 -2.976480
v -1.029550 -1.707610 -3.001450
v -1.172150 -1.582460 -2.937620
v 0.875376 -0.137044 -1.488430
v 0.694989 -0.133017 -1.275270
v -0.037024 -1.265210 -1.424070
v -0.891456 -1.067470 -1.513750
v 0.122301 -2.276420 -3.064000
v 0.694989 0.133018 -1.275270
v -1.029550 1.707610 -3.001450
usemtl milky_white

vn -0.004374 0.008516 0.002887
vn -0.004895 0.008056 0.003336
vn -0.004297 0.007521 0.004997
vn 0.009306 -0.001289 0.003424
vn 0.009146 -0.001231 0.003851
vn 0.003829 0.001256 0.009152
vn -0.002673 0.009125 0.003095
vn -0.005712 0.007405 0.003541
vn -0.006074 0.007286 0.003165
vn 0.009449 0.002892 0.001532
vn 0.008371 0.002458 0.004887
vn 0.007652 0.004213 0.004868
vn -0.005673 0.007333 0.003746
vn -0.005396 0.007411 0.003994
vn -0.004440 0.007741 0.004513
vn -0.002691 0.008662 0.004210
vn -0.003024 0.007620 0.005726
vn 0.009048 -0.000989 0.004140
vn 0.009140 0.000053 0.004056
vn 0.003853 0.004321 0.008154
vn 0.005607 0.002970 0.007729
vn 0.006118 0.001827 0.007696
vn 0.004299 0.001119 0.008959
vn 0.000157 0.008751 0.004837
vn 0.003025 0.008342 0.004610
vn 0.003338 0.009425 0.000129
vn 0.000141 0.006022 0.007982
vn 0.003332 0.004965 0.008015
vn 0.002732 0.002752 0.009217
vn 0.002326 0.004888 0.008408
vn 0.003673 0.001932 0.009098
vn 0.004914 0.007505 0.004419
vn 0.005401 0.008414 -0.000174
vn 0.003645 0.001635 0.009167
vn 0.004047 0.000915 0.009098
vn 0.001339 0.009257 0.003537
vn 0.001108 0.009697 0.002176
vn 0.005791 0.007888 0.002062
vn -0.001579 0.006737 0.007219
vn 0.000125 0.008195 0.005730
vn -0.002599 0.009521 0.001612
vn -0.002734 0.008203 0.005023
vn -0.002970 0.009239 0.002411
vn -0.004642 0.003810 0.007996
vn 0.000267 0.004371 0.008990
vn 0.004266 0.004707 0.007723
vn 0.008436 0.005105 0.001664
vn 0.006677 0.003671 0.006475
vn 0.006940 0.001889 0.006947
vn 0.005023 -0.007079 0.004965
vn 0.006005 -0.006583 0.004538
vn 0.008436 -0.004116 0.003449
vn 0.009313 -0.001866 0.003126
vn 0.006182 -0.005294 0.005810
vn 0.007473 -0.006559 0.001062
vn 0.003703 0.009192 -0.001341
vn 0.001009 0.009876 -0.001201
vn 0.000591 0.009970 0.000489
vn -0.002213 0.009752 0.000062
vn -0.004144 0.008972 0.001525
vn -0.004447 0.007727 0.004529
vn -0.005554 0.007528 0.003533
vn 0.009630 0.001494 0.002243
vn 0.009942 0.001073 0.000061
vn -0.003867 0.007610 0.005208
vn -0.005867 0.007488 0.003081
vn 0.009964 0.000555 -0.000641
vn -0.009067 -0.003326 0.002591
vn -0.007276 -0.003477 0.005913
vn -0.009150 -0.002829 0.002873
vn -0.009910 -0.000331 0.001295
vn -0.009348 -0.002106 0.002857
vn -0.009759 0.001799 -0.001234
vn 0.005293 0.007109 0.004630
vn 0.007907 -0.000497 -0.006101
vn 0.003717 0.005624 -0.007386
vn 0.002802 0.006246 -0.007289
vn 0.005442 0.008284 -0.001323
vn 0.000889 0.006954 -0.007131
vn -0.001592 0.007179 -0.006777
vn -0.003155 0.006897 -0.006517
vn -0.004513 0.005915 -0.006681
vn -0.004930 0.008347 0.002455
vn -0.007458 0.002214 -0.006282
vn -0.007517 0.006029 -0.002673
vn -0.002753 0.004917 0.008261
vn -0.004374 -0.008516 0.002887
vn -0.003867 -0.007610 0.005208
vn -0.004296 -0.007521 0.004997
vn 0.009306 0.001289 0.003424
vn 0.004047 -0.000915 0.009098
vn 0.003829 -0.001256 0.009152
vn -0.002673 -0.009125 0.003095
vn -0.002970 -0.009239 0.002411
vn -0.006074 -0.007286 0.003165
vn 0.009449 -0.002892 0.001532
vn 0.008436 -0.005105 0.001664
vn 0.007652 -0.004213 0.004868
vn -0.005673 -0.007333 0.003746
vn -0.005554 -0.007528 0.003533
vn -0.004440 -0.007741 0.004513
vn -0.003024 -0.007620 0.005726
vn -0.002691 -0.008662 0.004210
vn 0.003853 -0.004320 0.008154
vn 0.009140 -0.000053 0.004056
vn 0.009048 0.000989 0.004140
vn 0.005607 -0.002970 0.007729
vn 0.003645 -0.001635 0.009167
vn 0.004299 -0.001119 0.008959
vn 0.003338 -0.009425 0.000129
vn 0.003025 -0.008342 0.004610
vn 0.000157 -0.008751 0.004837
vn 0.000141 -0.006022 0.007982
vn 0.002326 -0.004888 0.008408
vn 0.002732 -0.002752 0.009217
vn 0.003673 -0.001932 0.009098
vn 0.005401 -0.008414 -0.000174
vn 0.004914 -0.007505 0.004419
vn 0.005791 -0.007888 0.002062
vn 0.001108 -0.009697 0.002176
vn 0.001339 -0.009257 0.003537
vn -0.001579 -0.006737 0.007219
vn 0.003332 -0.004965 0.008015
vn -0.002734 -0.008203 0.005023
vn -0.002599 -0.009521 0.001612
vn -0.002753 -0.004917 0.008261
vn -0.004642 -0.003810 0.007996
vn 0.004266 -0.004707 0.007723
vn 0.000267 -0.004371 0.008990
vn 0.006925 -0.001905 0.006958
vn 0.006667 -0.003644 0.006502
vn 0.006118 -0.001827 0.007696
vn 0.006005 0.006583 0.004538
vn 0.008436 0.004116 0.003449
vn 0.009313 0.001866 0.003126
vn 0.006182 0.005294 0.005810
vn 0.007473 0.006559 0.001062
vn 0.008371 -0.002458 0.004887
vn 0.003703 -0.009192 -0.001341
vn 0.005442 -0.008284 -0.001323
vn 0.001009 -0.009876 -0.001201
vn 0.000591 -0.009970 0.000489
vn -0.004144 -0.008972 0.001525
vn -0.004895 -0.008056 0.003336
vn -0.004447 -0.007727 0.004529
vn -0.005867 -0.007488 0.003081
vn 0.009942 -0.001073 0.000061
vn -0.004930 -0.008347 0.002455
vn 0.009964 -0.000554 -0.000641
vn 0.009630 -0.001494 0.002243
vn -0.007177 0.003529 0.006003
vn -0.009067 0.003326 0.002591
vn -0.009150 0.002829 0.002873
vn -0.005712 -0.007405 0.003541
vn -0.009348 0.002106 0.002857
vn -0.009910 0.000331 0.001295
vn -0.009759 -0.001799 -0.001234
vn 0.009146 0.001231 0.003851
vn 0.005293 -0.007109 0.004630
vn 0.003717 -0.005624 -0.007386
vn 0.007908 0.000497 -0.006101
vn 0.002802 -0.006246 -0.007289
vn 0.000889 -0.006954 -0.007131
vn -0.002213 -0.009752 0.000062
vn -0.003155 -0.006897 -0.006517
vn -0.004495 -0.005827 -0.006770
vn -0.007485 -0.002193 -0.006257
vn -0.006110 -0.004819 -0.006279
vn -0.007505 -0.006039 -0.002684
vn 0.005023 0.007079 0.004965
vn 0.006366 0.006918 0.003409
vn 0.000125 -0.008195 0.005730
vn -0.005396 -0.007411 0.003994
vn -0.001592 -0.007179 -0.006777
vn 0.006366 -0.006918 0.003409
vn -0.006116 0.004737 -0.006336

vt 0.874494 0.419042
vt 0.907363 0.437722
vt 0.878417 0.473925
vt 0.680426 0.530379
vt 0.688188 0.498991
vt 0.705513 0.510559
vt 0.862180 0.591707
vt 0.900114 0.595629
vt 0.884809 0.619912
vt 0.736964 0.619181
vt 0.727807 0.594201
vt 0.753866 0.586418
vt 0.965549 0.524878
vt 0.913121 0.569280
vt 0.904334 0.528042
vt 0.866242 0.564902
vt 0.865978 0.520001
vt 0.692370 0.465503
vt 0.695110 0.433500
vt 0.718295 0.442891
vt 0.745206 0.556613
vt 0.718718 0.569161
vt 0.706390 0.549712
vt 0.780502 0.411531
vt 0.750387 0.406399
vt 0.759538 0.371947
vt 0.784777 0.461987
vt 0.773398 0.541579
vt 0.740563 0.497883
vt 0.746422 0.453693
vt 0.713897 0.486362
vt 0.719846 0.405375
vt 0.723052 0.365464
vt 0.723993 0.524933
vt 0.696863 0.533279
vt 0.826754 0.579644
vt 0.826061 0.606223
vt 0.790488 0.606530
vt 0.826727 0.488383
vt 0.828213 0.554580
vt 0.841633 0.397480
vt 0.830622 0.434511
vt 0.854367 0.614830
vt 0.850738 0.688951
vt 0.827573 0.679438
vt 0.797660 0.678322
vt 0.762660 0.612426
vt 0.772041 0.675988
vt 0.755149 0.677995
vt 0.688854 0.590702
vt 0.672883 0.570887
vt 0.670741 0.559230
vt 0.675473 0.542748
vt 0.720463 0.680803
vt 0.709939 0.623608
vt 0.753959 0.347671
vt 0.789747 0.353425
vt 0.785796 0.375932
vt 0.857484 0.376450
vt 0.889612 0.398946
vt 0.986271 0.490564
vt 0.940551 0.479133
vt 0.696081 0.407674
vt 0.697431 0.371064
vt 0.851228 0.451116
vt 0.960309 0.458091
vt 0.696850 0.339063
vt 0.906554 0.642801
vt 0.863546 0.715693
vt 0.923584 0.610865
vt 0.983131 0.536174
vt 0.935257 0.590531
vt 0.997691 0.502225
vt 0.786486 0.576707
vt 0.696497 0.324100
vt 0.727497 0.328745
vt 0.750017 0.330641
vt 0.725647 0.343833
vt 0.792456 0.338164
vt 0.867732 0.361098
vt 0.906561 0.379388
vt 0.950184 0.408735
vt 0.928335 0.423099
vt 0.986557 0.446926
vt 0.991775 0.454876
vt 0.843673 0.676516
vt 0.361855 0.563702
vt 0.380583 0.596200
vt 0.352593 0.617260
vt 0.543315 0.679287
vt 0.527307 0.681609
vt 0.519609 0.659326
vt 0.364470 0.733755
vt 0.371542 0.756617
vt 0.341673 0.761027
vt 0.486011 0.763903
vt 0.461156 0.756654
vt 0.470425 0.731564
vt 0.264111 0.664821
vt 0.290386 0.620014
vt 0.324767 0.669809
vt 0.362921 0.663143
vt 0.361214 0.707311
vt 0.509425 0.593398
vt 0.532143 0.585144
vt 0.533739 0.616126
vt 0.479698 0.702817
vt 0.501252 0.672693
vt 0.517590 0.697259
vt 0.472274 0.523172
vt 0.479700 0.556899
vt 0.450238 0.560704
vt 0.444298 0.609502
vt 0.481814 0.602849
vt 0.486026 0.645913
vt 0.512242 0.635615
vt 0.507845 0.518473
vt 0.509293 0.557105
vt 0.434181 0.750162
vt 0.399448 0.748917
vt 0.399509 0.722892
vt 0.402637 0.633640
vt 0.452725 0.687337
vt 0.400676 0.581055
vt 0.389910 0.545024
vt 0.380504 0.817145
vt 0.373979 0.830124
vt 0.425361 0.820025
vt 0.396150 0.820383
vt 0.466815 0.820760
vt 0.450401 0.818383
vt 0.505077 0.715772
vt 0.549465 0.718715
vt 0.551861 0.707492
vt 0.547749 0.691401
vt 0.500545 0.824358
vt 0.512207 0.768888
vt 0.495567 0.739845
vt 0.478823 0.499938
vt 0.506307 0.497514
vt 0.443920 0.503755
vt 0.446532 0.525914
vt 0.343139 0.539174
vt 0.325403 0.579695
vt 0.244394 0.630103
vt 0.271158 0.598337
vt 0.532276 0.525196
vt 0.304328 0.563952
vt 0.534264 0.493797
vt 0.532068 0.561222
vt 0.360942 0.857279
vt 0.319509 0.783480
vt 0.303168 0.751186
vt 0.326989 0.736573
vt 0.292085 0.730677
vt 0.246341 0.675552
vt 0.232729 0.641444
vt 0.536741 0.648651
vt 0.438916 0.721181
vt 0.505207 0.482903
vt 0.535281 0.479116
vt 0.483455 0.483704
vt 0.442191 0.488778
vt 0.376310 0.522123
vt 0.327608 0.519580
vt 0.282461 0.548839
vt 0.245118 0.586520
vt 0.250985 0.578200
vt 0.239725 0.594343
vt 0.533466 0.737470
vt 0.520679 0.751604
vt 0.398824 0.698309
vt 0.314655 0.710066
vt 0.367545 0.506141
vt 0.701655 0.605617
vt 0.980844 0.438518
s off
f 1/1/1 2/2/2 3/3/3
f 4/4/4 5/5/5 6/6/6
f 7/7/7 8/8/8 9/9/9
f 10/10/10 11/11/11 12/12/12
f 13/13/13 14/14/14 15/15/15
f 16/16/16 17/17/17 15/15/15
f 18/18/18 19/19/19 20/20/20
f 21/21/21 22/22/22 23/23/23
f 24/24/24 25/25/25 26/26/26
f 27/27/27 28/28/28 29/29/29
f 30/30/30 29/29/29 31/31/31
f 25/25/25 32/32/32 33/33/33
f 34/34/34 23/23/23 35/35/35
f 36/36/36 37/37/37 38/38/38
f 39/39/39 40/40/40 28/28/28
f 41/41/41 42/42/42 24/24/24
f 43/43/43 9/9/9 44/44/44
f 37/37/37 45/45/45 46/46/46
f 47/47/47 48/48/48 49/49/49
f 22/22/22 50/50/50 51/51/51
f 23/23/23 51/51/51 52/52/52
f 35/35/35 52/52/52 53/53/53
f 10/10/10 49/49/49 54/54/54
f 11/11/11 10/10/10 55/55/55
f 56/56/56 26/26/26 33/33/33
f 57/57/57 58/58/58 26/26/26
f 57/57/57 59/59/59 41/41/41
f 2/2/2 1/1/1 60/60/60
f 61/61/61 13/13/13 62/62/62
f 32/32/32 63/63/63 64/64/64
f 25/25/25 30/30/30 20/20/20
f 24/24/24 27/27/27 30/30/30
f 42/42/42 39/39/39 27/27/27
f 17/17/17 65/65/65 3/3/3
f 62/62/62 15/15/15 3/3/3
f 66/66/66 62/62/62 2/2/2
f 33/33/33 64/64/64 67/67/67
f 19/19/19 63/63/63 32/32/32
f 9/9/9 68/68/68 69/69/69
f 8/8/8 70/70/70 68/68/68
f 13/13/13 71/71/71 72/72/72
f 73/73/73 71/71/71 13/13/13
f 5/5/5 18/18/18 31/31/31
f 29/29/29 34/34/34 6/6/6
f 28/28/28 21/21/21 34/34/34
f 12/12/12 74/74/74 38/38/38
f 48/48/48 47/47/47 38/38/38
f 67/67/67 75/75/75 76/76/76
f 77/77/77 56/56/56 78/78/78
f 79/79/79 57/57/57 56/56/56
f 79/79/79 80/80/80 59/59/59
f 81/81/81 82/82/82 83/83/83
f 66/66/66 83/83/83 82/82/82
f 84/84/84 61/61/61 66/66/66
f 85/85/85 73/73/73 61/61/61
f 50/50/50 22/22/22 11/11/11
f 12/12/12 11/11/11 22/22/22
f 74/74/74 12/12/12 21/21/21
f 40/40/40 36/36/36 74/74/74
f 16/16/16 14/14/14 8/8/8
f 8/8/8 14/14/14 72/72/72
f 43/43/43 86/86/86 45/45/45
f 7/7/7 43/43/43 37/37/37
f 16/16/16 7/7/7 36/36/36
f 17/17/17 16/16/16 40/40/40
f 65/65/65 17/17/17 39/39/39
f 1/1/1 65/65/65 42/42/42
f 1/1/1 41/41/41 59/59/59
f 80/80/80 81/81/81 60/60/60
f 87/87/87 88/88/88 89/89/89
f 90/90/90 91/91/91 92/92/92
f 93/93/93 94/94/94 95/95/95
f 96/96/96 97/97/97 98/98/98
f 99/99/99 100/100/100 101/101/101
f 101/101/101 102/102/102 103/103/103
f 104/104/104 105/105/105 106/106/106
f 107/107/107 108/108/108 109/109/109
f 110/110/110 111/111/111 112/112/112
f 113/113/113 114/114/114 115/115/115
f 114/114/114 104/104/104 116/116/116
f 117/117/117 118/118/118 111/111/111
f 108/108/108 92/92/92 91/91/91
f 119/119/119 120/120/120 121/121/121
f 122/122/122 113/113/113 123/123/123
f 112/112/112 124/124/124 125/125/125
f 94/94/94 126/126/126 127/127/127
f 128/128/128 129/129/129 120/120/120
f 130/130/130 131/131/131 97/97/97
f 132/132/132 109/109/109 133/133/133
f 134/134/134 133/133/133 109/109/109
f 91/91/91 90/90/90 135/135/135
f 136/136/136 130/130/130 96/96/96
f 137/137/137 96/96/96 138/138/138
f 139/139/139 140/140/140 117/117/117
f 141/141/141 139/139/139 110/110/110
f 141/141/141 142/142/142 125/125/125
f 143/143/143 87/87/87 144/144/144
f 145/145/145 146/146/146 100/100/100
f 118/118/118 117/117/117 147/147/147
f 111/111/111 118/118/118 104/104/104
f 112/112/112 111/111/111 114/114/114
f 124/124/124 112/112/112 113/113/113
f 89/89/89 88/88/88 102/102/102
f 100/100/100 144/144/144 89/89/89
f 146/146/146 148/148/148 144/144/144
f 117/117/117 140/140/140 149/149/149
f 118/118/118 150/150/150 105/105/105
f 151/151/151 152/152/152 95/95/95
f 152/152/152 153/153/153 154/154/154
f 155/155/155 156/156/156 99/99/99
f 157/157/157 145/145/145 99/99/99
f 116/116/116 106/106/106 158/158/158
f 115/115/115 116/116/116 92/92/92
f 123/123/123 115/115/115 108/108/108
f 119/119/119 159/159/159 98/98/98
f 131/131/131 128/128/128 119/119/119
f 160/160/160 161/161/161 149/149/149
f 162/162/162 160/160/160 140/140/140
f 163/163/163 162/162/162 139/139/139
f 163/163/163 141/141/141 164/164/164
f 165/165/165 143/143/143 148/148/148
f 166/166/166 148/148/148 146/146/146
f 167/167/167 168/168/168 146/146/146
f 169/169/169 167/167/167 145/145/145
f 170/170/170 171/171/171 138/138/138
f 98/98/98 107/107/107 132/132/132
f 159/159/159 123/123/123 107/107/107
f 159/159/159 121/121/121 172/172/172
f 103/103/103 93/93/93 154/154/154
f 155/155/155 173/173/173 154/154/154
f 129/129/129 126/126/126 94/94/94
f 120/120/120 94/94/94 93/93/93
f 121/121/121 93/93/93 103/103/103
f 102/102/102 122/122/122 172/172/172
f 88/88/88 124/124/124 122/122/122
f 124/124/124 88/88/88 87/87/87
f 164/164/164 125/125/125 87/87/87
f 174/174/174 164/164/164 143/143/143
f 65/65/65 1/1/1 3/3/3
f 35/35/35 4/4/4 6/6/6
f 43/43/43 7/7/7 9/9/9
f 47/47/47 10/10/10 12/12/12
f 62/62/62 13/13/13 15/15/15
f 14/14/14 16/16/16 15/15/15
f 31/31/31 18/18/18 20/20/20
f 34/34/34 21/21/21 23/23/23
f 58/58/58 24/24/24 26/26/26
f 30/30/30 27/27/27 29/29/29
f 20/20/20 30/30/30 31/31/31
f 26/26/26 25/25/25 33/33/33
f 6/6/6 34/34/34 35/35/35
f 74/74/74 36/36/36 38/38/38
f 27/27/27 39/39/39 28/28/28
f 58/58/58 41/41/41 24/24/24
f 86/86/86 43/43/43 44/44/44
f 38/38/38 37/37/37 46/46/46
f 10/10/10 47/47/47 49/49/49
f 23/23/23 22/22/22 51/51/51
f 35/35/35 23/23/23 52/52/52
f 4/4/4 35/35/35 53/53/53
f 55/55/55 10/10/10 54/54/54
f 175/175/175 11/11/11 55/55/55
f 78/78/78 56/56/56 33/33/33
f 56/56/56 57/57/57 26/26/26
f 58/58/58 57/57/57 41/41/41
f 83/83/83 2/2/2 60/60/60
f 66/66/66 61/61/61 62/62/62
f 33/33/33 32/32/32 64/64/64
f 32/32/32 25/25/25 20/20/20
f 25/25/25 24/24/24 30/30/30
f 24/24/24 42/42/42 27/27/27
f 15/15/15 17/17/17 3/3/3
f 2/2/2 62/62/62 3/3/3
f 83/83/83 66/66/66 2/2/2
f 78/78/78 33/33/33 67/67/67
f 20/20/20 19/19/19 32/32/32
f 44/44/44 9/9/9 69/69/69
f 9/9/9 8/8/8 68/68/68
f 14/14/14 13/13/13 72/72/72
f 61/61/61 73/73/73 13/13/13
f 6/6/6 5/5/5 31/31/31
f 31/31/31 29/29/29 6/6/6
f 29/29/29 28/28/28 34/34/34
f 47/47/47 12/12/12 38/38/38
f 46/46/46 48/48/48 38/38/38
f 78/78/78 67/67/67 76/76/76
f 76/76/76 77/77/77 78/78/78
f 77/77/77 79/79/79 56/56/56
f 57/57/57 79/79/79 59/59/59
f 60/60/60 81/81/81 83/83/83
f 176/176/176 66/66/66 82/82/82
f 176/176/176 84/84/84 66/66/66
f 84/84/84 85/85/85 61/61/61
f 175/175/175 50/50/50 11/11/11
f 21/21/21 12/12/12 22/22/22
f 28/28/28 74/74/74 21/21/21
f 28/28/28 40/40/40 74/74/74
f 7/7/7 16/16/16 8/8/8
f 70/70/70 8/8/8 72/72/72
f 37/37/37 43/43/43 45/45/45
f 36/36/36 7/7/7 37/37/37
f 40/40/40 16/16/16 36/36/36
f 39/39/39 17/17/17 40/40/40
f 42/42/42 65/65/65 39/39/39
f 41/41/41 1/1/1 42/42/42
f 60/60/60 1/1/1 59/59/59
f 59/59/59 80/80/80 60/60/60
f 144/144/144 87/87/87 89/89/89
f 158/158/158 90/90/90 92/92/92
f 154/154/154 93/93/93 95/95/95
f 138/138/138 96/96/96 98/98/98
f 173/173/173 99/99/99 101/101/101
f 173/173/173 101/101/101 103/103/103
f 116/116/116 104/104/104 106/106/106
f 132/132/132 107/107/107 109/109/109
f 142/142/142 110/110/110 112/112/112
f 123/123/123 113/113/113 115/115/115
f 115/115/115 114/114/114 116/116/116
f 110/110/110 117/117/117 111/111/111
f 109/109/109 108/108/108 91/91/91
f 159/159/159 119/119/119 121/121/121
f 172/172/172 122/122/122 123/123/123
f 142/142/142 112/112/112 125/125/125
f 95/95/95 94/94/94 127/127/127
f 119/119/119 128/128/128 120/120/120
f 96/96/96 130/130/130 97/97/97
f 170/170/170 132/132/132 133/133/133
f 91/91/91 134/134/134 109/109/109
f 134/134/134 91/91/91 135/135/135
f 137/137/137 136/136/136 96/96/96
f 171/171/171 137/137/137 138/138/138
f 110/110/110 139/139/139 117/117/117
f 142/142/142 141/141/141 110/110/110
f 164/164/164 141/141/141 125/125/125
f 148/148/148 143/143/143 144/144/144
f 99/99/99 145/145/145 100/100/100
f 150/150/150 118/118/118 147/147/147
f 114/114/114 111/111/111 104/104/104
f 113/113/113 112/112/112 114/114/114
f 122/122/122 124/124/124 113/113/113
f 101/101/101 89/89/89 102/102/102
f 101/101/101 100/100/100 89/89/89
f 100/100/100 146/146/146 144/144/144
f 147/147/147 117/117/117 149/149/149
f 104/104/104 118/118/118 105/105/105
f 127/127/127 151/151/151 95/95/95
f 95/95/95 152/152/152 154/154/154
f 173/173/173 155/155/155 99/99/99
f 156/156/156 157/157/157 99/99/99
f 92/92/92 116/116/116 158/158/158
f 108/108/108 115/115/115 92/92/92
f 107/107/107 123/123/123 108/108/108
f 97/97/97 119/119/119 98/98/98
f 97/97/97 131/131/131 119/119/119
f 140/140/140 160/160/160 149/149/149
f 139/139/139 162/162/162 140/140/140
f 141/141/141 163/163/163 139/139/139
f 174/174/174 163/163/163 164/164/164
f 166/166/166 165/165/165 148/148/148
f 168/168/168 166/166/166 146/146/146
f 145/145/145 167/167/167 146/146/146
f 157/157/157 169/169/169 145/145/145
f 132/132/132 170/170/170 138/138/138
f 138/138/138 98/98/98 132/132/132
f 98/98/98 159/159/159 107/107/107
f 123/123/123 159/159/159 172/172/172
f 173/173/173 103/103/103 154/154/154
f 153/153/153 155/155/155 154/154/154
f 120/120/120 129/129/129 94/94/94
f 121/121/121 120/120/120 93/93/93
f 172/172/172 121/121/121 103/103/103
f 103/103/103 102/102/102 172/172/172
f 102/102/102 88/88/88 122/122/122
f 125/125/125 124/124/124 87/87/87
f 143/143/143 164/164/164 87/87/87
f 165/165/165 174/174/174 143/143/143
