# Exported using automatic converter by Erwin Coumans
mtllib LElbowRoll.mtl
#object LElbowRoll_JULIETTE_AV_BRAS_.069

v 0.087619 0.185197 0.289086
v 0.087650 0.272428 0.224203
v 0.051916 0.263848 0.214312
v 0.057447 0.175137 0.289164
v 0.051916 0.263848 0.214312
v 0.036167 0.243833 0.193125
v 0.036227 0.296959 0.106575
v 0.044696 0.211022 0.113489
v 0.036615 0.326227 -0.000492
v 0.045038 0.238074 -0.002231
v 0.036294 0.303077 -0.097339
v 0.045625 0.216935 -0.112546
v 0.036795 0.253507 -0.184510
v 0.038754 0.187582 -0.238393
v 0.046115 0.265806 -0.210854
v 0.082204 0.278063 -0.228115
v 0.087077 0.198490 -0.279556
v 0.054125 0.193517 -0.266967
v 0.559502 -0.323551 -0.111860
v 0.601821 -0.337670 -0.021020
v 0.566119 -0.341757 -0.020378
v 0.550221 -0.327202 0.095724
v 0.524915 -0.329137 0.085303
v 0.473348 -0.287603 0.194395
v 0.454942 -0.292480 0.179719
v 0.375143 -0.225197 0.267314
v 0.245748 -0.139343 0.315604
v 0.225924 -0.156819 0.299888
v 0.354495 -0.232385 0.256043
v 0.166744 -0.054453 0.331183
v 0.143965 -0.068722 0.320323
v 0.114122 0.051784 0.330971
v 0.083365 0.046186 0.323356
v 0.094258 0.116247 0.317638
v 0.063763 0.110837 0.309195
v 0.057447 0.175137 0.289164
v 0.084479 0.345666 0.118215
v 0.054497 0.337688 0.107933
v 0.085761 0.376284 -0.000698
v 0.055773 0.365612 -0.001517
v 0.084064 0.347248 -0.123027
v 0.046115 0.265806 -0.210854
v 0.091382 0.128171 -0.325014
v 0.059168 0.124274 -0.309267
v 0.136171 0.027003 -0.348740
v 0.097847 0.020788 -0.332452
v 0.180631 -0.067761 -0.343891
v 0.165662 -0.080162 -0.324530
v 0.287734 -0.135057 -0.332801
v 0.266411 -0.150573 -0.314067
v 0.400077 -0.207333 -0.294090
v 0.381143 -0.216488 -0.282791
v 0.477248 -0.284724 -0.197027
v 0.381143 -0.216488 -0.282791
v 0.400077 -0.207333 -0.294090
v 0.264577 -0.159523 -0.289400
v 0.266411 -0.150573 -0.314067
v 0.213492 -0.162247 0.266647
v 0.340597 -0.234371 0.225178
v 0.242362 -0.165866 0.124842
v 0.378883 -0.241479 0.101601
v 0.262431 -0.172496 -0.004963
v 0.270467 -0.171866 -0.140597
v 0.397280 -0.246548 -0.118355
v 0.375343 -0.225355 -0.254623
v 0.055773 0.365612 -0.001517
v 0.541374 -0.335690 -0.020788
v 0.521130 -0.319096 -0.103097
v 0.538537 -0.325318 -0.104261
v 0.410146 -0.257443 -0.006332
v 0.177397 -0.118884 0.004125
v 0.189530 -0.120801 -0.124744
v 0.075858 0.016905 -0.007597
v 0.076431 0.023091 -0.143453
v 0.053871 0.140810 -0.125985
v 0.052481 0.160172 -0.003767
v 0.441727 -0.289108 0.166414
v 0.509775 -0.323445 0.078861
v 0.130458 -0.080802 0.274879
v 0.147362 -0.099284 0.162188
v 0.065142 0.026137 0.282887
v 0.072480 0.016871 0.115074
v 0.043760 0.094660 0.266994
v 0.052181 0.135079 0.119598
v 0.039868 0.147573 0.246177
v 0.086860 0.010161 -0.298256
v 0.178615 -0.101547 -0.299863
v 0.097847 0.020788 -0.332452
v 0.165662 -0.080162 -0.324530
v 0.083365 0.046186 0.323356
v 0.044884 0.120978 -0.272048
v 0.054125 0.193517 -0.266967
v 0.063763 0.110837 0.309195
v 0.051412 0.334583 -0.116717
v 0.467537 -0.283478 -0.180133
v 0.059168 0.124274 -0.309267
v 0.054497 0.337688 0.107933
v 0.527692 -0.301162 -0.162456
v 0.495882 -0.278773 -0.213051
v 0.051412 0.334583 -0.116717
usemtl shiny_white

vn -0.001399 0.004950 0.008575
vn -0.001615 0.007130 0.006823
vn -0.006592 0.005414 0.005218
vn -0.006325 0.003270 0.007021
vn -0.006592 0.005414 0.005218
vn -0.009795 0.001380 0.001465
vn -0.009784 0.001862 0.000892
vn -0.009941 -0.000960 -0.000503
vn -0.009786 0.002055 0.000051
vn -0.009949 -0.001001 -0.000051
vn -0.009854 0.001605 -0.000569
vn -0.009932 -0.001078 0.000434
vn -0.009875 0.001127 -0.001104
vn -0.009860 0.000412 -0.001615
vn -0.007252 0.004817 -0.004919
vn -0.002245 0.007001 -0.006778
vn -0.002119 0.005154 -0.008303
vn -0.007080 0.003504 -0.006131
vn 0.000803 -0.009504 -0.003005
vn 0.001186 -0.009927 -0.000215
vn -0.000662 -0.009971 -0.000365
vn 0.000784 -0.009528 0.002930
vn -0.001421 -0.009774 0.001565
vn 0.000207 -0.008347 0.005502
vn -0.002159 -0.009247 0.003135
vn -0.000177 -0.006356 0.007718
vn -0.000721 -0.003600 0.009301
vn -0.003867 -0.006968 0.006041
vn -0.002563 -0.008292 0.004967
vn -0.001299 -0.002388 0.009623
vn -0.005295 -0.004590 0.007134
vn -0.001482 0.000016 0.009890
vn -0.006049 -0.001600 0.007800
vn -0.001389 0.002558 0.009567
vn -0.006460 0.000920 0.007577
vn -0.006325 0.003270 0.007021
vn -0.001703 0.008904 0.004221
vn -0.006475 0.007032 0.002935
vn -0.001616 0.009866 0.000222
vn -0.006488 0.007609 0.000042
vn -0.001926 0.009073 -0.003737
vn -0.007252 0.004817 -0.004919
vn -0.002219 0.002858 -0.009322
vn -0.007258 0.001072 -0.006795
vn -0.002062 -0.000406 -0.009776
vn -0.006910 -0.002798 -0.006665
vn -0.002088 -0.003204 -0.009239
vn -0.005826 -0.005799 -0.005694
vn -0.000704 -0.004568 -0.008868
vn -0.003622 -0.007351 -0.005730
vn 0.000080 -0.006462 -0.007631
vn -0.002511 -0.008080 -0.005330
vn -0.002069 -0.009057 -0.003699
vn -0.002511 -0.008080 -0.005330
vn 0.000080 -0.006462 -0.007631
vn -0.004872 -0.008466 -0.002140
vn -0.003622 -0.007351 -0.005730
vn -0.005728 -0.008077 0.001394
vn -0.004571 -0.008856 0.000818
vn -0.005455 -0.008367 -0.000487
vn -0.005135 -0.008556 -0.000649
vn -0.005210 -0.008530 -0.000286
vn -0.005206 -0.008527 -0.000443
vn -0.005020 -0.008638 -0.000425
vn -0.004355 -0.008793 -0.001925
vn -0.006488 0.007609 0.000042
vn -0.003799 -0.009239 -0.000440
vn -0.004107 -0.009063 -0.000992
vn -0.001408 -0.009651 -0.002209
vn -0.005091 -0.008600 -0.000345
vn -0.006798 -0.007323 -0.000400
vn -0.006650 -0.007458 -0.000385
vn -0.009170 -0.003973 -0.000346
vn -0.009045 -0.004264 -0.000061
vn -0.009854 -0.001671 0.000315
vn -0.009914 -0.001303 -0.000107
vn -0.004464 -0.008939 0.000397
vn -0.004173 -0.009087 0.000053
vn -0.007580 -0.006238 0.001904
vn -0.007331 -0.006790 -0.000392
vn -0.008999 -0.003665 0.002362
vn -0.009204 -0.003882 -0.000466
vn -0.009739 -0.001213 0.001915
vn -0.009879 -0.001450 -0.000549
vn -0.009882 0.000114 0.001529
vn -0.008706 -0.004599 -0.001746
vn -0.006359 -0.007458 -0.001982
vn -0.006910 -0.002798 -0.006665
vn -0.005826 -0.005799 -0.005694
vn -0.006049 -0.001600 0.007800
vn -0.009746 -0.001186 -0.001897
vn -0.007080 0.003504 -0.006131
vn -0.006460 0.000920 0.007577
vn -0.006913 0.006653 -0.002818
vn -0.004286 -0.008925 -0.001407
vn -0.007258 0.001072 -0.006795
vn -0.006475 0.007032 0.002935
vn 0.000467 -0.009101 -0.004116
vn 0.000413 -0.008172 -0.005748
vn -0.006913 0.006653 -0.002818

vt 0.438363 0.248879
vt 0.475944 0.254903
vt 0.478658 0.241794
vt 0.382532 0.138689
vt 0.367043 0.087800
vt 0.353007 0.093083
vt 0.326080 0.056253
vt 0.314466 0.093250
vt 0.286019 0.026274
vt 0.270777 0.063071
vt 0.241308 0.020036
vt 0.220985 0.054307
vt 0.196071 0.027108
vt 0.162764 0.047053
vt 0.186390 0.016892
vt 0.643671 0.289870
vt 0.673701 0.299525
vt 0.676100 0.287395
vt 0.135804 0.387155
vt 0.169633 0.413590
vt 0.170076 0.408384
vt 0.211478 0.388973
vt 0.208434 0.377967
vt 0.248346 0.363900
vt 0.243804 0.357148
vt 0.281564 0.333151
vt 0.316752 0.291705
vt 0.309429 0.285135
vt 0.277852 0.326075
vt 0.348072 0.265205
vt 0.342283 0.254863
vt 0.387818 0.251155
vt 0.387554 0.239454
vt 0.411903 0.247420
vt 0.412468 0.235901
vt 0.436985 0.237581
vt 0.520030 0.261634
vt 0.524200 0.250960
vt 0.561162 0.270459
vt 0.563830 0.259740
vt 0.602779 0.279714
vt 0.645871 0.275921
vt 0.699856 0.308485
vt 0.702730 0.296855
vt 0.728457 0.331905
vt 0.734262 0.319136
vt 0.753785 0.354720
vt 0.761578 0.350167
vt 0.764745 0.394444
vt 0.774166 0.389591
vt 0.778217 0.437552
vt 0.784618 0.433035
vt 0.100007 0.348901
vt 0.066202 0.286318
vt 0.056017 0.292752
vt 0.079713 0.225686
vt 0.068206 0.220910
vt 0.299930 0.278175
vt 0.269036 0.319288
vt 0.248818 0.267954
vt 0.224080 0.319665
vt 0.198274 0.260027
vt 0.142930 0.248277
vt 0.138803 0.311312
vt 0.080646 0.288416
vt 0.292895 0.007540
vt 0.171099 0.365652
vt 0.139990 0.368370
vt 0.139471 0.377024
vt 0.182259 0.323279
vt 0.214321 0.222808
vt 0.161187 0.210438
vt 0.233736 0.154138
vt 0.178517 0.132236
vt 0.203483 0.084564
vt 0.257585 0.095379
vt 0.240394 0.351646
vt 0.206935 0.370960
vt 0.324157 0.243922
vt 0.278895 0.232596
vt 0.350032 0.197707
vt 0.282880 0.172647
vt 0.356904 0.166811
vt 0.304278 0.125505
vt 0.358152 0.141894
vt 0.110778 0.117387
vt 0.089615 0.178833
vt 0.095389 0.110265
vt 0.081823 0.164776
vt 0.371194 0.202558
vt 0.138692 0.070660
vt 0.149762 0.039030
vt 0.378951 0.170491
vt 0.238241 0.001992
vt 0.108115 0.344303
vt 0.121402 0.064812
vt 0.334931 0.037978
vt 0.113086 0.372084
vt 0.090369 0.357014
vt 0.605514 0.267760
s off
f 1/1/1 2/2/2 3/3/3
f 4/4/4 5/5/5 6/6/6
f 6/6/6 7/7/7 8/8/8
f 7/7/7 9/9/9 10/10/10
f 11/11/11 12/12/12 10/10/10
f 13/13/13 14/14/14 12/12/12
f 14/14/14 13/13/13 15/15/15
f 16/16/16 17/17/17 18/18/18
f 19/19/19 20/20/20 21/21/21
f 22/22/22 23/23/23 21/21/21
f 24/24/24 25/25/25 23/23/23
f 25/25/25 24/24/24 26/26/26
f 27/27/27 28/28/28 29/29/29
f 30/30/30 31/31/31 28/28/28
f 32/32/32 33/33/33 31/31/31
f 34/34/34 35/35/35 33/33/33
f 34/34/34 1/1/1 36/36/36
f 3/3/3 2/2/2 37/37/37
f 38/38/38 37/37/37 39/39/39
f 40/40/40 39/39/39 41/41/41
f 41/41/41 16/16/16 42/42/42
f 17/17/17 43/43/43 44/44/44
f 43/43/43 45/45/45 46/46/46
f 45/45/45 47/47/47 48/48/48
f 47/47/47 49/49/49 50/50/50
f 49/49/49 51/51/51 52/52/52
f 53/53/53 54/54/54 55/55/55
f 56/56/56 57/57/57 54/54/54
f 28/28/28 58/58/58 59/59/59
f 59/59/59 58/58/58 60/60/60
f 61/61/61 60/60/60 62/62/62
f 62/62/62 63/63/63 64/64/64
f 65/65/65 64/64/64 63/63/63
f 11/11/11 9/9/9 66/66/66
f 67/67/67 68/68/68 69/69/69
f 70/70/70 64/64/64 68/68/68
f 62/62/62 71/71/71 72/72/72
f 73/73/73 74/74/74 72/72/72
f 75/75/75 74/74/74 73/73/73
f 12/12/12 75/75/75 76/76/76
f 7/7/7 6/6/6 5/5/5
f 25/25/25 77/77/77 78/78/78
f 77/77/77 59/59/59 61/61/61
f 58/58/58 79/79/79 80/80/80
f 81/81/81 82/82/82 80/80/80
f 83/83/83 84/84/84 82/82/82
f 85/85/85 8/8/8 84/84/84
f 82/82/82 73/73/73 71/71/71
f 74/74/74 86/86/86 87/87/87
f 86/86/86 88/88/88 89/89/89
f 31/31/31 90/90/90 81/81/81
f 8/8/8 10/10/10 76/76/76
f 14/14/14 91/91/91 75/75/75
f 91/91/91 14/14/14 92/92/92
f 93/93/93 4/4/4 85/85/85
f 87/87/87 89/89/89 57/57/57
f 28/28/28 31/31/31 79/79/79
f 60/60/60 80/80/80 71/71/71
f 56/56/56 63/63/63 72/72/72
f 13/13/13 11/11/11 94/94/94
f 91/91/91 86/86/86 74/74/74
f 95/95/95 68/68/68 64/64/64
f 68/68/68 95/95/95 53/53/53
f 90/90/90 93/93/93 83/83/83
f 84/84/84 76/76/76 73/73/73
f 86/86/86 91/91/91 96/96/96
f 9/9/9 7/7/7 97/97/97
f 25/25/25 29/29/29 59/59/59
f 67/67/67 21/21/21 23/23/23
f 53/53/53 95/95/95 65/65/65
f 78/78/78 61/61/61 70/70/70
f 98/98/98 69/69/69 53/53/53
f 19/19/19 69/69/69 98/98/98
f 98/98/98 53/53/53 99/99/99
f 36/36/36 1/1/1 3/3/3
f 85/85/85 4/4/4 6/6/6
f 85/85/85 6/6/6 8/8/8
f 8/8/8 7/7/7 10/10/10
f 9/9/9 11/11/11 10/10/10
f 11/11/11 13/13/13 12/12/12
f 92/92/92 14/14/14 15/15/15
f 42/42/42 16/16/16 18/18/18
f 69/69/69 19/19/19 21/21/21
f 20/20/20 22/22/22 21/21/21
f 22/22/22 24/24/24 23/23/23
f 29/29/29 25/25/25 26/26/26
f 26/26/26 27/27/27 29/29/29
f 27/27/27 30/30/30 28/28/28
f 30/30/30 32/32/32 31/31/31
f 32/32/32 34/34/34 33/33/33
f 35/35/35 34/34/34 36/36/36
f 38/38/38 3/3/3 37/37/37
f 40/40/40 38/38/38 39/39/39
f 100/100/100 40/40/40 41/41/41
f 100/100/100 41/41/41 42/42/42
f 18/18/18 17/17/17 44/44/44
f 44/44/44 43/43/43 46/46/46
f 46/46/46 45/45/45 48/48/48
f 48/48/48 47/47/47 50/50/50
f 50/50/50 49/49/49 52/52/52
f 99/99/99 53/53/53 55/55/55
f 65/65/65 56/56/56 54/54/54
f 29/29/29 28/28/28 59/59/59
f 61/61/61 59/59/59 60/60/60
f 70/70/70 61/61/61 62/62/62
f 70/70/70 62/62/62 64/64/64
f 56/56/56 65/65/65 63/63/63
f 94/94/94 11/11/11 66/66/66
f 21/21/21 67/67/67 69/69/69
f 67/67/67 70/70/70 68/68/68
f 63/63/63 62/62/62 72/72/72
f 71/71/71 73/73/73 72/72/72
f 76/76/76 75/75/75 73/73/73
f 10/10/10 12/12/12 76/76/76
f 97/97/97 7/7/7 5/5/5
f 23/23/23 25/25/25 78/78/78
f 78/78/78 77/77/77 61/61/61
f 60/60/60 58/58/58 80/80/80
f 79/79/79 81/81/81 80/80/80
f 81/81/81 83/83/83 82/82/82
f 83/83/83 85/85/85 84/84/84
f 80/80/80 82/82/82 71/71/71
f 72/72/72 74/74/74 87/87/87
f 87/87/87 86/86/86 89/89/89
f 79/79/79 31/31/31 81/81/81
f 84/84/84 8/8/8 76/76/76
f 12/12/12 14/14/14 75/75/75
f 96/96/96 91/91/91 92/92/92
f 83/83/83 93/93/93 85/85/85
f 56/56/56 87/87/87 57/57/57
f 58/58/58 28/28/28 79/79/79
f 62/62/62 60/60/60 71/71/71
f 87/87/87 56/56/56 72/72/72
f 15/15/15 13/13/13 94/94/94
f 75/75/75 91/91/91 74/74/74
f 65/65/65 95/95/95 64/64/64
f 69/69/69 68/68/68 53/53/53
f 81/81/81 90/90/90 83/83/83
f 82/82/82 84/84/84 73/73/73
f 88/88/88 86/86/86 96/96/96
f 66/66/66 9/9/9 97/97/97
f 77/77/77 25/25/25 59/59/59
f 78/78/78 67/67/67 23/23/23
f 54/54/54 53/53/53 65/65/65
f 67/67/67 78/78/78 70/70/70
