# File produced by Open Asset Import Library (http://www.assimp.sf.net)
# (assimp v3.2.0)

mtllib RElbowRoll.mtl

# 135 vertex positions
v  0.0876194 -0.185197 0.289086
v  0.0574473 -0.175137 0.289164
v  0.0519159 -0.263848 0.214312
v  0.0398682 -0.147573 0.246177
v  0.0361669 -0.243833 0.193125
v  0.044696 -0.211022 0.113489
v  0.0362266 -0.296959 0.106575
v  0.0450377 -0.238074 -0.00223069
v  0.0366147 -0.326227 -0.000492477
v  0.0456248 -0.216935 -0.112546
v  0.0362938 -0.303077 -0.0973392
v  0.0387544 -0.187582 -0.238393
v  0.0367949 -0.253507 -0.18451
v  0.0541249 -0.193517 -0.266967
v  0.0461153 -0.265806 -0.210854
v  0.0870766 -0.19849 -0.279556
v  0.0822043 -0.278063 -0.228115
v  0.566119 0.341757 -0.0203778
v  0.601821 0.33767 -0.0210196
v  0.559502 0.323551 -0.11186
v  0.550221 0.327202 0.0957239
v  0.473348 0.287603 0.194395
v  0.524915 0.329137 0.0853025
v  0.454942 0.29248 0.179719
v  0.354495 0.232385 0.256043
v  0.375143 0.225197 0.267314
v  0.225924 0.156819 0.299888
v  0.245748 0.139343 0.315604
v  0.143965 0.0687217 0.320323
v  0.166744 0.0544532 0.331183
v  0.0833651 -0.0461863 0.323356
v  0.114122 -0.0517839 0.330971
v  0.0637629 -0.110837 0.309195
v  0.0942582 -0.116247 0.317638
v  0.0544975 -0.337688 0.107933
v  0.0844791 -0.345666 0.118215
v  0.0557729 -0.365612 -0.00151727
v  0.0857606 -0.376284 -0.000698233
v  0.0514122 -0.334583 -0.116717
v  0.0840636 -0.347248 -0.123027
v  0.0591675 -0.124274 -0.309267
v  0.0913821 -0.128171 -0.325014
v  0.0978474 -0.0207884 -0.332452
v  0.136171 -0.0270025 -0.34874
v  0.165662 0.0801623 -0.32453
v  0.180631 0.0677607 -0.343891
v  0.266411 0.150573 -0.314067
v  0.287734 0.135057 -0.332801
v  0.381143 0.216488 -0.282791
v  0.400077 0.207333 -0.29409
v  0.477248 0.284724 -0.197027
v  0.264577 0.159523 -0.2894
v  0.340597 0.234371 0.225178
v  0.213492 0.162247 0.266647
v  0.378883 0.241479 0.101601
v  0.242362 0.165866 0.124842
v  0.410146 0.257443 -0.0063318
v  0.262431 0.172496 -0.00496342
v  0.39728 0.246548 -0.118355
v  0.270467 0.171866 -0.140597
v  0.375343 0.225355 -0.254623
v  0.541374 0.33569 -0.0207879
v  0.538537 0.325318 -0.104261
v  0.52113 0.319096 -0.103097
v  0.18953 0.120801 -0.124744
v  0.177397 0.118884 0.00412513
v  0.0764313 -0.0230909 -0.143453
v  0.0758583 -0.0169049 -0.00759678
v  0.0538708 -0.14081 -0.125985
v  0.0524807 -0.160172 -0.00376692
v  0.509775 0.323445 0.0788608
v  0.441727 0.289108 0.166414
v  0.147362 0.0992842 0.162188
v  0.0724797 -0.0168705 0.115074
v  0.0651423 -0.026137 0.282887
v  0.0521807 -0.135079 0.119598
v  0.0437597 -0.0946597 0.266994
v  0.178615 0.101547 -0.299863
v  0.0868604 -0.0101614 -0.298256
v  0.130458 0.080802 0.274879
v  0.0448835 -0.120978 -0.272048
v  0.467537 0.283478 -0.180133
v  0.527692 0.301162 -0.162456
v  0.495882 0.278773 -0.213051
v  0.0876496 -0.272428 0.224203
v  0.849512 -0.168628 0.251604
v  0.471882 -0.185848 0.297708
v  0.478766 -0.249825 0.24962
v  0.603 -0.224389 -0.265346
v  0.849512 -0.168629 -0.249466
v  0.849512 -0.214288 -0.211993
v  0.472885 -0.36475 0.0258351
v  0.473032 -0.346664 -0.10388
v  0.849512 -0.296753 -0.0577141
v  0.809537 0.0533413 -0.308037
v  0.849512 0.0575581 -0.294457
v  0.849512 -0.00122596 -0.300246
v  0.577596 0.035133 0.304876
v  0.525836 -0.0154919 0.342736
v  0.849512 -0.00122558 0.302385
v  0.72367 -0.109323 -0.310932
v  0.483461 -0.131083 0.322334
v  0.835129 0.133016 -0.276445
v  0.849512 0.114082 -0.27731
v  0.653592 0.113042 0.300022
v  0.849512 0.0575585 0.296595
v  0.849511 0.30009 0.00106959
v  0.795925 0.289922 0.102696
v  0.849511 0.277154 0.116378
v  0.529746 -0.285259 -0.212442
v  0.849511 0.211837 -0.211993
v  0.849511 0.294301 -0.0577144
v  0.472556 -0.330458 0.13947
v  0.747579 0.253512 0.186969
v  0.780884 -0.0192594 -0.318335
v  0.71128 0.182733 0.265265
v  0.849511 0.277154 -0.114239
v  0.849511 0.249308 -0.166332
v  0.849511 0.249308 0.168471
v  0.849511 0.211837 0.214132
v  0.849512 0.114083 0.279449
v  0.849512 0.166177 0.251604
v  0.849512 -0.0600096 0.296595
v  0.849512 -0.116534 0.279449
v  0.849512 -0.251759 0.168472
v  0.849512 -0.279606 0.116378
v  0.849512 -0.214288 0.214132
v  0.849512 -0.296753 0.0598534
v  0.849512 -0.302541 0.0010694
v  0.849512 -0.279606 -0.114239
v  0.849512 -0.25176 -0.166333
v  0.849512 -0.06001 -0.294457
v  0.849512 -0.116534 -0.27731
v  0.849512 0.166177 -0.249465
v  0.849512 -0.0107589 -0.000826917

# 159 UV coordinates
vt 0.438363 0.248879 0
vt 0.436985 0.237581 0
vt 0.478658 0.241794 0
vt 0.382532 0.138689 0
vt 0.358152 0.141894 0
vt 0.353007 0.093083 0
vt 0.314466 0.09325 0
vt 0.32608 0.0562529 0
vt 0.270777 0.063071 0
vt 0.286019 0.026274 0
vt 0.220985 0.054307 0
vt 0.241308 0.020036 0
vt 0.162764 0.047053 0
vt 0.196071 0.027108 0
vt 0.149762 0.0390299 0
vt 0.18639 0.016892 0
vt 0.6761 0.287395 0
vt 0.673701 0.299525 0
vt 0.643671 0.28987 0
vt 0.170076 0.408384 0
vt 0.169633 0.41359 0
vt 0.135804 0.387155 0
vt 0.211478 0.388973 0
vt 0.248346 0.3639 0
vt 0.208434 0.377967 0
vt 0.243804 0.357148 0
vt 0.277852 0.326075 0
vt 0.281564 0.333151 0
vt 0.309429 0.285135 0
vt 0.316752 0.291705 0
vt 0.342283 0.254863 0
vt 0.348072 0.265205 0
vt 0.387554 0.239454 0
vt 0.387818 0.251155 0
vt 0.412468 0.235901 0
vt 0.411903 0.24742 0
vt 0.5242 0.25096 0
vt 0.52003 0.261634 0
vt 0.56383 0.25974 0
vt 0.561162 0.270459 0
vt 0.605514 0.26776 0
vt 0.602779 0.279714 0
vt 0.645871 0.275921 0
vt 0.70273 0.296855 0
vt 0.699856 0.308485 0
vt 0.734262 0.319136 0
vt 0.728457 0.331905 0
vt 0.761578 0.350167 0
vt 0.753785 0.35472 0
vt 0.774166 0.389591 0
vt 0.764745 0.394444 0
vt 0.784618 0.433035 0
vt 0.778217 0.437552 0
vt 0.056017 0.292752 0
vt 0.066202 0.286318 0
vt 0.100007 0.348901 0
vt 0.068206 0.22091 0
vt 0.079713 0.225686 0
vt 0.269036 0.319288 0
vt 0.29993 0.278175 0
vt 0.22408 0.319665 0
vt 0.248818 0.267954 0
vt 0.182259 0.323279 0
vt 0.198274 0.260027 0
vt 0.138803 0.311312 0
vt 0.14293 0.248277 0
vt 0.080646 0.288416 0
vt 0.238241 0.00199199 0
vt 0.292895 0.00753999 0
vt 0.171099 0.365652 0
vt 0.139471 0.377024 0
vt 0.13999 0.36837 0
vt 0.161187 0.210438 0
vt 0.214321 0.222808 0
vt 0.178517 0.132236 0
vt 0.233736 0.154138 0
vt 0.203483 0.084564 0
vt 0.257585 0.095379 0
vt 0.334931 0.037978 0
vt 0.367043 0.0878 0
vt 0.206935 0.37096 0
vt 0.240394 0.351646 0
vt 0.278895 0.232596 0
vt 0.28288 0.172647 0
vt 0.350032 0.197707 0
vt 0.304278 0.125505 0
vt 0.356904 0.166811 0
vt 0.089615 0.178833 0
vt 0.110778 0.117387 0
vt 0.081823 0.164776 0
vt 0.095389 0.110265 0
vt 0.324157 0.243922 0
vt 0.138692 0.07066 0
vt 0.121402 0.064812 0
vt 0.378951 0.170491 0
vt 0.108115 0.344303 0
vt 0.371194 0.202558 0
vt 0.113086 0.372084 0
vt 0.090369 0.357014 0
vt 0.475944 0.254903 0
vt 0.410479 0.468176 0
vt 0.420415 0.377248 0
vt 0.445832 0.383039 0
vt 0.621683 0.459147 0
vt 0.607202 0.525644 0
vt 0.585459 0.504264 0
vt 0.527417 0.394219 0
vt 0.568516 0.402647 0
vt 0.548554 0.48564 0
vt 0.690668 0.548626 0
vt 0.677618 0.59236 0
vt 0.657284 0.578991 0
vt 0.340174 0.406636 0
vt 0.361261 0.389306 0
vt 0.351698 0.478014 0
vt 0.607202 0.525644 0
vt 0.649052 0.507199 0
vt 0.400624 0.378841 0
vt 0.713784 0.565187 0
vt 0.697402 0.605191 0
vt 0.312319 0.430223 0
vt 0.33329 0.489244 0
vt 0.177988 0.555947 0
vt 0.215814 0.479378 0
vt 0.21603 0.548748 0
vt 0.602903 0.429718 0
vt 0.733228 0.572241 0
vt 0.172847 0.497326 0
vt 0.136164 0.498198 0
vt 0.489764 0.387626 0
vt 0.248379 0.460924 0
vt 0.671195 0.532914 0
vt 0.285111 0.448583 0
vt 0.799359 0.479447 0
vt 0 0 0
vt 0 1 0
vt 1 1 0
vt 1 0 0
vt 0.233719 0.541379 0
vt 0.2653 0.528567 0
vt 0.251408 0.53401 0
vt 0.293712 0.514962 0
vt 0.279193 0.523125 0
vt 0.308232 0.5068 0
vt 0.300972 0.510881 0
vt 0.371805 0.473782 0
vt 0.391911 0.46955 0
vt 0.454088 0.471574 0
vt 0.475235 0.472823 0
vt 0.432942 0.470326 0
vt 0.494011 0.475922 0
vt 0.512788 0.479021 0
vt 0.560855 0.491848 0
vt 0.573157 0.498056 0
vt 0.64375 0.566145 0
vt 0.630216 0.553299 0
vt 0.715315 0.588716 0
vt 0.308232 0.5068 0
vt 0.75527 0.582624 0

# 185 vertex normals
vn -0.00139927 -0.0049501 0.00857509
vn -0.00242744 -0.00442335 0.00863338
vn -0.00323191 -0.00690054 0.00647572
vn -0.00924833 -0.00122593 0.00360057
vn -0.00988159 -0.000114444 0.00152867
vn -0.00979522 -0.00137974 0.00146489
vn -0.00994079 0.000960112 -0.000502945
vn -0.00994629 0.000946989 -0.000416577
vn -0.00994934 0.00100101 -5.12707e-05
vn -0.00994934 0.00100345 -3.57062e-05
vn -0.00993225 0.00107761 0.000433668
vn -0.00985351 -0.00160466 -0.00056917
vn -0.00989563 0.00121281 0.000777306
vn -0.00987457 -0.00112674 -0.00110416
vn -0.00914274 -0.00182043 -0.00361797
vn -0.00912748 -0.00167058 -0.00372784
vn -0.00924772 -0.00252266 -0.00284829
vn -0.00427839 -0.00480819 -0.00765343
vn -0.0021192 -0.00515397 -0.00830317
vn -0.00224494 -0.00700095 -0.00677786
vn -0.000662252 0.00997131 -0.000365001
vn 0.00118595 0.00992706 -0.00021485
vn 0.000802637 0.00950377 -0.00300455
vn 0.000783715 0.00952849 0.00293039
vn 0.000206915 0.00834742 0.00550249
vn -0.00142125 0.00977386 0.00156468
vn -0.00215918 0.00924711 0.00313456
vn -0.00256294 0.00829188 0.00496689
vn -0.000177007 0.00635609 0.00771783
vn -0.00186224 0.00524644 0.00830683
vn -0.000720847 0.00360027 0.00930143
vn -0.00260109 0.00281533 0.00923612
vn -0.00129917 0.00238807 0.0096231
vn -0.00274361 -4.69983e-05 0.00961608
vn -0.00148167 -1.64795e-05 0.00988952
vn -0.00239631 -0.00225562 0.00944273
vn -0.00138859 -0.00255776 0.00956694
vn -0.00345653 -0.00861629 0.00371563
vn -0.00170293 -0.00890408 0.00422071
vn -0.00352031 -0.00935972 1.22074e-06
vn -0.00161626 -0.00986572 0.000221869
vn -0.00406018 -0.00836451 -0.00368053
vn -0.00192602 -0.00907315 -0.00373699
vn -0.00450728 -0.00637104 -0.00625202
vn -0.0042082 -0.00294473 -0.00857997
vn -0.002219 -0.00285836 -0.00932188
vn -0.00437391 0.00102939 -0.00893338
vn -0.00206244 0.00040559 -0.0097763
vn -0.00582568 0.00579882 -0.00569445
vn -0.00390057 0.004579 -0.00798822
vn -0.00362194 0.0073513 -0.00573015
vn -0.000704062 0.00456771 -0.00886776
vn -0.00251076 0.00807978 -0.00532975
vn 7.99584e-05 0.00646199 -0.00763115
vn -0.00206854 0.00905728 -0.00369915
vn -0.00487228 0.00846644 -0.00213965
vn -0.00457076 0.00885617 0.000818201
vn -0.00572771 0.00807733 0.00139409
vn -0.00533891 0.00782342 0.00320719
vn -0.00513474 0.00855617 -0.000649434
vn -0.00545488 0.00836665 -0.000487075
vn -0.0050911 0.00859981 -0.000345164
vn -0.00521043 0.00853023 -0.000285653
vn -0.00501999 0.00863796 -0.000425122
vn -0.00520554 0.00852657 -0.000442823
vn -0.0043553 0.0087933 -0.00192541
vn -0.00919889 -0.00366588 -0.00139225
vn -0.00907926 -0.00418958 8.45361e-05
vn -0.00379894 0.00923948 -0.000440382
vn -0.00140843 0.00965056 -0.00220893
vn -0.00410718 0.00906339 -0.000991851
vn -0.00665029 0.00745781 -0.000385143
vn -0.00679769 0.00732322 -0.000400402
vn -0.00904508 0.00426405 -6.10369e-05
vn -0.0091699 0.00397321 -0.000346079
vn -0.00985412 0.00167089 0.000315256
vn -0.00991394 0.00130344 -0.000107425
vn -0.00891598 -0.00409497 0.0019306
vn -0.00896176 -0.00414136 0.00159123
vn -0.00908628 -0.00291055 0.00299356
vn -0.0041731 0.00908719 5.31018e-05
vn -0.00446364 0.00893948 0.000397351
vn -0.00733055 0.00679006 -0.000392163
vn -0.00920377 0.00388165 -0.000466017
vn -0.00899899 0.00366527 0.00236152
vn -0.00987884 0.00144993 -0.000549333
vn -0.00973937 0.00121311 0.00191534
vn -0.00635945 0.00745811 -0.00198187
vn -0.00870632 0.00459853 -0.00174627
vn -0.00844691 0.00417463 -0.0033488
vn -0.00713126 0.00564806 0.00415204
vn -0.00757958 0.00623829 0.00190435
vn -0.00974609 0.00118625 -0.00189734
vn -0.0091818 0.00103366 -0.00382397
vn -0.00901975 0.000532548 0.00428419
vn -0.00428602 0.00892453 -0.0014066
vn -0.00831782 0.00296762 0.004691
vn -0.00907865 -0.0041908 0.000112918
vn 0.000467238 0.00910123 -0.00411634
vn 0.000412915 0.00817225 -0.00574816
vn -0.00161473 -0.00713004 0.00682302
vn 0.00127262 -0.00530381 0.0083813
vn 0.000464186 -0.00512803 0.00857234
vn 0.00062746 -0.00711142 0.00700186
vn 0.000958891 -0.00583758 -0.00806207
vn 0.00179235 -0.00598163 -0.0078103
vn 0.0017423 -0.00731162 -0.00659535
vn 0.000862148 -0.00994018 0.000669881
vn 0.000771202 -0.00942289 -0.00325724
vn 0.00155156 -0.00967132 -0.00201269
vn 0.00174871 0.00144963 -0.00973846
vn 0.00281228 0.00178411 -0.009429
vn 0.00272652 -5.58484e-05 -0.00962066
vn 0.000492874 0.00205725 0.00977355
vn 0.000450148 0.000331736 0.00998413
vn 0.000925931 0.00134709 0.00986541
vn 0.00118259 -0.00342082 -0.00932157
vn 0.00046968 -0.0031373 0.00948332
vn 0.00261818 0.00387921 -0.00883694
vn 0.0034019 0.00308756 -0.0088818
vn 0.000726951 0.00264443 0.00961638
vn 0.000550554 0.0023484 0.00970458
vn 0.00150609 0.00988525 9.21655e-05
vn 0.0013535 0.0094351 0.00302347
vn 0.00140171 0.00925382 0.00352123
vn 0.000768151 -0.00769768 -0.00633625
vn 0.0012244 0.00614978 -0.00778954
vn 0.00145176 0.00952879 -0.00266304
vn 0.000726035 -0.00896847 0.00436262
vn 0.00127842 0.00795862 0.00591784
vn 0.000584429 0.00100192 -0.00993225
vn 0.00150883 -0.000645466 -0.00986419
vn 0.00183355 0.00478591 0.00858638
vn 0.0013947 0.00895871 -0.00421796
vn 0.00136143 0.00797845 -0.00587268
vn 0.00114933 0.00819666 0.00561144
vn 0.00298196 0.00216742 0.00929533
vn 0.000717184 0.0077102 0.0063274
vn 0.000737937 0.00310099 0.00947813
vn 0.000468154 0.00572893 0.00818262
vn 0.000189214 0.00634266 0.00772851
vn 0.00123905 -0.00195044 0.0097293
vn 0.00124332 -0.00369915 0.00920682
vn 0.00138615 -0.00821161 0.00553575
vn 0.00146458 -0.00913999 0.00378277
vn 0.00131779 -0.00689963 0.00711722
vn 0.00156682 -0.00967162 0.00200018
vn 0.00159551 -0.00986999 -0.000183111
vn 0.00155644 -0.00916532 -0.00368389
vn 0.00160832 -0.00831385 -0.00531877
vn 0.00240577 -0.00201849 -0.009494
vn 0.00204077 -0.00404584 -0.00891415
vn -0.000126041 0.00634327 -0.00772942
vn 0.00493545 0.00409955 -0.00766991
vn 0.01 2.37636e-09 -4.44588e-09
vn 0.01 2.6039e-08 0
vn 0.01 1.50007e-09 4.945e-09
vn 0.01 3.6189e-08 -2.04283e-08
vn 0.01 1.76111e-08 5.34242e-09
vn 0.01 1.82916e-08 -1.80121e-09
vn 0.01 1.75445e-08 -5.32231e-09
vn 0.01 1.61105e-08 -8.61165e-09
vn 0.01 3.6393e-08 2.02611e-08
vn 0.01 1.48185e-09 -4.88497e-09
vn 0.01 2.6038e-08 0
vn 0.01 2.35036e-09 4.39731e-09
vn 0.01 3.4654e-08 -2.16882e-08
vn 0.01 1.52343e-08 8.1433e-09
vn 0.01 2.42768e-08 1.11389e-08
vn 0.01 1.7191e-08 -1.69283e-09
vn 0.01 2.4364e-08 -1.10327e-08
vn 0.01 1.62096e-08 8.66462e-09
vn 0.01 1.65693e-08 -5.02639e-09
vn 0.01 3.44462e-08 2.18586e-08
vn 0.01 1.71598e-08 3.4132e-09
vn 0.01 1.53228e-08 -8.19074e-09
vn 0.01 1.45491e-09 4.79616e-09
vn 0.01 1.47246e-09 -4.85402e-09
vn 0.01 2.42148e-09 -4.53035e-09
vn 0.01 2.44904e-09 4.58195e-09
vn 0.01 2.58772e-08 0
vn 0.01 2.58762e-08 0
vn 0.01 1.8315e-08 1.80351e-09
vn 0.01 2.52813e-08 -9.91505e-09
vn 0.01 2.5362e-08 9.81657e-09

# Mesh 'RElbowRoll_JULIETTE_AV_BRAS_.027' with 145 faces
g RElbowRoll_JULIETTE_AV_BRAS_.027
usemtl shiny_white
f  1/1/1 2/2/2 3/3/3
f  2/4/4 4/5/5 5/6/6
f  6/7/7 7/8/8 5/6/6
f  8/9/9 9/10/10 7/8/8
f  8/9/9 10/11/11 11/12/12
f  10/11/11 12/13/13 13/14/14
f  12/13/15 14/15/16 15/16/17
f  14/17/18 16/18/19 17/19/20
f  18/20/21 19/21/22 20/22/23
f  21/23/24 19/21/22 18/20/21
f  22/24/25 21/23/24 23/25/26
f  24/26/27 25/27/28 26/28/29
f  25/27/28 27/29/30 28/30/31
f  27/29/30 29/31/32 30/32/33
f  29/31/32 31/33/34 32/34/35
f  31/33/34 33/35/36 34/36/37
f  34/36/37 33/35/36 2/2/2
f  3/3/3 35/37/38 36/38/39
f  35/37/38 37/39/40 38/40/41
f  37/39/40 39/41/42 40/42/43
f  15/43/44 17/19/20 40/42/43
f  41/44/45 42/45/46 16/18/19
f  43/46/47 44/47/48 42/45/46
f  45/48/49 46/49/50 44/47/48
f  47/50/51 48/51/52 46/49/50
f  49/52/53 50/53/54 48/51/52
f  50/54/54 49/55/53 51/56/55
f  49/55/53 47/57/51 52/58/56
f  53/59/57 54/60/58 27/29/59
f  53/59/57 55/61/60 56/62/61
f  55/61/60 57/63/62 58/64/63
f  59/65/64 60/66/65 58/64/63
f  61/67/66 52/58/56 60/66/65
f  11/12/12 39/68/67 37/69/68
f  62/70/69 18/20/21 63/71/70
f  57/63/62 62/70/69 64/72/71
f  65/73/72 66/74/73 58/64/63
f  65/73/72 67/75/74 68/76/75
f  68/76/75 67/75/74 69/77/76
f  70/78/77 69/77/76 10/11/11
f  7/8/78 35/79/79 3/80/80
f  24/26/27 23/25/26 71/81/81
f  55/61/60 53/59/57 72/82/82
f  54/60/58 56/62/61 73/83/83
f  73/83/83 74/84/84 75/85/85
f  74/84/84 76/86/86 77/87/87
f  76/86/86 6/7/7 4/5/5
f  66/74/73 68/76/75 74/84/84
f  78/88/88 79/89/89 67/75/74
f  45/90/49 43/91/90 79/89/89
f  29/31/91 80/92/92 75/85/85
f  70/78/77 8/9/9 6/7/7
f  69/77/76 81/93/93 12/13/13
f  81/93/93 41/94/94 14/15/16
f  33/95/95 77/87/87 4/5/5
f  47/57/51 45/90/49 78/88/88
f  27/29/59 54/60/58 80/92/92
f  56/62/61 58/64/63 66/74/73
f  52/58/56 78/88/88 65/73/72
f  13/14/14 15/16/17 39/68/67
f  67/75/74 79/89/89 81/93/93
f  82/96/96 61/67/66 59/65/64
f  64/72/71 63/71/70 51/56/55
f  31/97/97 75/85/85 77/87/87
f  68/76/75 70/78/77 76/86/86
f  79/89/89 43/91/90 41/94/94
f  9/10/98 37/69/68 35/79/79
f  53/59/57 25/27/28 24/26/27
f  62/70/69 71/81/81 23/25/26
f  51/56/55 49/55/53 61/67/66
f  57/63/62 55/61/60 71/81/81
f  83/98/99 51/56/55 63/71/70
f  20/22/23 83/98/99 63/71/70
f  83/98/99 84/99/100 51/56/55
f  85/100/101 1/1/1 3/3/3
f  3/80/80 2/4/4 5/6/6
f  4/5/5 6/7/7 5/6/6
f  6/7/7 8/9/9 7/8/8
f  9/10/10 8/9/9 11/12/12
f  11/12/12 10/11/11 13/14/14
f  13/14/14 12/13/15 15/16/17
f  15/43/44 14/17/18 17/19/20
f  63/71/70 18/20/21 20/22/23
f  23/25/26 21/23/24 18/20/21
f  24/26/27 22/24/25 23/25/26
f  22/24/25 24/26/27 26/28/29
f  26/28/29 25/27/28 28/30/31
f  28/30/31 27/29/30 30/32/33
f  30/32/33 29/31/32 32/34/35
f  32/34/35 31/33/34 34/36/37
f  1/1/1 34/36/37 2/2/2
f  85/100/101 3/3/3 36/38/39
f  36/38/39 35/37/38 38/40/41
f  38/40/41 37/39/40 40/42/43
f  39/41/42 15/43/44 40/42/43
f  14/17/18 41/44/45 16/18/19
f  41/44/45 43/46/47 42/45/46
f  43/46/47 45/48/49 44/47/48
f  45/48/49 47/50/51 46/49/50
f  47/50/51 49/52/53 48/51/52
f  84/99/100 50/54/54 51/56/55
f  61/67/66 49/55/53 52/58/56
f  25/27/28 53/59/57 27/29/59
f  54/60/58 53/59/57 56/62/61
f  56/62/61 55/61/60 58/64/63
f  57/63/62 59/65/64 58/64/63
f  59/65/64 61/67/66 60/66/65
f  9/10/98 11/12/12 37/69/68
f  64/72/71 62/70/69 63/71/70
f  59/65/64 57/63/62 64/72/71
f  60/66/65 65/73/72 58/64/63
f  66/74/73 65/73/72 68/76/75
f  70/78/77 68/76/75 69/77/76
f  8/9/9 70/78/77 10/11/11
f  5/6/6 7/8/78 3/80/80
f  72/82/82 24/26/27 71/81/81
f  71/81/81 55/61/60 72/82/82
f  80/92/92 54/60/58 73/83/83
f  80/92/92 73/83/83 75/85/85
f  75/85/85 74/84/84 77/87/87
f  77/87/87 76/86/86 4/5/5
f  73/83/83 66/74/73 74/84/84
f  65/73/72 78/88/88 67/75/74
f  78/88/88 45/90/49 79/89/89
f  31/97/97 29/31/91 75/85/85
f  76/86/86 70/78/77 6/7/7
f  10/11/11 69/77/76 12/13/13
f  12/13/15 81/93/93 14/15/16
f  2/4/4 33/95/95 4/5/5
f  52/58/56 47/57/51 78/88/88
f  29/31/91 27/29/59 80/92/92
f  73/83/83 56/62/61 66/74/73
f  60/66/65 52/58/56 65/73/72
f  11/12/12 13/14/14 39/68/67
f  69/77/76 67/75/74 81/93/93
f  64/72/71 82/96/96 59/65/64
f  82/96/96 64/72/71 51/56/55
f  33/95/95 31/97/97 77/87/87
f  74/84/84 68/76/75 76/86/86
f  81/93/93 79/89/89 41/94/94
f  7/8/78 9/10/98 35/79/79
f  72/82/82 53/59/57 24/26/27
f  18/20/21 62/70/69 23/25/26
f  82/96/96 51/56/55 61/67/66
f  62/70/69 57/63/62 71/81/81

# Mesh 'RElbowRoll_JULIETTE_AV_BRAS_.027' with 121 faces
g RElbowRoll_JULIETTE_AV_BRAS_.027
usemtl milky_white
f  86/101/102 87/102/103 88/103/104
f  89/104/105 90/105/106 91/106/107
f  92/107/108 93/108/109 94/109/110
f  95/110/111 96/111/112 97/112/113
f  98/113/114 99/114/115 100/115/116
f  90/116/106 89/104/105 101/117/117
f  102/118/118 87/102/103 86/101/102
f  103/119/119 104/120/120 96/111/112
f  105/121/121 98/113/114 106/122/122
f  107/123/123 108/124/124 109/125/125
f  1/1/1 85/100/101 88/103/104
f  16/18/19 89/104/105 110/126/126
f  50/53/54 111/127/127 103/119/119
f  26/28/29 28/30/31 105/121/121
f  38/40/41 40/42/43 93/108/109
f  19/21/22 107/128/123 112/129/128
f  85/100/101 36/38/39 113/130/129
f  114/131/130 108/124/124 21/23/24
f  46/49/131 95/110/111 115/132/132
f  30/32/33 32/34/35 99/114/115
f  42/45/46 101/117/117 89/104/105
f  34/36/37 1/1/1 87/102/103
f  48/51/52 103/119/119 95/110/111
f  28/30/31 30/32/33 98/113/114
f  93/108/109 40/42/43 17/19/20
f  32/34/35 34/36/37 102/118/118
f  44/47/48 115/132/132 101/117/117
f  36/38/39 38/40/41 92/107/108
f  22/24/25 26/28/29 116/133/133
f  108/124/124 107/128/123 19/21/22
f  111/127/127 50/53/54 84/134/100
f  117/135/134 83/136/99 20/137/23
f  83/136/99 117/137/134 118/138/135
f  109/139/125 108/124/124 114/131/130
f  119/140/136 114/131/130 116/133/133
f  119/140/136 109/141/125 114/131/130
f  120/142/137 116/133/133 105/121/121
f  120/142/138 119/143/136 116/133/133
f  121/144/139 122/145/140 105/121/121
f  122/145/140 120/142/141 105/121/121
f  123/146/142 99/114/115 102/118/118
f  124/147/143 123/146/142 102/118/118
f  123/146/142 100/115/116 99/114/115
f  125/148/144 88/103/104 113/130/129
f  126/149/145 125/148/144 113/130/129
f  125/148/144 127/150/146 88/103/104
f  128/151/147 113/130/129 92/107/108
f  129/152/148 128/151/147 92/107/108
f  128/151/147 126/149/145 113/130/129
f  130/153/149 93/108/109 110/126/126
f  91/106/107 131/154/150 110/126/126
f  130/153/149 94/109/110 93/108/109
f  132/155/151 101/117/117 115/132/132
f  97/112/113 132/155/151 115/132/132
f  132/155/151 133/156/152 101/117/117
f  111/127/127 134/157/153 103/119/119
f  134/157/154 104/120/120 103/119/119
f  104/135/155 134/138/155 135/137/155
f  132/135/156 97/138/156 135/137/156
f  133/135/157 132/138/157 135/137/157
f  131/135/158 91/138/158 135/137/158
f  94/135/159 130/138/159 135/137/159
f  128/135/160 129/138/160 135/137/160
f  126/135/161 128/138/161 135/137/161
f  125/135/162 126/138/162 135/137/162
f  127/135/163 125/138/163 135/137/163
f  123/135/164 124/138/164 135/137/164
f  100/135/165 123/138/165 135/137/165
f  122/135/166 121/138/166 135/137/166
f  119/135/167 120/138/167 135/137/167
f  109/135/168 119/138/168 135/137/168
f  134/135/169 111/138/169 135/137/169
f  112/135/170 107/138/170 135/137/170
f  120/135/171 122/138/171 135/137/171
f  130/135/172 131/138/172 135/137/172
f  117/135/173 112/138/173 135/137/173
f  111/135/174 118/138/174 135/137/174
f  107/135/175 109/138/175 135/137/175
f  118/135/176 117/138/176 135/137/176
f  121/135/177 106/138/177 135/137/177
f  96/135/178 104/138/178 135/137/178
f  124/135/179 86/138/179 135/137/179
f  90/135/180 133/138/180 135/137/180
f  106/135/181 100/138/181 135/137/181
f  97/135/182 96/138/182 135/137/182
f  129/135/183 94/138/183 135/137/183
f  91/135/184 90/138/184 135/137/184
f  86/135/185 127/138/185 135/137/185
f  127/150/146 86/101/102 88/103/104
f  110/126/126 89/104/105 91/106/107
f  129/152/148 92/107/108 94/109/110
f  115/132/132 95/110/111 97/112/113
f  106/122/122 98/113/114 100/115/116
f  133/156/152 90/116/106 101/117/117
f  124/147/143 102/118/118 86/101/102
f  95/110/111 103/119/119 96/111/112
f  121/158/139 105/121/121 106/122/122
f  87/102/103 1/1/1 88/103/104
f  17/19/20 16/18/19 110/126/126
f  48/51/52 50/53/54 103/119/119
f  116/133/133 26/28/29 105/121/121
f  92/107/108 38/40/41 93/108/109
f  20/22/23 19/21/22 112/129/128
f  88/103/104 85/100/101 113/130/129
f  22/24/25 114/131/130 21/23/24
f  44/47/48 46/49/131 115/132/132
f  98/113/114 30/32/33 99/114/115
f  16/18/19 42/45/46 89/104/105
f  102/118/118 34/36/37 87/102/103
f  46/49/131 48/51/52 95/110/111
f  105/121/121 28/30/31 98/113/114
f  110/126/126 93/108/109 17/19/20
f  99/114/115 32/34/35 102/118/118
f  42/45/46 44/47/48 101/117/117
f  113/130/129 36/38/39 92/107/108
f  114/131/130 22/24/25 116/133/133
f  21/23/24 108/124/124 19/21/22
f  118/159/135 111/127/127 84/134/100
f  112/138/128 117/135/134 20/137/23
f  84/135/100 83/136/99 118/138/135
f  131/154/150 130/153/149 110/126/126

