# Exported using automatic converter by Erwin Coumans
mtllib HeadRoll.mtl
#object HeadRoll_HeadRoll

v -0.086356 -0.013035 0.116886
v -0.080564 -0.029013 0.121332
v -0.083277 -0.029348 0.124769
v -0.066790 -0.046190 0.128477
v -0.068872 -0.046438 0.132489
v -0.047525 -0.057559 0.136498
v -0.049829 -0.058645 0.140226
v -0.030551 -0.063650 0.141317
v -0.031519 -0.064261 0.144315
v -0.002030 -0.068883 0.145897
v -0.002954 -0.069876 0.149579
v 0.013403 -0.071829 0.150403
v 0.013453 -0.070759 0.146830
v 0.028972 -0.071494 0.145793
v 0.028479 -0.073294 0.149183
v 0.062780 -0.071829 0.143201
v 0.061440 -0.070449 0.138964
v 0.080312 -0.065592 0.133186
v 0.081884 -0.068411 0.137330
v 0.093969 -0.059622 0.132528
v 0.116919 -0.016531 0.125989
v 0.112036 -0.036673 0.127332
v 0.109507 -0.036038 0.123304
v 0.029577 -0.062552 0.162122
v 0.013708 -0.061087 0.161878
v -0.002771 -0.059623 0.161390
v 0.100711 -0.012852 0.152260
v 0.102249 0.000071 0.152837
v 0.087608 0.000071 0.165049
v 0.067458 -0.012852 0.174573
v 0.067846 0.000071 0.174573
v 0.037308 0.000071 0.182368
v 0.093171 -0.058782 0.128916
v 0.109744 -0.014171 0.138999
v 0.117895 0.000071 0.125623
v 0.104750 -0.030338 0.140290
v 0.094214 -0.049856 0.144788
v 0.079565 -0.057181 0.151380
v 0.062964 -0.060844 0.155530
v 0.064795 -0.026010 0.172118
v 0.035950 -0.012852 0.181204
v 0.082705 -0.026010 0.164078
v 0.097124 -0.027592 0.151958
v 0.086427 -0.012852 0.164853
v 0.060461 -0.048065 0.165540
v 0.031772 -0.048632 0.171759
v 0.034101 -0.026010 0.179986
v 0.076977 -0.045319 0.160114
v 0.089575 -0.042288 0.153455
v 0.013234 -0.047473 0.171882
v -0.002470 -0.046537 0.169877
v -0.002810 -0.026010 0.180437
v 0.015956 -0.026010 0.182152
v 0.015420 -0.012852 0.184153
v -0.003011 -0.012852 0.183535
v 0.016320 0.000071 0.185022
v -0.031763 -0.054739 0.155774
v -0.049341 -0.047659 0.150647
v -0.074327 -0.026010 0.139350
v -0.079870 -0.012852 0.136130
v -0.030820 -0.043720 0.163414
v -0.030720 -0.026010 0.172307
v -0.031551 -0.012852 0.175228
v -0.002522 0.000071 0.183844
v -0.031754 0.000071 0.175769
v -0.049619 -0.039648 0.156335
v -0.050750 -0.026010 0.162383
v -0.052222 -0.012852 0.164759
v -0.060280 -0.033142 0.151373
v -0.066431 -0.037405 0.143567
v -0.063450 -0.026010 0.152155
v -0.069336 0.000071 0.152092
v -0.082214 0.000071 0.135297
v -0.068154 -0.012852 0.151145
v -0.053247 0.000071 0.166028
v -0.089330 -0.012869 0.120277
v -0.091045 0.000071 0.119955
v -0.087933 0.000071 0.116837
v 0.114443 -0.016327 0.122227
v 0.115501 0.000071 0.121759
v 0.111303 0.000071 0.139661
v -0.086356 0.013178 0.116886
v -0.089330 0.013012 0.120277
v -0.083277 0.029491 0.124769
v -0.080564 0.029156 0.121332
v -0.068872 0.046581 0.132489
v -0.066790 0.046333 0.128477
v -0.049829 0.058787 0.140226
v -0.047525 0.057700 0.136498
v -0.031519 0.064402 0.144315
v -0.030551 0.063791 0.141317
v -0.002954 0.070018 0.149579
v 0.013403 0.071971 0.150403
v 0.013453 0.070901 0.146830
v -0.002030 0.069025 0.145897
v 0.028479 0.073436 0.149183
v 0.062780 0.071971 0.143201
v 0.061440 0.070589 0.138964
v 0.028972 0.071636 0.145793
v 0.081884 0.068553 0.137330
v 0.080312 0.065734 0.133186
v 0.093969 0.059765 0.132528
v 0.109507 0.036180 0.123304
v 0.112036 0.036814 0.127332
v 0.116919 0.016673 0.125989
v 0.029577 0.062693 0.162122
v 0.013708 0.061228 0.161878
v 0.100711 0.012994 0.152260
v 0.086427 0.012994 0.164853
v 0.067458 0.012994 0.174573
v 0.035950 0.012994 0.181204
v 0.093171 0.058924 0.128916
v 0.109744 0.014313 0.138999
v 0.104750 0.030480 0.140290
v 0.079565 0.057322 0.151380
v 0.094214 0.049998 0.144788
v 0.062964 0.060984 0.155530
v 0.064795 0.026152 0.172118
v 0.034101 0.026152 0.179986
v 0.082705 0.026152 0.164078
v 0.097124 0.027734 0.151958
v 0.060461 0.048207 0.165540
v 0.076977 0.045461 0.160114
v 0.089575 0.042431 0.153455
v 0.013234 0.047615 0.171882
v -0.002771 0.059765 0.161390
v 0.031772 0.048774 0.171759
v -0.002470 0.046680 0.169877
v -0.002810 0.026152 0.180437
v 0.015956 0.026152 0.182152
v 0.015420 0.012994 0.184153
v -0.031763 0.054881 0.155774
v -0.066431 0.037547 0.143567
v -0.049341 0.047801 0.150647
v -0.074327 0.026152 0.139350
v -0.079870 0.012994 0.136130
v -0.030820 0.043862 0.163414
v -0.030720 0.026152 0.172307
v -0.031551 0.012994 0.175228
v -0.003011 0.012994 0.183535
v -0.049619 0.039790 0.156335
v -0.050750 0.026152 0.162383
v -0.052222 0.012994 0.164759
v -0.060280 0.033285 0.151373
v -0.063450 0.026152 0.152155
v -0.068154 0.012994 0.151145
v 0.114443 0.016469 0.122227
usemtl ShellParts

vn -0.957549 -0.253914 -0.136235
vn -0.857601 -0.509659 -0.068636
vn -0.871242 -0.490707 -0.007630
vn -0.654469 -0.755272 0.034394
vn -0.681265 -0.726615 0.088595
vn -0.429304 -0.901273 0.058046
vn -0.465041 -0.869564 0.165990
vn -0.264138 -0.960662 0.085696
vn -0.288827 -0.938810 0.187597
vn -0.154332 -0.983520 0.093936
vn -0.169591 -0.958800 0.227760
vn -0.099795 -0.972350 0.211005
vn -0.084903 -0.995209 0.048128
vn -0.004273 -0.999969 0.004547
vn -0.007446 -0.985321 0.170446
vn 0.152257 -0.977966 0.142582
vn 0.122532 -0.992035 -0.028443
vn 0.350322 -0.933378 -0.077578
vn 0.390301 -0.918302 0.065767
vn 0.670553 -0.741783 0.006500
vn 0.985504 -0.165929 -0.034669
vn 0.904294 -0.426771 -0.006775
vn 0.890408 -0.445387 -0.093753
vn 0.058565 -0.672628 0.737632
vn -0.076418 -0.662038 0.745537
vn -0.177068 -0.648884 0.739982
vn 0.733757 -0.151708 0.662221
vn 0.745323 0.000000 0.666677
vn 0.556505 0.000000 0.830836
vn 0.335734 -0.120212 0.934233
vn 0.340007 0.000000 0.940397
vn 0.182836 0.000000 0.983123
vn 0.657125 -0.750420 -0.070986
vn 0.837306 -0.144902 0.527116
vn 0.998596 0.000000 -0.052766
vn 0.794794 -0.272072 0.542436
vn 0.681173 -0.450728 0.576891
vn 0.443464 -0.588153 0.676260
vn 0.250923 -0.651936 0.715537
vn 0.309183 -0.257698 0.915403
vn 0.179113 -0.113254 0.977264
vn 0.499161 -0.248024 0.830226
vn 0.699911 -0.241340 0.672170
vn 0.547777 -0.132145 0.826075
vn 0.268014 -0.450148 0.851772
vn 0.103122 -0.477523 0.872524
vn 0.155492 -0.256691 0.953887
vn 0.431288 -0.401044 0.808161
vn 0.610126 -0.343303 0.714011
vn -0.056185 -0.494949 0.867092
vn -0.175176 -0.496017 0.850429
vn -0.173315 -0.324931 0.929685
vn 0.006012 -0.286630 0.958007
vn 0.035279 -0.113010 0.992950
vn -0.166021 -0.122074 0.978515
vn 0.046724 0.000000 0.998901
vn -0.328959 -0.621662 0.710837
vn -0.493240 -0.555315 0.669546
vn -0.772698 -0.269417 0.574725
vn -0.813868 -0.151524 0.560900
vn -0.324076 -0.475692 0.817713
vn -0.339427 -0.323222 0.883328
vn -0.355388 -0.138096 0.924436
vn -0.158574 0.000000 0.987335
vn -0.353679 0.000000 0.935331
vn -0.490036 -0.444044 0.750084
vn -0.512925 -0.293771 0.806574
vn -0.540330 -0.151677 0.827662
vn -0.614429 -0.381146 0.690756
vn -0.674001 -0.421216 0.606830
vn -0.670553 -0.259194 0.695059
vn -0.725791 0.000000 0.687857
vn -0.831996 0.000000 0.554735
vn -0.715751 -0.154301 0.681051
vn -0.547716 0.000000 0.836634
vn -0.961547 -0.248054 -0.117618
vn -0.993591 0.000000 -0.112857
vn -0.978179 0.000000 -0.207740
vn 0.978454 -0.154668 -0.136631
vn 0.990722 0.000000 -0.135685
vn 0.857601 0.000000 0.514267
vn -0.957549 0.253914 -0.136235
vn -0.961547 0.248054 -0.117618
vn -0.871242 0.490707 -0.007630
vn -0.857601 0.509659 -0.068636
vn -0.681265 0.726646 0.088565
vn -0.654439 0.755303 0.034364
vn -0.465010 0.869594 0.165929
vn -0.429273 0.901273 0.058016
vn -0.288827 0.938810 0.187597
vn -0.264138 0.960662 0.085696
vn -0.169591 0.958800 0.227821
vn -0.099765 0.972350 0.211066
vn -0.084903 0.995209 0.048219
vn -0.154332 0.983520 0.093997
vn -0.007446 0.985321 0.170476
vn 0.152257 0.977996 0.142552
vn 0.122501 0.992035 -0.028504
vn -0.004242 0.999969 0.004547
vn 0.390301 0.918333 0.065737
vn 0.350291 0.933409 -0.077609
vn 0.670553 0.741813 0.006470
vn 0.890408 0.445357 -0.093753
vn 0.904294 0.426771 -0.006775
vn 0.985504 0.165929 -0.034669
vn 0.058565 0.672628 0.737632
vn -0.076388 0.662038 0.745537
vn 0.733787 0.151708 0.662191
vn 0.547777 0.132145 0.826075
vn 0.335734 0.120212 0.934233
vn 0.179113 0.113254 0.977264
vn 0.657094 0.750420 -0.070986
vn 0.837306 0.144902 0.527116
vn 0.794794 0.272072 0.542436
vn 0.443464 0.588153 0.676290
vn 0.681173 0.450728 0.576891
vn 0.250923 0.651936 0.715537
vn 0.309183 0.257698 0.915403
vn 0.155492 0.256691 0.953887
vn 0.499161 0.248024 0.830226
vn 0.699911 0.241340 0.672170
vn 0.268014 0.450148 0.851772
vn 0.431288 0.401044 0.808161
vn 0.610126 0.343333 0.714011
vn -0.056185 0.494949 0.867061
vn -0.177068 0.648884 0.739952
vn 0.103122 0.477554 0.872494
vn -0.175176 0.495987 0.850429
vn -0.173315 0.324931 0.929716
vn 0.006012 0.286630 0.958007
vn 0.035279 0.113010 0.992950
vn -0.328959 0.621662 0.710807
vn -0.674032 0.421216 0.606830
vn -0.493240 0.555315 0.669546
vn -0.772698 0.269417 0.574725
vn -0.813868 0.151524 0.560900
vn -0.324076 0.475692 0.817713
vn -0.339396 0.323222 0.883328
vn -0.355388 0.138096 0.924436
vn -0.166021 0.122074 0.978515
vn -0.490036 0.444014 0.750084
vn -0.512925 0.293741 0.806574
vn -0.540330 0.151677 0.827662
vn -0.614429 0.381115 0.690756
vn -0.670553 0.259194 0.695059
vn -0.715751 0.154301 0.681051
vn 0.978454 0.154698 -0.136631

vt 0.938139 0.152163
vt 0.938139 0.152163
vt 0.938139 0.152163
vt 0.938139 0.152163
vt 0.938139 0.152163
vt 0.938139 0.152163
vt 0.938139 0.152163
vt 0.938139 0.152163
vt 0.938139 0.152163
vt 0.938139 0.152163
vt 0.938139 0.152163
vt 0.938139 0.152163
vt 0.938139 0.152163
vt 0.938139 0.152163
vt 0.938139 0.152163
vt 0.938139 0.152163
vt 0.938139 0.152163
vt 0.938139 0.152163
vt 0.938139 0.152163
vt 0.938139 0.152163
vt 0.938139 0.152163
vt 0.938139 0.152163
vt 0.938139 0.152163
vt 0.938139 0.152163
vt 0.938139 0.152163
vt 0.938139 0.152163
vt 0.938139 0.152163
vt 0.938139 0.152163
vt 0.938139 0.152163
vt 0.938139 0.152163
vt 0.938139 0.152163
vt 0.938139 0.152163
vt 0.938139 0.152163
vt 0.938139 0.152163
vt 0.938139 0.152163
vt 0.938139 0.152163
vt 0.938139 0.152163
vt 0.938139 0.152163
vt 0.938139 0.152163
vt 0.938139 0.152163
vt 0.938139 0.152163
vt 0.938139 0.152163
vt 0.938139 0.152163
vt 0.938139 0.152163
vt 0.938139 0.152163
vt 0.938139 0.152163
vt 0.938139 0.152163
vt 0.938139 0.152163
vt 0.938139 0.152163
vt 0.938139 0.152163
vt 0.938139 0.152163
vt 0.938139 0.152163
vt 0.938139 0.152163
vt 0.938139 0.152163
vt 0.938139 0.152163
vt 0.938139 0.152163
vt 0.938139 0.152163
vt 0.938139 0.152163
vt 0.938139 0.152163
vt 0.938139 0.152163
vt 0.938139 0.152163
vt 0.938139 0.152163
vt 0.938139 0.152163
vt 0.938139 0.152163
vt 0.938139 0.152163
vt 0.938139 0.152163
vt 0.938139 0.152163
vt 0.938139 0.152163
vt 0.938139 0.152163
vt 0.938139 0.152163
vt 0.938139 0.152163
vt 0.938139 0.152163
vt 0.938139 0.152163
vt 0.938139 0.152163
vt 0.938139 0.152163
vt 0.938139 0.152163
vt 0.938139 0.152163
vt 0.938139 0.152163
vt 0.938139 0.152163
vt 0.938139 0.152163
vt 0.938139 0.152163
vt 0.938139 0.152163
vt 0.938139 0.152163
vt 0.938139 0.152163
vt 0.938139 0.152163
vt 0.938139 0.152163
vt 0.938139 0.152163
vt 0.938139 0.152163
vt 0.938139 0.152163
vt 0.938139 0.152163
vt 0.938139 0.152163
vt 0.938139 0.152163
vt 0.938139 0.152163
vt 0.938139 0.152163
vt 0.938139 0.152163
vt 0.938139 0.152163
vt 0.938139 0.152163
vt 0.938139 0.152163
vt 0.938139 0.152163
vt 0.938139 0.152163
vt 0.938139 0.152163
vt 0.938139 0.152163
vt 0.938139 0.152163
vt 0.938139 0.152163
vt 0.938139 0.152163
vt 0.938139 0.152163
vt 0.938139 0.152163
vt 0.938139 0.152163
vt 0.938139 0.152163
vt 0.938139 0.152163
vt 0.938139 0.152163
vt 0.938139 0.152163
vt 0.938139 0.152163
vt 0.938139 0.152163
vt 0.938139 0.152163
vt 0.938139 0.152163
vt 0.938139 0.152163
vt 0.938139 0.152163
vt 0.938139 0.152163
vt 0.938139 0.152163
vt 0.938139 0.152163
vt 0.938139 0.152163
vt 0.938139 0.152163
vt 0.938139 0.152163
vt 0.938139 0.152163
vt 0.938139 0.152163
vt 0.938139 0.152163
vt 0.938139 0.152163
vt 0.938139 0.152163
vt 0.938139 0.152163
vt 0.938139 0.152163
vt 0.938139 0.152163
vt 0.938139 0.152163
vt 0.938139 0.152163
vt 0.938139 0.152163
vt 0.938139 0.152163
vt 0.938139 0.152163
vt 0.938139 0.152163
vt 0.938139 0.152163
vt 0.938139 0.152163
vt 0.938139 0.152163
vt 0.938139 0.152163
vt 0.938139 0.152163
vt 0.938139 0.152163
vt 0.938139 0.152163
vt 0.938139 0.152163
vt 0.938139 0.152163
s off
f 1/1/1 2/2/2 3/3/3
f 2/2/2 4/4/4 5/5/5
f 4/4/4 6/6/6 7/7/7
f 6/6/6 8/8/8 9/9/9
f 8/8/8 10/10/10 11/11/11
f 12/12/12 11/11/11 10/10/10
f 13/13/13 14/14/14 15/15/15
f 16/16/16 15/15/15 14/14/14
f 17/17/17 18/18/18 19/19/19
f 20/20/20 19/19/19 18/18/18
f 21/21/21 22/22/22 23/23/23
f 24/24/24 25/25/25 12/12/12
f 25/25/25 26/26/26 11/11/11
f 27/27/27 28/28/28 29/29/29
f 30/30/30 31/31/31 32/32/32
f 22/22/22 20/20/20 33/33/33
f 34/34/34 21/21/21 35/35/35
f 21/21/21 34/34/34 36/36/36
f 19/19/19 20/20/20 37/37/37
f 38/38/38 39/39/39 16/16/16
f 15/15/15 16/16/16 39/39/39
f 22/22/22 36/36/36 37/37/37
f 40/40/40 30/30/30 41/41/41
f 30/30/30 40/40/40 42/42/42
f 43/43/43 27/27/27 44/44/44
f 36/36/36 34/34/34 27/27/27
f 45/45/45 46/46/46 24/24/24
f 45/45/45 40/40/40 47/47/47
f 48/48/48 42/42/42 40/40/40
f 48/48/48 45/45/45 39/39/39
f 42/42/42 48/48/48 49/49/49
f 38/38/38 37/37/37 49/49/49
f 36/36/36 43/43/43 49/49/49
f 50/50/50 51/51/51 26/26/26
f 25/25/25 24/24/24 46/46/46
f 52/52/52 51/51/51 50/50/50
f 46/46/46 47/47/47 53/53/53
f 54/54/54 55/55/55 52/52/52
f 47/47/47 41/41/41 54/54/54
f 41/41/41 32/32/32 56/56/56
f 11/11/11 26/26/26 57/57/57
f 57/57/57 58/58/58 7/7/7
f 5/5/5 7/7/7 58/58/58
f 59/59/59 3/3/3 5/5/5
f 3/3/3 59/59/59 60/60/60
f 61/61/61 57/57/57 26/26/26
f 51/51/51 52/52/52 62/62/62
f 52/52/52 55/55/55 63/63/63
f 55/55/55 64/64/64 65/65/65
f 61/61/61 66/66/66 58/58/58
f 61/61/61 62/62/62 67/67/67
f 68/68/68 67/67/67 62/62/62
f 69/69/69 70/70/70 58/58/58
f 70/70/70 69/69/69 71/71/71
f 69/69/69 66/66/66 67/67/67
f 72/72/72 73/73/73 60/60/60
f 59/59/59 71/71/71 74/74/74
f 68/68/68 74/74/74 71/71/71
f 75/75/75 72/72/72 74/74/74
f 76/76/76 77/77/77 78/78/78
f 79/79/79 80/80/80 35/35/35
f 27/27/27 34/34/34 81/81/81
f 31/31/31 30/30/30 44/44/44
f 64/64/64 55/55/55 54/54/54
f 76/76/76 60/60/60 73/73/73
f 68/68/68 63/63/63 65/65/65
f 82/82/82 83/83/83 84/84/84
f 85/85/85 84/84/84 86/86/86
f 87/87/87 86/86/86 88/88/88
f 89/89/89 88/88/88 90/90/90
f 91/91/91 90/90/90 92/92/92
f 93/93/93 94/94/94 95/95/95
f 94/94/94 93/93/93 96/96/96
f 97/97/97 98/98/98 99/99/99
f 98/98/98 97/97/97 100/100/100
f 101/101/101 100/100/100 102/102/102
f 103/103/103 104/104/104 105/105/105
f 106/106/106 96/96/96 93/93/93
f 107/107/107 93/93/93 92/92/92
f 108/108/108 109/109/109 29/29/29
f 110/110/110 111/111/111 32/32/32
f 104/104/104 103/103/103 112/112/112
f 35/35/35 105/105/105 113/113/113
f 114/114/114 113/113/113 105/105/105
f 100/100/100 115/115/115 116/116/116
f 115/115/115 100/100/100 97/97/97
f 96/96/96 106/106/106 117/117/117
f 104/104/104 102/102/102 116/116/116
f 118/118/118 119/119/119 111/111/111
f 110/110/110 109/109/109 120/120/120
f 121/121/121 120/120/120 109/109/109
f 114/114/114 121/121/121 108/108/108
f 122/122/122 117/117/117 106/106/106
f 119/119/119 118/118/118 122/122/122
f 123/123/123 122/122/122 118/118/118
f 123/123/123 115/115/115 117/117/117
f 120/120/120 121/121/121 124/124/124
f 115/115/115 123/123/123 124/124/124
f 124/124/124 121/121/121 114/114/114
f 125/125/125 107/107/107 126/126/126
f 107/107/107 125/125/125 127/127/127
f 125/125/125 128/128/128 129/129/129
f 130/130/130 119/119/119 127/127/127
f 131/131/131 130/130/130 129/129/129
f 119/119/119 130/130/130 131/131/131
f 111/111/111 131/131/131 56/56/56
f 92/92/92 90/90/90 132/132/132
f 132/132/132 90/90/90 88/88/88
f 86/86/86 133/133/133 134/134/134
f 135/135/135 133/133/133 86/86/86
f 84/84/84 83/83/83 136/136/136
f 137/137/137 128/128/128 126/126/126
f 138/138/138 129/129/129 128/128/128
f 139/139/139 140/140/140 129/129/129
f 140/140/140 139/139/139 65/65/65
f 134/134/134 141/141/141 137/137/137
f 142/142/142 138/138/138 137/137/137
f 138/138/138 142/142/142 143/143/143
f 144/144/144 141/141/141 134/134/134
f 133/133/133 135/135/135 145/145/145
f 144/144/144 145/145/145 142/142/142
f 72/72/72 146/146/146 136/136/136
f 146/146/146 145/145/145 135/135/135
f 143/143/143 142/142/142 145/145/145
f 75/75/75 143/143/143 146/146/146
f 83/83/83 82/82/82 78/78/78
f 147/147/147 105/105/105 35/35/35
f 108/108/108 28/28/28 81/81/81
f 31/31/31 29/29/29 109/109/109
f 64/64/64 56/56/56 131/131/131
f 83/83/83 77/77/77 73/73/73
f 143/143/143 75/75/75 65/65/65
f 76/76/76 1/1/1 3/3/3
f 3/3/3 2/2/2 5/5/5
f 5/5/5 4/4/4 7/7/7
f 7/7/7 6/6/6 9/9/9
f 9/9/9 8/8/8 11/11/11
f 13/13/13 12/12/12 10/10/10
f 12/12/12 13/13/13 15/15/15
f 17/17/17 16/16/16 14/14/14
f 16/16/16 17/17/17 19/19/19
f 33/33/33 20/20/20 18/18/18
f 79/79/79 21/21/21 23/23/23
f 15/15/15 24/24/24 12/12/12
f 12/12/12 25/25/25 11/11/11
f 44/44/44 27/27/27 29/29/29
f 41/41/41 30/30/30 32/32/32
f 23/23/23 22/22/22 33/33/33
f 81/81/81 34/34/34 35/35/35
f 22/22/22 21/21/21 36/36/36
f 38/38/38 19/19/19 37/37/37
f 19/19/19 38/38/38 16/16/16
f 24/24/24 15/15/15 39/39/39
f 20/20/20 22/22/22 37/37/37
f 47/47/47 40/40/40 41/41/41
f 44/44/44 30/30/30 42/42/42
f 42/42/42 43/43/43 44/44/44
f 43/43/43 36/36/36 27/27/27
f 39/39/39 45/45/45 24/24/24
f 46/46/46 45/45/45 47/47/47
f 45/45/45 48/48/48 40/40/40
f 38/38/38 48/48/48 39/39/39
f 43/43/43 42/42/42 49/49/49
f 48/48/48 38/38/38 49/49/49
f 37/37/37 36/36/36 49/49/49
f 25/25/25 50/50/50 26/26/26
f 50/50/50 25/25/25 46/46/46
f 53/53/53 52/52/52 50/50/50
f 50/50/50 46/46/46 53/53/53
f 53/53/53 54/54/54 52/52/52
f 53/53/53 47/47/47 54/54/54
f 54/54/54 41/41/41 56/56/56
f 9/9/9 11/11/11 57/57/57
f 9/9/9 57/57/57 7/7/7
f 70/70/70 5/5/5 58/58/58
f 70/70/70 59/59/59 5/5/5
f 76/76/76 3/3/3 60/60/60
f 51/51/51 61/61/61 26/26/26
f 61/61/61 51/51/51 62/62/62
f 62/62/62 52/52/52 63/63/63
f 63/63/63 55/55/55 65/65/65
f 57/57/57 61/61/61 58/58/58
f 66/66/66 61/61/61 67/67/67
f 63/63/63 68/68/68 62/62/62
f 66/66/66 69/69/69 58/58/58
f 59/59/59 70/70/70 71/71/71
f 71/71/71 69/69/69 67/67/67
f 74/74/74 72/72/72 60/60/60
f 60/60/60 59/59/59 74/74/74
f 67/67/67 68/68/68 71/71/71
f 68/68/68 75/75/75 74/74/74
f 1/1/1 76/76/76 78/78/78
f 21/21/21 79/79/79 35/35/35
f 28/28/28 27/27/27 81/81/81
f 29/29/29 31/31/31 44/44/44
f 56/56/56 64/64/64 54/54/54
f 77/77/77 76/76/76 73/73/73
f 75/75/75 68/68/68 65/65/65
f 85/85/85 82/82/82 84/84/84
f 87/87/87 85/85/85 86/86/86
f 89/89/89 87/87/87 88/88/88
f 91/91/91 89/89/89 90/90/90
f 95/95/95 91/91/91 92/92/92
f 92/92/92 93/93/93 95/95/95
f 99/99/99 94/94/94 96/96/96
f 96/96/96 97/97/97 99/99/99
f 101/101/101 98/98/98 100/100/100
f 112/112/112 101/101/101 102/102/102
f 147/147/147 103/103/103 105/105/105
f 107/107/107 106/106/106 93/93/93
f 126/126/126 107/107/107 92/92/92
f 28/28/28 108/108/108 29/29/29
f 31/31/31 110/110/110 32/32/32
f 102/102/102 104/104/104 112/112/112
f 81/81/81 35/35/35 113/113/113
f 104/104/104 114/114/114 105/105/105
f 102/102/102 100/100/100 116/116/116
f 117/117/117 115/115/115 97/97/97
f 97/97/97 96/96/96 117/117/117
f 114/114/114 104/104/104 116/116/116
f 110/110/110 118/118/118 111/111/111
f 118/118/118 110/110/110 120/120/120
f 108/108/108 121/121/121 109/109/109
f 113/113/113 114/114/114 108/108/108
f 127/127/127 122/122/122 106/106/106
f 127/127/127 119/119/119 122/122/122
f 120/120/120 123/123/123 118/118/118
f 122/122/122 123/123/123 117/117/117
f 123/123/123 120/120/120 124/124/124
f 116/116/116 115/115/115 124/124/124
f 116/116/116 124/124/124 114/114/114
f 128/128/128 125/125/125 126/126/126
f 106/106/106 107/107/107 127/127/127
f 130/130/130 125/125/125 129/129/129
f 125/125/125 130/130/130 127/127/127
f 140/140/140 131/131/131 129/129/129
f 111/111/111 119/119/119 131/131/131
f 32/32/32 111/111/111 56/56/56
f 126/126/126 92/92/92 132/132/132
f 134/134/134 132/132/132 88/88/88
f 88/88/88 86/86/86 134/134/134
f 84/84/84 135/135/135 86/86/86
f 135/135/135 84/84/84 136/136/136
f 132/132/132 137/137/137 126/126/126
f 137/137/137 138/138/138 128/128/128
f 138/138/138 139/139/139 129/129/129
f 64/64/64 140/140/140 65/65/65
f 132/132/132 134/134/134 137/137/137
f 141/141/141 142/142/142 137/137/137
f 139/139/139 138/138/138 143/143/143
f 133/133/133 144/144/144 134/134/134
f 144/144/144 133/133/133 145/145/145
f 141/141/141 144/144/144 142/142/142
f 73/73/73 72/72/72 136/136/136
f 136/136/136 146/146/146 135/135/135
f 146/146/146 143/143/143 145/145/145
f 72/72/72 75/75/75 146/146/146
f 77/77/77 83/83/83 78/78/78
f 80/80/80 147/147/147 35/35/35
f 113/113/113 108/108/108 81/81/81
f 110/110/110 31/31/31 109/109/109
f 140/140/140 64/64/64 131/131/131
f 136/136/136 83/83/83 73/73/73
f 139/139/139 143/143/143 65/65/65
