# File produced by Open Asset Import Library (http://www.assimp.sf.net)
# (assimp v3.2.0)

mtllib LFinger12.mtl

# 170 vertex positions
v  -0.00605124 -0.0139445 -0.00942165
v  -0.00535935 -0.00396234 -0.00971711
v  -0.00154877 -0.0054971 -0.0121213
v  0.00397295 -0.00699347 -0.0116559
v  0.00376493 -0.0124278 -0.0114754
v  0.0084281 -0.00843316 -0.00731969
v  0.00814372 -0.0118691 -0.00735629
v  0.00942224 -0.00857496 -0.00405079
v  0.0096637 -0.008627 -0.00103205
v  0.00943124 -0.01193 -0.000972395
v  0.00920749 -0.0119121 -0.0037893
v  0.00376427 -0.00575411 -0.0112464
v  0.00777483 -0.00687778 -0.00700629
v  0.00881779 -0.00737363 -0.00414407
v  0.00922334 -0.00758308 -0.00100058
v  -0.00748485 -0.0029484 -0.0050503
v  -0.00849968 -0.00302029 -0.000785195
v  -0.00786441 -0.00209772 -0.000772853
v  -0.00476331 -0.00287819 -0.00922388
v  -0.00637293 0.00192618 -0.00674105
v  -0.00389612 0.000538645 -0.0102064
v  -0.00152463 -0.00410658 -0.0115856
v  -0.000224223 0.000629532 -0.0124385
v  0.00417906 -0.00227916 -0.0116316
v  0.00801152 -0.00467837 -0.00691032
v  0.00888652 -0.00535822 -0.00427061
v  0.00929189 -0.00557727 -0.000969333
v  0.00758713 -0.00350809 -0.00113743
v  0.00739461 -0.00323993 -0.00396329
v  0.00654233 -0.00252116 -0.00605261
v  -0.0026862 0.000318257 -0.00896788
v  0.00055482 0.00199211 -0.0108669
v  0.00340492 -6.05341e-05 -0.00938177
v  -0.00766063 -0.0152213 -0.00474739
v  -0.00874907 -0.0151839 -0.000467264
v  -0.00924522 -0.0142582 -0.00052203
v  -0.00232381 -0.0132732 -0.0119123
v  0.00354058 -0.0133899 -0.0109715
v  0.00742137 -0.0129409 -0.00699461
v  0.00872058 -0.0126061 -0.00373679
v  0.00887263 -0.0127012 -0.000956723
v  0.00870842 -0.0146665 -0.000884225
v  0.00831628 -0.015113 -0.00351977
v  0.00715411 -0.0156815 -0.00686926
v  0.00331068 -0.0174932 -0.0111453
v  -0.00229895 -0.0141644 -0.0114333
v  -0.00571465 -0.014853 -0.0088228
v  -0.00216067 -0.0203211 -0.0117578
v  -0.00827771 -0.0141493 -0.00500798
v  -0.00548607 0.00263923 -0.00629115
v  -0.00614852 -0.0219622 -0.00938237
v  -0.00859433 -0.0229646 -0.00499362
v  0.00742334 -0.0161484 -0.000760291
v  0.00688571 -0.016417 -0.00314307
v  0.00586158 -0.0171303 -0.00606257
v  0.00274795 -0.0188194 -0.0092361
v  -0.00555193 -0.0230546 -0.00933552
v  -0.00961757 -0.0233307 -0.000295937
v  -0.00782967 -0.0238252 -0.00482833
v  0.00402999 0.00277895 -0.00931859
v  0.00786734 0.00167084 -0.0058794
v  0.0087446 0.00149578 -0.00393736
v  0.00919169 0.00139791 -0.00142837
v  0.00370687 0.00746065 -0.00928891
v  0.00117821 0.00392383 -0.00945043
v  0.00721282 0.00927418 -0.00593752
v  0.0079419 0.00976568 -0.00412404
v  0.00829113 0.00971901 -0.00302422
v  0.00424421 0.00814015 -0.00283408
v  0.001472 0.00155121 -0.00201207
v  0.00450206 -0.000614817 -0.00167441
v  0.00130051 -0.000780168 -0.00164205
v  0.00458819 -0.00138372 -0.00124729
v  0.00442809 -0.0013473 -5.46953e-05
v  0.00744617 -0.00346392 0.000183881
v  5.31027e-05 0.00182706 -0.00782496
v  -0.000643029 0.00112402 -0.00615513
v  0.000669865 0.00599879 -0.0079937
v  0.000530428 0.00592273 -0.00606018
v  -0.00786358 0.00155151 -0.000872452
v  -0.00687563 -0.00208473 -0.00480866
v  -0.00602668 0.00276869 -0.000795301
v  0.00927883 -0.00571191 0.000355542
v  0.00920468 -0.00774366 0.000406408
v  0.00963604 -0.00875401 0.000460681
v  0.00938857 -0.0119296 0.000532081
v  0.00886845 -0.0127621 0.000523925
v  0.00871998 -0.0145712 0.000564186
v  -0.0071342 -0.0138943 0.00867659
v  -0.00372875 -0.0132092 0.0115589
v  -0.00295842 -0.00543237 0.0114345
v  0.00237077 -0.0123637 0.0118066
v  0.0072118 -0.011826 0.00821173
v  0.00750989 -0.00839096 0.00802201
v  0.00869328 -0.0118894 0.00480062
v  0.009251 -0.0119212 0.00203186
v  0.00948614 -0.00861883 0.00193733
v  0.00257373 -0.0069297 0.0117152
v  0.00690401 -0.00683761 0.00754714
v  0.00888717 -0.00854939 0.0049032
v  0.00827855 -0.00734907 0.00485736
v  0.00905633 -0.00757539 0.00179708
v  -0.00800073 -0.00292438 0.00356638
v  -0.00736481 -0.00206238 0.00335127
v  -0.00579601 -0.00283039 0.00803065
v  -0.0070827 0.00195885 0.00511169
v  0.00241923 -0.00569254 0.0112152
v  -0.00286621 -0.00404501 0.0108299
v  0.00279635 -0.00221545 0.0114576
v  0.00715768 -0.00463945 0.00735998
v  0.00833869 -0.00533205 0.00488108
v  0.00913435 -0.00557065 0.00166464
v  0.00742882 -0.00350064 0.00151533
v  0.00690114 -0.00321698 0.00428212
v  0.00580776 -0.00248653 0.00621486
v  0.00230408 -1.07298e-05 0.00901085
v  -0.00369322 0.000364188 0.00785089
v  -0.00504088 0.000591321 0.00892293
v  -0.0016619 0.000696109 0.0115736
v  -0.000696295 0.00204909 0.0100317
v  -0.00817913 -0.0151974 0.00391495
v  -0.00882012 -0.0141247 0.00404036
v  0.00220561 -0.0133281 0.0113327
v  0.00653476 -0.0129004 0.00782418
v  0.00821346 -0.0125828 0.00472736
v  0.00869608 -0.0126929 0.00199169
v  0.0078302 -0.0150905 0.00460082
v  0.00853473 -0.0146587 0.00200647
v  0.00627494 -0.0156405 0.00781703
v  -0.00365019 -0.0141022 0.0111352
v  -0.00357103 -0.0202559 0.0118092
v  0.00194365 -0.0174301 0.0117015
v  -0.00673246 -0.0148064 0.00817221
v  -0.00725287 -0.021912 0.0090639
v  -0.00645047 -0.00391263 0.00850952
v  0.00726962 -0.0161415 0.00181013
v  0.00508261 -0.0170938 0.00694072
v  0.00645119 -0.0163973 0.00412673
v  0.00160813 -0.0187672 0.00981182
v  -0.00665784 -0.0230039 0.0091483
v  -0.00249469 -0.0211441 0.0112165
v  -0.00935167 -0.0244771 -0.000248784
v  -0.0083856 -0.0237999 0.00444412
v  0.00294071 0.00282907 0.0088681
v  9.79435e-05 0.00397384 0.00859445
v  0.00715715 0.00170344 0.0059725
v  0.00826055 0.00151825 0.00415957
v  0.00900358 0.00140715 0.00172806
v  0.00263941 0.00751054 0.00854307
v  0.00652623 0.00930542 0.00553823
v  0.00794518 0.00973421 0.0027501
v  0.00746804 0.00978649 0.00379801
v  0.00431085 -0.000605839 0.00152135
v  0.00394499 0.00815385 0.00216317
v  0.00126934 0.00156045 0.00137657
v  0.00102508 0.00643659 0.00131088
v  0.00444418 -0.00137728 0.00114947
v  0.00113606 -0.000773307 0.00111538
v  0.00084024 -0.000503285 -0.000293367
v  -0.00083179 0.00186843 0.00696152
v  -0.0013259 0.00115573 0.00525927
v  -0.00614619 0.0026691 0.00473225
v  2.52948e-05 0.00608939 0.00845194
v  -0.000226735 0.00603998 0.00697487
v  -0.000134115 0.00595301 0.00504333
v  -0.00916117 -0.0229391 0.00447035
v  0.00726837 -0.0162233 0.000522323
v  -0.00116509 -0.0212048 -0.0109919
v  0.00109577 0.00603932 -0.00943238
v  0.00123787 0.00642729 -0.0022428

# 1 UV coordinates
vt 4.61149 0.499573 0

# 170 vertex normals
vn -0.704398 -0.260567 -0.660207
vn -0.676565 0.286355 -0.678396
vn -0.175268 0.190008 -0.966002
vn 0.445692 0.164068 -0.880001
vn 0.408338 -0.280068 -0.86877
vn 0.857051 0.155492 -0.491165
vn 0.812983 -0.309549 -0.493118
vn 0.968597 0.172979 -0.178472
vn 0.984222 0.175481 -0.0218512
vn 0.943175 -0.330699 -0.0319529
vn 0.924741 -0.338572 -0.17365
vn 0.455763 0.136814 -0.879482
vn 0.852534 0.166082 -0.495529
vn 0.957976 0.200049 -0.205512
vn 0.981353 0.188543 -0.0370495
vn -0.874416 0.349223 -0.336741
vn -0.942473 0.329142 -0.0578936
vn -0.944762 0.322703 -0.0571001
vn -0.687399 0.262734 -0.677084
vn -0.691885 0.580218 -0.429609
vn -0.552721 0.505234 -0.66274
vn -0.226966 0.170446 -0.958861
vn -0.0646077 0.52913 -0.846065
vn 0.556352 0.217902 -0.801843
vn 0.878109 0.243324 -0.411878
vn 0.947447 0.266671 -0.176611
vn 0.949583 0.312754 -0.0208746
vn 0.8258 0.525834 0.203681
vn 0.957823 0.217566 -0.187567
vn 0.868221 0.246529 -0.430555
vn -0.157659 0.949339 -0.271767
vn -0.0183111 0.818903 -0.573595
vn 0.659383 0.329264 -0.675832
vn -0.916837 -0.212439 -0.337992
vn -0.975463 -0.212287 -0.0579851
vn -0.97235 -0.226295 -0.0572527
vn -0.215491 -0.258034 -0.941771
vn 0.441938 -0.297647 -0.846187
vn 0.80398 -0.354228 -0.477615
vn 0.900845 -0.390454 -0.189672
vn 0.935118 -0.351909 -0.0410474
vn 0.91586 -0.4008 -0.0225837
vn 0.88461 -0.44142 -0.150182
vn 0.821436 -0.405469 -0.401013
vn 0.502335 -0.327708 -0.800134
vn -0.224036 -0.263558 -0.938231
vn -0.726585 -0.246651 -0.641255
vn -0.140141 -0.282174 -0.949065
vn -0.913022 -0.237098 -0.331889
vn -0.214972 0.938963 -0.268563
vn -0.671407 -0.247963 -0.698325
vn -0.903378 -0.210517 -0.373516
vn 0.733909 -0.67919 0.00631732
vn 0.699667 -0.711509 -0.0647603
vn 0.670522 -0.715537 -0.195868
vn 0.585406 -0.677999 -0.444472
vn -0.45793 -0.546434 -0.701193
vn -0.978851 -0.19602 -0.0583208
vn -0.774285 -0.503739 -0.383007
vn 0.489059 0.0327158 -0.871609
vn 0.810419 -0.0753502 -0.58095
vn 0.950041 -0.101138 -0.295236
vn 0.772637 0.00970483 0.634754
vn 0.465224 0.0383007 -0.884335
vn -0.445631 0.259865 -0.856655
vn 0.831782 0.068453 -0.550859
vn 0.949767 0.0778832 -0.303018
vn 0.868709 0.176214 0.462874
vn -0.0270699 0.136204 0.990295
vn 0.0331431 0.149052 0.98825
vn -0.0202338 0.17658 0.984069
vn 0.140416 0.813105 0.564898
vn 0.237098 0.699088 0.674551
vn 0.390088 0.92053 0.0209967
vn 0.675527 0.73629 0.0384533
vn -0.744652 0.624531 -0.23542
vn -0.437971 0.835078 -0.332804
vn -0.943083 0.126408 -0.307474
vn -0.964477 0.190985 -0.182348
vn -0.901089 0.429853 -0.0566118
vn -0.892056 0.293924 -0.343211
vn -0.568224 0.822016 -0.0367137
vn 0.953246 0.297006 0.0555742
vn 0.978179 0.199316 0.0582903
vn 0.986969 0.149846 0.0583208
vn 0.943999 -0.324809 0.0574663
vn 0.943388 -0.326609 0.0573443
vn 0.926145 -0.372784 0.0570086
vn -0.782006 -0.232185 0.578356
vn -0.328013 -0.214789 0.919889
vn -0.288186 0.236488 0.927885
vn 0.304514 -0.238441 0.922147
vn 0.752464 -0.284738 0.593829
vn 0.789697 0.181585 0.585986
vn 0.900144 -0.328379 0.286111
vn 0.933775 -0.326426 0.146611
vn 0.973968 0.179754 0.138066
vn 0.334269 0.208289 0.919156
vn 0.783563 0.194525 0.590045
vn 0.938749 0.184912 0.290689
vn 0.924131 0.213538 0.316782
vn 0.969146 0.193335 0.152684
vn -0.904294 0.361797 0.226508
vn -0.923032 0.30726 0.231452
vn -0.757042 0.294565 0.583148
vn -0.732658 0.591449 0.336711
vn 0.345042 0.184942 0.920164
vn -0.336161 0.219245 0.915922
vn 0.45085 0.254189 0.855617
vn 0.818934 0.264229 0.509385
vn 0.917448 0.277322 0.285165
vn 0.939573 0.316019 0.131596
vn 0.851985 0.512528 -0.106662
vn 0.925596 0.23014 0.300424
vn 0.804895 0.270577 0.528062
vn 0.566759 0.363201 0.739464
vn -0.189398 0.951781 0.241279
vn -0.623829 0.525193 0.578784
vn -0.164861 0.554277 0.815821
vn -0.0883816 0.831477 0.548448
vn -0.953154 -0.198889 0.22776
vn -0.948759 -0.223853 0.222968
vn 0.34196 -0.253365 0.904904
vn 0.747612 -0.329264 0.576708
vn 0.875729 -0.379254 0.298685
vn 0.924955 -0.34727 0.154332
vn 0.86343 -0.432478 0.259652
vn 0.907712 -0.397442 0.134373
vn 0.773034 -0.385998 0.503372
vn -0.338969 -0.216041 0.915616
vn -0.252663 -0.239479 0.937406
vn 0.408399 -0.291849 0.864864
vn -0.803552 -0.216651 0.554369
vn -0.753441 -0.218848 0.619953
vn -0.747703 0.31489 0.584582
vn 0.72982 -0.678213 0.0858486
vn 0.647053 -0.708243 0.282174
vn 0.689108 -0.708335 0.152898
vn 0.53618 -0.662038 0.523606
vn -0.54268 -0.518052 0.661123
vn 0.146489 -0.591479 0.792871
vn -0.881741 -0.469314 -0.0473342
vn -0.819849 -0.490249 0.295663
vn 0.380871 0.0800806 0.92114
vn -0.539537 0.302133 0.785852
vn 0.736137 -0.0429701 0.675436
vn 0.909543 -0.0831629 0.407147
vn 0.841975 -0.0173345 -0.539201
vn 0.357433 0.0879238 0.929777
vn 0.761101 0.100955 0.640706
vn 0.912503 0.155187 -0.37843
vn 0.906705 0.0972014 0.410382
vn 0.0983306 0.123844 -0.987396
vn 0.0922269 0.0823389 -0.992309
vn 0.151769 0.0960417 -0.983703
vn 0.16834 0.0491043 -0.984497
vn 0.324778 0.676626 -0.660817
vn 0.211615 0.798242 -0.563891
vn 0.207129 0.97824 0.00943017
vn -0.7622 0.631672 0.141301
vn -0.481246 0.83459 0.268014
vn -0.249123 0.941038 0.228736
vn -0.552477 0.0895108 0.828669
vn -0.971892 0.141453 0.188116
vn -0.978179 0.197424 0.0646077
vn -0.943999 -0.195257 0.265847
vn 0.752983 -0.656331 0.0469069
vn 0.231635 -0.619526 -0.749992
vn -0.442 0.0420239 -0.895993
vn 0.0494705 0.103092 0.993408

# Mesh 'LFinger12_LFinger12' with 296 faces
g LFinger12_LFinger12
usemtl MainSkin
f  1/1/1 2/1/2 3/1/3
f  3/1/3 4/1/4 5/1/5
f  5/1/5 4/1/4 6/1/6
f  7/1/7 6/1/6 8/1/8
f  9/1/9 10/1/10 11/1/11
f  4/1/4 12/1/12 13/1/13
f  6/1/6 13/1/13 14/1/14
f  15/1/15 9/1/9 8/1/8
f  16/1/16 17/1/17 18/1/18
f  19/1/19 2/1/2 16/1/16
f  20/1/20 21/1/21 19/1/19
f  12/1/12 4/1/4 3/1/3
f  22/1/22 23/1/23 24/1/24
f  25/1/25 13/1/13 12/1/12
f  26/1/26 14/1/14 13/1/13
f  14/1/14 26/1/26 27/1/27
f  28/1/28 27/1/27 26/1/26
f  29/1/29 26/1/26 25/1/25
f  30/1/30 25/1/25 24/1/24
f  23/1/23 21/1/21 31/1/31
f  23/1/23 32/1/32 33/1/33
f  34/1/34 35/1/35 36/1/36
f  37/1/37 5/1/5 38/1/38
f  39/1/39 38/1/38 5/1/5
f  40/1/40 39/1/39 7/1/7
f  40/1/40 11/1/11 10/1/10
f  40/1/40 41/1/41 42/1/42
f  39/1/39 40/1/40 43/1/43
f  44/1/44 45/1/45 38/1/38
f  46/1/46 38/1/38 45/1/45
f  47/1/47 46/1/46 48/1/48
f  49/1/49 16/1/16 2/1/2
f  22/1/22 3/1/3 2/1/2
f  21/1/21 23/1/23 22/1/22
f  20/1/20 50/1/50 31/1/31
f  46/1/46 47/1/47 1/1/1
f  51/1/51 52/1/52 34/1/34
f  53/1/53 54/1/54 43/1/43
f  44/1/44 43/1/43 54/1/54
f  45/1/45 44/1/44 55/1/55
f  48/1/48 45/1/45 56/1/56
f  57/1/57 51/1/51 48/1/48
f  58/1/58 52/1/52 59/1/59
f  59/1/59 52/1/52 51/1/51
f  60/1/60 33/1/33 32/1/32
f  33/1/33 60/1/60 61/1/61
f  62/1/62 29/1/29 30/1/30
f  29/1/29 62/1/62 63/1/63
f  64/1/64 60/1/60 65/1/65
f  64/1/64 66/1/66 61/1/61
f  66/1/66 67/1/67 62/1/62
f  68/1/68 63/1/63 62/1/62
f  63/1/63 68/1/68 69/1/69
f  70/1/70 71/1/71 69/1/69
f  28/1/28 63/1/63 71/1/71
f  72/1/72 73/1/73 71/1/71
f  73/1/73 74/1/74 75/1/75
f  74/1/74 73/1/73 72/1/72
f  76/1/76 65/1/65 32/1/32
f  77/1/77 76/1/76 31/1/31
f  65/1/65 76/1/76 78/1/78
f  79/1/79 78/1/78 76/1/76
f  49/1/49 1/1/1 47/1/47
f  17/1/17 16/1/16 49/1/49
f  80/1/80 20/1/20 81/1/81
f  82/1/82 50/1/50 20/1/20
f  35/1/35 34/1/34 52/1/52
f  27/1/27 28/1/28 75/1/75
f  15/1/15 27/1/27 83/1/83
f  9/1/9 15/1/15 84/1/84
f  10/1/10 9/1/9 85/1/85
f  86/1/86 87/1/87 41/1/41
f  87/1/87 88/1/88 42/1/42
f  53/1/53 42/1/42 88/1/88
f  89/1/89 90/1/90 91/1/91
f  91/1/91 90/1/90 92/1/92
f  92/1/92 93/1/93 94/1/94
f  94/1/94 93/1/93 95/1/95
f  95/1/95 96/1/96 97/1/97
f  98/1/98 94/1/94 99/1/99
f  94/1/94 100/1/100 101/1/101
f  102/1/102 101/1/101 100/1/100
f  17/1/17 103/1/103 104/1/104
f  105/1/105 104/1/104 103/1/103
f  106/1/106 104/1/104 105/1/105
f  107/1/107 108/1/108 91/1/91
f  108/1/108 107/1/107 109/1/109
f  110/1/110 109/1/109 107/1/107
f  111/1/111 110/1/110 99/1/99
f  101/1/101 102/1/102 112/1/112
f  113/1/113 114/1/114 111/1/111
f  114/1/114 115/1/115 110/1/110
f  115/1/115 116/1/116 109/1/109
f  117/1/117 118/1/118 119/1/119
f  116/1/116 120/1/120 119/1/119
f  35/1/35 121/1/121 122/1/122
f  123/1/123 92/1/92 90/1/90
f  124/1/124 93/1/93 92/1/92
f  125/1/125 95/1/95 93/1/93
f  95/1/95 125/1/125 126/1/126
f  125/1/125 127/1/127 128/1/128
f  124/1/124 129/1/129 127/1/127
f  129/1/129 124/1/124 123/1/123
f  130/1/130 131/1/131 132/1/132
f  133/1/133 134/1/134 131/1/131
f  122/1/122 89/1/89 135/1/135
f  108/1/108 105/1/105 135/1/135
f  118/1/118 105/1/105 108/1/108
f  106/1/106 118/1/118 117/1/117
f  89/1/89 133/1/133 130/1/130
f  134/1/134 133/1/133 121/1/121
f  136/1/136 128/1/128 127/1/127
f  129/1/129 137/1/137 138/1/138
f  132/1/132 139/1/139 137/1/137
f  139/1/139 132/1/132 131/1/131
f  140/1/140 141/1/141 131/1/131
f  58/1/58 142/1/142 143/1/143
f  143/1/143 140/1/140 134/1/134
f  144/1/144 145/1/145 120/1/120
f  116/1/116 115/1/115 146/1/146
f  115/1/115 114/1/114 147/1/147
f  114/1/114 113/1/113 148/1/148
f  145/1/145 144/1/144 149/1/149
f  149/1/149 144/1/144 146/1/146
f  150/1/150 146/1/146 147/1/147
f  151/1/151 152/1/152 147/1/147
f  148/1/148 153/1/153 154/1/154
f  155/1/155 156/1/156 154/1/154
f  113/1/113 157/1/157 153/1/153
f  158/1/158 155/1/155 153/1/153
f  157/1/157 113/1/113 75/1/75
f  74/1/74 159/1/159 158/1/158
f  160/1/160 117/1/117 120/1/120
f  161/1/161 162/1/162 117/1/117
f  145/1/145 163/1/163 164/1/164
f  165/1/165 161/1/161 160/1/160
f  133/1/133 89/1/89 122/1/122
f  17/1/17 36/1/36 122/1/122
f  80/1/80 18/1/18 104/1/104
f  162/1/162 82/1/82 80/1/80
f  35/1/35 58/1/58 166/1/166
f  112/1/112 83/1/83 75/1/75
f  102/1/102 84/1/84 83/1/83
f  97/1/97 85/1/85 84/1/84
f  96/1/96 86/1/86 85/1/85
f  87/1/87 86/1/86 96/1/96
f  88/1/88 87/1/87 126/1/126
f  136/1/136 167/1/167 88/1/88
f  37/1/37 1/1/1 3/1/3
f  37/1/37 3/1/3 5/1/5
f  7/1/7 5/1/5 6/1/6
f  11/1/11 7/1/7 8/1/8
f  8/1/8 9/1/9 11/1/11
f  6/1/6 4/1/4 13/1/13
f  8/1/8 6/1/6 14/1/14
f  14/1/14 15/1/15 8/1/8
f  81/1/81 16/1/16 18/1/18
f  81/1/81 19/1/19 16/1/16
f  81/1/81 20/1/20 19/1/19
f  22/1/22 12/1/12 3/1/3
f  12/1/12 22/1/22 24/1/24
f  24/1/24 25/1/25 12/1/12
f  25/1/25 26/1/26 13/1/13
f  15/1/15 14/1/14 27/1/27
f  29/1/29 28/1/28 26/1/26
f  30/1/30 29/1/29 25/1/25
f  33/1/33 30/1/30 24/1/24
f  32/1/32 23/1/23 31/1/31
f  24/1/24 23/1/23 33/1/33
f  49/1/49 34/1/34 36/1/36
f  46/1/46 37/1/37 38/1/38
f  7/1/7 39/1/39 5/1/5
f  11/1/11 40/1/40 7/1/7
f  41/1/41 40/1/40 10/1/10
f  43/1/43 40/1/40 42/1/42
f  44/1/44 39/1/39 43/1/43
f  39/1/39 44/1/44 38/1/38
f  48/1/48 46/1/46 45/1/45
f  51/1/51 47/1/47 48/1/48
f  1/1/1 49/1/49 2/1/2
f  19/1/19 22/1/22 2/1/2
f  19/1/19 21/1/21 22/1/22
f  21/1/21 20/1/20 31/1/31
f  37/1/37 46/1/46 1/1/1
f  47/1/47 51/1/51 34/1/34
f  42/1/42 53/1/53 43/1/43
f  55/1/55 44/1/44 54/1/54
f  56/1/56 45/1/45 55/1/55
f  168/1/168 48/1/48 56/1/56
f  168/1/168 57/1/57 48/1/48
f  142/1/142 58/1/58 59/1/59
f  57/1/57 59/1/59 51/1/51
f  65/1/65 60/1/60 32/1/32
f  30/1/30 33/1/33 61/1/61
f  61/1/61 62/1/62 30/1/30
f  28/1/28 29/1/29 63/1/63
f  169/1/169 64/1/64 65/1/65
f  60/1/60 64/1/64 61/1/61
f  61/1/61 66/1/66 62/1/62
f  67/1/67 68/1/68 62/1/62
f  71/1/71 63/1/63 69/1/69
f  170/1/170 70/1/70 69/1/69
f  73/1/73 28/1/28 71/1/71
f  70/1/70 72/1/72 71/1/71
f  28/1/28 73/1/73 75/1/75
f  159/1/159 74/1/74 72/1/72
f  31/1/31 76/1/76 32/1/32
f  50/1/50 77/1/77 31/1/31
f  169/1/169 65/1/65 78/1/78
f  77/1/77 79/1/79 76/1/76
f  34/1/34 49/1/49 47/1/47
f  36/1/36 17/1/17 49/1/49
f  18/1/18 80/1/80 81/1/81
f  80/1/80 82/1/82 20/1/20
f  58/1/58 35/1/35 52/1/52
f  83/1/83 27/1/27 75/1/75
f  84/1/84 15/1/15 83/1/83
f  85/1/85 9/1/9 84/1/84
f  86/1/86 10/1/10 85/1/85
f  10/1/10 86/1/86 41/1/41
f  41/1/41 87/1/87 42/1/42
f  167/1/167 53/1/53 88/1/88
f  135/1/135 89/1/89 91/1/91
f  98/1/98 91/1/91 92/1/92
f  98/1/98 92/1/92 94/1/94
f  100/1/100 94/1/94 95/1/95
f  100/1/100 95/1/95 97/1/97
f  107/1/107 98/1/98 99/1/99
f  99/1/99 94/1/94 101/1/101
f  97/1/97 102/1/102 100/1/100
f  18/1/18 17/1/17 104/1/104
f  135/1/135 105/1/105 103/1/103
f  118/1/118 106/1/106 105/1/105
f  98/1/98 107/1/107 91/1/91
f  119/1/119 108/1/108 109/1/109
f  99/1/99 110/1/110 107/1/107
f  101/1/101 111/1/111 99/1/99
f  111/1/111 101/1/101 112/1/112
f  112/1/112 113/1/113 111/1/111
f  111/1/111 114/1/114 110/1/110
f  110/1/110 115/1/115 109/1/109
f  120/1/120 117/1/117 119/1/119
f  109/1/109 116/1/116 119/1/119
f  36/1/36 35/1/35 122/1/122
f  130/1/130 123/1/123 90/1/90
f  123/1/123 124/1/124 92/1/92
f  124/1/124 125/1/125 93/1/93
f  96/1/96 95/1/95 126/1/126
f  126/1/126 125/1/125 128/1/128
f  125/1/125 124/1/124 127/1/127
f  132/1/132 129/1/129 123/1/123
f  123/1/123 130/1/130 132/1/132
f  130/1/130 133/1/133 131/1/131
f  103/1/103 122/1/122 135/1/135
f  91/1/91 108/1/108 135/1/135
f  119/1/119 118/1/118 108/1/108
f  162/1/162 106/1/106 117/1/117
f  90/1/90 89/1/89 130/1/130
f  166/1/166 134/1/134 121/1/121
f  138/1/138 136/1/136 127/1/127
f  127/1/127 129/1/129 138/1/138
f  129/1/129 132/1/132 137/1/137
f  141/1/141 139/1/139 131/1/131
f  134/1/134 140/1/140 131/1/131
f  166/1/166 58/1/58 143/1/143
f  166/1/166 143/1/143 134/1/134
f  116/1/116 144/1/144 120/1/120
f  144/1/144 116/1/116 146/1/146
f  146/1/146 115/1/115 147/1/147
f  147/1/147 114/1/114 148/1/148
f  163/1/163 145/1/145 149/1/149
f  150/1/150 149/1/149 146/1/146
f  152/1/152 150/1/150 147/1/147
f  148/1/148 151/1/151 147/1/147
f  151/1/151 148/1/148 154/1/154
f  153/1/153 155/1/155 154/1/154
f  148/1/148 113/1/113 153/1/153
f  157/1/157 158/1/158 153/1/153
f  74/1/74 157/1/157 75/1/75
f  157/1/157 74/1/74 158/1/158
f  145/1/145 160/1/160 120/1/120
f  160/1/160 161/1/161 117/1/117
f  160/1/160 145/1/145 164/1/164
f  164/1/164 165/1/165 160/1/160
f  121/1/121 133/1/133 122/1/122
f  103/1/103 17/1/17 122/1/122
f  106/1/106 80/1/80 104/1/104
f  106/1/106 162/1/162 80/1/80
f  121/1/121 35/1/35 166/1/166
f  113/1/113 112/1/112 75/1/75
f  112/1/112 102/1/102 83/1/83
f  102/1/102 97/1/97 84/1/84
f  97/1/97 96/1/96 85/1/85
f  126/1/126 87/1/87 96/1/96
f  128/1/128 88/1/88 126/1/126
f  128/1/128 136/1/136 88/1/88

