# File produced by Open Asset Import Library (http://www.assimp.sf.net)
# (assimp v3.2.0)

mtllib LFinger23.mtl

# 177 vertex positions
v  -0.00110197 -0.012414 -0.00973076
v  -0.00402748 -0.012732 -0.00642449
v  -0.00474697 -0.00242019 -0.00877029
v  -0.00171524 -0.00297374 -0.0105696
v  0.0031243 -0.00406349 -0.0105094
v  0.00322479 -0.0107487 -0.00954819
v  0.00772357 -0.00595081 -0.00663388
v  0.00878221 -0.00607437 -0.00380134
v  0.00846296 -0.00857884 -0.00390458
v  0.00898182 -0.00853348 -0.00164539
v  0.00332618 -0.00361294 -0.0100295
v  0.00744116 -0.00498378 -0.00664562
v  0.00854331 -0.00499695 -0.00377166
v  0.00888294 -0.00508785 -0.00155181
v  0.00927406 -0.00610727 -0.00160551
v  -0.0071789 -0.00161272 6.22062e-05
v  -0.00734299 -0.000177867 8.84419e-06
v  -0.00690186 -0.000646346 -0.00387657
v  -0.0048964 -0.00158226 -0.00869679
v  -0.00684613 -0.00167721 -0.00394696
v  -0.00672567 0.00247985 -0.00581974
v  -0.00437695 0.00127858 -0.00940496
v  -0.00138748 -0.00227398 -0.0102488
v  -0.00068452 0.00146037 -0.0105287
v  0.00348079 -5.28982e-05 -0.0101417
v  0.00756168 -0.00212884 -0.00668192
v  0.00855619 -0.00247651 -0.00399101
v  0.00899899 -0.00282884 -0.00127089
v  0.00775087 -0.00129223 -0.000992935
v  0.00739384 -0.0011729 -0.00379842
v  0.00639713 -0.000670231 -0.00583535
v  -0.00309408 0.00119734 -0.00823808
v  -4.30079e-05 0.00275761 -0.010318
v  0.00297391 0.0011791 -0.00898945
v  -0.00476187 -0.014144 0.000525552
v  -0.00527996 -0.0132056 0.00048863
v  -0.00487459 -0.0129902 -0.00320679
v  0.00327849 -0.0121274 -0.00881082
v  0.0070948 -0.0101465 -0.00614989
v  0.00822157 -0.00952828 -0.00368583
v  0.00745183 -0.00907207 -0.0062598
v  0.00873047 -0.00926089 -0.00129694
v  0.00684667 -0.0159172 -0.000646147
v  0.00659817 -0.0160925 -0.00237447
v  0.00584161 -0.0162149 -0.00480956
v  0.00284707 -0.016188 -0.00747967
v  -0.000639156 -0.0136712 -0.00895208
v  -0.00357115 -0.0140937 -0.0060606
v  -0.000204697 -0.0164353 -0.00761896
v  -0.0058499 0.00316405 -0.00542432
v  -0.00288266 -0.016784 -0.00608718
v  -0.00407445 -0.0167677 -0.00362039
v  0.00346667 0.00368547 -0.00897235
v  0.00753021 0.00305355 -0.00575471
v  0.00851816 0.00302082 -0.00386786
v  0.00910395 0.00305098 -0.00139236
v  0.00292623 0.0077424 -0.00894439
v  0.000563736 0.00452423 -0.00894958
v  0.00651699 0.00963074 -0.00580883
v  0.00731754 0.0101637 -0.00404334
v  0.00772732 0.0101825 -0.00296712
v  0.00377673 0.00859821 -0.00254416
v  0.0013684 0.00274867 -0.00154436
v  0.00450939 0.00103873 -0.00136721
v  0.00132769 0.000723938 -0.00115556
v  0.00465447 0.000389785 -0.000943052
v  0.00457281 0.000446736 5.81444e-05
v  0.00768971 -0.0012244 0.000136272
v  -0.000372436 0.0026992 -0.00725847
v  -0.000943124 0.00211191 -0.00555169
v  3.65228e-05 0.00635529 -0.00747812
v  5.67466e-06 0.00635147 -0.00554347
v  0.00682735 -0.0159447 0.000659404
v  0.003874 -0.0185796 0.000736071
v  0.00386077 -0.0186154 -0.000857817
v  0.000865299 -0.0195215 0.000752065
v  0.000734174 -0.0194997 -0.000797402
v  -0.00235635 -0.018563 0.000698345
v  -0.0017342 -0.0179296 -0.00523901
v  -0.00240242 -0.0182755 -0.00366771
v  -6.57776e-05 -0.0175492 -0.00618857
v  0.00274533 -0.0175545 -0.00619692
v  0.00512689 -0.0175502 -0.00263876
v  0.0048877 -0.0173784 -0.0043174
v  0.00118554 -0.0192144 -0.00275779
v  0.00167131 -0.0185676 -0.00469053
v  -0.00766814 0.00196844 -7.02923e-05
v  -0.00442886 -0.0141715 -0.00329667
v  -0.00464964 -0.0163212 0.000604007
v  0.00901824 -0.00275326 0.000199407
v  0.00896096 -0.00506127 0.000281687
v  0.0093376 -0.00600326 0.000318096
v  0.00906879 -0.00844073 0.000403418
v  0.00861841 -0.0094676 0.000437981
v  -0.00485217 -0.00178391 0.00895655
v  -0.00410944 -0.0122379 0.00736529
v  -0.00122386 -0.0116817 0.0106751
v  -0.00184339 -0.00220662 0.0108273
v  0.00310492 -0.0100323 0.0104242
v  0.0073728 -0.0085935 0.00707513
v  0.00764066 -0.00545442 0.00722754
v  0.00841182 -0.0082705 0.00470298
v  0.00895786 -0.00838643 0.00245309
v  0.009251 -0.00596851 0.00224245
v  0.00873268 -0.00577897 0.00442427
v  0.00299603 -0.00329524 0.0109032
v  0.00735801 -0.00448888 0.00716698
v  0.00849402 -0.00470674 0.00431484
v  0.00886118 -0.00495577 0.00211102
v  -0.00689358 -0.00138944 0.00406754
v  -0.00694764 -0.000366399 0.00392371
v  -0.00500142 -0.000954169 0.00882208
v  -0.00679421 0.00289076 0.00563943
v  0.00320405 -0.00288033 0.0103942
v  -0.00151175 -0.00153124 0.0104616
v  0.00335896 0.000678522 0.010253
v  0.00747967 -0.00163853 0.00700009
v  0.0085066 -0.0021764 0.00435352
v  0.00898105 -0.00272268 0.00167096
v  0.00773704 -0.00121105 0.00126785
v  0.00734657 -0.000890988 0.00405371
v  0.00632679 -0.00024401 0.00603706
v  0.0028671 0.00182438 0.00900936
v  -0.00319177 0.00178605 0.00818688
v  -0.00448895 0.00195104 0.00932992
v  -0.000810165 0.00221401 0.0104814
v  -0.000166124 0.00349319 0.0101861
v  -0.00447452 -0.0138971 0.00434345
v  -0.00491881 -0.0127256 0.00416368
v  0.00316709 -0.0114609 0.00978822
v  0.0070166 -0.00967366 0.00703788
v  0.00817263 -0.00923318 0.00455058
v  0.00656122 -0.0158746 0.00369316
v  0.00683129 -0.0158238 0.00195992
v  0.00577593 -0.0158227 0.0061214
v  -0.000752519 -0.0129922 0.00999349
v  -0.000303938 -0.0158439 0.00886679
v  0.0027501 -0.0156058 0.0087471
v  -0.00365001 -0.0136213 0.00710523
v  -0.00296313 -0.016302 0.00733179
v  -0.00412446 -0.0164641 0.00485659
v  0.00336063 0.0043236 0.00881934
v  0.000458003 0.00515711 0.00870085
v  0.00746125 0.00346452 0.00570357
v  0.00847208 0.00329685 0.00383586
v  0.00908715 0.00315004 0.00137108
v  0.00282234 0.00836861 0.0084939
v  0.00645041 0.0100291 0.00527376
v  0.00769466 0.010376 0.00241488
v  0.0072732 0.0104337 0.00348502
v  0.00449312 0.0011397 0.00143599
v  0.00374985 0.00876331 0.00205922
v  0.0013501 0.0028559 0.00145215
v  0.000873818 0.00708258 0.00138003
v  0.00464195 0.000462115 0.00106144
v  0.00131297 0.000808772 0.00120896
v  0.000984095 0.000952655 1.88843e-05
v  -0.000458451 0.00321567 0.00713456
v  -0.00100911 0.00250661 0.00546831
v  -0.00591338 0.0035451 0.00520658
v  0.000277943 0.00698799 0.0085544
v  -5.03753e-05 0.00687808 0.00709653
v  -5.81563e-05 0.00673634 0.00516653
v  0.00384218 -0.0185004 0.0023278
v  0.000716581 -0.0193887 0.00229436
v  -0.00245368 -0.0179635 0.00503111
v  -0.00180405 -0.0175062 0.00658202
v  -0.000147079 -0.017057 0.00752199
v  0.00266296 -0.0170603 0.00756419
v  0.00508684 -0.0173112 0.00404394
v  0.00114363 -0.0189636 0.00423479
v  0.00482816 -0.0170182 0.0057025
v  0.0016067 -0.0181793 0.00612098
v  -0.00609136 0.00343895 -0.000113577
v  0.00870937 -0.00913721 0.00215441
v  0.000382635 0.00636095 -0.00893545
v  0.000892762 0.00696939 -0.00178015

# 1 UV coordinates
vt 4.61149 0.499573 0

# 214 vertex normals
vn -0.287668 -0.338267 -0.895962
vn -0.806238 -0.299875 -0.509903
vn -0.752892 -0.0108951 -0.65801
vn -0.278268 0.131657 -0.951415
vn 0.340007 0.160161 -0.926664
vn 0.380108 -0.251106 -0.890164
vn 0.823664 0.0513626 -0.564714
vn 0.958373 0.0743126 -0.275643
vn 0.935758 -0.214454 -0.279855
vn 0.964568 -0.233344 -0.122929
vn 0.457289 0.18308 -0.870235
vn 0.813563 0.123691 -0.568133
vn 0.959258 0.116001 -0.257576
vn 0.982177 0.155431 -0.105411
vn 0.987457 0.102725 -0.119633
vn -0.991913 -0.126713 -0.00128174
vn -0.996674 -0.0813318 -0.00299078
vn -0.967711 -0.0843226 -0.237465
vn -0.736839 -0.0132145 -0.675893
vn -0.964782 -0.122043 -0.232887
vn -0.766198 0.5197 -0.37788
vn -0.522813 0.433637 -0.733879
vn -0.133305 0.178625 -0.974822
vn -0.116092 0.447371 -0.886746
vn 0.46147 0.27369 -0.843867
vn 0.814173 0.29957 -0.49733
vn 0.91995 0.332621 -0.207434
vn 0.948943 0.307291 -0.070986
vn 0.806665 0.567522 0.1648
vn 0.932981 0.265084 -0.243446
vn 0.814051 0.304056 -0.494797
vn -0.212256 0.929106 -0.302744
vn -0.110782 0.711295 -0.694052
vn 0.536637 0.308664 -0.785302
vn -0.967925 -0.251137 0.00323492
vn -0.955596 -0.294565 0.00485241
vn -0.940611 -0.276192 -0.197363
vn 0.442518 -0.371624 -0.816126
vn 0.790429 -0.309336 -0.528672
vn 0.922605 -0.30137 -0.240638
vn 0.805933 -0.21662 -0.55089
vn 0.944792 -0.319926 -0.0704672
vn 0.858425 -0.51204 -0.0296029
vn 0.847316 -0.509293 -0.150456
vn 0.745781 -0.4785 -0.463485
vn 0.348186 -0.514145 -0.783807
vn -0.21308 -0.445296 -0.869625
vn -0.787042 -0.33491 -0.518052
vn -0.17246 -0.550554 -0.816767
vn -0.305826 0.918149 -0.251839
vn -0.63509 -0.514267 -0.576312
vn -0.862484 -0.456374 -0.218635
vn 0.436659 0.051149 -0.898129
vn 0.781732 -0.0478835 -0.621754
vn 0.936888 -0.0661336 -0.343242
vn 0.807092 0.0597552 0.587359
vn 0.399945 0.0602435 -0.914548
vn -0.487411 0.268227 -0.830927
vn 0.790307 0.118076 -0.601215
vn 0.92346 0.137699 -0.358104
vn 0.865139 0.253944 0.432417
vn 0.0217292 0.16126 0.986663
vn 0.0770592 0.183569 0.979949
vn 0.0236518 0.207343 0.977966
vn 0.104923 0.846492 0.521927
vn 0.20893 0.748253 0.629597
vn 0.295999 0.954619 -0.0325022
vn 0.625935 0.779473 -0.0241706
vn -0.763573 0.611133 -0.20838
vn -0.50499 0.808771 -0.301309
vn -0.961852 0.0922269 -0.257515
vn -0.977142 0.164403 -0.134709
vn 0.665642 -0.746248 -0.00583815
vn 0.298785 -0.954132 0.018952
vn -0.2853 -0.958379 0.0106794
vn -0.495569 -0.779862 -0.382396
vn -0.217495 -0.712158 -0.667478
vn 0.0885187 -0.685238 -0.72292
vn 0.528607 -0.601577 -0.598899
vn 0.725004 -0.667029 -0.171586
vn 0.706183 -0.707404 -0.029768
vn 0.382367 -0.887046 -0.258738
vn -0.204076 -0.960959 -0.186846
vn 0.386033 -0.899642 -0.204016
vn -0.119547 -0.932084 -0.341948
vn 0.360832 -0.872462 -0.329562
vn -0.941893 0.335368 -0.0176397
vn -0.943877 -0.253334 -0.211859
vn -0.911222 -0.411725 0.00933862
vn 0.944578 0.328196 -0.00607318
vn 0.984954 0.172704 -0.000305185
vn 0.991211 0.132206 0.00109863
vn 0.969878 -0.243019 0.0144657
vn 0.948882 -0.315073 0.0169683
vn -0.669747 -0.741414 -0.04176
vn -0.760735 0.0355846 0.648061
vn -0.812433 -0.262886 0.520402
vn -0.29844 -0.273263 0.914457
vn -0.289651 0.199133 0.936155
vn 0.369366 -0.186499 0.910337
vn 0.799219 -0.176122 0.574633
vn 0.816889 0.0921964 0.569323
vn 0.932279 -0.193396 0.305612
vn 0.96292 -0.223609 0.150792
vn 0.985992 0.111606 0.123783
vn 0.954985 0.0945768 0.281106
vn 0.32899 0.226356 0.916776
vn 0.806757 0.164464 0.567492
vn 0.956114 0.134587 0.26017
vn 0.980926 0.162969 0.105808
vn -0.967559 -0.105563 0.229499
vn -0.970489 -0.0676595 0.231391
vn -0.744987 0.0344554 0.666158
vn -0.77047 0.545152 0.330393
vn 0.447035 0.245125 0.860256
vn -0.144932 0.247749 0.957915
vn 0.451521 0.333506 0.82754
vn 0.808313 0.334574 0.48439
vn 0.917539 0.347026 0.194067
vn 0.948119 0.312113 0.0600909
vn 0.80874 0.554704 -0.195471
vn 0.930113 0.282296 0.234901
vn 0.808222 0.338969 0.48149
vn 0.527421 0.36433 0.767479
vn -0.21543 0.948393 0.232612
vn -0.531297 0.485061 0.69454
vn -0.126316 0.509781 0.850948
vn -0.118809 0.75927 0.63979
vn -0.94644 -0.237983 0.218177
vn -0.943022 -0.261696 0.20542
vn 0.4326 -0.31196 0.845882
vn 0.783898 -0.270333 0.558886
vn 0.919523 -0.28309 0.272591
vn 0.845271 -0.496811 0.196661
vn 0.857814 -0.508225 0.0764794
vn 0.739982 -0.443709 0.505448
vn -0.22364 -0.381939 0.896695
vn -0.182501 -0.490768 0.851924
vn 0.338572 -0.456557 0.822718
vn -0.793329 -0.297342 0.531205
vn -0.642232 -0.471938 0.603961
vn -0.865169 -0.440046 0.240425
vn 0.425947 0.115574 0.897305
vn -0.49736 0.326823 0.803583
vn 0.774194 -0.00286871 0.632893
vn 0.932737 -0.0410169 0.358196
vn 0.81399 0.0178228 -0.580584
vn 0.389141 0.125736 0.912534
vn 0.783044 0.161168 0.600696
vn 0.870205 0.222602 -0.439467
vn 0.919187 0.163366 0.358257
vn 0.0353709 0.136723 -0.989959
vn 0.0335398 0.0901822 -0.995331
vn 0.0888394 0.112888 -0.989593
vn 0.109653 0.0574053 -0.992279
vn 0.21662 0.701224 -0.67919
vn 0.111545 0.80697 -0.579913
vn 0.123539 0.991699 -0.0348521
vn -0.765831 0.624073 0.154851
vn -0.508133 0.82812 0.236549
vn -0.308298 0.933775 0.181616
vn -0.516587 0.0790429 0.852534
vn -0.964812 0.11005 0.238685
vn -0.978576 0.173284 0.110935
vn 0.669667 -0.740959 0.0502677
vn 0.270683 -0.95654 0.108456
vn -0.316613 -0.940543 0.123028
vn -0.646112 -0.679477 0.347636
vn -0.2258 -0.662175 0.71452
vn -0.0109181 -0.743125 0.669064
vn 0.521146 -0.557067 0.646593
vn 0.70601 -0.665374 0.242543
vn 0.668815 -0.742836 0.029687
vn 0.268827 -0.95155 0.14928
vn -0.206869 -0.945202 0.252585
vn 0.355776 -0.909246 0.216089
vn -0.0888203 -0.828682 0.552628
vn -0.0101939 -0.786617 0.617357
vn -0.654958 0.754997 -0.0309762
vn 0.943663 -0.313883 0.104465
vn 0.844569 -0.534837 0.0242317
vn -0.698992 -0.712403 0.0623847
vn -0.506455 0.0176702 -0.862056
vn 0.0978423 0.128391 0.986877
vn 0.669983 -0.742293 0.0111179
vn 0.271317 -0.961799 -0.0364729
vn -0.315608 -0.947052 -0.0590362
vn -0.64237 -0.702772 -0.305733
vn -0.232409 -0.778189 -0.583445
vn -0.0032922 -0.78913 -0.614217
vn 0.526013 -0.658803 -0.537856
vn 0.708187 -0.681138 -0.185802
vn 0.668907 -0.742686 0.0313157
vn 0.269944 -0.95975 -0.0775241
vn -0.175267 -0.943225 -0.282149
vn 0.35792 -0.922362 -0.145402
vn -0.0829223 -0.866221 -0.492733
vn -0.00320309 -0.828707 -0.559673
vn -0.6985 -0.715345 -0.0194851
vn 0.665207 -0.74364 0.06708
vn 0.298579 -0.95289 0.0533896
vn -0.285564 -0.956789 0.0548407
vn -0.500926 -0.750499 0.431073
vn -0.239828 -0.734613 0.634686
vn 0.0794858 -0.631815 0.771033
vn 0.51925 -0.618367 0.589917
vn 0.722519 -0.652682 0.227973
vn 0.705897 -0.702649 0.089407
vn 0.378796 -0.866314 0.325599
vn -0.179273 -0.920747 0.346536
vn 0.383028 -0.882496 0.27293
vn -0.123628 -0.905145 0.406731
vn 0.356462 -0.846505 0.395429
vn -0.670405 -0.736889 0.0868999

# Mesh 'LFinger23_LFinger23' with 324 faces
g LFinger23_LFinger23
usemtl MainSkin
f  1/1/1 2/1/2 3/1/3
f  4/1/4 5/1/5 6/1/6
f  6/1/6 5/1/5 7/1/7
f  7/1/7 8/1/8 9/1/9
f  10/1/10 9/1/9 8/1/8
f  5/1/5 11/1/11 12/1/12
f  7/1/7 12/1/12 13/1/13
f  14/1/14 15/1/15 8/1/8
f  16/1/16 17/1/17 18/1/18
f  19/1/19 3/1/3 20/1/20
f  21/1/21 22/1/22 19/1/19
f  23/1/23 11/1/11 5/1/5
f  23/1/23 24/1/24 25/1/25
f  26/1/26 12/1/12 11/1/11
f  27/1/27 13/1/13 12/1/12
f  13/1/13 27/1/27 28/1/28
f  29/1/29 28/1/28 27/1/27
f  30/1/30 27/1/27 26/1/26
f  31/1/31 26/1/26 25/1/25
f  24/1/24 22/1/22 32/1/32
f  24/1/24 33/1/33 34/1/34
f  35/1/35 36/1/36 37/1/37
f  1/1/1 6/1/6 38/1/38
f  39/1/39 38/1/38 6/1/6
f  40/1/40 39/1/39 41/1/41
f  40/1/40 9/1/9 10/1/10
f  40/1/40 42/1/42 43/1/43
f  39/1/39 40/1/40 44/1/44
f  45/1/45 46/1/46 38/1/38
f  47/1/47 38/1/38 46/1/46
f  48/1/48 47/1/47 49/1/49
f  2/1/2 37/1/37 20/1/20
f  23/1/23 4/1/4 3/1/3
f  22/1/22 24/1/24 23/1/23
f  21/1/21 50/1/50 32/1/32
f  47/1/47 48/1/48 2/1/2
f  48/1/48 51/1/51 52/1/52
f  53/1/53 34/1/34 33/1/33
f  34/1/34 53/1/53 54/1/54
f  30/1/30 31/1/31 54/1/54
f  30/1/30 55/1/55 56/1/56
f  57/1/57 53/1/53 58/1/58
f  57/1/57 59/1/59 54/1/54
f  59/1/59 60/1/60 55/1/55
f  61/1/61 56/1/56 55/1/55
f  56/1/56 61/1/61 62/1/62
f  63/1/63 64/1/64 62/1/62
f  29/1/29 56/1/56 64/1/64
f  65/1/65 66/1/66 64/1/64
f  66/1/66 67/1/67 68/1/68
f  67/1/67 66/1/66 65/1/65
f  69/1/69 58/1/58 33/1/33
f  70/1/70 69/1/69 32/1/32
f  58/1/58 69/1/69 71/1/71
f  72/1/72 71/1/71 69/1/69
f  37/1/37 2/1/2 48/1/48
f  43/1/73 73/1/73 74/1/73
f  75/1/74 74/1/74 76/1/74
f  77/1/75 76/1/75 78/1/75
f  51/1/76 79/1/76 80/1/76
f  81/1/77 79/1/77 51/1/77
f  49/1/78 46/1/78 82/1/78
f  82/1/79 46/1/79 45/1/79
f  83/1/80 84/1/80 45/1/80
f  83/1/81 44/1/81 43/1/81
f  85/1/82 83/1/82 75/1/82
f  85/1/83 77/1/83 80/1/83
f  83/1/84 85/1/84 86/1/84
f  86/1/85 85/1/85 79/1/85
f  82/1/86 84/1/86 86/1/86
f  16/1/16 20/1/20 37/1/37
f  87/1/87 21/1/21 18/1/18
f  50/1/50 21/1/21 87/1/87
f  88/1/88 52/1/52 89/1/89
f  90/1/90 28/1/28 29/1/29
f  91/1/91 14/1/14 28/1/28
f  92/1/92 15/1/15 14/1/14
f  93/1/93 10/1/10 15/1/15
f  42/1/42 10/1/10 93/1/93
f  43/1/43 42/1/42 94/1/94
f  52/1/95 80/1/95 78/1/95
f  95/1/96 96/1/97 97/1/98
f  98/1/99 97/1/98 99/1/100
f  99/1/100 100/1/101 101/1/102
f  101/1/102 100/1/101 102/1/103
f  103/1/104 104/1/105 105/1/106
f  106/1/107 101/1/102 107/1/108
f  101/1/102 105/1/106 108/1/109
f  109/1/110 108/1/109 105/1/106
f  16/1/16 110/1/111 111/1/112
f  112/1/113 111/1/112 110/1/111
f  113/1/114 111/1/112 112/1/113
f  106/1/107 114/1/115 115/1/116
f  115/1/116 114/1/115 116/1/117
f  117/1/118 116/1/117 114/1/115
f  118/1/119 117/1/118 107/1/108
f  108/1/109 109/1/110 119/1/120
f  120/1/121 121/1/122 118/1/119
f  121/1/122 122/1/123 117/1/118
f  122/1/123 123/1/124 116/1/117
f  124/1/125 125/1/126 126/1/127
f  123/1/124 127/1/128 126/1/127
f  35/1/35 128/1/129 129/1/130
f  130/1/131 99/1/100 97/1/98
f  131/1/132 100/1/101 99/1/100
f  132/1/133 102/1/103 100/1/101
f  103/1/104 102/1/103 132/1/133
f  132/1/133 133/1/134 134/1/135
f  131/1/132 135/1/136 133/1/134
f  135/1/136 131/1/132 130/1/131
f  136/1/137 137/1/138 138/1/139
f  139/1/140 140/1/141 137/1/138
f  110/1/111 129/1/130 96/1/97
f  115/1/116 112/1/113 95/1/96
f  125/1/126 112/1/113 115/1/116
f  113/1/114 125/1/126 124/1/125
f  96/1/97 139/1/140 136/1/137
f  141/1/142 140/1/141 139/1/140
f  142/1/143 143/1/144 127/1/128
f  123/1/124 122/1/123 144/1/145
f  121/1/122 145/1/146 144/1/145
f  121/1/122 120/1/121 146/1/147
f  143/1/144 142/1/143 147/1/148
f  147/1/148 142/1/143 144/1/145
f  148/1/149 144/1/145 145/1/146
f  149/1/150 150/1/151 145/1/146
f  146/1/147 151/1/152 152/1/153
f  153/1/154 154/1/155 152/1/153
f  120/1/121 155/1/156 151/1/152
f  156/1/157 153/1/154 151/1/152
f  155/1/156 120/1/121 68/1/68
f  67/1/67 157/1/158 156/1/157
f  158/1/159 124/1/125 127/1/128
f  159/1/160 160/1/161 124/1/125
f  143/1/144 161/1/162 162/1/163
f  163/1/164 159/1/160 158/1/159
f  139/1/140 96/1/97 129/1/130
f  134/1/165 164/1/165 74/1/165
f  164/1/166 165/1/166 76/1/166
f  165/1/167 166/1/167 78/1/167
f  140/1/168 141/1/168 166/1/168
f  140/1/169 167/1/169 168/1/169
f  137/1/170 168/1/170 169/1/170
f  135/1/171 138/1/171 169/1/171
f  170/1/172 133/1/172 135/1/172
f  170/1/173 164/1/173 134/1/173
f  171/1/174 165/1/174 164/1/174
f  166/1/175 165/1/175 171/1/175
f  170/1/176 172/1/176 173/1/176
f  173/1/177 168/1/177 167/1/177
f  169/1/178 168/1/178 173/1/178
f  16/1/16 36/1/36 129/1/130
f  87/1/87 17/1/17 111/1/112
f  160/1/161 174/1/179 87/1/87
f  128/1/129 35/1/35 89/1/89
f  90/1/90 68/1/68 120/1/121
f  91/1/91 90/1/90 119/1/120
f  92/1/92 91/1/91 109/1/110
f  93/1/93 92/1/92 104/1/105
f  175/1/180 94/1/94 93/1/93
f  134/1/135 73/1/181 94/1/94
f  141/1/182 89/1/182 78/1/182
f  4/1/4 1/1/1 3/1/3
f  1/1/1 4/1/4 6/1/6
f  41/1/41 6/1/6 7/1/7
f  41/1/41 7/1/7 9/1/9
f  15/1/15 10/1/10 8/1/8
f  7/1/7 5/1/5 12/1/12
f  8/1/8 7/1/7 13/1/13
f  13/1/13 14/1/14 8/1/8
f  20/1/20 16/1/16 18/1/18
f  18/1/18 19/1/19 20/1/20
f  18/1/18 21/1/21 19/1/19
f  4/1/4 23/1/23 5/1/5
f  11/1/11 23/1/23 25/1/25
f  25/1/25 26/1/26 11/1/11
f  26/1/26 27/1/27 12/1/12
f  14/1/14 13/1/13 28/1/28
f  30/1/30 29/1/29 27/1/27
f  31/1/31 30/1/30 26/1/26
f  34/1/34 31/1/31 25/1/25
f  33/1/33 24/1/24 32/1/32
f  25/1/25 24/1/24 34/1/34
f  88/1/88 35/1/35 37/1/37
f  47/1/47 1/1/1 38/1/38
f  41/1/41 39/1/39 6/1/6
f  9/1/9 40/1/40 41/1/41
f  42/1/42 40/1/40 10/1/10
f  44/1/44 40/1/40 43/1/43
f  45/1/45 39/1/39 44/1/44
f  39/1/39 45/1/45 38/1/38
f  49/1/49 47/1/47 46/1/46
f  51/1/51 48/1/48 49/1/49
f  3/1/3 2/1/2 20/1/20
f  19/1/19 23/1/23 3/1/3
f  19/1/19 22/1/22 23/1/23
f  22/1/22 21/1/21 32/1/32
f  1/1/1 47/1/47 2/1/2
f  88/1/88 48/1/48 52/1/52
f  58/1/58 53/1/53 33/1/33
f  31/1/31 34/1/34 54/1/54
f  55/1/55 30/1/30 54/1/54
f  29/1/29 30/1/30 56/1/56
f  176/1/183 57/1/57 58/1/58
f  53/1/53 57/1/57 54/1/54
f  54/1/54 59/1/59 55/1/55
f  60/1/60 61/1/61 55/1/55
f  64/1/64 56/1/56 62/1/62
f  177/1/184 63/1/63 62/1/62
f  66/1/66 29/1/29 64/1/64
f  63/1/63 65/1/65 64/1/64
f  29/1/29 66/1/66 68/1/68
f  157/1/158 67/1/67 65/1/65
f  32/1/32 69/1/69 33/1/33
f  50/1/50 70/1/70 32/1/32
f  176/1/183 58/1/58 71/1/71
f  70/1/70 72/1/72 69/1/69
f  88/1/88 37/1/37 48/1/48
f  75/1/185 43/1/185 74/1/185
f  77/1/186 75/1/186 76/1/186
f  80/1/187 77/1/187 78/1/187
f  52/1/188 51/1/188 80/1/188
f  49/1/189 81/1/189 51/1/189
f  81/1/190 49/1/190 82/1/190
f  84/1/191 82/1/191 45/1/191
f  44/1/192 83/1/192 45/1/192
f  75/1/193 83/1/193 43/1/193
f  77/1/194 85/1/194 75/1/194
f  79/1/195 85/1/195 80/1/195
f  84/1/196 83/1/196 86/1/196
f  81/1/197 86/1/197 79/1/197
f  81/1/198 82/1/198 86/1/198
f  36/1/36 16/1/16 37/1/37
f  17/1/17 87/1/87 18/1/18
f  174/1/179 50/1/50 87/1/87
f  35/1/35 88/1/88 89/1/89
f  68/1/68 90/1/90 29/1/29
f  90/1/90 91/1/91 28/1/28
f  91/1/91 92/1/92 14/1/14
f  92/1/92 93/1/93 15/1/15
f  94/1/94 42/1/42 93/1/93
f  73/1/181 43/1/43 94/1/94
f  89/1/199 52/1/199 78/1/199
f  98/1/99 95/1/96 97/1/98
f  106/1/107 98/1/99 99/1/100
f  106/1/107 99/1/100 101/1/102
f  105/1/106 101/1/102 102/1/103
f  102/1/103 103/1/104 105/1/106
f  114/1/115 106/1/107 107/1/108
f  107/1/108 101/1/102 108/1/109
f  104/1/105 109/1/110 105/1/106
f  17/1/17 16/1/16 111/1/112
f  95/1/96 112/1/113 110/1/111
f  125/1/126 113/1/114 112/1/113
f  98/1/99 106/1/107 115/1/116
f  126/1/127 115/1/116 116/1/117
f  107/1/108 117/1/118 114/1/115
f  108/1/109 118/1/119 107/1/108
f  118/1/119 108/1/109 119/1/120
f  119/1/120 120/1/121 118/1/119
f  118/1/119 121/1/122 117/1/118
f  117/1/118 122/1/123 116/1/117
f  127/1/128 124/1/125 126/1/127
f  116/1/117 123/1/124 126/1/127
f  36/1/36 35/1/35 129/1/130
f  136/1/137 130/1/131 97/1/98
f  130/1/131 131/1/132 99/1/100
f  131/1/132 132/1/133 100/1/101
f  175/1/180 103/1/104 132/1/133
f  175/1/180 132/1/133 134/1/135
f  132/1/133 131/1/132 133/1/134
f  138/1/139 135/1/136 130/1/131
f  130/1/131 136/1/137 138/1/139
f  136/1/137 139/1/140 137/1/138
f  95/1/96 110/1/111 96/1/97
f  98/1/99 115/1/116 95/1/96
f  126/1/127 125/1/126 115/1/116
f  160/1/161 113/1/114 124/1/125
f  97/1/98 96/1/97 136/1/137
f  128/1/129 141/1/142 139/1/140
f  123/1/124 142/1/143 127/1/128
f  142/1/143 123/1/124 144/1/145
f  122/1/123 121/1/122 144/1/145
f  145/1/146 121/1/122 146/1/147
f  161/1/162 143/1/144 147/1/148
f  148/1/149 147/1/148 144/1/145
f  150/1/151 148/1/149 145/1/146
f  146/1/147 149/1/150 145/1/146
f  149/1/150 146/1/147 152/1/153
f  151/1/152 153/1/154 152/1/153
f  146/1/147 120/1/121 151/1/152
f  155/1/156 156/1/157 151/1/152
f  67/1/67 155/1/156 68/1/68
f  155/1/156 67/1/67 156/1/157
f  143/1/144 158/1/159 127/1/128
f  158/1/159 159/1/160 124/1/125
f  158/1/159 143/1/144 162/1/163
f  162/1/163 163/1/164 158/1/159
f  128/1/129 139/1/140 129/1/130
f  73/1/200 134/1/200 74/1/200
f  74/1/201 164/1/201 76/1/201
f  76/1/202 165/1/202 78/1/202
f  167/1/203 140/1/203 166/1/203
f  137/1/204 140/1/204 168/1/204
f  138/1/205 137/1/205 169/1/205
f  172/1/206 135/1/206 169/1/206
f  172/1/207 170/1/207 135/1/207
f  133/1/208 170/1/208 134/1/208
f  170/1/209 171/1/209 164/1/209
f  167/1/210 166/1/210 171/1/210
f  171/1/211 170/1/211 173/1/211
f  171/1/212 173/1/212 167/1/212
f  172/1/213 169/1/213 173/1/213
f  110/1/111 16/1/16 129/1/130
f  113/1/114 87/1/87 111/1/112
f  113/1/114 160/1/161 87/1/87
f  141/1/142 128/1/129 89/1/89
f  119/1/120 90/1/90 120/1/121
f  109/1/110 91/1/91 119/1/120
f  104/1/105 92/1/92 109/1/110
f  103/1/104 93/1/93 104/1/105
f  103/1/104 175/1/180 93/1/93
f  175/1/180 134/1/135 94/1/94
f  166/1/214 141/1/214 78/1/214

