# File produced by Open Asset Import Library (http://www.assimp.sf.net)
# (assimp v3.2.0)

mtllib LFinger11.mtl

# 170 vertex positions
v  -0.00605124 -0.0139448 -0.00942123
v  -0.00535935 -0.00396264 -0.00971699
v  -0.00154877 -0.00549746 -0.0121212
v  0.00397295 -0.00699383 -0.0116557
v  0.00376493 -0.0124281 -0.011475
v  0.0084281 -0.0084334 -0.00731939
v  0.00814372 -0.0118693 -0.00735593
v  0.00942224 -0.00857508 -0.00405055
v  0.0096637 -0.00862706 -0.00103182
v  0.00943124 -0.01193 -0.000972044
v  0.00920749 -0.0119122 -0.00378895
v  0.00376427 -0.00575447 -0.0112462
v  0.00777483 -0.00687802 -0.00700611
v  0.00881779 -0.00737375 -0.00414383
v  0.00922334 -0.00758314 -0.00100034
v  -0.00748485 -0.00294858 -0.00505024
v  -0.00849968 -0.00302029 -0.000785107
v  -0.00786441 -0.00209779 -0.000772792
v  -0.00476331 -0.00287843 -0.00922376
v  -0.00637293 0.00192595 -0.00674111
v  -0.00389612 0.000538344 -0.0102065
v  -0.00152463 -0.00410688 -0.0115855
v  -0.000224223 0.000629165 -0.0124385
v  0.00417906 -0.00227952 -0.0116315
v  0.00801152 -0.00467855 -0.0069102
v  0.00888652 -0.00535834 -0.00427043
v  0.00929189 -0.00557727 -0.000969169
v  0.00758713 -0.00350815 -0.00113732
v  0.00739461 -0.00324005 -0.00396317
v  0.00654233 -0.00252134 -0.00605249
v  -0.0026862 0.000317994 -0.00896788
v  0.00055482 0.00199175 -0.0108669
v  0.00340492 -6.08098e-05 -0.00938177
v  -0.00766063 -0.0152215 -0.00474697
v  -0.00874907 -0.0151839 -0.000466817
v  -0.00924522 -0.0142583 -0.00052161
v  -0.00232381 -0.0132736 -0.011912
v  0.00354058 -0.0133902 -0.0109711
v  0.00742137 -0.0129412 -0.00699419
v  0.00872058 -0.0126063 -0.00373644
v  0.00887263 -0.0127012 -0.00095635
v  0.00870842 -0.0146666 -0.000883792
v  0.00831628 -0.0151131 -0.0035193
v  0.00715411 -0.0156817 -0.00686878
v  0.00331068 -0.0174935 -0.0111448
v  -0.00229895 -0.0141647 -0.0114329
v  -0.00571465 -0.0148532 -0.00882238
v  -0.00216067 -0.0203215 -0.0117572
v  -0.00827771 -0.0141495 -0.00500757
v  -0.00548607 0.00263906 -0.00629121
v  -0.00614852 -0.0219625 -0.00938171
v  -0.00859433 -0.0229647 -0.00499296
v  0.00742334 -0.0161484 -0.000759815
v  0.00688571 -0.0164171 -0.0031426
v  0.00586158 -0.0171305 -0.00606203
v  0.00274795 -0.0188197 -0.00923556
v  -0.00555193 -0.0230549 -0.00933486
v  -0.00961757 -0.0233307 -0.00029525
v  -0.00782967 -0.0238254 -0.00482762
v  0.00402999 0.00277871 -0.00931871
v  0.00786734 0.00167066 -0.00587946
v  0.0087446 0.00149566 -0.00393742
v  0.00919169 0.00139785 -0.00142842
v  0.00370687 0.00746041 -0.00928914
v  0.00117821 0.00392359 -0.00945055
v  0.00721282 0.009274 -0.00593776
v  0.0079419 0.00976557 -0.00412434
v  0.00829113 0.00971889 -0.00302452
v  0.00424421 0.00814009 -0.00283432
v  0.001472 0.00155115 -0.00201207
v  0.00450206 -0.000614866 -0.00167435
v  0.00130051 -0.000780217 -0.00164205
v  0.00458819 -0.00138378 -0.00124729
v  0.00442809 -0.0013473 -5.46557e-05
v  0.00744617 -0.00346392 0.000183983
v  5.31027e-05 0.00182688 -0.00782502
v  -0.000643029 0.00112384 -0.00615513
v  0.000669865 0.00599855 -0.00799388
v  0.000530428 0.00592255 -0.00606036
v  -0.00786358 0.00155151 -0.000872498
v  -0.00687563 -0.00208485 -0.0048086
v  -0.00602668 0.00276869 -0.000795383
v  0.00927883 -0.00571191 0.000355711
v  0.00920468 -0.00774366 0.000406635
v  0.00963604 -0.00875396 0.000460938
v  0.00938857 -0.0119296 0.000532432
v  0.00886845 -0.0127621 0.0005243
v  0.00871998 -0.0145712 0.000564615
v  -0.0071342 -0.013894 0.008677
v  -0.00372875 -0.0132089 0.0115594
v  -0.00295842 -0.00543201 0.0114347
v  0.00237077 -0.0123634 0.011807
v  0.0072118 -0.0118258 0.00821203
v  0.00750989 -0.00839072 0.00802225
v  0.00869328 -0.0118893 0.00480097
v  0.009251 -0.0119211 0.00203222
v  0.00948614 -0.00861877 0.00193763
v  0.00257373 -0.00692934 0.0117154
v  0.00690401 -0.00683737 0.00754732
v  0.00888717 -0.00854921 0.00490343
v  0.00827855 -0.0073489 0.00485754
v  0.00905633 -0.00757533 0.00179732
v  -0.00800073 -0.00292426 0.00356644
v  -0.00736481 -0.00206232 0.00335133
v  -0.00579601 -0.00283015 0.00803071
v  -0.0070827 0.00195897 0.00511163
v  0.00241923 -0.00569224 0.0112154
v  -0.00286621 -0.00404471 0.01083
v  0.00279635 -0.00221509 0.0114576
v  0.00715768 -0.00463921 0.0073601
v  0.00833869 -0.00533193 0.00488126
v  0.00913435 -0.00557059 0.00166482
v  0.00742882 -0.00350058 0.00151539
v  0.00690114 -0.00321686 0.00428224
v  0.00580776 -0.00248635 0.00621492
v  0.00230408 -1.04643e-05 0.00901085
v  -0.00369322 0.000364419 0.00785089
v  -0.00504088 0.000591584 0.00892293
v  -0.0016619 0.000696449 0.0115735
v  -0.000696295 0.00204939 0.0100316
v  -0.00817913 -0.0151973 0.00391537
v  -0.00882012 -0.0141246 0.00404078
v  0.00220561 -0.0133278 0.011333
v  0.00653476 -0.0129002 0.00782454
v  0.00821346 -0.0125826 0.00472772
v  0.00869608 -0.0126928 0.00199205
v  0.0078302 -0.0150903 0.0046013
v  0.00853473 -0.0146587 0.00200689
v  0.00627494 -0.0156403 0.00781745
v  -0.00365019 -0.0141018 0.0111356
v  -0.00357103 -0.0202555 0.0118098
v  0.00194365 -0.0174297 0.0117019
v  -0.00673246 -0.0148062 0.00817263
v  -0.00725287 -0.0219118 0.00906449
v  -0.00645047 -0.00391239 0.00850963
v  0.00726962 -0.0161415 0.00181061
v  0.00508261 -0.0170936 0.00694126
v  0.00645119 -0.0163972 0.0041272
v  0.00160813 -0.0187669 0.00981241
v  -0.00665784 -0.0230036 0.00914901
v  -0.00249469 -0.0211438 0.0112171
v  -0.00935167 -0.0244771 -0.000248063
v  -0.0083856 -0.0237998 0.00444484
v  0.00294071 0.00282937 0.00886804
v  9.79435e-05 0.00397414 0.00859433
v  0.00715715 0.00170362 0.00597245
v  0.00826055 0.00151837 0.00415951
v  0.00900358 0.00140721 0.001728
v  0.00263941 0.00751078 0.00854283
v  0.00652623 0.0093056 0.00553793
v  0.00794518 0.00973427 0.0027498
v  0.00746804 0.0097866 0.00379771
v  0.00431085 -0.000605794 0.00152141
v  0.00394499 0.00815392 0.00216293
v  0.00126934 0.00156045 0.00137651
v  0.00102508 0.00643665 0.00131071
v  0.00444418 -0.00137728 0.00114953
v  0.00113606 -0.000773274 0.00111544
v  0.00084024 -0.000503294 -0.000293352
v  -0.00083179 0.00186861 0.00696146
v  -0.0013259 0.00115585 0.00525927
v  -0.00614619 0.00266921 0.00473219
v  2.52948e-05 0.00608963 0.00845176
v  -0.000226735 0.00604022 0.0069747
v  -0.000134115 0.00595313 0.00504315
v  -0.00916117 -0.022939 0.00447106
v  0.00726837 -0.0162233 0.000522802
v  -0.00116509 -0.0212051 -0.0109913
v  0.00109577 0.00603902 -0.00943255
v  0.00123787 0.00642723 -0.00224298

# 1 UV coordinates
vt 4.61149 0.499573 0

# 170 vertex normals
vn -0.704398 -0.260597 -0.660176
vn -0.676565 0.286325 -0.678396
vn -0.175268 0.189978 -0.966002
vn 0.445692 0.164037 -0.880001
vn 0.408338 -0.280099 -0.86877
vn 0.857051 0.155492 -0.491165
vn 0.812983 -0.30958 -0.493118
vn 0.968597 0.172979 -0.178472
vn 0.984222 0.175481 -0.0218512
vn 0.943175 -0.330729 -0.0319529
vn 0.924741 -0.338572 -0.17365
vn 0.455763 0.136814 -0.879482
vn 0.852534 0.166051 -0.495529
vn 0.957976 0.200049 -0.205512
vn 0.981353 0.188543 -0.0370495
vn -0.874416 0.349223 -0.336741
vn -0.942473 0.329142 -0.0578936
vn -0.944762 0.322703 -0.0571001
vn -0.687399 0.262703 -0.677084
vn -0.691885 0.580218 -0.42964
vn -0.552721 0.505203 -0.66274
vn -0.226966 0.170415 -0.958861
vn -0.0646077 0.529099 -0.846065
vn 0.556352 0.217872 -0.801843
vn 0.878109 0.243324 -0.411878
vn 0.947447 0.266671 -0.176611
vn 0.949583 0.312754 -0.0208746
vn 0.8258 0.525864 0.20365
vn 0.957823 0.217536 -0.187567
vn 0.868221 0.246498 -0.430586
vn -0.157659 0.949339 -0.271798
vn -0.0183111 0.818873 -0.573626
vn 0.659383 0.329234 -0.675832
vn -0.916837 -0.212439 -0.337992
vn -0.975463 -0.212287 -0.0579546
vn -0.97235 -0.226295 -0.0572527
vn -0.215491 -0.258065 -0.941771
vn 0.441938 -0.297677 -0.846187
vn 0.80398 -0.354228 -0.477615
vn 0.900845 -0.390454 -0.189672
vn 0.935118 -0.351909 -0.0410474
vn 0.91586 -0.4008 -0.0225837
vn 0.88461 -0.44142 -0.150151
vn 0.821436 -0.405469 -0.400983
vn 0.502335 -0.327738 -0.800134
vn -0.224036 -0.263588 -0.938231
vn -0.726585 -0.246681 -0.641255
vn -0.140141 -0.282174 -0.949034
vn -0.913022 -0.237098 -0.331889
vn -0.214972 0.938932 -0.268563
vn -0.671407 -0.247963 -0.698325
vn -0.903378 -0.210517 -0.373516
vn 0.733909 -0.67919 0.00634784
vn 0.699667 -0.711509 -0.0647298
vn 0.670522 -0.715537 -0.195868
vn 0.585406 -0.677999 -0.444472
vn -0.45793 -0.546465 -0.701163
vn -0.978851 -0.19602 -0.0583208
vn -0.774285 -0.503739 -0.383007
vn 0.489059 0.0327158 -0.871609
vn 0.810419 -0.0753807 -0.58095
vn 0.950041 -0.101169 -0.295236
vn 0.772637 0.00973541 0.634754
vn 0.465224 0.0382702 -0.884335
vn -0.445631 0.259865 -0.856655
vn 0.831782 0.0684225 -0.550859
vn 0.949767 0.0778527 -0.303018
vn 0.868709 0.176244 0.462844
vn -0.0270699 0.136235 0.990295
vn 0.0331431 0.149083 0.98825
vn -0.0202338 0.176611 0.984069
vn 0.140416 0.813135 0.564867
vn 0.237098 0.699088 0.674551
vn 0.390088 0.92053 0.0209662
vn 0.675527 0.73629 0.0384533
vn -0.744652 0.624531 -0.23542
vn -0.437971 0.835047 -0.332835
vn -0.943083 0.126408 -0.307474
vn -0.964477 0.190954 -0.182348
vn -0.901089 0.429853 -0.0566423
vn -0.892056 0.293924 -0.343242
vn -0.568224 0.822016 -0.0367442
vn 0.953246 0.297006 0.0555437
vn 0.978179 0.199316 0.0582903
vn 0.986969 0.149846 0.0583208
vn 0.943999 -0.324809 0.0574663
vn 0.943388 -0.326609 0.0573443
vn 0.926145 -0.372784 0.0570086
vn -0.782006 -0.232185 0.578356
vn -0.328013 -0.214759 0.919919
vn -0.288186 0.236518 0.927885
vn 0.304514 -0.238411 0.922147
vn 0.752464 -0.284738 0.59386
vn 0.789697 0.181616 0.585955
vn 0.900144 -0.328379 0.286142
vn 0.933775 -0.326426 0.146641
vn 0.973968 0.179754 0.138066
vn 0.334269 0.208319 0.919156
vn 0.783563 0.194525 0.590045
vn 0.938749 0.184942 0.290689
vn 0.924131 0.213538 0.316752
vn 0.969146 0.193365 0.152684
vn -0.904294 0.361797 0.226508
vn -0.923032 0.30726 0.231452
vn -0.757042 0.294595 0.583117
vn -0.732658 0.591449 0.33668
vn 0.345042 0.184973 0.920164
vn -0.336161 0.219276 0.915891
vn 0.45085 0.254189 0.855617
vn 0.818934 0.26426 0.509354
vn 0.917448 0.277322 0.285165
vn 0.939573 0.316019 0.131596
vn 0.851985 0.512528 -0.106693
vn 0.925596 0.230171 0.300424
vn 0.804895 0.270608 0.528062
vn 0.566759 0.363231 0.739464
vn -0.189398 0.951781 0.241249
vn -0.623829 0.525193 0.578753
vn -0.164861 0.554277 0.81579
vn -0.0883816 0.831477 0.548418
vn -0.953154 -0.198889 0.22776
vn -0.948759 -0.223853 0.222968
vn 0.34196 -0.253334 0.904904
vn 0.747612 -0.329234 0.576739
vn 0.875729 -0.379254 0.298715
vn 0.924955 -0.34727 0.154363
vn 0.86343 -0.432478 0.259652
vn 0.907712 -0.397442 0.134373
vn 0.773034 -0.385998 0.503372
vn -0.338969 -0.21601 0.915647
vn -0.252663 -0.239448 0.937437
vn 0.408399 -0.291818 0.864864
vn -0.803552 -0.21662 0.554369
vn -0.753441 -0.218848 0.619983
vn -0.747703 0.31489 0.584582
vn 0.72982 -0.678213 0.0858791
vn 0.647053 -0.708243 0.282205
vn 0.689108 -0.708304 0.152928
vn 0.53618 -0.662038 0.523637
vn -0.54268 -0.518021 0.661123
vn 0.146489 -0.591449 0.792901
vn -0.881741 -0.469314 -0.0473037
vn -0.819849 -0.490249 0.295694
vn 0.380871 0.0801111 0.92114
vn -0.539537 0.302133 0.785852
vn 0.736137 -0.0429395 0.675436
vn 0.909543 -0.0831019 0.407147
vn 0.841975 -0.0173345 -0.539201
vn 0.357433 0.0879238 0.929777
vn 0.761101 0.100986 0.640706
vn 0.912503 0.155156 -0.37846
vn 0.906705 0.0972319 0.410382
vn 0.0983306 0.123814 -0.987396
vn 0.0922269 0.0823084 -0.992309
vn 0.151769 0.0960112 -0.983734
vn 0.16834 0.0490737 -0.984497
vn 0.324778 0.676595 -0.660817
vn 0.211615 0.798242 -0.563921
vn 0.207129 0.97824 0.00939965
vn -0.7622 0.631672 0.141301
vn -0.481246 0.83459 0.268014
vn -0.249123 0.941038 0.228736
vn -0.552477 0.0895413 0.828669
vn -0.971892 0.141484 0.188116
vn -0.978179 0.197424 0.0646077
vn -0.943999 -0.195257 0.265847
vn 0.752983 -0.656331 0.0469069
vn 0.231635 -0.619526 -0.749992
vn -0.442 0.0420239 -0.895993
vn 0.0494705 0.103122 0.993408

# Mesh 'LFinger11_LFinger11' with 296 faces
g LFinger11_LFinger11
usemtl MainSkin
f  1/1/1 2/1/2 3/1/3
f  3/1/3 4/1/4 5/1/5
f  5/1/5 4/1/4 6/1/6
f  7/1/7 6/1/6 8/1/8
f  9/1/9 10/1/10 11/1/11
f  4/1/4 12/1/12 13/1/13
f  6/1/6 13/1/13 14/1/14
f  15/1/15 9/1/9 8/1/8
f  16/1/16 17/1/17 18/1/18
f  19/1/19 2/1/2 16/1/16
f  20/1/20 21/1/21 19/1/19
f  12/1/12 4/1/4 3/1/3
f  22/1/22 23/1/23 24/1/24
f  25/1/25 13/1/13 12/1/12
f  26/1/26 14/1/14 13/1/13
f  14/1/14 26/1/26 27/1/27
f  28/1/28 27/1/27 26/1/26
f  29/1/29 26/1/26 25/1/25
f  30/1/30 25/1/25 24/1/24
f  23/1/23 21/1/21 31/1/31
f  23/1/23 32/1/32 33/1/33
f  34/1/34 35/1/35 36/1/36
f  37/1/37 5/1/5 38/1/38
f  39/1/39 38/1/38 5/1/5
f  40/1/40 39/1/39 7/1/7
f  40/1/40 11/1/11 10/1/10
f  40/1/40 41/1/41 42/1/42
f  39/1/39 40/1/40 43/1/43
f  44/1/44 45/1/45 38/1/38
f  46/1/46 38/1/38 45/1/45
f  47/1/47 46/1/46 48/1/48
f  49/1/49 16/1/16 2/1/2
f  22/1/22 3/1/3 2/1/2
f  21/1/21 23/1/23 22/1/22
f  20/1/20 50/1/50 31/1/31
f  46/1/46 47/1/47 1/1/1
f  51/1/51 52/1/52 34/1/34
f  53/1/53 54/1/54 43/1/43
f  44/1/44 43/1/43 54/1/54
f  45/1/45 44/1/44 55/1/55
f  48/1/48 45/1/45 56/1/56
f  57/1/57 51/1/51 48/1/48
f  58/1/58 52/1/52 59/1/59
f  59/1/59 52/1/52 51/1/51
f  60/1/60 33/1/33 32/1/32
f  33/1/33 60/1/60 61/1/61
f  62/1/62 29/1/29 30/1/30
f  29/1/29 62/1/62 63/1/63
f  64/1/64 60/1/60 65/1/65
f  64/1/64 66/1/66 61/1/61
f  66/1/66 67/1/67 62/1/62
f  68/1/68 63/1/63 62/1/62
f  63/1/63 68/1/68 69/1/69
f  70/1/70 71/1/71 69/1/69
f  28/1/28 63/1/63 71/1/71
f  72/1/72 73/1/73 71/1/71
f  73/1/73 74/1/74 75/1/75
f  74/1/74 73/1/73 72/1/72
f  76/1/76 65/1/65 32/1/32
f  77/1/77 76/1/76 31/1/31
f  65/1/65 76/1/76 78/1/78
f  79/1/79 78/1/78 76/1/76
f  49/1/49 1/1/1 47/1/47
f  17/1/17 16/1/16 49/1/49
f  80/1/80 20/1/20 81/1/81
f  82/1/82 50/1/50 20/1/20
f  35/1/35 34/1/34 52/1/52
f  27/1/27 28/1/28 75/1/75
f  15/1/15 27/1/27 83/1/83
f  9/1/9 15/1/15 84/1/84
f  10/1/10 9/1/9 85/1/85
f  86/1/86 87/1/87 41/1/41
f  87/1/87 88/1/88 42/1/42
f  53/1/53 42/1/42 88/1/88
f  89/1/89 90/1/90 91/1/91
f  91/1/91 90/1/90 92/1/92
f  92/1/92 93/1/93 94/1/94
f  94/1/94 93/1/93 95/1/95
f  95/1/95 96/1/96 97/1/97
f  98/1/98 94/1/94 99/1/99
f  94/1/94 100/1/100 101/1/101
f  102/1/102 101/1/101 100/1/100
f  17/1/17 103/1/103 104/1/104
f  105/1/105 104/1/104 103/1/103
f  106/1/106 104/1/104 105/1/105
f  107/1/107 108/1/108 91/1/91
f  108/1/108 107/1/107 109/1/109
f  110/1/110 109/1/109 107/1/107
f  111/1/111 110/1/110 99/1/99
f  101/1/101 102/1/102 112/1/112
f  113/1/113 114/1/114 111/1/111
f  114/1/114 115/1/115 110/1/110
f  115/1/115 116/1/116 109/1/109
f  117/1/117 118/1/118 119/1/119
f  116/1/116 120/1/120 119/1/119
f  35/1/35 121/1/121 122/1/122
f  123/1/123 92/1/92 90/1/90
f  124/1/124 93/1/93 92/1/92
f  125/1/125 95/1/95 93/1/93
f  95/1/95 125/1/125 126/1/126
f  125/1/125 127/1/127 128/1/128
f  124/1/124 129/1/129 127/1/127
f  129/1/129 124/1/124 123/1/123
f  130/1/130 131/1/131 132/1/132
f  133/1/133 134/1/134 131/1/131
f  122/1/122 89/1/89 135/1/135
f  108/1/108 105/1/105 135/1/135
f  118/1/118 105/1/105 108/1/108
f  106/1/106 118/1/118 117/1/117
f  89/1/89 133/1/133 130/1/130
f  134/1/134 133/1/133 121/1/121
f  136/1/136 128/1/128 127/1/127
f  129/1/129 137/1/137 138/1/138
f  132/1/132 139/1/139 137/1/137
f  139/1/139 132/1/132 131/1/131
f  140/1/140 141/1/141 131/1/131
f  58/1/58 142/1/142 143/1/143
f  143/1/143 140/1/140 134/1/134
f  144/1/144 145/1/145 120/1/120
f  116/1/116 115/1/115 146/1/146
f  115/1/115 114/1/114 147/1/147
f  114/1/114 113/1/113 148/1/148
f  145/1/145 144/1/144 149/1/149
f  149/1/149 144/1/144 146/1/146
f  150/1/150 146/1/146 147/1/147
f  151/1/151 152/1/152 147/1/147
f  148/1/148 153/1/153 154/1/154
f  155/1/155 156/1/156 154/1/154
f  113/1/113 157/1/157 153/1/153
f  158/1/158 155/1/155 153/1/153
f  157/1/157 113/1/113 75/1/75
f  74/1/74 159/1/159 158/1/158
f  160/1/160 117/1/117 120/1/120
f  161/1/161 162/1/162 117/1/117
f  145/1/145 163/1/163 164/1/164
f  165/1/165 161/1/161 160/1/160
f  133/1/133 89/1/89 122/1/122
f  17/1/17 36/1/36 122/1/122
f  80/1/80 18/1/18 104/1/104
f  162/1/162 82/1/82 80/1/80
f  35/1/35 58/1/58 166/1/166
f  112/1/112 83/1/83 75/1/75
f  102/1/102 84/1/84 83/1/83
f  97/1/97 85/1/85 84/1/84
f  96/1/96 86/1/86 85/1/85
f  87/1/87 86/1/86 96/1/96
f  88/1/88 87/1/87 126/1/126
f  136/1/136 167/1/167 88/1/88
f  37/1/37 1/1/1 3/1/3
f  37/1/37 3/1/3 5/1/5
f  7/1/7 5/1/5 6/1/6
f  11/1/11 7/1/7 8/1/8
f  8/1/8 9/1/9 11/1/11
f  6/1/6 4/1/4 13/1/13
f  8/1/8 6/1/6 14/1/14
f  14/1/14 15/1/15 8/1/8
f  81/1/81 16/1/16 18/1/18
f  81/1/81 19/1/19 16/1/16
f  81/1/81 20/1/20 19/1/19
f  22/1/22 12/1/12 3/1/3
f  12/1/12 22/1/22 24/1/24
f  24/1/24 25/1/25 12/1/12
f  25/1/25 26/1/26 13/1/13
f  15/1/15 14/1/14 27/1/27
f  29/1/29 28/1/28 26/1/26
f  30/1/30 29/1/29 25/1/25
f  33/1/33 30/1/30 24/1/24
f  32/1/32 23/1/23 31/1/31
f  24/1/24 23/1/23 33/1/33
f  49/1/49 34/1/34 36/1/36
f  46/1/46 37/1/37 38/1/38
f  7/1/7 39/1/39 5/1/5
f  11/1/11 40/1/40 7/1/7
f  41/1/41 40/1/40 10/1/10
f  43/1/43 40/1/40 42/1/42
f  44/1/44 39/1/39 43/1/43
f  39/1/39 44/1/44 38/1/38
f  48/1/48 46/1/46 45/1/45
f  51/1/51 47/1/47 48/1/48
f  1/1/1 49/1/49 2/1/2
f  19/1/19 22/1/22 2/1/2
f  19/1/19 21/1/21 22/1/22
f  21/1/21 20/1/20 31/1/31
f  37/1/37 46/1/46 1/1/1
f  47/1/47 51/1/51 34/1/34
f  42/1/42 53/1/53 43/1/43
f  55/1/55 44/1/44 54/1/54
f  56/1/56 45/1/45 55/1/55
f  168/1/168 48/1/48 56/1/56
f  168/1/168 57/1/57 48/1/48
f  142/1/142 58/1/58 59/1/59
f  57/1/57 59/1/59 51/1/51
f  65/1/65 60/1/60 32/1/32
f  30/1/30 33/1/33 61/1/61
f  61/1/61 62/1/62 30/1/30
f  28/1/28 29/1/29 63/1/63
f  169/1/169 64/1/64 65/1/65
f  60/1/60 64/1/64 61/1/61
f  61/1/61 66/1/66 62/1/62
f  67/1/67 68/1/68 62/1/62
f  71/1/71 63/1/63 69/1/69
f  170/1/170 70/1/70 69/1/69
f  73/1/73 28/1/28 71/1/71
f  70/1/70 72/1/72 71/1/71
f  28/1/28 73/1/73 75/1/75
f  159/1/159 74/1/74 72/1/72
f  31/1/31 76/1/76 32/1/32
f  50/1/50 77/1/77 31/1/31
f  169/1/169 65/1/65 78/1/78
f  77/1/77 79/1/79 76/1/76
f  34/1/34 49/1/49 47/1/47
f  36/1/36 17/1/17 49/1/49
f  18/1/18 80/1/80 81/1/81
f  80/1/80 82/1/82 20/1/20
f  58/1/58 35/1/35 52/1/52
f  83/1/83 27/1/27 75/1/75
f  84/1/84 15/1/15 83/1/83
f  85/1/85 9/1/9 84/1/84
f  86/1/86 10/1/10 85/1/85
f  10/1/10 86/1/86 41/1/41
f  41/1/41 87/1/87 42/1/42
f  167/1/167 53/1/53 88/1/88
f  135/1/135 89/1/89 91/1/91
f  98/1/98 91/1/91 92/1/92
f  98/1/98 92/1/92 94/1/94
f  100/1/100 94/1/94 95/1/95
f  100/1/100 95/1/95 97/1/97
f  107/1/107 98/1/98 99/1/99
f  99/1/99 94/1/94 101/1/101
f  97/1/97 102/1/102 100/1/100
f  18/1/18 17/1/17 104/1/104
f  135/1/135 105/1/105 103/1/103
f  118/1/118 106/1/106 105/1/105
f  98/1/98 107/1/107 91/1/91
f  119/1/119 108/1/108 109/1/109
f  99/1/99 110/1/110 107/1/107
f  101/1/101 111/1/111 99/1/99
f  111/1/111 101/1/101 112/1/112
f  112/1/112 113/1/113 111/1/111
f  111/1/111 114/1/114 110/1/110
f  110/1/110 115/1/115 109/1/109
f  120/1/120 117/1/117 119/1/119
f  109/1/109 116/1/116 119/1/119
f  36/1/36 35/1/35 122/1/122
f  130/1/130 123/1/123 90/1/90
f  123/1/123 124/1/124 92/1/92
f  124/1/124 125/1/125 93/1/93
f  96/1/96 95/1/95 126/1/126
f  126/1/126 125/1/125 128/1/128
f  125/1/125 124/1/124 127/1/127
f  132/1/132 129/1/129 123/1/123
f  123/1/123 130/1/130 132/1/132
f  130/1/130 133/1/133 131/1/131
f  103/1/103 122/1/122 135/1/135
f  91/1/91 108/1/108 135/1/135
f  119/1/119 118/1/118 108/1/108
f  162/1/162 106/1/106 117/1/117
f  90/1/90 89/1/89 130/1/130
f  166/1/166 134/1/134 121/1/121
f  138/1/138 136/1/136 127/1/127
f  127/1/127 129/1/129 138/1/138
f  129/1/129 132/1/132 137/1/137
f  141/1/141 139/1/139 131/1/131
f  134/1/134 140/1/140 131/1/131
f  166/1/166 58/1/58 143/1/143
f  166/1/166 143/1/143 134/1/134
f  116/1/116 144/1/144 120/1/120
f  144/1/144 116/1/116 146/1/146
f  146/1/146 115/1/115 147/1/147
f  147/1/147 114/1/114 148/1/148
f  163/1/163 145/1/145 149/1/149
f  150/1/150 149/1/149 146/1/146
f  152/1/152 150/1/150 147/1/147
f  148/1/148 151/1/151 147/1/147
f  151/1/151 148/1/148 154/1/154
f  153/1/153 155/1/155 154/1/154
f  148/1/148 113/1/113 153/1/153
f  157/1/157 158/1/158 153/1/153
f  74/1/74 157/1/157 75/1/75
f  157/1/157 74/1/74 158/1/158
f  145/1/145 160/1/160 120/1/120
f  160/1/160 161/1/161 117/1/117
f  160/1/160 145/1/145 164/1/164
f  164/1/164 165/1/165 160/1/160
f  121/1/121 133/1/133 122/1/122
f  103/1/103 17/1/17 122/1/122
f  106/1/106 80/1/80 104/1/104
f  106/1/106 162/1/162 80/1/80
f  121/1/121 35/1/35 166/1/166
f  113/1/113 112/1/112 75/1/75
f  112/1/112 102/1/102 83/1/83
f  102/1/102 97/1/97 84/1/84
f  97/1/97 96/1/96 85/1/85
f  126/1/126 87/1/87 96/1/96
f  128/1/128 88/1/88 126/1/126
f  128/1/128 136/1/136 88/1/88

