# File produced by Open Asset Import Library (http://www.assimp.sf.net)
# (assimp v3.2.0)

mtllib LFinger32.mtl

# 170 vertex positions
v  0.00565374 0.0139287 -0.00968826
v  0.00500232 0.00394195 -0.0099138
v  0.0011037 0.00544661 -0.0121926
v  -0.00440621 0.00691831 -0.0115445
v  -0.00421947 0.0123544 -0.0113962
v  -0.00871694 0.00835699 -0.00706428
v  -0.00845128 0.011794 -0.00712651
v  -0.00959885 0.00850952 -0.00376385
v  -0.00973672 0.00857484 -0.00073893
v  -0.00951898 0.0118791 -0.000702461
v  -0.00939208 0.0118489 -0.00352532
v  -0.00417739 0.00568193 -0.0111367
v  -0.00804549 0.00680631 -0.00676644
v  -0.00899196 0.00731069 -0.00387233
v  -0.00929028 0.00753325 -0.000717768
v  0.00729197 0.00296068 -0.00531822
v  0.00845235 0.00305784 -0.00109088
v  0.00782257 0.0021323 -0.00105244
v  0.00442898 0.00285727 -0.00939536
v  0.00614715 -0.00192726 -0.00694728
v  0.00354576 -0.0005684 -0.0103317
v  0.00110495 0.00405854 -0.01165
v  -0.000200149 -0.000687824 -0.0124358
v  -0.00458765 0.00220323 -0.0114914
v  -0.0082677 0.00460625 -0.00665224
v  -0.00905484 0.00529444 -0.00398713
v  -0.00934768 0.00552726 -0.000674936
v  -0.00763929 0.00346565 -0.000892042
v  -0.00754267 0.00318491 -0.00372153
v  -0.00675905 0.00246036 -0.00583559
v  0.00237805 -0.000347995 -0.00905341
v  -0.000917864 -0.00204664 -0.0108321
v  -0.00372553 -8.47504e-07 -0.00925934
v  0.00741631 0.0152356 -0.00507808
v  0.00865137 0.015224 -0.00083774
v  0.00915003 0.0143004 -0.000905271
v  0.00184631 0.0132274 -0.0120462
v  -0.00398278 0.01332 -0.0109048
v  -0.00772238 0.0128711 -0.00679481
v  -0.00890708 0.0125456 -0.00349271
v  -0.00896406 0.0126532 -0.000709558
v  -0.0088073 0.0146196 -0.0006518
v  -0.00850827 0.0150554 -0.00330132
v  -0.00746471 0.0156136 -0.00669134
v  -0.00377965 0.0174235 -0.0111054
v  0.0018335 0.0141206 -0.0115707
v  0.00533336 0.0148383 -0.00908238
v  0.00165313 0.0202751 -0.0119186
v  0.00802946 0.0141654 -0.00535476
v  0.00527984 -0.00264251 -0.00646388
v  0.00571191 0.0219468 -0.00968927
v  0.00830203 0.0229821 -0.00539189
v  -0.00752622 0.0161083 -0.000578951
v  -0.00707215 0.0163681 -0.00298005
v  -0.00615257 0.0170724 -0.00593626
v  -0.00315833 0.0187615 -0.00922274
v  0.00511181 0.0230365 -0.00962698
v  0.00948423 0.0233756 -0.000733899
v  0.00753921 0.0238398 -0.00520438
v  -0.00433379 -0.00284302 -0.00916165
v  -0.00805616 -0.00173718 -0.00559765
v  -0.00886708 -0.00155711 -0.00362742
v  -0.00922817 -0.00144947 -0.00110501
v  -0.0039863 -0.00752294 -0.00912148
v  -0.00148249 -0.00397462 -0.00938618
v  -0.00736582 -0.00933743 -0.00564325
v  -0.0080297 -0.00982386 -0.00380349
v  -0.00834119 -0.00977361 -0.00269252
v  -0.00429809 -0.00817418 -0.00264895
v  -0.0015325 -0.00156796 -0.00195307
v  -0.00455993 0.000584886 -0.00152141
v  -0.00136006 0.000765976 -0.00159997
v  -0.00463521 0.00135541 -0.00109518
v  -0.00443405 0.00132543 9.1391e-05
v  -0.00745279 0.00342846 0.000423852
v  -0.000312755 -0.00186467 -0.00781
v  0.000436798 -0.00115031 -0.00616837
v  -0.000913957 -0.0060401 -0.00793821
v  -0.00070855 -0.00595409 -0.00601101
v  0.00783664 -0.00151735 -0.00113511
v  0.00669575 0.00209516 -0.00505179
v  0.0060097 -0.00274306 -0.000989297
v  -0.00928974 0.00566828 0.000648071
v  -0.00922412 0.00770062 0.000687001
v  -0.00965845 0.00870907 0.000751419
v  -0.00942463 0.0118862 0.000799645
v  -0.00890929 0.0127212 0.000769773
v  -0.00876862 0.0145311 0.000796577
v  0.00735813 0.0139701 0.00836205
v  0.00405729 0.0132823 0.011363
v  0.00332224 0.00550127 0.0113009
v  -0.00202584 0.0124083 0.0118241
v  -0.00698477 0.0118299 0.00840026
v  -0.00727188 0.00839251 0.00823676
v  -0.00858289 0.0118697 0.0050419
v  -0.00923556 0.0118856 0.00229388
v  -0.00945723 0.0085817 0.00222266
v  -0.00220448 0.00697297 0.0117648
v  -0.00667488 0.00683987 0.00774848
v  -0.00875634 0.00852931 0.00516647
v  -0.0081436 0.00733179 0.00510526
v  -0.00902724 0.00753969 0.00207251
v  0.00810373 0.00298029 0.00327563
v  0.00746512 0.00211424 0.00308651
v  0.00605422 0.00289685 0.00781345
v  0.00726396 -0.0018999 0.00487411
v  -0.00206101 0.0057342 0.0112655
v  0.00321627 0.00411063 0.0107062
v  -0.00241214 0.00225651 0.0115367
v  -0.00692379 0.00463963 0.00758028
v  -0.00819278 0.00531465 0.0051403
v  -0.00909966 0.00553399 0.00195211
v  -0.0073899 0.00347161 0.00175369
v  -0.00676602 0.00320375 0.004502
v  -0.00560319 0.00248784 0.00639933
v  -0.00199312 4.254e-05 0.00908458
v  0.00396258 -0.000308706 0.00772089
v  0.00534743 -0.000524151 0.00874698
v  0.00206208 -0.000632732 0.0115126
v  0.00105083 -0.00199777 0.0100112
v  0.00823223 0.0152556 0.00356138
v  0.00888252 0.0141866 0.00366962
v  -0.0018819 0.0133712 0.0113403
v  -0.00632685 0.0129056 0.00798476
v  -0.00810933 0.012565 0.00494897
v  -0.00868624 0.0126597 0.00223106
v  -0.0077433 0.015074 0.00479782
v  -0.00853443 0.0146264 0.00223124
v  -0.00608122 0.0156469 0.00795603
v  0.00395965 0.0141728 0.010938
v  0.00387275 0.0203292 0.0115861
v  -0.0016281 0.0174761 0.011681
v  0.00693476 0.0148779 0.00786763
v  0.00744969 0.0219902 0.00870812
v  0.00671929 0.00398463 0.0082646
v  -0.00728422 0.0161144 0.00198465
v  -0.00492704 0.0171019 0.00703263
v  -0.00638795 0.0163852 0.00427055
v  -0.00136447 0.0188059 0.0097748
v  0.00685245 0.0230794 0.00880796
v  0.00277227 0.0212094 0.0110266
v  0.0092144 0.0245208 -0.000682907
v  0.00841355 0.0238614 0.00404352
v  -0.00261998 -0.002801 0.00897694
v  0.000217423 -0.00393319 0.00861096
v  -0.00693899 -0.00170976 0.00622284
v  -0.00810498 -0.00153857 0.00444806
v  -0.0089317 -0.00144267 0.00204307
v  -0.00230646 -0.00748241 0.0086633
v  -0.00628519 -0.00931054 0.00580215
v  -0.00779688 -0.00975948 0.00306648
v  -0.00728381 -0.00980449 0.00409758
v  -0.00425899 0.0005921 0.00166589
v  -0.00382727 -0.00816256 0.00233507
v  -0.00121343 -0.00155997 0.00142658
v  -0.000947043 -0.00643522 0.00137496
v  -0.00440896 0.00136113 0.00129527
v  -0.00110096 0.000773084 0.00115025
v  -0.000852345 0.000497781 -0.000266617
v  0.00107986 -0.00183105 0.00693738
v  0.00151163 -0.00112408 0.00521588
v  0.00631851 -0.00261652 0.00453037
v  0.000295772 -0.00604904 0.00847578
v  0.000496647 -0.00600541 0.00699067
v  0.000337277 -0.0059281 0.00506312
v  0.00919384 0.0230045 0.00404704
v  -0.00732767 0.0161901 0.000697219
v  0.000680047 0.0211574 -0.0111231
v  -0.00138879 -0.00608957 -0.00936121
v  -0.00128186 -0.00644386 -0.00216931

# 1 UV coordinates
vt 4.61149 0.499573 0

# 170 vertex normals
vn 0.679983 0.260842 -0.685232
vn 0.654286 -0.286294 -0.699942
vn 0.142918 -0.193762 -0.97055
vn -0.474838 -0.170446 -0.863369
vn -0.439344 0.273904 -0.855495
vn -0.872616 -0.162023 -0.460677
vn -0.830989 0.303201 -0.466292
vn -0.973266 -0.178564 -0.144261
vn -0.98349 -0.180364 0.0127567
vn -0.945372 0.325968 -0.0010376
vn -0.931852 0.333232 -0.143315
vn -0.485031 -0.143254 -0.862667
vn -0.868221 -0.172582 -0.465133
vn -0.963439 -0.205695 -0.171514
vn -0.981079 -0.193518 -0.00241095
vn 0.86407 -0.346568 -0.365001
vn 0.941588 -0.324839 -0.0887478
vn 0.943846 -0.318369 -0.0880459
vn 0.665029 -0.262612 -0.699088
vn 0.679647 -0.578875 -0.450484
vn 0.532151 -0.505692 -0.679006
vn 0.194739 -0.173925 -0.965301
vn 0.0381176 -0.532853 -0.845332
vn -0.582476 -0.224433 -0.781243
vn -0.89053 -0.24958 -0.380322
vn -0.951598 -0.272133 -0.142705
vn -0.948149 -0.317454 0.013184
vn -0.815668 -0.528886 0.234352
vn -0.962615 -0.223121 -0.153508
vn -0.881253 -0.252785 -0.399304
vn 0.152989 -0.949858 -0.272652
vn 0.00268561 -0.821528 -0.570116
vn -0.680563 -0.335704 -0.651235
vn 0.903592 0.215278 -0.370312
vn 0.971832 0.216773 -0.0924711
vn 0.968657 0.230751 -0.0917081
vn 0.181677 0.254585 -0.949797
vn -0.472243 0.291452 -0.831843
vn -0.82168 0.348033 -0.451308
vn -0.90878 0.385174 -0.160375
vn -0.937712 0.347179 -0.0105289
vn -0.918119 0.396222 0.00701922
vn -0.891476 0.436384 -0.121677
vn -0.836757 0.399548 -0.37437
vn -0.531175 0.321421 -0.783898
vn 0.190344 0.26017 -0.946593
vn 0.702872 0.247139 -0.666982
vn 0.106021 0.278298 -0.954588
vn 0.899869 0.239937 -0.364177
vn 0.210333 -0.939177 -0.271462
vn 0.645772 0.247871 -0.722129
vn 0.888943 0.213111 -0.405347
vn -0.736656 0.675619 0.0284432
vn -0.705039 0.707755 -0.0439466
vn -0.680441 0.711325 -0.176
vn -0.603748 0.672994 -0.427198
vn 0.430799 0.545305 -0.719016
vn 0.97528 0.200507 -0.0928373
vn 0.75811 0.505661 -0.411725
vn -0.518571 -0.0392773 -0.854122
vn -0.830256 0.0686361 -0.553087
vn -0.960112 0.0950956 -0.262856
vn -0.750298 -0.0104373 0.66097
vn -0.495132 -0.0447707 -0.867641
vn 0.417219 -0.261788 -0.870266
vn -0.849849 -0.075106 -0.521592
vn -0.959227 -0.0839259 -0.269814
vn -0.851405 -0.178259 0.493271
vn 0.0617694 -0.131352 0.98938
vn 0.0015564 -0.144505 0.989471
vn 0.0549333 -0.171758 0.983581
vn -0.116794 -0.81106 0.573107
vn -0.210273 -0.696982 0.685537
vn -0.384503 -0.9223 0.0386059
vn -0.670095 -0.739372 0.0650349
vn 0.73925 -0.622028 -0.258004
vn 0.430494 -0.834498 -0.343821
vn 0.932585 -0.123295 -0.339152
vn 0.958617 -0.187139 -0.214515
vn 0.900754 -0.425733 -0.0855433
vn 0.881191 -0.291238 -0.372326
vn 0.570757 -0.819422 -0.0524307
vn -0.949248 -0.30137 0.0896634
vn -0.974578 -0.203803 0.0928067
vn -0.983612 -0.154363 0.0928678
vn -0.943083 0.320475 0.0883816
vn -0.942503 0.322275 0.0882595
vn -0.925504 0.368542 0.0870998
vn 0.800256 0.238777 0.550035
vn 0.358348 0.220771 0.907071
vn 0.321085 -0.230628 0.918516
vn -0.273843 0.241371 0.930967
vn -0.733055 0.283914 0.618061
vn -0.768151 -0.182653 0.613605
vn -0.891415 0.325358 0.315378
vn -0.929807 0.322581 0.177129
vn -0.967711 -0.183813 0.172277
vn -0.301431 -0.205512 0.931059
vn -0.761834 -0.195502 0.617542
vn -0.927274 -0.188116 0.323649
vn -0.911618 -0.216529 0.349345
vn -0.96234 -0.197333 0.186804
vn 0.913358 -0.356334 0.196936
vn 0.931974 -0.301645 0.200995
vn 0.77813 -0.288095 0.558123
vn 0.746757 -0.586261 0.314036
vn -0.312265 -0.182226 0.932341
vn 0.368511 -0.213233 0.904813
vn -0.419904 -0.252266 0.871761
vn -0.799616 -0.265786 0.538438
vn -0.905698 -0.280435 0.31782
vn -0.93289 -0.319956 0.165258
vn -0.852534 -0.517167 -0.0749534
vn -0.913541 -0.233222 0.33314
vn -0.784906 -0.27195 0.556688
vn -0.539201 -0.362407 0.760185
vn 0.202368 -0.949675 0.23899
vn 0.645955 -0.519364 0.559404
vn 0.195593 -0.549547 0.81222
vn 0.111362 -0.828394 0.548906
vn 0.95941 0.204596 0.193945
vn 0.954711 0.22953 0.189154
vn -0.31193 0.25602 0.914945
vn -0.728996 0.328349 0.600574
vn -0.866848 0.376415 0.326884
vn -0.920835 0.343486 0.184454
vn -0.856166 0.429487 0.287179
vn -0.904538 0.393658 0.163671
vn -0.757195 0.384625 0.527879
vn 0.369152 0.222053 0.902432
vn 0.283517 0.245186 0.927061
vn -0.379894 0.293985 0.877041
vn 0.821039 0.223182 0.525407
vn 0.773217 0.225471 0.592669
vn 0.768914 -0.308451 0.559984
vn -0.72982 0.675039 0.107761
vn -0.640553 0.706442 0.301004
vn -0.687002 0.705679 0.173254
vn -0.521195 0.661916 0.538682
vn 0.562456 0.52385 0.639668
vn -0.122135 0.594531 0.794702
vn 0.877224 0.473373 -0.0797754
vn 0.827052 0.495651 0.265053
vn -0.348582 -0.0775475 0.934049
vn 0.567736 -0.295724 0.768242
vn -0.712699 0.0426038 0.700156
vn -0.895413 0.0806604 0.437788
vn -0.860073 0.0106509 -0.509995
vn -0.324839 -0.0852076 0.941893
vn -0.738121 -0.101596 0.666951
vn -0.924161 -0.161412 -0.34611
vn -0.891568 -0.0996734 0.441755
vn -0.131565 -0.129032 -0.982849
vn -0.125858 -0.0874965 -0.988159
vn -0.185003 -0.101474 -0.977477
vn -0.201819 -0.0546281 -0.977874
vn -0.343883 -0.681326 -0.646138
vn -0.226844 -0.801965 -0.552599
vn -0.201758 -0.979186 0.0210577
vn 0.769799 -0.627277 0.117923
vn 0.494339 -0.830927 0.255165
vn 0.261574 -0.938719 0.224372
vn 0.581073 -0.0828577 0.809564
vn 0.978485 -0.135838 0.155248
vn 0.980804 -0.192328 0.0318613
vn 0.951598 0.201147 0.232307
vn -0.754234 0.652852 0.0697653
vn -0.260384 0.614795 -0.744438
vn 0.411176 -0.0441602 -0.910459
vn -0.0147709 -0.0986053 0.994995

# Mesh 'LFinger32_LFinger32' with 296 faces
g LFinger32_LFinger32
usemtl MainSkin
f  1/1/1 2/1/2 3/1/3
f  3/1/3 4/1/4 5/1/5
f  5/1/5 4/1/4 6/1/6
f  7/1/7 6/1/6 8/1/8
f  9/1/9 10/1/10 11/1/11
f  4/1/4 12/1/12 13/1/13
f  6/1/6 13/1/13 14/1/14
f  15/1/15 9/1/9 8/1/8
f  16/1/16 17/1/17 18/1/18
f  19/1/19 2/1/2 16/1/16
f  20/1/20 21/1/21 19/1/19
f  12/1/12 4/1/4 3/1/3
f  22/1/22 23/1/23 24/1/24
f  25/1/25 13/1/13 12/1/12
f  26/1/26 14/1/14 13/1/13
f  14/1/14 26/1/26 27/1/27
f  28/1/28 27/1/27 26/1/26
f  29/1/29 26/1/26 25/1/25
f  30/1/30 25/1/25 24/1/24
f  23/1/23 21/1/21 31/1/31
f  23/1/23 32/1/32 33/1/33
f  34/1/34 35/1/35 36/1/36
f  37/1/37 5/1/5 38/1/38
f  39/1/39 38/1/38 5/1/5
f  40/1/40 39/1/39 7/1/7
f  40/1/40 11/1/11 10/1/10
f  40/1/40 41/1/41 42/1/42
f  39/1/39 40/1/40 43/1/43
f  44/1/44 45/1/45 38/1/38
f  46/1/46 38/1/38 45/1/45
f  47/1/47 46/1/46 48/1/48
f  49/1/49 16/1/16 2/1/2
f  22/1/22 3/1/3 2/1/2
f  21/1/21 23/1/23 22/1/22
f  20/1/20 50/1/50 31/1/31
f  46/1/46 47/1/47 1/1/1
f  51/1/51 52/1/52 34/1/34
f  53/1/53 54/1/54 43/1/43
f  44/1/44 43/1/43 54/1/54
f  45/1/45 44/1/44 55/1/55
f  48/1/48 45/1/45 56/1/56
f  57/1/57 51/1/51 48/1/48
f  58/1/58 52/1/52 59/1/59
f  59/1/59 52/1/52 51/1/51
f  60/1/60 33/1/33 32/1/32
f  33/1/33 60/1/60 61/1/61
f  62/1/62 29/1/29 30/1/30
f  29/1/29 62/1/62 63/1/63
f  64/1/64 60/1/60 65/1/65
f  64/1/64 66/1/66 61/1/61
f  66/1/66 67/1/67 62/1/62
f  68/1/68 63/1/63 62/1/62
f  63/1/63 68/1/68 69/1/69
f  70/1/70 71/1/71 69/1/69
f  28/1/28 63/1/63 71/1/71
f  72/1/72 73/1/73 71/1/71
f  73/1/73 74/1/74 75/1/75
f  74/1/74 73/1/73 72/1/72
f  76/1/76 65/1/65 32/1/32
f  77/1/77 76/1/76 31/1/31
f  65/1/65 76/1/76 78/1/78
f  79/1/79 78/1/78 76/1/76
f  49/1/49 1/1/1 47/1/47
f  17/1/17 16/1/16 49/1/49
f  80/1/80 20/1/20 81/1/81
f  82/1/82 50/1/50 20/1/20
f  35/1/35 34/1/34 52/1/52
f  27/1/27 28/1/28 75/1/75
f  15/1/15 27/1/27 83/1/83
f  9/1/9 15/1/15 84/1/84
f  10/1/10 9/1/9 85/1/85
f  86/1/86 87/1/87 41/1/41
f  87/1/87 88/1/88 42/1/42
f  53/1/53 42/1/42 88/1/88
f  89/1/89 90/1/90 91/1/91
f  91/1/91 90/1/90 92/1/92
f  92/1/92 93/1/93 94/1/94
f  94/1/94 93/1/93 95/1/95
f  95/1/95 96/1/96 97/1/97
f  98/1/98 94/1/94 99/1/99
f  94/1/94 100/1/100 101/1/101
f  102/1/102 101/1/101 100/1/100
f  17/1/17 103/1/103 104/1/104
f  105/1/105 104/1/104 103/1/103
f  106/1/106 104/1/104 105/1/105
f  107/1/107 108/1/108 91/1/91
f  108/1/108 107/1/107 109/1/109
f  110/1/110 109/1/109 107/1/107
f  111/1/111 110/1/110 99/1/99
f  101/1/101 102/1/102 112/1/112
f  113/1/113 114/1/114 111/1/111
f  114/1/114 115/1/115 110/1/110
f  115/1/115 116/1/116 109/1/109
f  117/1/117 118/1/118 119/1/119
f  116/1/116 120/1/120 119/1/119
f  35/1/35 121/1/121 122/1/122
f  123/1/123 92/1/92 90/1/90
f  124/1/124 93/1/93 92/1/92
f  125/1/125 95/1/95 93/1/93
f  95/1/95 125/1/125 126/1/126
f  125/1/125 127/1/127 128/1/128
f  124/1/124 129/1/129 127/1/127
f  129/1/129 124/1/124 123/1/123
f  130/1/130 131/1/131 132/1/132
f  133/1/133 134/1/134 131/1/131
f  122/1/122 89/1/89 135/1/135
f  108/1/108 105/1/105 135/1/135
f  118/1/118 105/1/105 108/1/108
f  106/1/106 118/1/118 117/1/117
f  89/1/89 133/1/133 130/1/130
f  134/1/134 133/1/133 121/1/121
f  136/1/136 128/1/128 127/1/127
f  129/1/129 137/1/137 138/1/138
f  132/1/132 139/1/139 137/1/137
f  139/1/139 132/1/132 131/1/131
f  140/1/140 141/1/141 131/1/131
f  58/1/58 142/1/142 143/1/143
f  143/1/143 140/1/140 134/1/134
f  144/1/144 145/1/145 120/1/120
f  116/1/116 115/1/115 146/1/146
f  115/1/115 114/1/114 147/1/147
f  114/1/114 113/1/113 148/1/148
f  145/1/145 144/1/144 149/1/149
f  149/1/149 144/1/144 146/1/146
f  150/1/150 146/1/146 147/1/147
f  151/1/151 152/1/152 147/1/147
f  148/1/148 153/1/153 154/1/154
f  155/1/155 156/1/156 154/1/154
f  113/1/113 157/1/157 153/1/153
f  158/1/158 155/1/155 153/1/153
f  157/1/157 113/1/113 75/1/75
f  74/1/74 159/1/159 158/1/158
f  160/1/160 117/1/117 120/1/120
f  161/1/161 162/1/162 117/1/117
f  145/1/145 163/1/163 164/1/164
f  165/1/165 161/1/161 160/1/160
f  133/1/133 89/1/89 122/1/122
f  17/1/17 36/1/36 122/1/122
f  80/1/80 18/1/18 104/1/104
f  162/1/162 82/1/82 80/1/80
f  35/1/35 58/1/58 166/1/166
f  112/1/112 83/1/83 75/1/75
f  102/1/102 84/1/84 83/1/83
f  97/1/97 85/1/85 84/1/84
f  96/1/96 86/1/86 85/1/85
f  87/1/87 86/1/86 96/1/96
f  88/1/88 87/1/87 126/1/126
f  136/1/136 167/1/167 88/1/88
f  37/1/37 1/1/1 3/1/3
f  37/1/37 3/1/3 5/1/5
f  7/1/7 5/1/5 6/1/6
f  11/1/11 7/1/7 8/1/8
f  8/1/8 9/1/9 11/1/11
f  6/1/6 4/1/4 13/1/13
f  8/1/8 6/1/6 14/1/14
f  14/1/14 15/1/15 8/1/8
f  81/1/81 16/1/16 18/1/18
f  81/1/81 19/1/19 16/1/16
f  81/1/81 20/1/20 19/1/19
f  22/1/22 12/1/12 3/1/3
f  12/1/12 22/1/22 24/1/24
f  24/1/24 25/1/25 12/1/12
f  25/1/25 26/1/26 13/1/13
f  15/1/15 14/1/14 27/1/27
f  29/1/29 28/1/28 26/1/26
f  30/1/30 29/1/29 25/1/25
f  33/1/33 30/1/30 24/1/24
f  32/1/32 23/1/23 31/1/31
f  24/1/24 23/1/23 33/1/33
f  49/1/49 34/1/34 36/1/36
f  46/1/46 37/1/37 38/1/38
f  7/1/7 39/1/39 5/1/5
f  11/1/11 40/1/40 7/1/7
f  41/1/41 40/1/40 10/1/10
f  43/1/43 40/1/40 42/1/42
f  44/1/44 39/1/39 43/1/43
f  39/1/39 44/1/44 38/1/38
f  48/1/48 46/1/46 45/1/45
f  51/1/51 47/1/47 48/1/48
f  1/1/1 49/1/49 2/1/2
f  19/1/19 22/1/22 2/1/2
f  19/1/19 21/1/21 22/1/22
f  21/1/21 20/1/20 31/1/31
f  37/1/37 46/1/46 1/1/1
f  47/1/47 51/1/51 34/1/34
f  42/1/42 53/1/53 43/1/43
f  55/1/55 44/1/44 54/1/54
f  56/1/56 45/1/45 55/1/55
f  168/1/168 48/1/48 56/1/56
f  168/1/168 57/1/57 48/1/48
f  142/1/142 58/1/58 59/1/59
f  57/1/57 59/1/59 51/1/51
f  65/1/65 60/1/60 32/1/32
f  30/1/30 33/1/33 61/1/61
f  61/1/61 62/1/62 30/1/30
f  28/1/28 29/1/29 63/1/63
f  169/1/169 64/1/64 65/1/65
f  60/1/60 64/1/64 61/1/61
f  61/1/61 66/1/66 62/1/62
f  67/1/67 68/1/68 62/1/62
f  71/1/71 63/1/63 69/1/69
f  170/1/170 70/1/70 69/1/69
f  73/1/73 28/1/28 71/1/71
f  70/1/70 72/1/72 71/1/71
f  28/1/28 73/1/73 75/1/75
f  159/1/159 74/1/74 72/1/72
f  31/1/31 76/1/76 32/1/32
f  50/1/50 77/1/77 31/1/31
f  169/1/169 65/1/65 78/1/78
f  77/1/77 79/1/79 76/1/76
f  34/1/34 49/1/49 47/1/47
f  36/1/36 17/1/17 49/1/49
f  18/1/18 80/1/80 81/1/81
f  80/1/80 82/1/82 20/1/20
f  58/1/58 35/1/35 52/1/52
f  83/1/83 27/1/27 75/1/75
f  84/1/84 15/1/15 83/1/83
f  85/1/85 9/1/9 84/1/84
f  86/1/86 10/1/10 85/1/85
f  10/1/10 86/1/86 41/1/41
f  41/1/41 87/1/87 42/1/42
f  167/1/167 53/1/53 88/1/88
f  135/1/135 89/1/89 91/1/91
f  98/1/98 91/1/91 92/1/92
f  98/1/98 92/1/92 94/1/94
f  100/1/100 94/1/94 95/1/95
f  100/1/100 95/1/95 97/1/97
f  107/1/107 98/1/98 99/1/99
f  99/1/99 94/1/94 101/1/101
f  97/1/97 102/1/102 100/1/100
f  18/1/18 17/1/17 104/1/104
f  135/1/135 105/1/105 103/1/103
f  118/1/118 106/1/106 105/1/105
f  98/1/98 107/1/107 91/1/91
f  119/1/119 108/1/108 109/1/109
f  99/1/99 110/1/110 107/1/107
f  101/1/101 111/1/111 99/1/99
f  111/1/111 101/1/101 112/1/112
f  112/1/112 113/1/113 111/1/111
f  111/1/111 114/1/114 110/1/110
f  110/1/110 115/1/115 109/1/109
f  120/1/120 117/1/117 119/1/119
f  109/1/109 116/1/116 119/1/119
f  36/1/36 35/1/35 122/1/122
f  130/1/130 123/1/123 90/1/90
f  123/1/123 124/1/124 92/1/92
f  124/1/124 125/1/125 93/1/93
f  96/1/96 95/1/95 126/1/126
f  126/1/126 125/1/125 128/1/128
f  125/1/125 124/1/124 127/1/127
f  132/1/132 129/1/129 123/1/123
f  123/1/123 130/1/130 132/1/132
f  130/1/130 133/1/133 131/1/131
f  103/1/103 122/1/122 135/1/135
f  91/1/91 108/1/108 135/1/135
f  119/1/119 118/1/118 108/1/108
f  162/1/162 106/1/106 117/1/117
f  90/1/90 89/1/89 130/1/130
f  166/1/166 134/1/134 121/1/121
f  138/1/138 136/1/136 127/1/127
f  127/1/127 129/1/129 138/1/138
f  129/1/129 132/1/132 137/1/137
f  141/1/141 139/1/139 131/1/131
f  134/1/134 140/1/140 131/1/131
f  166/1/166 58/1/58 143/1/143
f  166/1/166 143/1/143 134/1/134
f  116/1/116 144/1/144 120/1/120
f  144/1/144 116/1/116 146/1/146
f  146/1/146 115/1/115 147/1/147
f  147/1/147 114/1/114 148/1/148
f  163/1/163 145/1/145 149/1/149
f  150/1/150 149/1/149 146/1/146
f  152/1/152 150/1/150 147/1/147
f  148/1/148 151/1/151 147/1/147
f  151/1/151 148/1/148 154/1/154
f  153/1/153 155/1/155 154/1/154
f  148/1/148 113/1/113 153/1/153
f  157/1/157 158/1/158 153/1/153
f  74/1/74 157/1/157 75/1/75
f  157/1/157 74/1/74 158/1/158
f  145/1/145 160/1/160 120/1/120
f  160/1/160 161/1/161 117/1/117
f  160/1/160 145/1/145 164/1/164
f  164/1/164 165/1/165 160/1/160
f  121/1/121 133/1/133 122/1/122
f  103/1/103 17/1/17 122/1/122
f  106/1/106 80/1/80 104/1/104
f  106/1/106 162/1/162 80/1/80
f  121/1/121 35/1/35 166/1/166
f  113/1/113 112/1/112 75/1/75
f  112/1/112 102/1/102 83/1/83
f  102/1/102 97/1/97 84/1/84
f  97/1/97 96/1/96 85/1/85
f  126/1/126 87/1/87 96/1/96
f  128/1/128 88/1/88 126/1/126
f  128/1/128 136/1/136 88/1/88

