# File produced by Open Asset Import Library (http://www.assimp.sf.net)
# (assimp v3.2.0)

mtllib LFinger33.mtl

# 177 vertex positions
v  0.000946419 0.0119437 -0.010318
v  0.00391376 0.0124222 -0.00706887
v  0.00462723 0.00201267 -0.00893569
v  0.00157106 0.0024755 -0.0107194
v  -0.00326979 0.0035584 -0.0106473
v  -0.00337362 0.0102813 -0.0100008
v  -0.00782293 0.00561809 -0.0068053
v  -0.00884509 0.00587314 -0.00396812
v  -0.00853312 0.00837052 -0.00419337
v  -0.00902259 0.00843072 -0.00192797
v  -0.0034644 0.00313061 -0.0101442
v  -0.00753844 0.00465214 -0.0067752
v  -0.00860327 0.00479877 -0.00389093
v  -0.00891429 0.0049935 -0.00167352
v  -0.00930852 0.00600856 -0.00177008
v  0.00717527 0.00162643 -0.000107513
v  0.00734204 0.000190962 -9.53969e-05
v  0.00684947 0.000475107 -0.00399244
v  0.00477952 0.0011794 -0.00882483
v  0.0067904 0.00150138 -0.00411063
v  0.00665557 -0.00273943 -0.0057838
v  0.00425774 -0.0017125 -0.00939065
v  0.00124919 0.00179106 -0.0103617
v  0.000551497 -0.00195354 -0.0104563
v  -0.00361198 -0.000431031 -0.0100866
v  -0.00765264 0.00179845 -0.00667548
v  -0.00861299 0.0022707 -0.00399113
v  -0.00902134 0.00275004 -0.00128508
v  -0.00776613 0.00123042 -0.000951412
v  -0.00744522 0.000979719 -0.00375259
v  -0.00647378 0.000383367 -0.00577646
v  0.00298995 -0.00157869 -0.00821221
v  -8.41608e-05 -0.00324053 -0.0101765
v  -0.00308734 -0.00160652 -0.00888437
v  0.00473481 0.0141614 -0.000203174
v  0.00525457 0.0132232 -0.000202633
v  0.00480187 0.0128332 -0.00387823
v  -0.00342107 0.0116931 -0.00932848
v  -0.00719792 0.0098331 -0.00652766
v  -0.00829118 0.00932962 -0.00402272
v  -0.00755376 0.00875401 -0.0065822
v  -0.00876844 0.00917417 -0.00161743
v  -0.00689209 0.0158571 -0.0013054
v  -0.00666642 0.0159512 -0.00304317
v  -0.00594181 0.01596 -0.00549102
v  -0.00298202 0.0158126 -0.00819576
v  0.000490757 0.0132354 -0.00959343
v  0.00345898 0.0137988 -0.00676358
v  6.70673e-05 0.0160584 -0.00838631
v  0.0057866 -0.00340581 -0.00534522
v  0.00276381 0.0164836 -0.00690776
v  0.00398749 0.0165857 -0.00445872
v  -0.00357389 -0.00411016 -0.00874287
v  -0.00759691 -0.00333446 -0.00550574
v  -0.00856042 -0.00321466 -0.00360984
v  -0.00911403 -0.00312918 -0.0011282
v  -0.00302356 -0.00816029 -0.00853097
v  -0.00066894 -0.00494182 -0.00871849
v  -0.00656891 -0.00990516 -0.00526339
v  -0.0073452 -0.0103557 -0.00346446
v  -0.00774103 -0.0103245 -0.00238329
v  -0.00378901 -0.00871509 -0.002087
v  -0.00138181 -0.00282079 -0.00139522
v  -0.00452429 -0.0011099 -0.00125784
v  -0.00134081 -0.000779901 -0.00110281
v  -0.00466532 -0.00044194 -0.000862814
v  -0.0045706 -0.000451519 0.000138803
v  -0.00769019 0.00121599 0.000178842
v  0.000284743 -0.00303745 -0.00712758
v  0.000876106 -0.0023694 -0.00545794
v  -0.000118374 -0.00670057 -0.00716954
v  -6.24702e-05 -0.00660557 -0.0052377
v  -0.00685596 0.015946 -2.97464e-06
v  -0.0039081 0.0185868 -8.90121e-05
v  -0.00391561 0.0185475 -0.00168282
v  -0.000901676 0.0195337 -0.000156658
v  -0.000790587 0.0194392 -0.00170493
v  0.0023213 0.0185794 -0.000207243
v  0.00162375 0.0176659 -0.00609958
v  0.00231141 0.0180866 -0.00455516
v  -5.59422e-05 0.0172383 -0.00700831
v  -0.00286692 0.0172382 -0.00698018
v  -0.00520217 0.0173973 -0.00339496
v  -0.00498432 0.0171471 -0.00506669
v  -0.00126666 0.019061 -0.00364369
v  -0.00177592 0.0183231 -0.00553733
v  0.00767124 -0.0019561 -7.76292e-05
v  0.00435221 0.0140082 -0.00401777
v  0.00461841 0.0163397 -0.000225851
v  -0.0090214 0.00274378 0.000187261
v  -0.00896853 0.00505316 0.00016003
v  -0.0093469 0.00599521 0.000156961
v  -0.00908279 0.00843447 0.000123909
v  -0.00863439 0.00946259 0.000104203
v  0.00496358 0.00221234 0.00879854
v  0.0041756 0.0125784 0.00672668
v  0.00133443 0.0121738 0.0100963
v  0.00197828 0.00271749 0.0106864
v  -0.00299335 0.0105067 0.00997996
v  -0.00730085 0.00890428 0.00675827
v  -0.00755924 0.00577539 0.00706184
v  -0.00836968 0.00846809 0.00441778
v  -0.00894517 0.00847697 0.00217223
v  -0.00923526 0.0060513 0.00207949
v  -0.00868827 0.00596565 0.0042609
v  -0.00286233 0.00379992 0.0107741
v  -0.0072751 0.0048086 0.00704312
v  -0.00844854 0.00488984 0.00419897
v  -0.00884479 0.00503421 0.00199085
v  0.00694239 0.00159162 0.00390726
v  0.00699705 0.00056302 0.00381112
v  0.00511306 0.00137746 0.00870132
v  0.00687355 -0.00260997 0.00568014
v  -0.0030759 0.00336122 0.010288
v  0.00164354 0.00202501 0.0103573
v  -0.00322419 -0.000200646 0.0103165
v  -0.00739223 0.00195336 0.00701219
v  -0.00845462 0.00236416 0.00435692
v  -0.00896508 0.00278258 0.00165802
v  -0.0077228 0.00125587 0.00131029
v  -0.00729549 0.00106806 0.00410283
v  -0.00624865 0.000517047 0.00610095
v  -0.00274581 -0.00140297 0.00912189
v  0.0033018 -0.00139278 0.00821954
v  0.00461406 -0.0015015 0.00935203
v  0.000951141 -0.00171638 0.0105625
v  0.000306357 -0.00300914 0.0103363
v  0.00449753 0.0140941 0.00362557
v  0.00494224 0.0129163 0.00349534
v  -0.00306714 0.0119037 0.00927824
v  -0.0069477 0.00998217 0.00666565
v  -0.00813484 0.00942296 0.00421709
v  -0.00655037 0.0160195 0.00302702
v  -0.00684273 0.0158866 0.00130171
v  -0.00573355 0.0160834 0.00544453
v  0.000851195 0.0134499 0.00936007
v  0.000381304 0.0162446 0.00810623
v  -0.00267345 0.0159957 0.0080378
v  0.0037095 0.0139473 0.0064078
v  0.00301927 0.0166345 0.00651681
v  0.00414807 0.0166817 0.00402176
v  -0.00323588 -0.00390923 0.00905621
v  -0.000333023 -0.00474226 0.00893921
v  -0.00737852 -0.00320506 0.0059573
v  -0.00841385 -0.00312734 0.0040971
v  -0.00906116 -0.00309789 0.00163638
v  -0.00269222 -0.00796407 0.00891465
v  -0.00635779 -0.00978076 0.00582385
v  -0.00763816 -0.0102642 0.00300097
v  -0.00720268 -0.0102706 0.00406706
v  -0.00447142 -0.00107867 0.00154662
v  -0.00370204 -0.00866318 0.00251835
v  -0.00132441 -0.0027867 0.00160253
v  -0.000839101 -0.00701118 0.00172323
v  -0.00462669 -0.000419737 0.0011425
v  -0.00129533 -0.000753222 0.00126272
v  -0.000981511 -0.000952432 7.65615e-05
v  0.000558463 -0.00287515 0.00727147
v  0.00108582 -0.00224441 0.00556666
v  0.00598872 -0.00328553 0.00529009
v  -0.000150544 -0.00657773 0.0088768
v  0.000158597 -0.00653601 0.00741124
v  0.000141036 -0.00648534 0.00547677
v  -0.00385547 0.0185828 0.00150412
v  -0.000732672 0.019474 0.00138807
v  0.00247616 0.0181848 0.00414729
v  0.0018478 0.0178 0.0057264
v  0.000204165 0.0173926 0.00670803
v  -0.00260508 0.0173931 0.00678664
v  -0.00507498 0.0174735 0.00329047
v  -0.0011335 0.01914 0.00335181
v  -0.00479412 0.0172595 0.00495744
v  -0.00157028 0.0184446 0.00527877
v  0.0060975 -0.00342983 -3.10426e-05
v  -0.00870234 0.00921327 0.00183535
v  -0.000483325 -0.0067755 -0.00862032
v  -0.000899258 -0.00704706 -0.00143826

# 1 UV coordinates
vt 4.61149 0.499573 0

# 214 vertex normals
vn 0.275247 0.296213 -0.914579
vn 0.798853 0.276925 -0.533921
vn 0.744285 -0.0187688 -0.667562
vn 0.266243 -0.175848 -0.947722
vn -0.351604 -0.20423 -0.913572
vn -0.392224 0.208228 -0.895962
vn -0.830775 -0.0793481 -0.55089
vn -0.961669 -0.0889004 -0.259316
vn -0.939817 0.199408 -0.277413
vn -0.966643 0.225593 -0.121158
vn -0.468093 -0.224677 -0.85461
vn -0.820551 -0.151738 -0.551012
vn -0.962218 -0.129673 -0.239265
vn -0.983093 -0.161931 -0.0851466
vn -0.988678 -0.109958 -0.101779
vn 0.991516 0.128269 -0.0202032
vn 0.996338 0.0828577 -0.019776
vn 0.964354 0.0747398 -0.253792
vn 0.727989 -0.0173345 -0.685324
vn 0.961394 0.112613 -0.250954
vn 0.762474 -0.535569 -0.362957
vn 0.514267 -0.466811 -0.719413
vn 0.121097 -0.224128 -0.966979
vn 0.105655 -0.488449 -0.866146
vn -0.471725 -0.313944 -0.823939
vn -0.819819 -0.324076 -0.471999
vn -0.921751 -0.343638 -0.17951
vn -0.949065 -0.31196 -0.0440382
vn -0.803125 -0.560534 0.201849
vn -0.935423 -0.277871 -0.218482
vn -0.819666 -0.328471 -0.469283
vn 0.210517 -0.941954 -0.261422
vn 0.103458 -0.743034 -0.661183
vn -0.546037 -0.346263 -0.762841
vn 0.967284 0.252724 -0.0211798
vn 0.954894 0.296152 -0.0214545
vn 0.937315 0.268227 -0.222419
vn -0.453932 0.33198 -0.826868
vn -0.797937 0.282693 -0.532273
vn -0.926359 0.288095 -0.2425
vn -0.813532 0.189001 -0.549913
vn -0.946379 0.314585 -0.0731223
vn -0.859951 0.50856 -0.0424512
vn -0.850398 0.500137 -0.163213
vn -0.752861 0.454817 -0.475722
vn -0.359508 0.476058 -0.802545
vn 0.200751 0.404218 -0.892331
vn 0.779443 0.311533 -0.543474
vn 0.160558 0.511765 -0.843959
vn 0.304727 -0.928465 -0.212287
vn 0.626362 0.487655 -0.608142
vn 0.858486 0.447096 -0.251106
vn -0.448164 -0.0941801 -0.888974
vn -0.789819 0.0171819 -0.613056
vn -0.941405 0.0482497 -0.33372
vn -0.79928 -0.0334483 0.599994
vn -0.411603 -0.103977 -0.905393
vn 0.477218 -0.306192 -0.823664
vn -0.797723 -0.147679 -0.584613
vn -0.927702 -0.156011 -0.339122
vn -0.858882 -0.234779 0.455153
vn -0.00857568 -0.114628 0.993347
vn -0.0639057 -0.137333 0.988433
vn -0.0104678 -0.161107 0.986877
vn -0.0961333 -0.821131 0.562517
vn -0.198981 -0.718131 0.666799
vn -0.294137 -0.955596 0.0163274
vn -0.624348 -0.780847 0.0206305
vn 0.762261 -0.618915 -0.189337
vn 0.502976 -0.821192 -0.269478
vn 0.958647 -0.102573 -0.26542
vn 0.975677 -0.168859 -0.139561
vn -0.667427 0.743976 -0.0322735
vn -0.300771 0.95344 -0.0220956
vn 0.283146 0.958317 -0.0381792
vn 0.488724 0.761849 -0.425128
vn 0.207142 0.680305 -0.703049
vn -0.0995004 0.650263 -0.753165
vn -0.537745 0.571767 -0.619607
vn -0.728744 0.656931 -0.193322
vn -0.708181 0.703976 -0.0538214
vn -0.387785 0.873201 -0.2952
vn 0.199363 0.951446 -0.234531
vn -0.390772 0.888354 -0.24109
vn 0.112902 0.915148 -0.386984
vn -0.367136 0.855333 -0.365537
vn 0.942381 -0.334178 -0.0140995
vn 0.940458 0.244728 -0.235877
vn 0.910306 0.413312 -0.0219123
vn -0.943785 -0.329783 0.0216681
vn -0.984466 -0.17423 0.0206305
vn -0.990783 -0.133732 0.0202643
vn -0.970183 0.241737 0.0156255
vn -0.949339 0.313883 0.0144963
vn 0.667394 0.739796 -0.0853601
vn 0.769127 -0.00369269 0.639027
vn 0.818476 0.288522 0.496811
vn 0.30961 0.316568 0.896603
vn 0.302225 -0.154301 0.940642
vn -0.357982 0.228522 0.905301
vn -0.792108 0.201605 0.576067
vn -0.809229 -0.0667135 0.583667
vn -0.928709 0.205969 0.308298
vn -0.961425 0.228736 0.152654
vn -0.984039 -0.107395 0.141759
vn -0.951048 -0.0828882 0.297677
vn -0.316538 -0.183477 0.930631
vn -0.798944 -0.138981 0.585101
vn -0.952361 -0.123844 0.278664
vn -0.979095 -0.15952 0.126163
vn 0.970183 0.117985 0.211615
vn 0.973235 0.0801721 0.215278
vn 0.753655 -0.0017395 0.657216
vn 0.775964 -0.527635 0.345622
vn -0.435286 -0.205115 0.876583
vn 0.157903 -0.202094 0.966521
vn -0.439985 -0.294961 0.84817
vn -0.801172 -0.312815 0.510117
vn -0.914121 -0.339091 0.222175
vn -0.946501 -0.310617 0.0871303
vn -0.80987 -0.564714 -0.158544
vn -0.926298 -0.27253 0.260048
vn -0.801111 -0.317331 0.507431
vn -0.516587 -0.328684 0.790613
vn 0.220679 -0.936003 0.274178
vn 0.541398 -0.45088 0.709616
vn 0.138554 -0.468917 0.87228
vn 0.12888 -0.72808 0.673238
vn 0.948607 0.249641 0.194342
vn 0.944975 0.272744 0.180548
vn -0.422346 0.350688 0.83581
vn -0.777245 0.294992 0.555712
vn -0.916562 0.294015 0.270943
vn -0.843806 0.504013 0.184088
vn -0.857936 0.509751 0.0636616
vn -0.734428 0.465743 0.493606
vn 0.234321 0.424146 0.874722
vn 0.192389 0.530656 0.825434
vn -0.328959 0.494217 0.804651
vn 0.799432 0.323435 0.506211
vn 0.648884 0.500961 0.572619
vn 0.867153 0.452406 0.208136
vn -0.414014 -0.0739158 0.907224
vn 0.50853 -0.287728 0.811518
vn -0.765954 0.0312815 0.64211
vn -0.928098 0.0561845 0.367992
vn -0.821375 -0.0466017 -0.568438
vn -0.376995 -0.0833155 0.922453
vn -0.774804 -0.134068 0.617786
vn -0.875301 -0.244606 -0.417096
vn -0.91409 -0.147893 0.377514
vn -0.0478835 -0.183264 -0.981872
vn -0.0461745 -0.137028 -0.989471
vn -0.101382 -0.159581 -0.981933
vn -0.122349 -0.104282 -0.986969
vn -0.223762 -0.732841 -0.642537
vn -0.11716 -0.833613 -0.53975
vn -0.121647 -0.992462 0.0134586
vn 0.76925 -0.614734 0.174047
vn 0.513108 -0.81518 0.268624
vn 0.312845 -0.923643 0.221351
vn 0.527818 -0.0378734 0.848476
vn 0.968078 -0.0969878 0.230995
vn 0.980346 -0.166143 0.106204
vn -0.670711 0.741328 0.0240639
vn -0.271517 0.960111 0.0668231
vn 0.315954 0.945848 0.0744652
vn 0.648952 0.696231 0.306795
vn 0.233471 0.695496 0.679541
vn 0.0178276 0.773836 0.633136
vn -0.514041 0.585995 0.626396
vn -0.704381 0.674823 0.220142
vn -0.67013 0.742236 0.00340748
vn -0.269121 0.957053 0.10781
vn 0.207887 0.956412 0.205081
vn -0.355098 0.917791 0.177668
vn 0.0940123 0.853951 0.511791
vn 0.0163305 0.814844 0.57945
vn 0.65627 -0.754479 -0.00393689
vn -0.942991 0.316782 0.101871
vn -0.845454 0.533921 0.0100406
vn 0.698054 0.715776 0.0196437
vn 0.495285 -0.0573748 -0.866817
vn -0.0847499 -0.0819117 0.993011
vn -0.671537 0.740817 -0.0151005
vn -0.274043 0.958535 -0.0781702
vn 0.312574 0.943771 -0.107675
vn 0.63669 0.688714 -0.346842
vn 0.222988 0.750246 -0.62242
vn -0.00653362 0.759324 -0.65068
vn -0.534495 0.63181 -0.561365
vn -0.712145 0.670385 -0.208405
vn -0.6702 0.742163 0.00504285
vn -0.273198 0.954557 -0.119095
vn 0.169363 0.929191 -0.328511
vn -0.361956 0.913859 -0.183982
vn 0.0744822 0.84219 -0.534011
vn -0.00600982 0.801424 -0.598066
vn 0.696494 0.714856 -0.06226
vn -0.666041 0.744806 0.0406697
vn -0.300116 0.953823 0.0123597
vn 0.283985 0.95881 0.00599927
vn 0.504691 0.770851 0.388683
vn 0.246292 0.764116 0.596211
vn -0.0709831 0.667296 0.741403
vn -0.513024 0.644561 0.566875
vn -0.721045 0.661431 0.206404
vn -0.70634 0.704843 0.0654318
vn -0.376594 0.880025 0.289367
vn 0.181569 0.936362 0.300431
vn -0.381546 0.893701 0.236053
vn 0.126745 0.923516 0.362014
vn -0.353311 0.863567 0.359753
vn 0.669729 0.741339 0.0433502

# Mesh 'LFinger33_LFinger33' with 324 faces
g LFinger33_LFinger33
usemtl MainSkin
f  1/1/1 2/1/2 3/1/3
f  4/1/4 5/1/5 6/1/6
f  6/1/6 5/1/5 7/1/7
f  7/1/7 8/1/8 9/1/9
f  10/1/10 9/1/9 8/1/8
f  5/1/5 11/1/11 12/1/12
f  7/1/7 12/1/12 13/1/13
f  14/1/14 15/1/15 8/1/8
f  16/1/16 17/1/17 18/1/18
f  19/1/19 3/1/3 20/1/20
f  21/1/21 22/1/22 19/1/19
f  23/1/23 11/1/11 5/1/5
f  23/1/23 24/1/24 25/1/25
f  26/1/26 12/1/12 11/1/11
f  27/1/27 13/1/13 12/1/12
f  13/1/13 27/1/27 28/1/28
f  29/1/29 28/1/28 27/1/27
f  30/1/30 27/1/27 26/1/26
f  31/1/31 26/1/26 25/1/25
f  24/1/24 22/1/22 32/1/32
f  24/1/24 33/1/33 34/1/34
f  35/1/35 36/1/36 37/1/37
f  1/1/1 6/1/6 38/1/38
f  39/1/39 38/1/38 6/1/6
f  40/1/40 39/1/39 41/1/41
f  40/1/40 9/1/9 10/1/10
f  40/1/40 42/1/42 43/1/43
f  39/1/39 40/1/40 44/1/44
f  45/1/45 46/1/46 38/1/38
f  47/1/47 38/1/38 46/1/46
f  48/1/48 47/1/47 49/1/49
f  2/1/2 37/1/37 20/1/20
f  23/1/23 4/1/4 3/1/3
f  22/1/22 24/1/24 23/1/23
f  21/1/21 50/1/50 32/1/32
f  47/1/47 48/1/48 2/1/2
f  48/1/48 51/1/51 52/1/52
f  53/1/53 34/1/34 33/1/33
f  34/1/34 53/1/53 54/1/54
f  30/1/30 31/1/31 54/1/54
f  30/1/30 55/1/55 56/1/56
f  57/1/57 53/1/53 58/1/58
f  57/1/57 59/1/59 54/1/54
f  59/1/59 60/1/60 55/1/55
f  61/1/61 56/1/56 55/1/55
f  56/1/56 61/1/61 62/1/62
f  63/1/63 64/1/64 62/1/62
f  29/1/29 56/1/56 64/1/64
f  65/1/65 66/1/66 64/1/64
f  66/1/66 67/1/67 68/1/68
f  67/1/67 66/1/66 65/1/65
f  69/1/69 58/1/58 33/1/33
f  70/1/70 69/1/69 32/1/32
f  58/1/58 69/1/69 71/1/71
f  72/1/72 71/1/71 69/1/69
f  37/1/37 2/1/2 48/1/48
f  43/1/73 73/1/73 74/1/73
f  75/1/74 74/1/74 76/1/74
f  77/1/75 76/1/75 78/1/75
f  51/1/76 79/1/76 80/1/76
f  81/1/77 79/1/77 51/1/77
f  49/1/78 46/1/78 82/1/78
f  82/1/79 46/1/79 45/1/79
f  83/1/80 84/1/80 45/1/80
f  83/1/81 44/1/81 43/1/81
f  85/1/82 83/1/82 75/1/82
f  85/1/83 77/1/83 80/1/83
f  83/1/84 85/1/84 86/1/84
f  86/1/85 85/1/85 79/1/85
f  82/1/86 84/1/86 86/1/86
f  16/1/16 20/1/20 37/1/37
f  87/1/87 21/1/21 18/1/18
f  50/1/50 21/1/21 87/1/87
f  88/1/88 52/1/52 89/1/89
f  90/1/90 28/1/28 29/1/29
f  91/1/91 14/1/14 28/1/28
f  92/1/92 15/1/15 14/1/14
f  93/1/93 10/1/10 15/1/15
f  42/1/42 10/1/10 93/1/93
f  43/1/43 42/1/42 94/1/94
f  52/1/95 80/1/95 78/1/95
f  95/1/96 96/1/97 97/1/98
f  98/1/99 97/1/98 99/1/100
f  99/1/100 100/1/101 101/1/102
f  101/1/102 100/1/101 102/1/103
f  103/1/104 104/1/105 105/1/106
f  106/1/107 101/1/102 107/1/108
f  101/1/102 105/1/106 108/1/109
f  109/1/110 108/1/109 105/1/106
f  16/1/16 110/1/111 111/1/112
f  112/1/113 111/1/112 110/1/111
f  113/1/114 111/1/112 112/1/113
f  106/1/107 114/1/115 115/1/116
f  115/1/116 114/1/115 116/1/117
f  117/1/118 116/1/117 114/1/115
f  118/1/119 117/1/118 107/1/108
f  108/1/109 109/1/110 119/1/120
f  120/1/121 121/1/122 118/1/119
f  121/1/122 122/1/123 117/1/118
f  122/1/123 123/1/124 116/1/117
f  124/1/125 125/1/126 126/1/127
f  123/1/124 127/1/128 126/1/127
f  35/1/35 128/1/129 129/1/130
f  130/1/131 99/1/100 97/1/98
f  131/1/132 100/1/101 99/1/100
f  132/1/133 102/1/103 100/1/101
f  103/1/104 102/1/103 132/1/133
f  132/1/133 133/1/134 134/1/135
f  131/1/132 135/1/136 133/1/134
f  135/1/136 131/1/132 130/1/131
f  136/1/137 137/1/138 138/1/139
f  139/1/140 140/1/141 137/1/138
f  110/1/111 129/1/130 96/1/97
f  115/1/116 112/1/113 95/1/96
f  125/1/126 112/1/113 115/1/116
f  113/1/114 125/1/126 124/1/125
f  96/1/97 139/1/140 136/1/137
f  141/1/142 140/1/141 139/1/140
f  142/1/143 143/1/144 127/1/128
f  123/1/124 122/1/123 144/1/145
f  121/1/122 145/1/146 144/1/145
f  121/1/122 120/1/121 146/1/147
f  143/1/144 142/1/143 147/1/148
f  147/1/148 142/1/143 144/1/145
f  148/1/149 144/1/145 145/1/146
f  149/1/150 150/1/151 145/1/146
f  146/1/147 151/1/152 152/1/153
f  153/1/154 154/1/155 152/1/153
f  120/1/121 155/1/156 151/1/152
f  156/1/157 153/1/154 151/1/152
f  155/1/156 120/1/121 68/1/68
f  67/1/67 157/1/158 156/1/157
f  158/1/159 124/1/125 127/1/128
f  159/1/160 160/1/161 124/1/125
f  143/1/144 161/1/162 162/1/163
f  163/1/164 159/1/160 158/1/159
f  139/1/140 96/1/97 129/1/130
f  134/1/165 164/1/165 74/1/165
f  164/1/166 165/1/166 76/1/166
f  165/1/167 166/1/167 78/1/167
f  140/1/168 141/1/168 166/1/168
f  140/1/169 167/1/169 168/1/169
f  137/1/170 168/1/170 169/1/170
f  135/1/171 138/1/171 169/1/171
f  170/1/172 133/1/172 135/1/172
f  170/1/173 164/1/173 134/1/173
f  171/1/174 165/1/174 164/1/174
f  166/1/175 165/1/175 171/1/175
f  170/1/176 172/1/176 173/1/176
f  173/1/177 168/1/177 167/1/177
f  169/1/178 168/1/178 173/1/178
f  16/1/16 36/1/36 129/1/130
f  87/1/87 17/1/17 111/1/112
f  160/1/161 174/1/179 87/1/87
f  128/1/129 35/1/35 89/1/89
f  90/1/90 68/1/68 120/1/121
f  91/1/91 90/1/90 119/1/120
f  92/1/92 91/1/91 109/1/110
f  93/1/93 92/1/92 104/1/105
f  175/1/180 94/1/94 93/1/93
f  134/1/135 73/1/181 94/1/94
f  141/1/182 89/1/182 78/1/182
f  4/1/4 1/1/1 3/1/3
f  1/1/1 4/1/4 6/1/6
f  41/1/41 6/1/6 7/1/7
f  41/1/41 7/1/7 9/1/9
f  15/1/15 10/1/10 8/1/8
f  7/1/7 5/1/5 12/1/12
f  8/1/8 7/1/7 13/1/13
f  13/1/13 14/1/14 8/1/8
f  20/1/20 16/1/16 18/1/18
f  18/1/18 19/1/19 20/1/20
f  18/1/18 21/1/21 19/1/19
f  4/1/4 23/1/23 5/1/5
f  11/1/11 23/1/23 25/1/25
f  25/1/25 26/1/26 11/1/11
f  26/1/26 27/1/27 12/1/12
f  14/1/14 13/1/13 28/1/28
f  30/1/30 29/1/29 27/1/27
f  31/1/31 30/1/30 26/1/26
f  34/1/34 31/1/31 25/1/25
f  33/1/33 24/1/24 32/1/32
f  25/1/25 24/1/24 34/1/34
f  88/1/88 35/1/35 37/1/37
f  47/1/47 1/1/1 38/1/38
f  41/1/41 39/1/39 6/1/6
f  9/1/9 40/1/40 41/1/41
f  42/1/42 40/1/40 10/1/10
f  44/1/44 40/1/40 43/1/43
f  45/1/45 39/1/39 44/1/44
f  39/1/39 45/1/45 38/1/38
f  49/1/49 47/1/47 46/1/46
f  51/1/51 48/1/48 49/1/49
f  3/1/3 2/1/2 20/1/20
f  19/1/19 23/1/23 3/1/3
f  19/1/19 22/1/22 23/1/23
f  22/1/22 21/1/21 32/1/32
f  1/1/1 47/1/47 2/1/2
f  88/1/88 48/1/48 52/1/52
f  58/1/58 53/1/53 33/1/33
f  31/1/31 34/1/34 54/1/54
f  55/1/55 30/1/30 54/1/54
f  29/1/29 30/1/30 56/1/56
f  176/1/183 57/1/57 58/1/58
f  53/1/53 57/1/57 54/1/54
f  54/1/54 59/1/59 55/1/55
f  60/1/60 61/1/61 55/1/55
f  64/1/64 56/1/56 62/1/62
f  177/1/184 63/1/63 62/1/62
f  66/1/66 29/1/29 64/1/64
f  63/1/63 65/1/65 64/1/64
f  29/1/29 66/1/66 68/1/68
f  157/1/158 67/1/67 65/1/65
f  32/1/32 69/1/69 33/1/33
f  50/1/50 70/1/70 32/1/32
f  176/1/183 58/1/58 71/1/71
f  70/1/70 72/1/72 69/1/69
f  88/1/88 37/1/37 48/1/48
f  75/1/185 43/1/185 74/1/185
f  77/1/186 75/1/186 76/1/186
f  80/1/187 77/1/187 78/1/187
f  52/1/188 51/1/188 80/1/188
f  49/1/189 81/1/189 51/1/189
f  81/1/190 49/1/190 82/1/190
f  84/1/191 82/1/191 45/1/191
f  44/1/192 83/1/192 45/1/192
f  75/1/193 83/1/193 43/1/193
f  77/1/194 85/1/194 75/1/194
f  79/1/195 85/1/195 80/1/195
f  84/1/196 83/1/196 86/1/196
f  81/1/197 86/1/197 79/1/197
f  81/1/198 82/1/198 86/1/198
f  36/1/36 16/1/16 37/1/37
f  17/1/17 87/1/87 18/1/18
f  174/1/179 50/1/50 87/1/87
f  35/1/35 88/1/88 89/1/89
f  68/1/68 90/1/90 29/1/29
f  90/1/90 91/1/91 28/1/28
f  91/1/91 92/1/92 14/1/14
f  92/1/92 93/1/93 15/1/15
f  94/1/94 42/1/42 93/1/93
f  73/1/181 43/1/43 94/1/94
f  89/1/199 52/1/199 78/1/199
f  98/1/99 95/1/96 97/1/98
f  106/1/107 98/1/99 99/1/100
f  106/1/107 99/1/100 101/1/102
f  105/1/106 101/1/102 102/1/103
f  102/1/103 103/1/104 105/1/106
f  114/1/115 106/1/107 107/1/108
f  107/1/108 101/1/102 108/1/109
f  104/1/105 109/1/110 105/1/106
f  17/1/17 16/1/16 111/1/112
f  95/1/96 112/1/113 110/1/111
f  125/1/126 113/1/114 112/1/113
f  98/1/99 106/1/107 115/1/116
f  126/1/127 115/1/116 116/1/117
f  107/1/108 117/1/118 114/1/115
f  108/1/109 118/1/119 107/1/108
f  118/1/119 108/1/109 119/1/120
f  119/1/120 120/1/121 118/1/119
f  118/1/119 121/1/122 117/1/118
f  117/1/118 122/1/123 116/1/117
f  127/1/128 124/1/125 126/1/127
f  116/1/117 123/1/124 126/1/127
f  36/1/36 35/1/35 129/1/130
f  136/1/137 130/1/131 97/1/98
f  130/1/131 131/1/132 99/1/100
f  131/1/132 132/1/133 100/1/101
f  175/1/180 103/1/104 132/1/133
f  175/1/180 132/1/133 134/1/135
f  132/1/133 131/1/132 133/1/134
f  138/1/139 135/1/136 130/1/131
f  130/1/131 136/1/137 138/1/139
f  136/1/137 139/1/140 137/1/138
f  95/1/96 110/1/111 96/1/97
f  98/1/99 115/1/116 95/1/96
f  126/1/127 125/1/126 115/1/116
f  160/1/161 113/1/114 124/1/125
f  97/1/98 96/1/97 136/1/137
f  128/1/129 141/1/142 139/1/140
f  123/1/124 142/1/143 127/1/128
f  142/1/143 123/1/124 144/1/145
f  122/1/123 121/1/122 144/1/145
f  145/1/146 121/1/122 146/1/147
f  161/1/162 143/1/144 147/1/148
f  148/1/149 147/1/148 144/1/145
f  150/1/151 148/1/149 145/1/146
f  146/1/147 149/1/150 145/1/146
f  149/1/150 146/1/147 152/1/153
f  151/1/152 153/1/154 152/1/153
f  146/1/147 120/1/121 151/1/152
f  155/1/156 156/1/157 151/1/152
f  67/1/67 155/1/156 68/1/68
f  155/1/156 67/1/67 156/1/157
f  143/1/144 158/1/159 127/1/128
f  158/1/159 159/1/160 124/1/125
f  158/1/159 143/1/144 162/1/163
f  162/1/163 163/1/164 158/1/159
f  128/1/129 139/1/140 129/1/130
f  73/1/200 134/1/200 74/1/200
f  74/1/201 164/1/201 76/1/201
f  76/1/202 165/1/202 78/1/202
f  167/1/203 140/1/203 166/1/203
f  137/1/204 140/1/204 168/1/204
f  138/1/205 137/1/205 169/1/205
f  172/1/206 135/1/206 169/1/206
f  172/1/207 170/1/207 135/1/207
f  133/1/208 170/1/208 134/1/208
f  170/1/209 171/1/209 164/1/209
f  167/1/210 166/1/210 171/1/210
f  171/1/211 170/1/211 173/1/211
f  171/1/212 173/1/212 167/1/212
f  172/1/213 169/1/213 173/1/213
f  110/1/111 16/1/16 129/1/130
f  113/1/114 87/1/87 111/1/112
f  113/1/114 160/1/161 87/1/87
f  141/1/142 128/1/129 89/1/89
f  119/1/120 90/1/90 120/1/121
f  109/1/110 91/1/91 119/1/120
f  104/1/105 92/1/92 109/1/110
f  103/1/104 93/1/93 104/1/105
f  103/1/104 175/1/180 93/1/93
f  175/1/180 134/1/135 94/1/94
f  166/1/214 141/1/214 78/1/214

