# Exported using automatic converter by Erwin Coumans
mtllib LHipPitch.mtl
#object LHipPitch_LHipPitch

v 0.087062 -0.056747 0.023286
v 0.078252 -0.049053 0.016909
v 0.080349 -0.033662 0.028264
v 0.086758 -0.042285 0.043626
v 0.079340 -0.018843 0.036611
v 0.082682 -0.027950 0.055552
v 0.076815 -0.009733 0.041490
v 0.064691 0.014443 0.053512
v 0.065179 0.009316 0.076431
v 0.072395 -0.002882 0.070520
v 0.051019 0.030312 0.061661
v 0.051019 0.028603 0.082290
v 0.033406 0.043309 0.067955
v 0.034964 0.042081 0.085506
v 0.016822 0.050414 0.071274
v 0.017048 0.050894 0.087227
v 0.000537 0.053777 0.073860
v -0.020267 0.049383 0.087255
v 0.000759 0.053620 0.087810
v -0.019460 0.051095 0.072402
v -0.038884 0.042750 0.068287
v -0.051803 0.034345 0.062411
v -0.055016 0.024499 0.084314
v -0.040481 0.037645 0.085615
v -0.063791 0.024570 0.056084
v -0.079404 0.003525 0.053701
v -0.078956 -0.009359 0.074785
v -0.073939 0.000427 0.079552
v -0.088030 -0.018480 0.047217
v 0.082358 -0.073229 0.000483
v 0.056829 -0.059116 -0.006064
v 0.049730 -0.052993 -0.010021
v 0.060998 -0.034773 -0.011439
v 0.069703 -0.067368 -0.002359
v 0.069072 -0.040237 0.003222
v 0.075472 -0.026749 0.009078
v 0.076018 -0.011986 0.013849
v 0.074299 -0.001965 0.018050
v 0.066545 0.022024 -0.012335
v 0.069543 0.009697 0.027920
v 0.067714 -0.020707 -0.022358
v 0.059661 0.029738 0.006637
v 0.062577 0.020837 0.036560
v 0.071097 0.003269 0.048229
v 0.045068 0.038147 0.032828
v 0.049437 0.033750 0.047778
v 0.032386 0.043625 0.046969
v 0.032470 0.043728 0.058605
v 0.016624 0.050231 0.063335
v 0.000306 0.053829 0.065733
v 0.017075 0.049857 0.056015
v 0.000346 0.053838 0.059827
v -0.018461 0.051975 0.065229
v -0.018103 0.052711 0.058249
v -0.036164 0.048140 0.051429
v -0.037798 0.045221 0.060180
v -0.048819 0.043343 0.041673
v -0.050600 0.038826 0.051425
v -0.061899 0.031913 0.042917
v -0.061650 0.038369 0.028782
v -0.072033 0.016419 0.052818
v -0.071724 0.024657 0.038348
v -0.080518 0.012070 0.039618
v -0.075233 0.032123 0.019934
v -0.090072 -0.011822 0.039679
v -0.093238 -0.001914 0.031221
v 0.042262 -0.072084 -0.017894
v 0.050623 -0.079669 -0.016891
v 0.059914 -0.087594 -0.017641
v 0.034473 -0.066950 -0.019282
v 0.022810 -0.077269 -0.023435
v -0.004601 -0.088917 -0.018508
v -0.032531 -0.085837 -0.013986
v -0.032011 -0.079695 -0.017389
v -0.003775 -0.077781 -0.025586
v -0.003808 -0.083859 -0.021872
v -0.031987 -0.072880 -0.021438
v -0.032629 -0.066392 -0.025479
v -0.003740 -0.071748 -0.028324
v 0.020971 -0.070292 -0.024435
v -0.003775 -0.077781 -0.025586
v -0.003808 -0.083859 -0.021872
v 0.025587 -0.083753 -0.023015
v 0.027206 -0.090512 -0.020575
v -0.004601 -0.088917 -0.018508
v -0.055496 -0.073317 -0.010229
v -0.054129 -0.065362 -0.013452
v -0.089867 -0.039657 0.031233
v -0.088208 -0.050948 0.037326
v -0.085587 -0.028638 0.060458
v -0.074072 -0.075494 0.001292
v -0.072446 -0.065248 -0.001551
v -0.084343 -0.066504 0.015854
v -0.084111 -0.055284 0.012018
v -0.090680 -0.021292 0.017975
v -0.069645 -0.056962 -0.005145
v -0.066061 -0.048510 -0.009701
v -0.052829 -0.056935 -0.017422
v -0.090560 -0.031490 0.024816
v -0.083640 -0.031867 0.006430
v -0.083450 -0.046305 0.008624
v 0.078939 -0.016411 0.063196
v 0.071535 -0.002953 -0.030265
v 0.070600 0.011338 -0.026503
v -0.067325 0.010135 0.082345
v -0.082658 0.024794 0.021712
v -0.003740 -0.071748 -0.028324
v -0.057229 -0.080982 -0.007453
usemtl FlexibleSkin

vn 0.758446 0.428480 -0.491043
vn 0.804010 0.265328 -0.532090
vn 0.947996 0.178136 -0.263680
vn 0.928007 0.292459 -0.230689
vn 0.969878 0.227363 -0.087313
vn 0.956969 0.281838 -0.068789
vn 0.944731 0.327769 0.005158
vn 0.834010 0.544389 0.089633
vn 0.836634 0.541215 0.084231
vn 0.895657 0.439741 0.066134
vn 0.702292 0.707572 0.077853
vn 0.708731 0.703055 0.057955
vn 0.505539 0.862484 0.022095
vn 0.524644 0.851161 0.016297
vn 0.301767 0.953307 -0.010102
vn 0.298563 0.954344 -0.007935
vn 0.025147 0.999420 0.022279
vn -0.324839 0.939573 0.107974
vn 0.008118 0.999664 0.023652
vn -0.293619 0.950072 0.105472
vn -0.523026 0.832759 0.181341
vn -0.652181 0.723228 0.227058
vn -0.690634 0.689383 0.218513
vn -0.563280 0.805994 0.181738
vn -0.716086 0.646504 0.263039
vn -0.883053 0.372906 0.284799
vn -0.912015 0.335032 0.236549
vn -0.834529 0.495346 0.241157
vn -0.970458 0.105838 0.216773
vn 0.510391 0.497604 -0.701315
vn 0.572283 0.108066 -0.812860
vn 0.572558 -0.038057 -0.818934
vn 0.757439 -0.384533 -0.527635
vn 0.519791 0.375347 -0.767388
vn 0.806574 -0.152532 -0.571062
vn 0.949614 -0.120792 -0.289132
vn 0.990234 0.080477 -0.113651
vn 0.962462 0.271096 -0.010743
vn 0.921323 0.386364 0.042817
vn 0.901486 0.429090 0.056307
vn 0.935514 -0.246254 -0.253243
vn 0.818903 0.567186 0.087435
vn 0.799066 0.593890 0.093509
vn 0.900601 0.430464 0.059999
vn 0.627339 0.773949 0.086215
vn 0.642995 0.760888 0.087008
vn 0.460189 0.887142 0.033723
vn 0.463149 0.885922 0.024873
vn 0.295511 0.955199 -0.015290
vn 0.054811 0.998291 0.020020
vn 0.316294 0.948485 -0.017151
vn 0.076022 0.996948 0.016724
vn -0.231788 0.966918 0.106357
vn -0.222541 0.967437 0.120304
vn -0.446211 0.870663 0.206915
vn -0.464339 0.864254 0.193335
vn -0.581713 0.769158 0.264504
vn -0.599170 0.760979 0.248665
vn -0.645283 0.700674 0.304361
vn -0.614032 0.714743 0.334758
vn -0.780175 0.554613 0.289285
vn -0.678793 0.634724 0.369182
vn -0.784600 0.463729 0.411481
vn -0.640828 0.652028 0.405133
vn -0.959746 0.123905 0.251961
vn -0.896481 0.239143 0.372967
vn 0.355052 0.165441 -0.920072
vn 0.296274 0.206732 -0.932432
vn 0.303629 0.316294 -0.898740
vn 0.354289 0.096835 -0.930082
vn 0.164281 -0.120701 -0.978973
vn -0.134525 -0.469619 -0.872524
vn -0.267556 -0.414960 -0.869564
vn -0.282601 -0.431043 -0.856899
vn -0.064852 -0.392987 -0.917234
vn -0.109714 -0.439528 -0.891476
vn -0.311655 -0.443373 -0.840388
vn -0.347148 -0.439161 -0.828578
vn -0.040742 -0.378002 -0.924894
vn 0.205725 -0.119877 -0.971221
vn -0.064852 -0.392987 -0.917234
vn -0.109714 -0.439528 -0.891476
vn 0.095370 -0.164800 -0.981689
vn 0.064913 -0.197180 -0.978210
vn -0.134525 -0.469619 -0.872524
vn -0.442244 -0.275857 -0.853389
vn -0.493271 -0.305918 -0.814264
vn -0.996155 -0.087069 -0.009217
vn -0.995911 -0.089755 -0.008698
vn -0.973937 0.103000 0.201972
vn -0.666982 -0.143315 -0.731132
vn -0.677053 -0.146916 -0.721061
vn -0.910947 -0.115940 -0.395856
vn -0.909085 -0.119846 -0.398907
vn -0.986755 -0.122440 -0.106204
vn -0.658711 -0.157872 -0.735618
vn -0.653890 -0.163945 -0.738578
vn -0.524308 -0.312784 -0.791955
vn -0.989410 -0.108005 -0.096683
vn -0.875973 -0.125401 -0.465651
vn -0.861873 -0.118412 -0.493057
vn 0.934385 0.355663 0.019990
vn 0.993652 0.018921 -0.110782
vn 0.977020 0.211646 -0.025208
vn -0.761376 0.602710 0.238716
vn -0.694632 0.554399 0.458327
vn -0.040742 -0.378002 -0.924894
vn -0.425459 -0.252571 -0.868984

vt 0.938139 0.152163
vt 0.921963 0.171434
vt 0.891739 0.148226
vt 0.908494 0.116665
vt 0.862535 0.131861
vt 0.880095 0.095376
vt 0.844083 0.122418
vt 0.791977 0.098249
vt 0.802656 0.053950
vt 0.829341 0.066443
vt 0.751859 0.080308
vt 0.756792 0.039790
vt 0.709262 0.064968
vt 0.715850 0.029902
vt 0.672794 0.055856
vt 0.675389 0.022536
vt 0.637660 0.048465
vt 0.592368 0.014887
vt 0.640373 0.018035
vt 0.592251 0.049179
vt 0.541993 0.054592
vt 0.503346 0.064165
vt 0.490632 0.006941
vt 0.537599 0.011826
vt 0.463495 0.073946
vt 0.397848 0.066137
vt 0.385590 0.005478
vt 0.414843 0.002000
vt 0.335749 0.063529
vt 0.974786 0.189454
vt 0.941101 0.234970
vt 0.930154 0.250358
vt 0.893870 0.236037
vt 0.958987 0.210925
vt 0.905284 0.204327
vt 0.877205 0.187760
vt 0.847894 0.176986
vt 0.827868 0.168186
vt 0.777213 0.225506
vt 0.803506 0.148478
vt 0.860812 0.249753
vt 0.759139 0.188378
vt 0.778338 0.130996
vt 0.816705 0.109109
vt 0.730318 0.135810
vt 0.743640 0.107345
vt 0.705042 0.106775
vt 0.706168 0.083631
vt 0.671754 0.072393
vt 0.636402 0.066187
vt 0.672463 0.087584
vt 0.636232 0.079087
vt 0.593950 0.065818
vt 0.594448 0.081993
vt 0.550046 0.096433
vt 0.545148 0.074686
vt 0.516185 0.117868
vt 0.508860 0.092558
vt 0.474368 0.109866
vt 0.481051 0.147379
vt 0.433647 0.077079
vt 0.442990 0.117660
vt 0.405784 0.107145
vt 0.443643 0.167493
vt 0.342976 0.088854
vt 0.355825 0.120159
vt 0.964424 0.270478
vt 0.980247 0.257007
vt 0.998000 0.243440
vt 0.953550 0.283657
vt 0.969114 0.308221
vt 0.007115 0.239556
vt 0.056982 0.188245
vt 0.068710 0.202460
vt 0.027176 0.262097
vt 0.016309 0.251369
vt 0.082846 0.217693
vt 0.097514 0.231392
vt 0.040873 0.273715
vt 0.956100 0.310132
vt 0.963653 0.356139
vt 0.976430 0.357338
vt 0.981336 0.304543
vt 0.994568 0.303067
vt 0.987119 0.360107
vt 0.120492 0.160682
vt 0.134532 0.178570
vt 0.269713 0.077865
vt 0.250445 0.051458
vt 0.325919 0.022075
vt 0.146684 0.110004
vt 0.165197 0.130713
vt 0.189771 0.082321
vt 0.210707 0.104218
vt 0.297208 0.127992
vt 0.177670 0.151765
vt 0.189032 0.175696
vt 0.149571 0.197950
vt 0.281479 0.101319
vt 0.256964 0.144766
vt 0.226880 0.122728
vt 0.857481 0.081007
vt 0.824947 0.261753
vt 0.798004 0.253319
vt 0.444456 0.002345
vt 0.418746 0.160535
vt 0.951766 0.355065
vt 0.107729 0.143083
s off
f 1/1/1 2/2/2 3/3/3
f 4/4/4 3/3/3 5/5/5
f 6/6/6 5/5/5 7/7/7
f 8/8/8 9/9/9 10/10/10
f 11/11/11 12/12/12 9/9/9
f 12/12/12 11/11/11 13/13/13
f 14/14/14 13/13/13 15/15/15
f 16/16/16 15/15/15 17/17/17
f 18/18/18 19/19/19 17/17/17
f 18/18/18 20/20/20 21/21/21
f 22/22/22 23/23/23 24/24/24
f 23/23/23 22/22/22 25/25/25
f 26/26/26 27/27/27 28/28/28
f 27/27/27 26/26/26 29/29/29
f 2/2/2 1/1/1 30/30/30
f 31/31/31 32/32/32 33/33/33
f 34/34/34 31/31/31 35/35/35
f 36/36/36 35/35/35 33/33/33
f 36/36/36 3/3/3 2/2/2
f 37/37/37 5/5/5 3/3/3
f 5/5/5 37/37/37 38/38/38
f 39/39/39 40/40/40 38/38/38
f 37/37/37 36/36/36 41/41/41
f 42/42/42 43/43/43 40/40/40
f 44/44/44 40/40/40 43/43/43
f 45/45/45 46/46/46 43/43/43
f 46/46/46 11/11/11 8/8/8
f 46/46/46 45/45/45 47/47/47
f 11/11/11 46/46/46 48/48/48
f 49/49/49 15/15/15 13/13/13
f 15/15/15 49/49/49 50/50/50
f 49/49/49 51/51/51 52/52/52
f 48/48/48 47/47/47 51/51/51
f 21/21/21 20/20/20 53/53/53
f 54/54/54 55/55/55 56/56/56
f 52/52/52 54/54/54 53/53/53
f 53/53/53 20/20/20 17/17/17
f 22/22/22 21/21/21 56/56/56
f 55/55/55 57/57/57 58/58/58
f 58/58/58 59/59/59 25/25/25
f 57/57/57 60/60/60 59/59/59
f 61/61/61 62/62/62 63/63/63
f 60/60/60 64/64/64 62/62/62
f 26/26/26 63/63/63 65/65/65
f 66/66/66 65/65/65 63/63/63
f 32/32/32 31/31/31 67/67/67
f 68/68/68 67/67/67 31/31/31
f 34/34/34 30/30/30 69/69/69
f 70/70/70 67/67/67 71/71/71
f 72/72/72 73/73/73 74/74/74
f 75/75/75 76/76/76 74/74/74
f 77/77/77 78/78/78 79/79/79
f 80/80/80 71/71/71 81/81/81
f 82/82/82 81/81/81 71/71/71
f 83/83/83 84/84/84 85/85/85
f 67/67/67 68/68/68 83/83/83
f 68/68/68 69/69/69 84/84/84
f 86/86/86 74/74/74 73/73/73
f 86/86/86 87/87/87 77/77/77
f 78/78/78 77/77/77 87/87/87
f 88/88/88 89/89/89 90/90/90
f 91/91/91 92/92/92 86/86/86
f 93/93/93 94/94/94 92/92/92
f 94/94/94 93/93/93 89/89/89
f 65/65/65 66/66/66 95/95/95
f 87/87/87 86/86/86 92/92/92
f 96/96/96 97/97/97 98/98/98
f 99/99/99 95/95/95 100/100/100
f 101/101/101 94/94/94 88/88/88
f 29/29/29 65/65/65 99/99/99
f 94/94/94 101/101/101 96/96/96
f 97/97/97 96/96/96 101/101/101
f 44/44/44 10/10/10 102/102/102
f 40/40/40 44/44/44 7/7/7
f 37/37/37 103/103/103 104/104/104
f 105/105/105 25/25/25 61/61/61
f 25/25/25 59/59/59 62/62/62
f 106/106/106 63/63/63 62/62/62
f 4/4/4 1/1/1 3/3/3
f 6/6/6 4/4/4 5/5/5
f 102/102/102 6/6/6 7/7/7
f 44/44/44 8/8/8 10/10/10
f 8/8/8 11/11/11 9/9/9
f 14/14/14 12/12/12 13/13/13
f 16/16/16 14/14/14 15/15/15
f 19/19/19 16/16/16 17/17/17
f 20/20/20 18/18/18 17/17/17
f 24/24/24 18/18/18 21/21/21
f 21/21/21 22/22/22 24/24/24
f 105/105/105 23/23/23 25/25/25
f 61/61/61 26/26/26 28/28/28
f 90/90/90 27/27/27 29/29/29
f 34/34/34 2/2/2 30/30/30
f 35/35/35 31/31/31 33/33/33
f 2/2/2 34/34/34 35/35/35
f 41/41/41 36/36/36 33/33/33
f 35/35/35 36/36/36 2/2/2
f 36/36/36 37/37/37 3/3/3
f 7/7/7 5/5/5 38/38/38
f 104/104/104 39/39/39 38/38/38
f 103/103/103 37/37/37 41/41/41
f 39/39/39 42/42/42 40/40/40
f 8/8/8 44/44/44 43/43/43
f 42/42/42 45/45/45 43/43/43
f 43/43/43 46/46/46 8/8/8
f 48/48/48 46/46/46 47/47/47
f 13/13/13 11/11/11 48/48/48
f 48/48/48 49/49/49 13/13/13
f 17/17/17 15/15/15 50/50/50
f 50/50/50 49/49/49 52/52/52
f 49/49/49 48/48/48 51/51/51
f 56/56/56 21/21/21 53/53/53
f 53/53/53 54/54/54 56/56/56
f 50/50/50 52/52/52 53/53/53
f 50/50/50 53/53/53 17/17/17
f 58/58/58 22/22/22 56/56/56
f 56/56/56 55/55/55 58/58/58
f 22/22/22 58/58/58 25/25/25
f 58/58/58 57/57/57 59/59/59
f 26/26/26 61/61/61 63/63/63
f 59/59/59 60/60/60 62/62/62
f 29/29/29 26/26/26 65/65/65
f 106/106/106 66/66/66 63/63/63
f 70/70/70 32/32/32 67/67/67
f 34/34/34 68/68/68 31/31/31
f 68/68/68 34/34/34 69/69/69
f 80/80/80 70/70/70 71/71/71
f 76/76/76 72/72/72 74/74/74
f 77/77/77 75/75/75 74/74/74
f 75/75/75 77/77/77 79/79/79
f 107/107/107 80/80/80 81/81/81
f 83/83/83 82/82/82 71/71/71
f 82/82/82 83/83/83 85/85/85
f 71/71/71 67/67/67 83/83/83
f 83/83/83 68/68/68 84/84/84
f 108/108/108 86/86/86 73/73/73
f 74/74/74 86/86/86 77/77/77
f 98/98/98 78/78/78 87/87/87
f 29/29/29 88/88/88 90/90/90
f 108/108/108 91/91/91 86/86/86
f 91/91/91 93/93/93 92/92/92
f 88/88/88 94/94/94 89/89/89
f 99/99/99 65/65/65 95/95/95
f 96/96/96 87/87/87 92/92/92
f 87/87/87 96/96/96 98/98/98
f 101/101/101 99/99/99 100/100/100
f 99/99/99 101/101/101 88/88/88
f 88/88/88 29/29/29 99/99/99
f 92/92/92 94/94/94 96/96/96
f 100/100/100 97/97/97 101/101/101
f 7/7/7 44/44/44 102/102/102
f 38/38/38 40/40/40 7/7/7
f 38/38/38 37/37/37 104/104/104
f 28/28/28 105/105/105 61/61/61
f 61/61/61 25/25/25 62/62/62
f 64/64/64 106/106/106 62/62/62
