# File produced by Open Asset Import Library (http://www.assimp.sf.net)
# (assimp v3.2.0)

mtllib LThumb3.mtl

# 177 vertex positions
v  0.0122325 0.00861418 -0.00893295
v  0.0140804 0.00627232 -0.0056631
v  0.0061444 -0.000151761 -0.00850987
v  0.00490212 0.00271678 -0.0102314
v  0.00300038 0.00729495 -0.010041
v  0.00837302 0.0111836 -0.00876021
v  0.00177508 0.0119802 -0.00600588
v  0.0011816 0.0128008 -0.00315386
v  0.0034138 0.0139849 -0.0031426
v  0.00301051 0.0142906 -0.000880075
v  0.00250184 0.00718117 -0.00957996
v  0.00114858 0.0111938 -0.00606835
v  0.000438697 0.0119846 -0.00317955
v  0.000251188 0.0122239 -0.000952708
v  0.00085973 0.0131321 -0.000951383
v  0.00662458 -0.00296277 0.000233501
v  0.00554907 -0.00392008 0.00010904
v  0.00579274 -0.00313193 -0.00374192
v  0.00554413 -0.000758802 -0.00847894
v  0.00660449 -0.00249052 -0.00376213
v  0.00319606 -0.00470722 -0.00582904
v  0.00292957 -0.00195134 -0.00931436
v  0.00413227 0.00256896 -0.00993913
v  0.000685918 0.00100642 -0.0103856
v  -0.00049101 0.0052641 -0.00985944
v  -0.00125104 0.00965136 -0.006239
v  -0.00162035 0.0105542 -0.00351876
v  -0.00166869 0.0110078 -0.000778172
v  -0.00221223 0.00909293 -0.000594087
v  -0.00202054 0.00884688 -0.00340748
v  -0.00179595 0.00782639 -0.00548196
v  0.00222164 -0.000904102 -0.00812429
v  -0.000749449 0.000775741 -0.0102268
v  -0.00123912 0.00409436 -0.00877571
v  0.0154504 0.00620151 0.00133365
v  0.0149838 0.00524002 0.00124359
v  0.014684 0.00559771 -0.00245082
v  0.0094459 0.0119905 -0.00795704
v  0.00554931 0.0138604 -0.00533235
v  0.00432175 0.0143249 -0.00288272
v  0.00446939 0.0135385 -0.00548762
v  0.00373912 0.0144895 -0.000501382
v  0.0102412 0.0167531 0.000435938
v  0.0105789 0.0167214 -0.00128585
v  0.0111873 0.0162728 -0.00372422
v  0.0129709 0.0139197 -0.0064407
v  0.0129691 0.00968379 -0.00808781
v  0.0149184 0.00741362 -0.00522721
v  0.0149362 0.0115744 -0.00661731
v  0.00212073 -0.00440138 -0.00545263
v  0.0167192 0.00952482 -0.0051142
v  0.0173197 0.00844133 -0.00267059
v  -0.00357032 0.00305444 -0.00887036
v  -0.00549239 0.00660664 -0.00556087
v  -0.00609124 0.00735575 -0.00365889
v  -0.00652707 0.00771612 -0.0011785
v  -0.00657242 0.000278049 -0.00904488
v  -0.00258249 0.000199408 -0.00893462
v  -0.0102775 0.00199753 -0.00594532
v  -0.0112265 0.00227308 -0.00419462
v  -0.0115102 0.00255316 -0.00311404
v  -0.00795162 0.000219884 -0.00267988
v  -0.00181639 0.00157654 -0.001441
v  -0.00223601 0.00511902 -0.00113165
v  -0.00015109 0.00269216 -0.000956722
v  -0.00180226 0.0055936 -0.00067467
v  -0.00183147 0.00545335 0.000321214
v  -0.00226593 0.00895792 0.000529459
v  -0.000602729 0.00041558 -0.00717366
v  0.000155131 0.000217665 -0.00545025
v  -0.00381744 -0.0013445 -0.00756103
v  -0.00385398 -0.00144631 -0.00562906
v  0.010236 0.0166999 0.00174081
v  0.0140878 0.0157998 0.00189543
v  0.014172 0.0158745 0.000305064
v  0.0165909 0.0138829 0.00190771
v  0.0166947 0.0138264 0.000357043
v  0.017667 0.0107018 0.00175613
v  0.0169675 0.0110875 -0.00419384
v  0.0175884 0.0106766 -0.00261879
v  0.0157233 0.0122704 -0.00513333
v  0.0141072 0.0145704 -0.00509596
v  0.0126252 0.0163686 -0.001504
v  0.0126727 0.0161428 -0.0031926
v  0.0162597 0.0141109 -0.00160718
v  0.015509 0.0142144 -0.00356048
v  0.00398618 -0.00541717 -7.77351e-05
v  0.0153943 0.00664508 -0.00247699
v  0.0171611 0.00754243 0.00151777
v  -0.00178516 0.0109202 0.000687003
v  0.000130011 0.0121977 0.000878448
v  0.00068103 0.0130458 0.000965885
v  0.00282383 0.0142249 0.00116313
v  0.00392097 0.0144463 0.00123936
v  0.0051589 -0.00132579 0.00916237
v  0.0133145 0.00535941 0.0080843
v  0.0110987 0.00726211 0.01141
v  0.00371408 0.0012992 0.0110996
v  0.00726378 0.00985998 0.0111507
v  0.00372809 0.0126554 0.00780618
v  0.00100583 0.0110623 0.00781286
v  0.00293589 0.0134151 0.00543851
v  0.00278258 0.0140195 0.00320583
v  0.000645439 0.0128767 0.00288474
v  0.000724652 0.0122553 0.00504637
v  0.00181097 0.005876 0.0113056
v  0.00038215 0.0102784 0.00770175
v  -1.01056e-05 0.011448 0.00488198
v  4.70652e-05 0.011981 0.00269884
v  0.00615883 -0.0030213 0.0042277
v  0.00535882 -0.0036481 0.00403434
v  0.00457138 -0.00191957 0.008986
v  0.00255966 -0.0054664 0.00559485
v  0.00136739 0.00582802 0.0107809
v  0.00298226 0.0011965 0.0107075
v  -0.00162381 0.00391304 0.0104724
v  -0.00201052 0.00874496 0.00740093
v  -0.00208467 0.0100011 0.00480002
v  -0.00183243 0.0108122 0.00215459
v  -0.00233769 0.00894278 0.00165969
v  -0.00245672 0.00832617 0.00442046
v  -0.00245613 0.00704014 0.00635386
v  -0.00223905 0.00290269 0.00916767
v  0.00130939 -0.00199157 0.00825006
v  0.00188845 -0.00319278 0.00936282
v  -0.000481131 -0.000385559 0.0105597
v  -0.00188816 -0.000583219 0.0102142
v  0.0149697 0.00613874 0.00513965
v  0.0142745 0.00510919 0.00489694
v  0.00841343 0.0107585 0.0105847
v  0.00481659 0.0129873 0.00781482
v  0.00386435 0.0137797 0.00532836
v  0.010242 0.0163186 0.00476313
v  0.0100964 0.0165806 0.00303399
v  0.0105802 0.0155483 0.00717306
v  0.0119173 0.00842881 0.0107995
v  0.0140209 0.0104817 0.0098176
v  0.0120694 0.0128446 0.00973612
v  0.0141871 0.00654119 0.00789809
v  0.0159734 0.00863522 0.00826341
v  0.0168487 0.00788045 0.00578034
v  -0.00455874 0.001876 0.00886655
v  -0.00356257 -0.000969997 0.00866145
v  -0.00612855 0.00584716 0.00586212
v  -0.0065189 0.00684547 0.00402111
v  -0.00668031 0.00753277 0.00157648
v  -0.00754183 -0.000877376 0.0083397
v  -0.0108936 0.0012626 0.00510299
v  -0.0118092 0.00219595 0.00225133
v  -0.0116451 0.00177485 0.00331056
v  -0.00239229 0.00493348 0.00166291
v  -0.00820768 -8.46268e-05 0.00190937
v  -0.00198239 0.00137788 0.00154626
v  -0.00515711 -0.00143969 0.00126469
v  -0.00191367 0.00546014 0.00132358
v  -0.000282135 0.00253504 0.00140053
v  -0.000174663 0.00223207 0.000199794
v  -0.00140238 -0.00053808 0.00717509
v  -0.000456454 -0.000512221 0.00553584
v  0.00153041 -0.00510556 0.00514555
v  -0.00494951 -0.0021643 0.00842482
v  -0.00462711 -0.00230992 0.0069688
v  -0.00444961 -0.00215614 0.00504792
v  0.0139942 0.0156634 0.00348085
v  0.0165223 0.0136222 0.00343931
v  0.0171049 0.0101008 0.00605321
v  0.0163109 0.0103053 0.00759083
v  0.0149609 0.0113624 0.00853503
v  0.0133425 0.0136583 0.00862271
v  0.0122546 0.0159262 0.00515813
v  0.0158715 0.0136475 0.00536388
v  0.0121152 0.0154788 0.00679642
v  0.014908 0.0134978 0.0072177
v  0.00187773 -0.00497317 -0.000165672
v  0.00354779 0.0142606 0.00293934
v  -0.00397831 -0.00100565 -0.00901115
v  -0.00498176 -0.00123036 -0.00188571

# 1 UV coordinates
vt 4.61149 0.499573 0

# 214 vertex normals
vn 0.468673 -0.00390637 -0.883328
vn 0.724784 -0.465407 -0.507981
vn 0.462478 -0.582018 -0.668844
vn 0.0811487 -0.264321 -0.960997
vn -0.299264 0.223365 -0.927641
vn 0.01236 0.491256 -0.870907
vn -0.499985 0.666341 -0.553148
vn -0.604968 0.751427 -0.263344
vn -0.355937 0.899258 -0.254128
vn -0.361797 0.927274 -0.0960112
vn -0.38728 0.30372 -0.87048
vn -0.553118 0.616627 -0.560137
vn -0.640034 0.727439 -0.247261
vn -0.689993 0.717277 -0.0967742
vn -0.649586 0.752495 -0.108432
vn 0.675314 -0.737388 -0.0112918
vn 0.641041 -0.767327 -0.0152287
vn 0.633778 -0.732383 -0.248787
vn 0.455641 -0.566851 -0.686331
vn 0.66274 -0.708487 -0.242378
vn 0.0285043 -0.909543 -0.414625
vn -0.0308847 -0.646687 -0.762108
vn -0.0400403 -0.171972 -0.984283
vn -0.272042 -0.31608 -0.908872
vn -0.464461 0.253944 -0.848384
vn -0.699179 0.513077 -0.497849
vn -0.79577 0.568651 -0.208167
vn -0.795862 0.601367 -0.0702231
vn -0.933348 0.325816 0.150548
vn -0.747063 0.619617 -0.240699
vn -0.702872 0.51027 -0.495529
vn -0.627339 -0.695547 -0.350169
vn -0.496353 -0.471419 -0.728935
vn -0.538072 0.292825 -0.790368
vn 0.762963 -0.646413 -0.000396741
vn 0.791284 -0.611408 0.00344855
vn 0.773614 -0.60152 -0.199133
vn 0.0726035 0.608539 -0.790185
vn -0.187323 0.845241 -0.500443
vn -0.278603 0.936918 -0.211005
vn -0.27134 0.805475 -0.526811
vn -0.281289 0.95877 -0.0398266
vn -0.0758385 0.99707 0.00875878
vn -0.0680868 0.991333 -0.112247
vn -0.0253914 0.903409 -0.427992
vn 0.242408 0.61214 -0.752648
vn 0.512284 0.117466 -0.850703
vn 0.742576 -0.429212 -0.514115
vn 0.57326 0.209082 -0.79223
vn -0.565966 -0.767754 -0.300302
vn 0.803156 -0.19953 -0.561296
vn 0.876369 -0.43318 -0.210517
vn -0.266823 0.363903 -0.892392
vn -0.393048 0.691519 -0.606006
vn -0.475875 0.817438 -0.324473
vn -0.53151 0.601032 0.59682
vn -0.252602 0.329325 -0.909787
vn 0.0866115 -0.518632 -0.850581
vn -0.534166 0.602191 -0.59328
vn -0.634144 0.68981 -0.349284
vn -0.718925 0.543107 0.433729
vn -0.173528 -0.115177 0.978057
vn -0.223426 -0.0825526 0.971191
vn -0.212012 -0.139775 0.967193
vn -0.767205 -0.422468 0.482528
vn -0.750175 -0.285379 0.596454
vn -0.949187 -0.305979 -0.0732444
vn -0.996612 0.0639362 -0.0512711
vn -0.0526444 -0.966887 -0.249641
vn -0.360362 -0.865566 -0.347728
vn 0.486801 -0.828364 -0.277169
vn 0.432997 -0.887387 -0.158208
vn 0.225827 0.973322 0.0405692
vn 0.606325 0.79219 0.0693195
vn 0.946743 0.317794 0.051812
vn 0.933859 0.0593252 -0.352687
vn 0.72674 0.259172 -0.636143
vn 0.529996 0.495948 -0.687852
vn 0.2043 0.802306 -0.560862
vn 0.13184 0.982999 -0.12779
vn 0.171451 0.985071 0.0154744
vn 0.511609 0.833193 -0.20987
vn 0.907894 0.39368 -0.144028
vn 0.518157 0.841205 -0.154556
vn 0.840193 0.452448 -0.298944
vn 0.514219 0.810096 -0.281644
vn 0.269631 -0.961699 -0.0488601
vn 0.757286 -0.616749 -0.214759
vn 0.861232 -0.50795 0.0142521
vn -0.812342 0.583117 -0.0064699
vn -0.708792 0.705344 0.0073244
vn -0.679373 0.733665 0.010834
vn -0.361064 0.931578 0.0417493
vn -0.290201 0.955779 0.0473647
vn 0.992752 -0.118955 -0.0171419
vn 0.39021 -0.668355 0.633229
vn 0.667531 -0.533677 0.51915
vn 0.368023 -0.123844 0.921506
vn -0.0234382 -0.389325 0.920774
vn -0.0876797 0.37196 0.92407
vn -0.333934 0.730827 0.595233
vn -0.563128 0.591144 0.57741
vn -0.388562 0.860439 0.329539
vn -0.376965 0.909146 0.176855
vn -0.663228 0.736259 0.134251
vn -0.636097 0.714316 0.291665
vn -0.401715 0.101169 0.910123
vn -0.61623 0.541337 0.571978
vn -0.668783 0.693075 0.268868
vn -0.701682 0.703299 0.113773
vn 0.637165 -0.739036 0.218573
vn 0.607807 -0.763359 0.218635
vn 0.381512 -0.655599 0.651601
vn -0.0108035 -0.956481 0.291482
vn -0.483444 0.189154 0.854671
vn -0.147191 -0.299936 0.942503
vn -0.557207 0.143315 0.817866
vn -0.753563 0.448134 0.48088
vn -0.818079 0.542039 0.192114
vn -0.803217 0.592547 0.0604877
vn -0.913358 0.349559 -0.208624
vn -0.773675 0.587909 0.236183
vn -0.757012 0.445662 0.477767
vn -0.624348 0.190039 0.757653
vn -0.657155 -0.73104 0.183538
vn -0.110446 -0.741386 0.661885
vn -0.368725 -0.431135 0.823481
vn -0.570513 -0.559893 0.600818
vn 0.733421 -0.645161 0.213935
vn 0.751213 -0.628223 0.202368
vn -0.0197455 0.498398 0.866695
vn -0.247719 0.773187 0.583758
vn -0.306986 0.902951 0.300638
vn -0.087405 0.968322 0.233833
vn -0.0817591 0.990021 0.114536
vn -0.0792565 0.839198 0.53798
vn 0.414167 0.000457778 0.910184
vn 0.480666 0.0984832 0.871334
vn 0.153172 0.505722 0.848964
vn 0.684347 -0.498703 0.531907
vn 0.737663 -0.27781 0.615314
vn 0.850917 -0.463454 0.247139
vn -0.366588 0.244942 0.897549
vn -0.00399792 -0.627064 0.778924
vn -0.462752 0.608387 0.644734
vn -0.514817 0.77102 0.374767
vn -0.466567 0.678365 -0.567522
vn -0.354106 0.20838 0.911649
vn -0.600848 0.522507 0.604907
vn -0.67037 0.600757 -0.435469
vn -0.67391 0.642384 0.364879
vn -0.102634 -0.00939965 -0.994659
vn -0.0633869 0.0160527 -0.997833
vn -0.114048 0.0478835 -0.992309
vn -0.0806299 0.0969573 -0.992004
vn -0.677328 -0.198737 -0.708304
vn -0.706046 -0.349437 -0.615894
vn -0.880001 -0.468123 -0.0801416
vn -0.0727256 -0.990966 0.112491
vn -0.390332 -0.901151 0.188482
vn -0.590167 -0.796411 0.131809
vn 0.207923 -0.502274 0.83932
vn 0.459212 -0.861263 0.217505
vn 0.419294 -0.903684 0.0867031
vn 0.217524 0.971281 0.0964185
vn 0.621831 0.766971 0.15837
vn 0.946892 0.277374 0.162662
vn 0.916984 -0.151135 0.369187
vn 0.649663 0.167339 0.741576
vn 0.593243 0.391308 0.70352
vn 0.135263 0.719872 0.6808
vn 0.129138 0.949662 0.285422
vn 0.22016 0.972503 0.0759386
vn 0.617614 0.760922 0.198873
vn 0.883586 0.364432 0.294049
vn 0.530962 0.804899 0.264985
vn 0.711475 0.381626 0.590055
vn 0.629878 0.419026 0.653965
vn -0.238044 -0.968139 -0.077578
vn -0.29078 0.947264 0.134587
vn -0.0508133 0.996674 0.0634174
vn 0.982827 -0.163781 0.0850133
vn 0.30311 -0.388806 -0.870022
vn -0.190557 -0.0340891 0.981079
vn 0.21959 0.973903 0.0573855
vn 0.630066 0.776418 0.0138861
vn 0.957036 0.289356 -0.018849
vn 0.953255 -0.108065 -0.282181
vn 0.786761 0.281548 -0.549307
vn 0.664529 0.476278 -0.575813
vn 0.250713 0.83062 -0.497205
vn 0.153481 0.977955 -0.141588
vn 0.219932 0.972427 0.0775573
vn 0.630403 0.77579 -0.0272341
vn 0.879639 0.410896 -0.239584
vn 0.551175 0.82892 -0.0953861
vn 0.769779 0.450623 -0.452083
vn 0.695179 0.496898 -0.519441
vn 0.987377 -0.158352 0.00339681
vn 0.221782 0.968497 0.113255
vn 0.604406 0.789905 0.103652
vn 0.944286 0.314865 0.0958373
vn 0.888809 0.00492418 0.458252
vn 0.719272 0.200801 0.665076
vn 0.447204 0.39698 0.801508
vn 0.188098 0.755895 0.62709
vn 0.109692 0.956441 0.270535
vn 0.164187 0.977248 0.13427
vn 0.479383 0.794547 0.372675
vn 0.84492 0.369082 0.387155
vn 0.491721 0.809459 0.320915
vn 0.798312 0.403117 0.447432
vn 0.474007 0.762063 0.44111
vn 0.985614 -0.127334 0.111133

# Mesh 'LThumb3_LThumb3' with 324 faces
g LThumb3_LThumb3
usemtl MainSkin
f  1/1/1 2/1/2 3/1/3
f  4/1/4 5/1/5 6/1/6
f  6/1/6 5/1/5 7/1/7
f  7/1/7 8/1/8 9/1/9
f  10/1/10 9/1/9 8/1/8
f  5/1/5 11/1/11 12/1/12
f  7/1/7 12/1/12 13/1/13
f  14/1/14 15/1/15 8/1/8
f  16/1/16 17/1/17 18/1/18
f  19/1/19 3/1/3 20/1/20
f  21/1/21 22/1/22 19/1/19
f  23/1/23 11/1/11 5/1/5
f  23/1/23 24/1/24 25/1/25
f  26/1/26 12/1/12 11/1/11
f  27/1/27 13/1/13 12/1/12
f  13/1/13 27/1/27 28/1/28
f  29/1/29 28/1/28 27/1/27
f  30/1/30 27/1/27 26/1/26
f  31/1/31 26/1/26 25/1/25
f  24/1/24 22/1/22 32/1/32
f  24/1/24 33/1/33 34/1/34
f  35/1/35 36/1/36 37/1/37
f  1/1/1 6/1/6 38/1/38
f  39/1/39 38/1/38 6/1/6
f  40/1/40 39/1/39 41/1/41
f  40/1/40 9/1/9 10/1/10
f  40/1/40 42/1/42 43/1/43
f  39/1/39 40/1/40 44/1/44
f  45/1/45 46/1/46 38/1/38
f  47/1/47 38/1/38 46/1/46
f  48/1/48 47/1/47 49/1/49
f  2/1/2 37/1/37 20/1/20
f  23/1/23 4/1/4 3/1/3
f  22/1/22 24/1/24 23/1/23
f  21/1/21 50/1/50 32/1/32
f  47/1/47 48/1/48 2/1/2
f  48/1/48 51/1/51 52/1/52
f  53/1/53 34/1/34 33/1/33
f  34/1/34 53/1/53 54/1/54
f  30/1/30 31/1/31 54/1/54
f  30/1/30 55/1/55 56/1/56
f  57/1/57 53/1/53 58/1/58
f  57/1/57 59/1/59 54/1/54
f  59/1/59 60/1/60 55/1/55
f  61/1/61 56/1/56 55/1/55
f  56/1/56 61/1/61 62/1/62
f  63/1/63 64/1/64 62/1/62
f  29/1/29 56/1/56 64/1/64
f  65/1/65 66/1/66 64/1/64
f  66/1/66 67/1/67 68/1/68
f  67/1/67 66/1/66 65/1/65
f  69/1/69 58/1/58 33/1/33
f  70/1/70 69/1/69 32/1/32
f  58/1/58 69/1/69 71/1/71
f  72/1/72 71/1/71 69/1/69
f  37/1/37 2/1/2 48/1/48
f  43/1/73 73/1/73 74/1/73
f  75/1/74 74/1/74 76/1/74
f  77/1/75 76/1/75 78/1/75
f  51/1/76 79/1/76 80/1/76
f  81/1/77 79/1/77 51/1/77
f  49/1/78 46/1/78 82/1/78
f  82/1/79 46/1/79 45/1/79
f  83/1/80 84/1/80 45/1/80
f  83/1/81 44/1/81 43/1/81
f  85/1/82 83/1/82 75/1/82
f  85/1/83 77/1/83 80/1/83
f  83/1/84 85/1/84 86/1/84
f  86/1/85 85/1/85 79/1/85
f  82/1/86 84/1/86 86/1/86
f  16/1/16 20/1/20 37/1/37
f  87/1/87 21/1/21 18/1/18
f  50/1/50 21/1/21 87/1/87
f  88/1/88 52/1/52 89/1/89
f  90/1/90 28/1/28 29/1/29
f  91/1/91 14/1/14 28/1/28
f  92/1/92 15/1/15 14/1/14
f  93/1/93 10/1/10 15/1/15
f  42/1/42 10/1/10 93/1/93
f  43/1/43 42/1/42 94/1/94
f  52/1/95 80/1/95 78/1/95
f  95/1/96 96/1/97 97/1/98
f  98/1/99 97/1/98 99/1/100
f  99/1/100 100/1/101 101/1/102
f  101/1/102 100/1/101 102/1/103
f  103/1/104 104/1/105 105/1/106
f  106/1/107 101/1/102 107/1/108
f  101/1/102 105/1/106 108/1/109
f  109/1/110 108/1/109 105/1/106
f  16/1/16 110/1/111 111/1/112
f  112/1/113 111/1/112 110/1/111
f  113/1/114 111/1/112 112/1/113
f  106/1/107 114/1/115 115/1/116
f  115/1/116 114/1/115 116/1/117
f  117/1/118 116/1/117 114/1/115
f  118/1/119 117/1/118 107/1/108
f  108/1/109 109/1/110 119/1/120
f  120/1/121 121/1/122 118/1/119
f  121/1/122 122/1/123 117/1/118
f  122/1/123 123/1/124 116/1/117
f  124/1/125 125/1/126 126/1/127
f  123/1/124 127/1/128 126/1/127
f  35/1/35 128/1/129 129/1/130
f  130/1/131 99/1/100 97/1/98
f  131/1/132 100/1/101 99/1/100
f  132/1/133 102/1/103 100/1/101
f  103/1/104 102/1/103 132/1/133
f  132/1/133 133/1/134 134/1/135
f  131/1/132 135/1/136 133/1/134
f  135/1/136 131/1/132 130/1/131
f  136/1/137 137/1/138 138/1/139
f  139/1/140 140/1/141 137/1/138
f  110/1/111 129/1/130 96/1/97
f  115/1/116 112/1/113 95/1/96
f  125/1/126 112/1/113 115/1/116
f  113/1/114 125/1/126 124/1/125
f  96/1/97 139/1/140 136/1/137
f  141/1/142 140/1/141 139/1/140
f  142/1/143 143/1/144 127/1/128
f  123/1/124 122/1/123 144/1/145
f  121/1/122 145/1/146 144/1/145
f  121/1/122 120/1/121 146/1/147
f  143/1/144 142/1/143 147/1/148
f  147/1/148 142/1/143 144/1/145
f  148/1/149 144/1/145 145/1/146
f  149/1/150 150/1/151 145/1/146
f  146/1/147 151/1/152 152/1/153
f  153/1/154 154/1/155 152/1/153
f  120/1/121 155/1/156 151/1/152
f  156/1/157 153/1/154 151/1/152
f  155/1/156 120/1/121 68/1/68
f  67/1/67 157/1/158 156/1/157
f  158/1/159 124/1/125 127/1/128
f  159/1/160 160/1/161 124/1/125
f  143/1/144 161/1/162 162/1/163
f  163/1/164 159/1/160 158/1/159
f  139/1/140 96/1/97 129/1/130
f  134/1/165 164/1/165 74/1/165
f  164/1/166 165/1/166 76/1/166
f  165/1/167 166/1/167 78/1/167
f  140/1/168 141/1/168 166/1/168
f  140/1/169 167/1/169 168/1/169
f  137/1/170 168/1/170 169/1/170
f  135/1/171 138/1/171 169/1/171
f  170/1/172 133/1/172 135/1/172
f  170/1/173 164/1/173 134/1/173
f  171/1/174 165/1/174 164/1/174
f  166/1/175 165/1/175 171/1/175
f  170/1/176 172/1/176 173/1/176
f  173/1/177 168/1/177 167/1/177
f  169/1/178 168/1/178 173/1/178
f  16/1/16 36/1/36 129/1/130
f  87/1/87 17/1/17 111/1/112
f  160/1/161 174/1/179 87/1/87
f  128/1/129 35/1/35 89/1/89
f  90/1/90 68/1/68 120/1/121
f  91/1/91 90/1/90 119/1/120
f  92/1/92 91/1/91 109/1/110
f  93/1/93 92/1/92 104/1/105
f  175/1/180 94/1/94 93/1/93
f  134/1/135 73/1/181 94/1/94
f  141/1/182 89/1/182 78/1/182
f  4/1/4 1/1/1 3/1/3
f  1/1/1 4/1/4 6/1/6
f  41/1/41 6/1/6 7/1/7
f  41/1/41 7/1/7 9/1/9
f  15/1/15 10/1/10 8/1/8
f  7/1/7 5/1/5 12/1/12
f  8/1/8 7/1/7 13/1/13
f  13/1/13 14/1/14 8/1/8
f  20/1/20 16/1/16 18/1/18
f  18/1/18 19/1/19 20/1/20
f  18/1/18 21/1/21 19/1/19
f  4/1/4 23/1/23 5/1/5
f  11/1/11 23/1/23 25/1/25
f  25/1/25 26/1/26 11/1/11
f  26/1/26 27/1/27 12/1/12
f  14/1/14 13/1/13 28/1/28
f  30/1/30 29/1/29 27/1/27
f  31/1/31 30/1/30 26/1/26
f  34/1/34 31/1/31 25/1/25
f  33/1/33 24/1/24 32/1/32
f  25/1/25 24/1/24 34/1/34
f  88/1/88 35/1/35 37/1/37
f  47/1/47 1/1/1 38/1/38
f  41/1/41 39/1/39 6/1/6
f  9/1/9 40/1/40 41/1/41
f  42/1/42 40/1/40 10/1/10
f  44/1/44 40/1/40 43/1/43
f  45/1/45 39/1/39 44/1/44
f  39/1/39 45/1/45 38/1/38
f  49/1/49 47/1/47 46/1/46
f  51/1/51 48/1/48 49/1/49
f  3/1/3 2/1/2 20/1/20
f  19/1/19 23/1/23 3/1/3
f  19/1/19 22/1/22 23/1/23
f  22/1/22 21/1/21 32/1/32
f  1/1/1 47/1/47 2/1/2
f  88/1/88 48/1/48 52/1/52
f  58/1/58 53/1/53 33/1/33
f  31/1/31 34/1/34 54/1/54
f  55/1/55 30/1/30 54/1/54
f  29/1/29 30/1/30 56/1/56
f  176/1/183 57/1/57 58/1/58
f  53/1/53 57/1/57 54/1/54
f  54/1/54 59/1/59 55/1/55
f  60/1/60 61/1/61 55/1/55
f  64/1/64 56/1/56 62/1/62
f  177/1/184 63/1/63 62/1/62
f  66/1/66 29/1/29 64/1/64
f  63/1/63 65/1/65 64/1/64
f  29/1/29 66/1/66 68/1/68
f  157/1/158 67/1/67 65/1/65
f  32/1/32 69/1/69 33/1/33
f  50/1/50 70/1/70 32/1/32
f  176/1/183 58/1/58 71/1/71
f  70/1/70 72/1/72 69/1/69
f  88/1/88 37/1/37 48/1/48
f  75/1/185 43/1/185 74/1/185
f  77/1/186 75/1/186 76/1/186
f  80/1/187 77/1/187 78/1/187
f  52/1/188 51/1/188 80/1/188
f  49/1/189 81/1/189 51/1/189
f  81/1/190 49/1/190 82/1/190
f  84/1/191 82/1/191 45/1/191
f  44/1/192 83/1/192 45/1/192
f  75/1/193 83/1/193 43/1/193
f  77/1/194 85/1/194 75/1/194
f  79/1/195 85/1/195 80/1/195
f  84/1/196 83/1/196 86/1/196
f  81/1/197 86/1/197 79/1/197
f  81/1/198 82/1/198 86/1/198
f  36/1/36 16/1/16 37/1/37
f  17/1/17 87/1/87 18/1/18
f  174/1/179 50/1/50 87/1/87
f  35/1/35 88/1/88 89/1/89
f  68/1/68 90/1/90 29/1/29
f  90/1/90 91/1/91 28/1/28
f  91/1/91 92/1/92 14/1/14
f  92/1/92 93/1/93 15/1/15
f  94/1/94 42/1/42 93/1/93
f  73/1/181 43/1/43 94/1/94
f  89/1/199 52/1/199 78/1/199
f  98/1/99 95/1/96 97/1/98
f  106/1/107 98/1/99 99/1/100
f  106/1/107 99/1/100 101/1/102
f  105/1/106 101/1/102 102/1/103
f  102/1/103 103/1/104 105/1/106
f  114/1/115 106/1/107 107/1/108
f  107/1/108 101/1/102 108/1/109
f  104/1/105 109/1/110 105/1/106
f  17/1/17 16/1/16 111/1/112
f  95/1/96 112/1/113 110/1/111
f  125/1/126 113/1/114 112/1/113
f  98/1/99 106/1/107 115/1/116
f  126/1/127 115/1/116 116/1/117
f  107/1/108 117/1/118 114/1/115
f  108/1/109 118/1/119 107/1/108
f  118/1/119 108/1/109 119/1/120
f  119/1/120 120/1/121 118/1/119
f  118/1/119 121/1/122 117/1/118
f  117/1/118 122/1/123 116/1/117
f  127/1/128 124/1/125 126/1/127
f  116/1/117 123/1/124 126/1/127
f  36/1/36 35/1/35 129/1/130
f  136/1/137 130/1/131 97/1/98
f  130/1/131 131/1/132 99/1/100
f  131/1/132 132/1/133 100/1/101
f  175/1/180 103/1/104 132/1/133
f  175/1/180 132/1/133 134/1/135
f  132/1/133 131/1/132 133/1/134
f  138/1/139 135/1/136 130/1/131
f  130/1/131 136/1/137 138/1/139
f  136/1/137 139/1/140 137/1/138
f  95/1/96 110/1/111 96/1/97
f  98/1/99 115/1/116 95/1/96
f  126/1/127 125/1/126 115/1/116
f  160/1/161 113/1/114 124/1/125
f  97/1/98 96/1/97 136/1/137
f  128/1/129 141/1/142 139/1/140
f  123/1/124 142/1/143 127/1/128
f  142/1/143 123/1/124 144/1/145
f  122/1/123 121/1/122 144/1/145
f  145/1/146 121/1/122 146/1/147
f  161/1/162 143/1/144 147/1/148
f  148/1/149 147/1/148 144/1/145
f  150/1/151 148/1/149 145/1/146
f  146/1/147 149/1/150 145/1/146
f  149/1/150 146/1/147 152/1/153
f  151/1/152 153/1/154 152/1/153
f  146/1/147 120/1/121 151/1/152
f  155/1/156 156/1/157 151/1/152
f  67/1/67 155/1/156 68/1/68
f  155/1/156 67/1/67 156/1/157
f  143/1/144 158/1/159 127/1/128
f  158/1/159 159/1/160 124/1/125
f  158/1/159 143/1/144 162/1/163
f  162/1/163 163/1/164 158/1/159
f  128/1/129 139/1/140 129/1/130
f  73/1/200 134/1/200 74/1/200
f  74/1/201 164/1/201 76/1/201
f  76/1/202 165/1/202 78/1/202
f  167/1/203 140/1/203 166/1/203
f  137/1/204 140/1/204 168/1/204
f  138/1/205 137/1/205 169/1/205
f  172/1/206 135/1/206 169/1/206
f  172/1/207 170/1/207 135/1/207
f  133/1/208 170/1/208 134/1/208
f  170/1/209 171/1/209 164/1/209
f  167/1/210 166/1/210 171/1/210
f  171/1/211 170/1/211 173/1/211
f  171/1/212 173/1/212 167/1/212
f  172/1/213 169/1/213 173/1/213
f  110/1/111 16/1/16 129/1/130
f  113/1/114 87/1/87 111/1/112
f  113/1/114 160/1/161 87/1/87
f  141/1/142 128/1/129 89/1/89
f  119/1/120 90/1/90 120/1/121
f  109/1/110 91/1/91 119/1/120
f  104/1/105 92/1/92 109/1/110
f  103/1/104 93/1/93 104/1/105
f  103/1/104 175/1/180 93/1/93
f  175/1/180 134/1/135 94/1/94
f  166/1/214 141/1/214 78/1/214

