# File produced by Open Asset Import Library (http://www.assimp.sf.net)
# (assimp v3.2.0)

mtllib LWristRoll.mtl

# 150 vertex positions
v  -0.0222741 -0.0341355 0.0135998
v  -0.0219604 -0.0356092 0.00848162
v  -0.016669 -0.0346648 0.00843132
v  -0.0166056 -0.0331461 0.0136953
v  -0.013432 -0.0337689 0.00801599
v  -0.0168745 -0.031468 0.0175601
v  -0.022457 -0.0323613 0.017749
v  -0.00954121 -0.0306473 0.0129076
v  -0.0225196 -0.0302576 0.0213997
v  -0.0173098 -0.0243204 0.0271263
v  -0.0229555 -0.024998 0.027611
v  -0.0170723 -0.0293887 0.0211176
v  -0.00524694 -0.0267934 0.0156561
v  -0.00260568 -0.0231037 0.0180505
v  -0.0175417 -0.015883 0.0330704
v  -0.00277734 -0.0192276 0.0224221
v  -0.00293189 -0.0126077 0.0269822
v  -0.0234002 -0.0163948 0.0337879
v  -0.0178736 -0.00529701 0.0364721
v  -0.00313646 -0.00418615 0.0297629
v  -0.0178059 0.00416565 0.0365755
v  -0.0237978 0.00416851 0.0372629
v  -0.00336838 0.00312102 0.0299993
v  -0.0176574 0.0149175 0.0334371
v  -0.0234296 0.0153507 0.0340424
v  -0.0230074 0.0240599 0.0282143
v  -0.0027523 0.0116157 0.0271927
v  -0.00274223 0.0185122 0.0228266
v  -0.0173638 0.0234233 0.0277229
v  -0.016976 0.0286958 0.021686
v  -0.0225894 0.0295624 0.022178
v  -0.00247401 0.0223555 0.0184984
v  -0.022028 0.0358164 0.00554788
v  -0.0161842 0.0348024 0.00592834
v  -0.016257 0.0351684 0.00115138
v  -0.0221987 0.0350592 0.0101713
v  -0.0139896 0.0341144 0.00595397
v  -0.0162149 0.033872 0.0104415
v  -0.0224372 0.0329535 0.0161033
v  -0.0167074 0.031913 0.015925
v  -0.00510508 0.0264815 0.015499
v  -0.0122336 0.0325343 0.0101761
v  -0.0219564 0.0337397 0.000891966
v  -0.0221125 0.0334328 0.00558782
v  -0.0224107 0.0326621 0.00955129
v  -0.0226076 0.0308748 0.0146926
v  -0.0230545 0.0277638 0.020535
v  -0.0234603 0.0225523 0.0261393
v  -0.0237195 0.0143364 0.0318706
v  -0.023721 -0.00556982 0.0372211
v  -0.0236988 0.00373423 0.0346649
v  -0.0231667 -0.0231562 0.0256425
v  -0.0233971 -0.0154896 0.0311541
v  -0.0235752 -0.00535113 0.0345451
v  -0.0229462 -0.0282091 0.0197013
v  -0.0226678 -0.0301862 0.0162284
v  -0.0223784 -0.0332649 0.00798965
v  -0.0219219 -0.036375 0.000992399
v  -0.0124162 -0.0288638 0.00942189
v  -0.00909209 -0.0261969 0.0136003
v  -0.0054236 -0.022905 0.0159478
v  -0.00316727 -0.0197532 0.0179943
v  -0.00331491 -0.0164425 0.0217277
v  -0.00344694 -0.0107865 0.0256232
v  -0.00362128 -0.00359297 0.027999
v  -0.00381976 0.00264847 0.0282006
v  -0.0032931 0.00990492 0.0258026
v  -0.00328445 0.0157958 0.0220736
v  -0.00305575 0.0190796 0.0183761
v  -0.0128921 0.0291238 0.00765991
v  -0.0130387 0.0296672 0.00130606
v  -0.0113922 0.0277746 0.0112672
v  -0.00530267 0.0226038 0.0158148
v  -0.0162246 -0.0353766 0.00125206
v  -0.014716 -0.034942 0.00132042
v  -0.0143638 0.0346151 0.001239
v  -0.0133743 -0.0297047 0.00137496
v  -0.0211485 -0.0341707 -0.0116004
v  -0.0154937 -0.0331799 -0.0111813
v  -0.0160269 -0.034685 -0.00594044
v  -0.00852865 -0.0306781 -0.00975895
v  -0.0128404 -0.0337873 -0.00523347
v  -0.0209602 -0.032407 -0.0157551
v  -0.0154171 -0.0315129 -0.0150602
v  -0.00400633 -0.0268317 -0.0121145
v  -0.0206978 -0.0303132 -0.0194032
v  -0.0149971 -0.0243915 -0.0246463
v  -0.0152978 -0.0294436 -0.0186264
v  -0.00116134 -0.0231481 -0.0142692
v  -0.000943015 -0.0192841 -0.0186496
v  -0.0146973 -0.01597 -0.0306108
v  -0.0205768 -0.0250714 -0.0256428
v  -0.0147231 -0.00539392 -0.034059
v  -0.0204681 -0.0164853 -0.0318587
v  -0.00064475 -0.00426257 -0.0260354
v  -0.0204796 -0.00566912 -0.0353386
v  -0.0205519 0.00406843 -0.0354155
v  -0.0146451 0.00406837 -0.0341832
v  -0.000852833 0.00304359 -0.0263112
v  -0.0204706 0.0152594 -0.0322051
v  -0.0147758 0.0148283 -0.0310745
v  -0.000487987 0.0115461 -0.0234843
v  -0.0205691 0.0239842 -0.026387
v  -0.0149921 0.0233505 -0.0253796
v  -0.000866415 0.0184548 -0.0191547
v  -0.0206888 0.0295031 -0.0203521
v  -0.0151427 0.0286395 -0.0193477
v  -0.000985116 0.0223096 -0.0148305
v  -0.0157585 0.0347899 -0.00359857
v  -0.021612 0.0358043 -0.00375599
v  -0.0153868 0.0338465 -0.00809389
v  -0.0213708 0.0350343 -0.00837451
v  -0.013571 0.0341017 -0.00342142
v  -0.0210798 0.0329114 -0.0142978
v  -0.011445 0.0325104 -0.00746238
v  -0.00387245 0.0264435 -0.0120956
v  -0.0153894 0.0318722 -0.0135937
v  -0.0216765 0.0360562 0.000902026
v  -0.0216931 0.0334198 -0.00379747
v  -0.0213749 0.0308364 -0.0129028
v  -0.0216374 0.0326379 -0.00776958
v  -0.0212994 0.02771 -0.0187528
v  -0.0212055 0.0224829 -0.0243571
v  -0.0209533 0.0142515 -0.0300657
v  -0.0206842 0.00364101 -0.0328171
v  -0.0205738 -0.00544399 -0.0326599
v  -0.0212732 -0.0282601 -0.0177556
v  -0.0209624 -0.0232238 -0.0237059
v  -0.0207 -0.0155737 -0.0292387
v  -0.0214164 -0.0316272 -0.010587
v  -0.021306 -0.0302285 -0.0142668
v  -0.0217528 -0.0332837 -0.00602597
v  -0.021293 -0.0356298 -0.00647116
v  -0.00801957 -0.0262299 -0.0104207
v  -0.0117021 -0.0288861 -0.00655448
v  -0.00415635 -0.0229442 -0.0124328
v  -0.00172609 -0.0197971 -0.014273
v  -0.00153965 -0.0164965 -0.0180145
v  -0.000689206 -0.0126765 -0.0232227
v  -0.00132239 -0.010852 -0.0219218
v  -0.00128472 -0.00366539 -0.0243239
v  -0.00146228 0.00257605 -0.0245597
v  -0.0011515 0.00983834 -0.0221447
v  -0.0014742 0.01574 -0.0184464
v  -0.00157577 0.019034 -0.0147532
v  -0.012326 0.0291068 -0.00500667
v  -0.0105111 0.027747 -0.00845879
v  -0.00404125 0.0225645 -0.0124164
v  -0.0224501 -0.0315957 0.0125583
v  -0.0219721 -0.0337243 0.000987192

# 1 UV coordinates
vt 4.61149 0.499573 0

# 150 vertex normals
vn -0.598865 -0.762658 0.244301
vn -0.575915 -0.805994 0.136631
vn 0.235633 -0.951445 0.198004
vn 0.260018 -0.897427 0.356365
vn 0.70101 -0.713065 0.00991851
vn 0.275918 -0.834407 0.477035
vn -0.599383 -0.726493 0.336009
vn 0.762596 -0.62746 -0.15714
vn -0.577197 -0.681509 0.449782
vn 0.287118 -0.639515 0.713126
vn -0.596362 -0.561296 0.573809
vn 0.286599 -0.763817 0.578265
vn 0.775872 -0.565416 -0.279763
vn 0.910794 -0.396558 -0.114597
vn 0.283364 -0.421277 0.861507
vn 0.874264 -0.304361 0.378124
vn 0.878414 -0.191107 0.437971
vn -0.619404 -0.368206 0.693319
vn 0.273171 -0.149632 0.950194
vn 0.881008 -0.0560319 0.469741
vn 0.26896 0.130406 0.954253
vn -0.638356 0.108554 0.762017
vn 0.866939 0.0512406 0.495712
vn 0.273324 0.400861 0.874386
vn -0.594501 0.357097 0.72042
vn -0.565508 0.55858 0.606739
vn 0.887478 0.170141 0.428205
vn 0.869778 0.297952 0.393292
vn 0.285287 0.621235 0.729789
vn 0.292978 0.762932 0.57625
vn -0.552904 0.691824 0.46437
vn 0.922453 0.382183 -0.0542313
vn -0.611988 0.788629 0.0592974
vn 0.233894 0.963042 0.133335
vn 0.225898 0.97409 0.0087893
vn -0.595874 0.782678 0.179754
vn 0.705924 0.707541 0.0317392
vn 0.263009 0.922178 0.283425
vn -0.582385 0.749199 0.315439
vn 0.283853 0.854671 0.434614
vn 0.796228 0.551134 -0.249428
vn 0.750816 0.659566 -0.0345774
vn -0.996033 0.0769066 -0.044618
vn -0.996368 0.0714743 -0.0456862
vn -0.996612 0.0779443 -0.0250862
vn -0.993652 0.111972 0.00762957
vn -0.986206 0.155614 0.056154
vn -0.984802 0.143712 0.0972319
vn -0.995209 0.0685446 0.069277
vn -0.640889 -0.132969 0.756005
vn -0.999939 0.00686663 -0.00775164
vn -0.995911 -0.0849025 0.0305185
vn -0.99939 -0.0342722 -0.00643939
vn -0.999176 -0.0120548 -0.0380565
vn -0.991577 -0.124088 0.036317
vn -0.994171 -0.107517 0.00399792
vn -0.994049 -0.108249 -0.0113223
vn -0.592792 -0.804926 -0.0253914
vn 0.875271 -0.0580156 -0.480087
vn 0.571764 0.0695211 -0.817438
vn 0.567492 0.0872829 -0.81872
vn 0.933958 0.151158 -0.32374
vn 0.976653 0.150182 -0.153386
vn 0.970336 0.116245 -0.21189
vn 0.967559 0.0668355 -0.243538
vn 0.971679 -0.0441297 -0.232124
vn 0.968413 -0.13715 -0.208106
vn 0.97409 -0.146824 -0.171819
vn 0.944151 -0.156774 -0.289773
vn 0.959288 0.135472 -0.24778
vn 0.971404 0.233375 0.0430616
vn 0.681844 -0.0468154 -0.729972
vn 0.642995 -0.0946074 -0.759972
vn 0.229225 -0.973296 0.011597
vn 0.664937 -0.746239 0.0307626
vn 0.691214 0.722007 0.0299081
vn 0.97644 -0.211127 0.0438856
vn -0.57445 -0.763604 -0.294748
vn 0.29136 -0.89816 -0.329203
vn 0.252663 -0.951842 -0.173559
vn 0.745445 -0.626728 0.226844
vn 0.699027 -0.712973 0.0546587
vn -0.566698 -0.727744 -0.386242
vn 0.318125 -0.835444 -0.448042
vn 0.747429 -0.564287 0.350505
vn -0.534471 -0.683004 -0.497787
vn 0.35078 -0.641163 -0.682516
vn 0.337932 -0.76513 -0.548021
vn 0.896878 -0.395703 0.197455
vn 0.904721 -0.304941 -0.297403
vn 0.360576 -0.423414 -0.83108
vn -0.542222 -0.563189 -0.623524
vn 0.358562 -0.152257 -0.920988
vn -0.554369 -0.370403 -0.745262
vn 0.919675 -0.0571611 -0.38844
vn -0.570055 -0.135319 -0.810358
vn -0.567003 0.106388 -0.816797
vn 0.354778 0.127659 -0.926176
vn 0.908109 0.0497757 -0.415693
vn -0.527055 0.355205 -0.772027
vn 0.351848 0.398267 -0.847072
vn 0.922513 0.168737 -0.347057
vn -0.508408 0.557054 -0.656636
vn 0.350627 0.618976 -0.70278
vn 0.90173 0.296609 -0.314432
vn -0.508591 0.690726 -0.513962
vn 0.34431 0.761101 -0.549638
vn 0.914029 0.382061 0.136174
vn 0.245277 0.962645 -0.114536
vn -0.603992 0.788507 -0.115787
vn 0.287942 0.921262 -0.261391
vn -0.577166 0.78222 -0.234443
vn 0.706076 0.70748 0.0294809
vn -0.55153 0.748375 -0.368389
vn 0.744865 0.659688 0.099765
vn 0.770623 0.551744 0.318827
vn 0.322367 0.853267 -0.409803
vn -0.594378 0.803674 -0.0276498
vn -0.99649 0.0715048 -0.0433973
vn -0.989013 0.111728 -0.0965605
vn -0.994903 0.0778222 -0.0639668
vn -0.977203 0.155492 -0.144383
vn -0.972167 0.143498 -0.185156
vn -0.985076 0.0682394 -0.157933
vn -0.996643 0.00674456 -0.0813928
vn -0.998596 -0.0120853 -0.0512406
vn -0.984436 -0.124271 -0.12418
vn -0.989227 -0.0850551 -0.118961
vn -0.995972 -0.0344554 -0.0826746
vn -0.991058 -0.105625 -0.0811487
vn -0.989868 -0.107761 -0.092349
vn -0.991119 -0.10831 -0.0770287
vn -0.561418 -0.806482 -0.185308
vn 0.495163 0.0720847 0.86578
vn 0.828639 -0.0566118 0.556871
vn 0.490768 0.0898465 0.866634
vn 0.901242 0.152379 0.405591
vn 0.959105 0.1507 0.239448
vn 0.914243 -0.191961 -0.3567
vn 0.9476 0.117008 0.297189
vn 0.942015 0.067629 0.328593
vn 0.94705 -0.0434583 0.318064
vn 0.945921 -0.13654 0.294229
vn 0.954802 -0.146367 0.258644
vn 0.914396 -0.15595 0.373486
vn 0.933287 0.136357 0.332164
vn 0.613056 -0.044679 0.788751
vn 0.571642 -0.0924405 0.815241
vn -0.994385 -0.105502 -0.00726336
vn -0.994415 -0.0955535 -0.0442213

# Mesh 'LWristRoll_LWristRoll' with 240 faces
g LWristRoll_LWristRoll
usemtl MainSkin
f  1/1/1 2/1/2 3/1/3
f  4/1/4 3/1/3 5/1/5
f  4/1/4 6/1/6 7/1/7
f  6/1/6 4/1/4 8/1/8
f  9/1/9 7/1/7 6/1/6
f  10/1/10 11/1/11 9/1/9
f  12/1/12 6/1/6 13/1/13
f  10/1/10 12/1/12 14/1/14
f  11/1/11 10/1/10 15/1/15
f  16/1/16 17/1/17 15/1/15
f  18/1/18 15/1/15 19/1/19
f  15/1/15 17/1/17 20/1/20
f  19/1/19 21/1/21 22/1/22
f  19/1/19 20/1/20 23/1/23
f  21/1/21 24/1/24 25/1/25
f  24/1/24 21/1/21 23/1/23
f  26/1/26 25/1/25 24/1/24
f  24/1/24 27/1/27 28/1/28
f  29/1/29 30/1/30 31/1/31
f  28/1/28 32/1/32 30/1/30
f  33/1/33 34/1/34 35/1/35
f  34/1/34 33/1/33 36/1/36
f  37/1/37 34/1/34 38/1/38
f  38/1/38 36/1/36 39/1/39
f  40/1/40 41/1/41 42/1/42
f  30/1/30 40/1/40 39/1/39
f  41/1/41 40/1/40 30/1/30
f  43/1/43 44/1/44 33/1/33
f  36/1/36 33/1/33 44/1/44
f  36/1/36 45/1/45 46/1/46
f  39/1/39 46/1/46 47/1/47
f  31/1/31 47/1/47 48/1/48
f  49/1/49 25/1/25 26/1/26
f  22/1/22 25/1/25 49/1/49
f  50/1/50 22/1/22 51/1/51
f  9/1/9 11/1/11 52/1/52
f  53/1/53 52/1/52 11/1/11
f  54/1/54 53/1/53 18/1/18
f  7/1/7 9/1/9 55/1/55
f  1/1/1 7/1/7 56/1/56
f  57/1/57 2/1/2 1/1/1
f  58/1/58 2/1/2 57/1/57
f  59/1/59 60/1/60 8/1/8
f  60/1/60 61/1/61 13/1/13
f  61/1/61 62/1/62 14/1/14
f  62/1/62 63/1/63 16/1/16
f  63/1/63 64/1/64 17/1/17
f  64/1/64 65/1/65 20/1/20
f  65/1/65 66/1/66 23/1/23
f  67/1/67 27/1/27 23/1/23
f  68/1/68 28/1/28 27/1/27
f  69/1/69 32/1/32 28/1/28
f  37/1/37 70/1/70 71/1/71
f  70/1/70 37/1/37 42/1/42
f  72/1/72 42/1/42 41/1/41
f  73/1/73 41/1/41 32/1/32
f  3/1/3 74/1/74 75/1/75
f  2/1/2 58/1/58 74/1/74
f  76/1/76 35/1/35 34/1/34
f  5/1/5 75/1/75 77/1/77
f  78/1/78 79/1/79 80/1/80
f  79/1/79 81/1/81 82/1/82
f  83/1/83 84/1/84 79/1/79
f  84/1/84 85/1/85 81/1/81
f  84/1/84 83/1/83 86/1/86
f  87/1/87 88/1/88 86/1/86
f  88/1/88 89/1/89 85/1/85
f  87/1/87 90/1/90 89/1/89
f  91/1/91 87/1/87 92/1/92
f  90/1/90 87/1/87 91/1/91
f  93/1/93 91/1/91 94/1/94
f  91/1/91 93/1/93 95/1/95
f  93/1/93 96/1/96 97/1/97
f  93/1/93 98/1/98 99/1/99
f  98/1/98 97/1/97 100/1/100
f  101/1/101 102/1/102 99/1/99
f  101/1/101 100/1/100 103/1/103
f  101/1/101 104/1/104 105/1/105
f  106/1/106 107/1/107 104/1/104
f  107/1/107 108/1/108 105/1/105
f  35/1/35 109/1/109 110/1/110
f  109/1/109 111/1/111 112/1/112
f  111/1/111 109/1/109 113/1/113
f  114/1/114 112/1/112 111/1/111
f  115/1/115 116/1/116 117/1/117
f  114/1/114 117/1/117 107/1/107
f  107/1/107 117/1/117 116/1/116
f  43/1/43 118/1/118 110/1/110
f  119/1/119 110/1/110 112/1/112
f  120/1/120 121/1/121 112/1/112
f  114/1/114 106/1/106 122/1/122
f  106/1/106 103/1/103 123/1/123
f  103/1/103 100/1/100 124/1/124
f  97/1/97 125/1/125 124/1/124
f  96/1/96 126/1/126 125/1/125
f  86/1/86 127/1/127 128/1/128
f  129/1/129 94/1/94 92/1/92
f  94/1/94 129/1/129 126/1/126
f  127/1/127 86/1/86 83/1/83
f  78/1/78 130/1/130 131/1/131
f  132/1/132 130/1/130 78/1/78
f  132/1/132 133/1/133 58/1/58
f  81/1/81 134/1/134 135/1/135
f  85/1/85 136/1/136 134/1/134
f  89/1/89 137/1/137 136/1/136
f  90/1/90 138/1/138 137/1/137
f  139/1/139 140/1/140 138/1/138
f  95/1/95 141/1/141 140/1/140
f  99/1/99 142/1/142 141/1/141
f  143/1/143 142/1/142 99/1/99
f  144/1/144 143/1/143 102/1/102
f  145/1/145 144/1/144 105/1/105
f  113/1/113 76/1/76 71/1/71
f  146/1/146 147/1/147 115/1/115
f  147/1/147 148/1/148 116/1/116
f  148/1/148 145/1/145 108/1/108
f  75/1/75 74/1/74 80/1/80
f  74/1/74 58/1/58 133/1/133
f  76/1/76 113/1/113 109/1/109
f  77/1/77 75/1/75 82/1/82
f  4/1/4 1/1/1 3/1/3
f  8/1/8 4/1/4 5/1/5
f  1/1/1 4/1/4 7/1/7
f  13/1/13 6/1/6 8/1/8
f  12/1/12 9/1/9 6/1/6
f  12/1/12 10/1/10 9/1/9
f  14/1/14 12/1/12 13/1/13
f  16/1/16 10/1/10 14/1/14
f  18/1/18 11/1/11 15/1/15
f  10/1/10 16/1/16 15/1/15
f  50/1/50 18/1/18 19/1/19
f  19/1/19 15/1/15 20/1/20
f  50/1/50 19/1/19 22/1/22
f  21/1/21 19/1/19 23/1/23
f  22/1/22 21/1/21 25/1/25
f  27/1/27 24/1/24 23/1/23
f  29/1/29 26/1/26 24/1/24
f  29/1/29 24/1/24 28/1/28
f  26/1/26 29/1/29 31/1/31
f  29/1/29 28/1/28 30/1/30
f  118/1/118 33/1/33 35/1/35
f  38/1/38 34/1/34 36/1/36
f  42/1/42 37/1/37 38/1/38
f  40/1/40 38/1/38 39/1/39
f  38/1/38 40/1/40 42/1/42
f  31/1/31 30/1/30 39/1/39
f  32/1/32 41/1/41 30/1/30
f  118/1/118 43/1/43 33/1/33
f  45/1/45 36/1/36 44/1/44
f  39/1/39 36/1/36 46/1/46
f  31/1/31 39/1/39 47/1/47
f  26/1/26 31/1/31 48/1/48
f  48/1/48 49/1/49 26/1/26
f  51/1/51 22/1/22 49/1/49
f  54/1/54 50/1/50 51/1/51
f  55/1/55 9/1/9 52/1/52
f  18/1/18 53/1/53 11/1/11
f  50/1/50 54/1/54 18/1/18
f  56/1/56 7/1/7 55/1/55
f  149/1/149 1/1/1 56/1/56
f  149/1/149 57/1/57 1/1/1
f  150/1/150 58/1/58 57/1/57
f  5/1/5 59/1/59 8/1/8
f  8/1/8 60/1/60 13/1/13
f  13/1/13 61/1/61 14/1/14
f  14/1/14 62/1/62 16/1/16
f  16/1/16 63/1/63 17/1/17
f  17/1/17 64/1/64 20/1/20
f  20/1/20 65/1/65 23/1/23
f  66/1/66 67/1/67 23/1/23
f  67/1/67 68/1/68 27/1/27
f  68/1/68 69/1/69 28/1/28
f  76/1/76 37/1/37 71/1/71
f  72/1/72 70/1/70 42/1/42
f  73/1/73 72/1/72 41/1/41
f  69/1/69 73/1/73 32/1/32
f  5/1/5 3/1/3 75/1/75
f  3/1/3 2/1/2 74/1/74
f  37/1/37 76/1/76 34/1/34
f  59/1/59 5/1/5 77/1/77
f  133/1/133 78/1/78 80/1/80
f  80/1/80 79/1/79 82/1/82
f  78/1/78 83/1/83 79/1/79
f  79/1/79 84/1/84 81/1/81
f  88/1/88 84/1/84 86/1/86
f  92/1/92 87/1/87 86/1/86
f  84/1/84 88/1/88 85/1/85
f  88/1/88 87/1/87 89/1/89
f  94/1/94 91/1/91 92/1/92
f  139/1/139 90/1/90 91/1/91
f  96/1/96 93/1/93 94/1/94
f  139/1/139 91/1/91 95/1/95
f  98/1/98 93/1/93 97/1/97
f  95/1/95 93/1/93 99/1/99
f  101/1/101 98/1/98 100/1/100
f  98/1/98 101/1/101 99/1/99
f  104/1/104 101/1/101 103/1/103
f  102/1/102 101/1/101 105/1/105
f  103/1/103 106/1/106 104/1/104
f  104/1/104 107/1/107 105/1/105
f  118/1/118 35/1/35 110/1/110
f  110/1/110 109/1/109 112/1/112
f  115/1/115 111/1/111 113/1/113
f  117/1/117 114/1/114 111/1/111
f  111/1/111 115/1/115 117/1/117
f  106/1/106 114/1/114 107/1/107
f  108/1/108 107/1/107 116/1/116
f  119/1/119 43/1/43 110/1/110
f  121/1/121 119/1/119 112/1/112
f  114/1/114 120/1/120 112/1/112
f  120/1/120 114/1/114 122/1/122
f  122/1/122 106/1/106 123/1/123
f  123/1/123 103/1/103 124/1/124
f  100/1/100 97/1/97 124/1/124
f  97/1/97 96/1/96 125/1/125
f  92/1/92 86/1/86 128/1/128
f  128/1/128 129/1/129 92/1/92
f  96/1/96 94/1/94 126/1/126
f  131/1/131 127/1/127 83/1/83
f  83/1/83 78/1/78 131/1/131
f  133/1/133 132/1/132 78/1/78
f  150/1/150 132/1/132 58/1/58
f  82/1/82 81/1/81 135/1/135
f  81/1/81 85/1/85 134/1/134
f  85/1/85 89/1/89 136/1/136
f  89/1/89 90/1/90 137/1/137
f  90/1/90 139/1/139 138/1/138
f  139/1/139 95/1/95 140/1/140
f  95/1/95 99/1/99 141/1/141
f  102/1/102 143/1/143 99/1/99
f  105/1/105 144/1/144 102/1/102
f  108/1/108 145/1/145 105/1/105
f  146/1/146 113/1/113 71/1/71
f  113/1/113 146/1/146 115/1/115
f  115/1/115 147/1/147 116/1/116
f  116/1/116 148/1/148 108/1/108
f  82/1/82 75/1/75 80/1/80
f  80/1/80 74/1/74 133/1/133
f  35/1/35 76/1/76 109/1/109
f  135/1/135 77/1/77 82/1/82

