# File produced by Open Asset Import Library (http://www.assimp.sf.net)
# (assimp v3.2.0)

mtllib RFinger13.mtl

# 177 vertex positions
v  0.00110268 0.0120583 0.0101681
v  0.00171596 0.00259411 0.010669
v  0.00474757 0.00210518 0.00885081
v  -0.00322407 0.0104007 0.00992644
v  -0.00312358 0.0036853 0.0106481
v  -0.00772309 0.00570995 0.00684279
v  -0.00846267 0.00843388 0.00420922
v  -0.00878191 0.00593471 0.00401658
v  -0.0089817 0.00846922 0.00194991
v  -0.00744069 0.00474316 0.00681996
v  -0.00332546 0.00325221 0.0101524
v  -0.00854301 0.00485903 0.00394839
v  -0.00927395 0.00604606 0.00182336
v  -0.00888282 0.0050292 0.00173318
v  0.0069021 0.000507375 0.00389671
v  0.00734299 0.000178047 -2.97416e-06
v  0.0071789 0.00161386 -5.01369e-06
v  0.00684643 0.00153506 0.00400394
v  0.004897 0.00127047 0.00874746
v  0.0043776 -0.00161386 0.00935298
v  0.00672603 -0.00268626 0.00572693
v  0.00138813 0.00190628 0.0103234
v  -0.00348008 -0.000309555 0.0101373
v  0.000685215 -0.0018357 0.0104697
v  -0.00756127 0.00188875 0.00675428
v  -0.00855589 0.00233233 0.00407755
v  -0.00899887 0.00278163 0.0013718
v  -0.00775081 0.00125593 0.00103897
v  -0.0073936 0.0010364 0.00383842
v  -0.00639677 0.000461286 0.00585604
v  4.36825e-05 -0.00312459 0.0102129
v  0.00309461 -0.00149101 0.0081898
v  -0.00297332 -0.00149959 0.00894177
v  0.00487489 0.0128673 0.00366866
v  0.00527996 0.0132146 -1.67454e-05
v  0.00476193 0.0141537 -2.00752e-05
v  -0.00327784 0.0118048 0.00923878
v  -0.00709438 0.0099203 0.00650907
v  -0.00745135 0.00884259 0.00658053
v  -0.00822127 0.00939047 0.00402451
v  -0.00873035 0.00920868 0.00162762
v  -0.00684649 0.015884 0.00121498
v  -0.00659794 0.0159975 0.00294852
v  -0.00284648 0.0159104 0.0080536
v  -0.0058412 0.0160327 0.00538635
v  0.00063983 0.0133426 0.00943488
v  0.000205297 0.0161526 0.00820142
v  0.00357163 0.0138681 0.00656015
v  0.00402796 0.0124943 0.00687516
v  0.00585026 -0.00335592 0.00530738
v  0.00442916 0.0140446 0.00380075
v  0.00407481 0.0166276 0.00421703
v  -0.00346613 -0.00400376 0.0088352
v  -0.00752985 -0.00325727 0.00564241
v  -0.00910389 -0.00309878 0.00128305
v  -0.00851792 -0.00315714 0.00375801
v  -0.00292569 -0.00805712 0.00866222
v  -0.000382072 -0.0066762 0.00870246
v  -0.000563163 -0.00484121 0.00878221
v  -0.00651663 -0.0098322 0.00546139
v  -0.0073173 -0.0103016 0.00367808
v  -0.0077272 -0.010282 0.00260186
v  -0.00377661 -0.00868362 0.00223553
v  -0.00450933 -0.00108695 0.00132954
v  -0.00136834 -0.00280213 0.00144523
v  -0.00465441 -0.000423223 0.000928832
v  -0.00132757 -0.000764769 0.00112903
v  -0.00768971 0.00122851 -9.19126e-05
v  -0.00457287 -0.000444359 -7.37658e-05
v  0.000372906 -0.00295687 0.00715738
v  0.000943483 -0.00230896 0.00547266
v  -3.6058e-05 -0.00661844 0.00724625
v  -5.33914e-06 -0.00654548 0.00531292
v  -0.00387394 0.0185941 -7.1367e-05
v  -0.00682729 0.0159581 -8.87153e-05
v  -0.000865242 0.0195359 -5.38937e-05
v  -0.00386065 0.0185729 0.00152278
v  0.00235641 0.0185761 -3.46749e-05
v  -0.000734013 0.0194588 0.00149375
v  0.00240272 0.0181327 0.0043183
v  0.00173467 0.0177309 0.0058763
v  0.00288314 0.0165557 0.00668287
v  6.62881e-05 0.0173169 0.00681174
v  -0.00274479 0.0173218 0.0068205
v  -0.00488728 0.017213 0.00493604
v  -0.00512666 0.0174447 0.00326461
v  -0.00118524 0.0191036 0.00344276
v  -0.0016709 0.0183882 0.00535118
v  0.00766814 -0.0019697 -6.12148e-07
v  0.0046497 0.0163323 -2.06673e-05
v  -0.00901824 0.00275868 -0.000100281
v  -0.00896096 0.00506812 -0.000100034
v  -0.0093376 0.00601083 -0.00010273
v  -0.00906879 0.00844979 -0.000100909
v  -0.00861841 0.00947726 -9.87814e-05
v  0.00485158 0.00210285 -0.00888741
v  0.00184268 0.00259215 -0.0107417
v  0.00122321 0.0120558 -0.0102509
v  -0.00310558 0.0103984 -0.0100588
v  -0.00764114 0.00570923 -0.00702745
v  -0.00737321 0.00884086 -0.00676298
v  -0.00841206 0.00843334 -0.00440389
v  -0.00873291 0.0059334 -0.00421435
v  -0.00925112 0.00604492 -0.00202709
v  -0.00895798 0.00846881 -0.00215119
v  -0.00735843 0.00474215 -0.00700152
v  -0.00299674 0.00368279 -0.0107782
v  -0.00849426 0.00485796 -0.0041433
v  -0.0088613 0.00502813 -0.00193197
v  0.0069474 0.000506365 -0.00390857
v  0.00689334 0.00153386 -0.00401574
v  0.00500083 0.0012688 -0.00878268
v  0.00679386 -0.00268739 -0.00573963
v  0.0015111 0.00190413 -0.0104004
v  -0.00335962 -0.00031167 -0.0102705
v  -0.0032047 0.00325 -0.0102844
v  -0.00748014 0.00188768 -0.00693655
v  -0.00850689 0.00233066 -0.0042724
v  -0.00898111 0.00278067 -0.00157195
v  -0.00734681 0.00103527 -0.00401878
v  -0.0077371 0.00125563 -0.00122321
v  -0.00632721 0.00045962 -0.00602406
v  -0.0028677 -0.00150126 -0.00906861
v  0.00319117 -0.00149232 -0.00824571
v  0.000165424 -0.00312692 -0.0103045
v  0.000809452 -0.00183803 -0.0105539
v  0.00491857 0.0128663 -0.00370657
v  0.00447428 0.0140435 -0.00384438
v  -0.00316769 0.0118034 -0.00937217
v  -0.00701702 0.00991905 -0.00668722
v  -0.00817293 0.00938994 -0.00421715
v  -0.00870943 0.00920838 -0.00182593
v  -0.00683135 0.0158838 -0.00139272
v  -0.00656134 0.0159965 -0.0031231
v  -0.00577623 0.0160314 -0.00555169
v  -0.00275058 0.0159084 -0.00818366
v  0.000303432 0.0161507 -0.00829494
v  0.000751923 0.0133411 -0.00952291
v  0.00296271 0.0165536 -0.00674474
v  0.00364959 0.0138665 -0.00661421
v  0.00410903 0.0124932 -0.00692356
v  0.00448829 -0.00161642 -0.00939399
v  0.00412422 0.0166271 -0.00426543
v  -0.000458614 -0.00484288 -0.00887954
v  -0.00336128 -0.00400567 -0.00896799
v  -0.00746167 -0.00325847 -0.00582325
v  -0.00847238 -0.00315768 -0.00395065
v  -0.00908726 -0.00309902 -0.00148219
v  -0.000278553 -0.00667781 -0.0087986
v  -0.00282294 -0.00805968 -0.00878739
v  -0.00645083 -0.00983417 -0.00562835
v  -0.0072735 -0.0103025 -0.00385517
v  -0.00769484 -0.0102831 -0.0027836
v  -0.00375003 -0.00868416 -0.00237083
v  -0.00449318 -0.00108761 -0.00147551
v  -0.000873949 -0.0070287 -0.00163215
v  -0.00135022 -0.00280219 -0.00155318
v  -0.00464201 -0.000423873 -0.00107694
v  -0.00131309 -0.000765047 -0.00123697
v  -0.000984101 -0.000951369 -5.2851e-05
v  0.000457956 -0.00295865 -0.007245
v  0.00591302 -0.00335681 -0.00533032
v  0.00100875 -0.00230956 -0.0055545
v  4.98629e-05 -0.00662005 -0.00733781
v  5.77737e-05 -0.00654739 -0.005404
v  -0.00384223 0.0185718 -0.00166494
v  -0.000716627 0.0194583 -0.00159997
v  0.00245345 0.0181318 -0.00438607
v  0.00014667 0.0173149 -0.00690764
v  -0.00266337 0.0173198 -0.00694948
v  -0.00482845 0.0172111 -0.00509035
v  -0.00508702 0.0174447 -0.00342238
v  -0.00114381 0.0191029 -0.00355428
v  0.00180375 0.0177303 -0.00595236
v  -0.001607 0.0183864 -0.0054673
v  0.00609136 -0.00344086 -9.80165e-06
v  -0.000892681 -0.00702858 0.00153005

# 1 UV coordinates
vt 4.61149 0.499573 0

# 214 vertex normals
vn 0.287728 0.30604 0.907468
vn 0.278329 -0.165593 0.946074
vn 0.752953 -0.0126041 0.657949
vn -0.380047 0.219153 0.898618
vn -0.339946 -0.193182 0.920377
vn -0.823603 -0.0715048 0.562578
vn -0.935728 0.204321 0.287393
vn -0.958342 -0.0840785 0.272866
vn -0.964568 0.228797 0.13123
vn -0.813532 -0.143895 0.563402
vn -0.457228 -0.214057 0.863186
vn -0.959227 -0.125126 0.253334
vn -0.987457 -0.106937 0.11597
vn -0.982177 -0.159093 0.0998565
vn 0.967711 0.0757774 0.240272
vn 0.996674 0.0811487 0.00582898
vn 0.991913 0.126591 0.00573742
vn 0.964812 0.11362 0.237037
vn 0.7369 -0.0109256 0.675893
vn 0.522843 -0.459609 0.717887
vn 0.766228 -0.532884 0.35902
vn 0.133396 -0.213355 0.967803
vn -0.461409 -0.303659 0.833552
vn 0.116153 -0.478774 0.870205
vn -0.814142 -0.317148 0.486374
vn -0.919919 -0.339824 0.195471
vn -0.948943 -0.30961 0.0600299
vn -0.806696 -0.561266 -0.184912
vn -0.932951 -0.273598 0.233863
vn -0.81402 -0.321543 0.483688
vn 0.110813 -0.735649 0.668203
vn 0.212287 -0.939329 0.269326
vn -0.536577 -0.336528 0.773797
vn 0.940611 0.26896 0.207037
vn 0.955596 0.294565 0.00558484
vn 0.967925 0.251106 0.00564587
vn -0.442457 0.342204 0.828913
vn -0.790368 0.290262 0.539445
vn -0.805902 0.196783 0.558336
vn -0.922605 0.292581 0.25132
vn -0.944792 0.317209 0.0819117
vn -0.858425 0.510666 0.0479445
vn -0.847285 0.503586 0.168615
vn -0.348125 0.485824 0.801721
vn -0.74575 0.461623 0.480331
vn 0.213111 0.413923 0.884976
vn 0.172521 0.521012 0.835902
vn 0.787072 0.316172 0.529618
vn 0.806299 0.281442 0.520218
vn 0.305856 -0.926573 0.218848
vn 0.943877 0.245582 0.22071
vn 0.862514 0.448286 0.234748
vn -0.436598 -0.0832239 0.895779
vn -0.781701 0.0256355 0.623096
vn -0.807123 -0.0387279 -0.589068
vn -0.936888 0.0538346 0.345439
vn -0.399884 -0.0928678 0.911832
vn 0.506516 -0.0484633 0.860836
vn 0.487442 -0.297739 0.820795
vn -0.790246 -0.1395 0.596637
vn -0.923429 -0.150395 0.353008
vn -0.865169 -0.238319 -0.441176
vn -0.0218207 -0.125889 -0.99179
vn -0.0236824 -0.172277 -0.984741
vn -0.0771202 -0.148411 -0.985901
vn -0.20896 -0.725272 -0.655934
vn -0.104953 -0.827296 -0.551836
vn -0.625935 -0.77984 -0.00360113
vn -0.295999 -0.955168 -0.00158691
vn 0.763604 -0.618152 0.186346
vn 0.50502 -0.819025 0.272195
vn 0.961852 -0.101382 0.254006
vn 0.977142 -0.169134 0.128666
vn -0.665638 0.745564 0.0325475
vn -0.298781 0.954201 0.0151781
vn 0.285305 0.958147 0.0235589
vn 0.495598 0.765696 0.40999
vn 0.232452 0.756841 0.610867
vn -0.0884663 0.658965 0.746953
vn -0.525973 0.639162 0.561092
vn -0.72499 0.660472 0.195362
vn -0.706178 0.705889 0.0550765
vn -0.382344 0.877234 0.290299
vn 0.175289 0.932539 0.315666
vn -0.386014 0.891778 0.236061
vn 0.119576 0.919268 0.37503
vn -0.360805 0.860127 0.360556
vn 0.941893 -0.335795 0.00555432
vn 0.911222 0.411817 0.00527966
vn -0.944578 -0.328196 -0.00555432
vn -0.984954 -0.172582 -0.00576794
vn -0.991211 -0.132054 -0.00576794
vn -0.969878 0.243385 -0.00570691
vn -0.948882 0.3155 -0.00564587
vn 0.669755 0.739445 0.068184
vn 0.760674 -0.0123905 -0.648976
vn 0.28959 -0.165563 -0.942686
vn 0.29838 0.305765 -0.904111
vn -0.369427 0.218909 -0.903073
vn -0.81692 -0.0717795 -0.572191
vn -0.799249 0.19657 -0.567919
vn -0.93231 0.204199 -0.29844
vn -0.955016 -0.0844447 -0.284219
vn -0.985992 -0.10712 -0.127628
vn -0.96292 0.228858 -0.142643
vn -0.806787 -0.144078 -0.572954
vn -0.329051 -0.193426 -0.924253
vn -0.956145 -0.125187 -0.264748
vn -0.980926 -0.159093 -0.111515
vn 0.970458 0.075869 -0.228889
vn 0.967528 0.113712 -0.225623
vn 0.744957 -0.0106204 -0.667013
vn 0.77044 -0.532975 -0.349712
vn 0.144871 -0.213355 -0.966155
vn -0.451582 -0.30372 -0.838923
vn -0.447096 -0.21424 -0.868435
vn -0.808344 -0.317057 -0.495987
vn -0.917539 -0.339854 -0.206275
vn -0.948119 -0.309763 -0.0711691
vn -0.930113 -0.27369 -0.244789
vn -0.80871 -0.561327 0.175573
vn -0.808252 -0.321543 -0.49324
vn -0.527482 -0.33665 -0.779992
vn 0.2154 -0.939482 -0.266365
vn 0.118748 -0.735923 -0.666524
vn 0.126255 -0.479049 -0.868648
vn 0.942991 0.268868 -0.19599
vn 0.94641 0.245613 -0.209601
vn -0.432661 0.34199 -0.834162
vn -0.78396 0.290139 -0.548814
vn -0.919523 0.292642 -0.262185
vn -0.943693 0.317423 -0.0931119
vn -0.857814 0.510636 -0.0582293
vn -0.845271 0.503525 -0.178747
vn -0.740013 0.461501 -0.489212
vn -0.338633 0.485671 -0.805872
vn 0.18247 0.52089 -0.833857
vn 0.223579 0.41374 -0.882473
vn 0.642201 0.49321 -0.586749
vn 0.793298 0.316141 -0.52028
vn 0.812403 0.281289 -0.510727
vn 0.531266 -0.459944 -0.711447
vn 0.865139 0.448347 -0.224616
vn 0.49733 -0.297891 -0.814783
vn -0.426008 -0.0834376 -0.900845
vn -0.774255 0.025483 -0.632343
vn -0.932737 0.0538041 -0.356426
vn -0.813929 -0.0385754 0.579638
vn 0.516556 -0.0485244 -0.854854
vn -0.389203 -0.0930509 -0.91641
vn -0.783074 -0.139592 -0.606037
vn -0.919218 -0.150456 -0.363811
vn -0.870174 -0.238166 0.431288
vn -0.0334483 -0.125675 0.991485
vn -0.0353099 -0.172002 0.984436
vn -0.109562 -0.0928373 0.989624
vn -0.0887783 -0.148228 0.984954
vn -0.21659 -0.725059 0.653706
vn -0.111515 -0.827204 0.550707
vn -0.123539 -0.992309 -0.000579852
vn 0.765831 -0.618122 -0.177129
vn 0.308268 -0.926695 -0.214911
vn 0.508103 -0.819147 -0.26603
vn 0.964812 -0.101443 -0.242531
vn 0.978576 -0.169164 -0.11713
vn -0.669666 0.742284 -0.0237119
vn -0.270684 0.959805 -0.0741858
vn 0.31661 0.944337 -0.0893602
vn 0.646093 0.691464 -0.323174
vn 0.239791 0.756824 -0.608044
vn 0.0108769 0.76656 -0.642081
vn -0.519286 0.639055 -0.567407
vn -0.706024 0.673618 -0.218562
vn -0.668813 0.743424 -0.0030759
vn -0.268832 0.956278 -0.115162
vn 0.179257 0.932542 -0.313421
vn -0.355787 0.916388 -0.183436
vn 0.0887895 0.847902 -0.522666
vn 0.0101565 0.808176 -0.588853
vn 0.654958 -0.755638 0.00393689
vn -0.844569 0.535356 -0.00506604
vn 0.698993 0.714174 -0.0369328
vn 0.635151 0.493332 0.594287
vn -0.0979034 -0.0930204 -0.990814
vn -0.669981 0.742217 0.0154616
vn -0.271308 0.959882 0.0708406
vn 0.315616 0.944336 0.0928218
vn 0.642395 0.691394 0.33061
vn 0.217543 0.687849 0.692487
vn 0.00333792 0.766676 0.642026
vn -0.528564 0.579791 0.62005
vn -0.708172 0.674064 0.210071
vn -0.668906 0.743332 -0.0047102
vn -0.269933 0.956368 0.111791
vn 0.204093 0.953667 0.221054
vn -0.357905 0.916578 0.178294
vn 0.0829608 0.848058 0.52337
vn 0.00324535 0.808176 0.588933
vn 0.698506 0.714188 0.0449895
vn -0.665209 0.745563 -0.040416
vn -0.298577 0.954191 -0.0192832
vn 0.285565 0.958137 -0.0206336
vn 0.500902 0.765423 -0.404009
vn 0.225757 0.687286 -0.690414
vn -0.0795349 0.658965 -0.747957
vn -0.521187 0.579819 -0.626238
vn -0.72253 0.660415 -0.204456
vn -0.7059 0.705396 -0.0641929
vn -0.378812 0.877398 -0.294406
vn 0.206858 0.953623 -0.218659
vn -0.383041 0.891688 -0.24119
vn 0.123608 0.919101 -0.37413
vn -0.356485 0.860096 -0.364901
vn 0.670403 0.739522 -0.0605564

# Mesh 'RFinger13_RFinger13' with 324 faces
g RFinger13_RFinger13
usemtl MainSkin
f  1/1/1 2/1/2 3/1/3
f  4/1/4 5/1/5 2/1/2
f  6/1/6 5/1/5 4/1/4
f  7/1/7 8/1/8 6/1/6
f  8/1/8 7/1/7 9/1/9
f  10/1/10 11/1/11 5/1/5
f  12/1/12 10/1/10 6/1/6
f  8/1/8 13/1/13 14/1/14
f  15/1/15 16/1/16 17/1/17
f  18/1/18 3/1/3 19/1/19
f  19/1/19 20/1/20 21/1/21
f  22/1/22 2/1/2 5/1/5
f  23/1/23 24/1/24 22/1/22
f  11/1/11 10/1/10 25/1/25
f  10/1/10 12/1/12 26/1/26
f  27/1/27 26/1/26 12/1/12
f  26/1/26 27/1/27 28/1/28
f  25/1/25 26/1/26 29/1/29
f  23/1/23 25/1/25 30/1/30
f  24/1/24 31/1/31 32/1/32
f  24/1/24 23/1/23 33/1/33
f  34/1/34 35/1/35 36/1/36
f  37/1/37 4/1/4 1/1/1
f  4/1/4 37/1/37 38/1/38
f  39/1/39 38/1/38 40/1/40
f  40/1/40 41/1/41 9/1/9
f  42/1/42 41/1/41 40/1/40
f  43/1/43 40/1/40 38/1/38
f  37/1/37 44/1/44 45/1/45
f  44/1/44 37/1/37 46/1/46
f  47/1/47 46/1/46 48/1/48
f  49/1/49 3/1/3 18/1/18
f  3/1/3 2/1/2 22/1/22
f  22/1/22 24/1/24 20/1/20
f  32/1/32 50/1/50 21/1/21
f  49/1/49 48/1/48 46/1/46
f  48/1/48 51/1/51 52/1/52
f  31/1/31 33/1/33 53/1/53
f  54/1/54 53/1/53 33/1/33
f  54/1/54 30/1/30 29/1/29
f  55/1/55 56/1/56 29/1/29
f  57/1/57 58/1/58 59/1/59
f  54/1/54 60/1/60 57/1/57
f  56/1/56 61/1/61 60/1/60
f  56/1/56 55/1/55 62/1/62
f  63/1/63 62/1/62 55/1/55
f  63/1/63 64/1/64 65/1/65
f  64/1/64 55/1/55 28/1/28
f  64/1/64 66/1/66 67/1/67
f  68/1/68 69/1/69 66/1/66
f  67/1/67 66/1/66 69/1/69
f  31/1/31 59/1/59 70/1/70
f  32/1/32 70/1/70 71/1/71
f  72/1/72 70/1/70 59/1/59
f  70/1/70 72/1/72 73/1/73
f  34/1/34 51/1/51 48/1/48
f  74/1/74 75/1/74 42/1/74
f  76/1/75 74/1/75 77/1/75
f  78/1/76 76/1/76 79/1/76
f  80/1/77 81/1/77 82/1/77
f  83/1/78 47/1/78 82/1/78
f  84/1/79 44/1/79 47/1/79
f  84/1/80 85/1/80 45/1/80
f  45/1/81 85/1/81 86/1/81
f  42/1/82 43/1/82 86/1/82
f  77/1/83 86/1/83 87/1/83
f  87/1/84 81/1/84 80/1/84
f  88/1/85 87/1/85 86/1/85
f  81/1/86 87/1/86 88/1/86
f  88/1/87 85/1/87 84/1/87
f  34/1/34 18/1/18 17/1/17
f  15/1/15 21/1/21 89/1/88
f  89/1/88 21/1/21 50/1/50
f  90/1/89 52/1/52 51/1/51
f  28/1/28 27/1/27 91/1/90
f  27/1/27 14/1/14 92/1/91
f  14/1/14 13/1/13 93/1/92
f  13/1/13 9/1/9 94/1/93
f  94/1/93 9/1/9 41/1/41
f  95/1/94 41/1/41 42/1/42
f  78/1/95 80/1/95 52/1/95
f  96/1/96 97/1/97 98/1/98
f  99/1/99 98/1/98 97/1/97
f  100/1/100 101/1/101 99/1/99
f  102/1/102 101/1/101 100/1/100
f  103/1/103 104/1/104 105/1/105
f  106/1/106 100/1/100 107/1/107
f  108/1/108 103/1/103 100/1/100
f  103/1/103 108/1/108 109/1/109
f  110/1/110 111/1/111 17/1/17
f  111/1/111 110/1/110 112/1/112
f  112/1/112 110/1/110 113/1/113
f  107/1/107 97/1/97 114/1/114
f  115/1/115 116/1/116 114/1/114
f  116/1/116 115/1/115 117/1/117
f  106/1/106 117/1/117 118/1/118
f  119/1/119 109/1/109 108/1/108
f  118/1/118 120/1/120 121/1/121
f  117/1/117 122/1/122 120/1/120
f  115/1/115 123/1/123 122/1/122
f  124/1/124 125/1/125 126/1/126
f  123/1/123 115/1/115 126/1/126
f  127/1/127 128/1/128 36/1/36
f  98/1/98 99/1/99 129/1/129
f  99/1/99 101/1/101 130/1/130
f  101/1/101 102/1/102 131/1/131
f  105/1/105 132/1/132 131/1/131
f  133/1/133 134/1/134 131/1/131
f  134/1/134 135/1/135 130/1/130
f  129/1/129 130/1/130 135/1/135
f  136/1/136 137/1/137 138/1/138
f  137/1/137 139/1/139 140/1/140
f  111/1/111 96/1/96 141/1/141
f  96/1/96 112/1/112 114/1/114
f  114/1/114 112/1/112 142/1/142
f  124/1/124 142/1/142 113/1/113
f  138/1/138 140/1/140 141/1/141
f  143/1/143 128/1/128 140/1/140
f  125/1/125 144/1/144 145/1/145
f  146/1/146 122/1/122 123/1/123
f  146/1/146 147/1/147 120/1/120
f  148/1/148 121/1/121 120/1/120
f  144/1/144 149/1/149 150/1/150
f  146/1/146 145/1/145 150/1/150
f  147/1/147 146/1/146 151/1/151
f  147/1/147 152/1/152 153/1/153
f  154/1/154 155/1/155 148/1/148
f  154/1/154 156/1/156 157/1/157
f  155/1/155 158/1/158 121/1/121
f  155/1/155 157/1/157 159/1/159
f  68/1/68 121/1/121 158/1/158
f  159/1/159 160/1/160 69/1/69
f  125/1/125 124/1/124 161/1/161
f  124/1/124 162/1/162 163/1/163
f  164/1/164 149/1/149 144/1/144
f  161/1/161 163/1/163 165/1/165
f  140/1/140 128/1/128 127/1/127
f  74/1/166 166/1/166 133/1/166
f  76/1/167 167/1/167 166/1/167
f  78/1/168 168/1/168 167/1/168
f  168/1/169 143/1/169 139/1/169
f  139/1/170 137/1/170 169/1/170
f  170/1/171 169/1/171 137/1/171
f  135/1/172 171/1/172 170/1/172
f  135/1/173 134/1/173 172/1/173
f  133/1/174 166/1/174 172/1/174
f  166/1/175 167/1/175 173/1/175
f  168/1/176 174/1/176 173/1/176
f  175/1/177 171/1/177 172/1/177
f  174/1/178 169/1/178 175/1/178
f  175/1/179 169/1/179 170/1/179
f  127/1/127 35/1/35 17/1/17
f  110/1/110 16/1/16 89/1/88
f  89/1/88 176/1/180 162/1/162
f  90/1/89 36/1/36 128/1/128
f  121/1/121 68/1/68 91/1/90
f  119/1/119 91/1/90 92/1/91
f  109/1/109 92/1/91 93/1/92
f  104/1/104 93/1/92 94/1/93
f  94/1/93 95/1/94 132/1/132
f  95/1/94 75/1/181 133/1/133
f  78/1/182 90/1/182 143/1/182
f  49/1/49 1/1/1 3/1/3
f  1/1/1 4/1/4 2/1/2
f  39/1/39 6/1/6 4/1/4
f  39/1/39 7/1/7 6/1/6
f  13/1/13 8/1/8 9/1/9
f  6/1/6 10/1/10 5/1/5
f  8/1/8 12/1/12 6/1/6
f  12/1/12 8/1/8 14/1/14
f  18/1/18 15/1/15 17/1/17
f  15/1/15 18/1/18 19/1/19
f  15/1/15 19/1/19 21/1/21
f  11/1/11 22/1/22 5/1/5
f  11/1/11 23/1/23 22/1/22
f  23/1/23 11/1/11 25/1/25
f  25/1/25 10/1/10 26/1/26
f  14/1/14 27/1/27 12/1/12
f  29/1/29 26/1/26 28/1/28
f  30/1/30 25/1/25 29/1/29
f  33/1/33 23/1/23 30/1/30
f  20/1/20 24/1/24 32/1/32
f  31/1/31 24/1/24 33/1/33
f  51/1/51 34/1/34 36/1/36
f  46/1/46 37/1/37 1/1/1
f  39/1/39 4/1/4 38/1/38
f  7/1/7 39/1/39 40/1/40
f  7/1/7 40/1/40 9/1/9
f  43/1/43 42/1/42 40/1/40
f  45/1/45 43/1/43 38/1/38
f  38/1/38 37/1/37 45/1/45
f  47/1/47 44/1/44 46/1/46
f  82/1/183 47/1/47 48/1/48
f  34/1/34 49/1/49 18/1/18
f  19/1/19 3/1/3 22/1/22
f  19/1/19 22/1/22 20/1/20
f  20/1/20 32/1/32 21/1/21
f  1/1/1 49/1/49 46/1/46
f  82/1/183 48/1/48 52/1/52
f  59/1/59 31/1/31 53/1/53
f  30/1/30 54/1/54 33/1/33
f  56/1/56 54/1/54 29/1/29
f  28/1/28 55/1/55 29/1/29
f  53/1/53 57/1/57 59/1/59
f  53/1/53 54/1/54 57/1/57
f  54/1/54 56/1/56 60/1/60
f  61/1/61 56/1/56 62/1/62
f  64/1/64 63/1/63 55/1/55
f  177/1/184 63/1/63 65/1/65
f  66/1/66 64/1/64 28/1/28
f  65/1/65 64/1/64 67/1/67
f  28/1/28 68/1/68 66/1/66
f  160/1/160 67/1/67 69/1/69
f  32/1/32 31/1/31 70/1/70
f  50/1/50 32/1/32 71/1/71
f  58/1/58 72/1/72 59/1/59
f  71/1/71 70/1/70 73/1/73
f  49/1/49 34/1/34 48/1/48
f  77/1/185 74/1/185 42/1/185
f  79/1/186 76/1/186 77/1/186
f  80/1/187 78/1/187 79/1/187
f  52/1/188 80/1/188 82/1/188
f  81/1/189 83/1/189 82/1/189
f  83/1/190 84/1/190 47/1/190
f  44/1/191 84/1/191 45/1/191
f  43/1/192 45/1/192 86/1/192
f  77/1/193 42/1/193 86/1/193
f  79/1/194 77/1/194 87/1/194
f  79/1/195 87/1/195 80/1/195
f  85/1/196 88/1/196 86/1/196
f  83/1/197 81/1/197 88/1/197
f  83/1/198 88/1/198 84/1/198
f  35/1/35 34/1/34 17/1/17
f  16/1/16 15/1/15 89/1/88
f  176/1/180 89/1/88 50/1/50
f  36/1/36 90/1/89 51/1/51
f  68/1/68 28/1/28 91/1/90
f  91/1/90 27/1/27 92/1/91
f  92/1/91 14/1/14 93/1/92
f  93/1/92 13/1/13 94/1/93
f  95/1/94 94/1/93 41/1/41
f  75/1/181 95/1/94 42/1/42
f  90/1/199 78/1/199 52/1/199
f  141/1/141 96/1/96 98/1/98
f  107/1/107 99/1/99 97/1/97
f  107/1/107 100/1/100 99/1/99
f  103/1/103 102/1/102 100/1/100
f  102/1/102 103/1/103 105/1/105
f  116/1/116 106/1/106 107/1/107
f  106/1/106 108/1/108 100/1/100
f  104/1/104 103/1/103 109/1/109
f  16/1/16 110/1/110 17/1/17
f  96/1/96 111/1/111 112/1/112
f  142/1/142 112/1/112 113/1/113
f  116/1/116 107/1/107 114/1/114
f  126/1/126 115/1/115 114/1/114
f  106/1/106 116/1/116 117/1/117
f  108/1/108 106/1/106 118/1/118
f  118/1/118 119/1/119 108/1/108
f  119/1/119 118/1/118 121/1/121
f  118/1/118 117/1/117 120/1/120
f  117/1/117 115/1/115 122/1/122
f  142/1/142 124/1/124 126/1/126
f  125/1/125 123/1/123 126/1/126
f  35/1/35 127/1/127 36/1/36
f  138/1/138 98/1/98 129/1/129
f  129/1/129 99/1/99 130/1/130
f  130/1/130 101/1/101 131/1/131
f  102/1/102 105/1/105 131/1/131
f  132/1/132 133/1/133 131/1/131
f  131/1/131 134/1/134 130/1/130
f  136/1/136 129/1/129 135/1/135
f  129/1/129 136/1/136 138/1/138
f  138/1/138 137/1/137 140/1/140
f  127/1/127 111/1/111 141/1/141
f  97/1/97 96/1/96 114/1/114
f  126/1/126 114/1/114 142/1/142
f  162/1/162 124/1/124 113/1/113
f  98/1/98 138/1/138 141/1/141
f  139/1/139 143/1/143 140/1/140
f  123/1/123 125/1/125 145/1/145
f  145/1/145 146/1/146 123/1/123
f  122/1/122 146/1/146 120/1/120
f  147/1/147 148/1/148 120/1/120
f  145/1/145 144/1/144 150/1/150
f  151/1/151 146/1/146 150/1/150
f  152/1/152 147/1/147 151/1/151
f  148/1/148 147/1/147 153/1/153
f  153/1/153 154/1/154 148/1/148
f  155/1/155 154/1/154 157/1/157
f  148/1/148 155/1/155 121/1/121
f  158/1/158 155/1/155 159/1/159
f  69/1/69 68/1/68 158/1/158
f  158/1/158 159/1/159 69/1/69
f  144/1/144 125/1/125 161/1/161
f  161/1/161 124/1/124 163/1/163
f  161/1/161 164/1/164 144/1/144
f  164/1/164 161/1/161 165/1/165
f  141/1/141 140/1/140 127/1/127
f  75/1/200 74/1/200 133/1/200
f  74/1/201 76/1/201 166/1/201
f  76/1/202 78/1/202 167/1/202
f  174/1/203 168/1/203 139/1/203
f  174/1/204 139/1/204 169/1/204
f  136/1/205 170/1/205 137/1/205
f  136/1/206 135/1/206 170/1/206
f  171/1/207 135/1/207 172/1/207
f  134/1/208 133/1/208 172/1/208
f  172/1/209 166/1/209 173/1/209
f  167/1/210 168/1/210 173/1/210
f  173/1/211 175/1/211 172/1/211
f  173/1/212 174/1/212 175/1/212
f  171/1/213 175/1/213 170/1/213
f  111/1/111 127/1/127 17/1/17
f  113/1/113 110/1/110 89/1/88
f  113/1/113 89/1/88 162/1/162
f  143/1/143 90/1/89 128/1/128
f  119/1/119 121/1/121 91/1/90
f  109/1/109 119/1/119 92/1/91
f  104/1/104 109/1/109 93/1/92
f  105/1/105 104/1/104 94/1/93
f  105/1/105 94/1/93 132/1/132
f  132/1/132 95/1/94 133/1/133
f  168/1/214 78/1/214 143/1/214

