# File produced by Open Asset Import Library (http://www.assimp.sf.net)
# (assimp v3.2.0)

mtllib RFinger23.mtl

# 177 vertex positions
v  0.00110263 0.0124139 0.00973081
v  0.00171596 0.00297356 0.0105695
v  0.00474763 0.00242007 0.00876993
v  -0.00322407 0.0107486 0.0095486
v  -0.00312352 0.00406331 0.0105097
v  -0.00772309 0.00595069 0.00663453
v  -0.00846267 0.00857884 0.0039053
v  -0.00878197 0.00607437 0.00380206
v  -0.0089817 0.00853342 0.00164616
v  -0.00744069 0.00498372 0.00664621
v  -0.00332546 0.00361282 0.0100298
v  -0.00854301 0.00499695 0.00377238
v  -0.00927395 0.00610727 0.00160628
v  -0.00888282 0.00508785 0.00155252
v  0.00690216 0.000646292 0.00387609
v  0.00734299 0.000177867 -9.3725e-06
v  0.0071789 0.00161272 -6.27029e-05
v  0.00684643 0.00167716 0.00394654
v  0.004897 0.00158214 0.0086965
v  0.00437766 -0.0012787 0.00940466
v  0.00672609 -0.00247991 0.0058192
v  0.00138819 0.0022738 0.0102487
v  -0.00348002 5.27586e-05 0.0101419
v  0.000685281 -0.00146049 0.0105286
v  -0.00756121 0.00212878 0.00668252
v  -0.00855589 0.00247645 0.00399166
v  -0.00899887 0.00282884 0.00127161
v  -0.00775081 0.00129223 0.000993513
v  -0.0073936 0.00117284 0.00379896
v  -0.00639671 0.00067015 0.00583583
v  4.37537e-05 -0.00275773 0.010318
v  0.00309467 -0.00119746 0.00823778
v  -0.00297326 -0.00117928 0.00898969
v  0.00487483 0.0129901 0.00320661
v  0.0052799 0.0132056 -0.000488829
v  0.00476187 0.014144 -0.000525701
v  -0.00327784 0.0121273 0.00881124
v  -0.00709438 0.0101464 0.00615054
v  -0.00745142 0.00907195 0.00626045
v  -0.00822133 0.00952822 0.00368655
v  -0.00873035 0.00926089 0.00129765
v  -0.00684661 0.0159172 0.000646861
v  -0.00659799 0.0160925 0.00237519
v  -0.00284654 0.0161879 0.00748008
v  -0.00584126 0.0162148 0.00481021
v  0.000639804 0.0136711 0.00895226
v  0.000205247 0.0164352 0.00761914
v  0.00357163 0.0140936 0.00606054
v  0.00402796 0.0127319 0.00642437
v  0.00585026 -0.00316411 0.00542384
v  0.0044291 0.0141714 0.00329655
v  0.00407469 0.0167677 0.00362033
v  -0.00346607 -0.00368559 0.00897259
v  -0.0075298 -0.00305366 0.00575519
v  -0.00910389 -0.00305104 0.00139296
v  -0.00851792 -0.00302088 0.00386846
v  -0.00292557 -0.00774252 0.00894451
v  -0.000381989 -0.00636107 0.00893539
v  -0.000563089 -0.00452441 0.00894952
v  -0.00651657 -0.00963086 0.00580913
v  -0.00731725 -0.0101637 0.00404376
v  -0.00772715 -0.0101826 0.00296754
v  -0.00377655 -0.00859821 0.00254428
v  -0.00450933 -0.00103879 0.00136757
v  -0.00136834 -0.00274873 0.00154442
v  -0.00465435 -0.000389798 0.000943383
v  -0.00132757 -0.000723954 0.00115567
v  -0.00768971 0.0012244 -0.0001357
v  -0.00457287 -0.000446735 -5.78201e-05
v  0.000372961 -0.00269932 0.00725842
v  0.000943525 -0.00211197 0.00555164
v  -3.59823e-05 -0.0063554 0.00747806
v  -5.27399e-06 -0.00635153 0.00554335
v  -0.00387406 0.0185796 -0.000735535
v  -0.00682741 0.0159447 -0.000658691
v  -0.000865353 0.0195215 -0.000751734
v  -0.00386071 0.0186154 0.000858352
v  0.00235629 0.018563 -0.000698259
v  -0.000734116 0.0194997 0.000797724
v  0.00240266 0.0182754 0.00366777
v  0.00173461 0.0179296 0.00523913
v  0.00288308 0.0167839 0.00608718
v  6.62249e-05 0.0175491 0.00618881
v  -0.00274485 0.0175543 0.00619739
v  -0.00488734 0.0173783 0.004318
v  -0.00512671 0.0175501 0.00263935
v  -0.00118536 0.0192143 0.00275815
v  -0.00167102 0.0185676 0.00469089
v  0.00766814 -0.00196844 6.97109e-05
v  0.00464958 0.0163212 -0.000604119
v  -0.00901824 0.00275326 -0.000198717
v  -0.00896096 0.00506127 -0.000280969
v  -0.00933766 0.00600326 -0.000317339
v  -0.00906885 0.00844073 -0.000402646
v  -0.00861847 0.0094676 -0.000437228
v  0.00485152 0.00178403 -0.00895685
v  0.00184262 0.0022068 -0.0108274
v  0.00122309 0.0116819 -0.010675
v  -0.0031057 0.0100324 -0.0104238
v  -0.0076412 0.00545448 -0.00722688
v  -0.00737333 0.00859356 -0.00707447
v  -0.00841212 0.00827056 -0.00470227
v  -0.00873297 0.00577903 -0.00442356
v  -0.00925118 0.00596857 -0.00224167
v  -0.00895804 0.00838649 -0.00245231
v  -0.00735849 0.00448895 -0.00716639
v  -0.00299686 0.00329536 -0.0109029
v  -0.00849432 0.0047068 -0.00431418
v  -0.00886136 0.00495583 -0.0021103
v  0.0069474 0.000366453 -0.00392425
v  0.00689328 0.0013895 -0.00406802
v  0.00500077 0.00095429 -0.00882244
v  0.0067938 -0.00289071 -0.00563997
v  0.00151104 0.00153136 -0.0104617
v  -0.00335967 -0.000678381 -0.0102528
v  -0.00320476 0.00288051 -0.0103939
v  -0.0074802 0.00163865 -0.00699949
v  -0.00850689 0.00217646 -0.00435287
v  -0.00898117 0.00272268 -0.00167024
v  -0.00734681 0.000891044 -0.00405317
v  -0.0077371 0.00121105 -0.00126725
v  -0.00632727 0.000244093 -0.00603658
v  -0.00286776 -0.00182426 -0.00900918
v  0.00319117 -0.00178593 -0.00818717
v  0.000165388 -0.00349307 -0.0101862
v  0.000809408 -0.0022139 -0.0104815
v  0.00491852 0.0127257 -0.00416386
v  0.00447416 0.0138972 -0.00434363
v  -0.00316781 0.011461 -0.0097878
v  -0.00701708 0.00967377 -0.00703728
v  -0.00817299 0.00923324 -0.00454986
v  -0.00870949 0.00913727 -0.00215364
v  -0.00683141 0.0158239 -0.0019592
v  -0.00656146 0.0158747 -0.00369251
v  -0.00577634 0.0158228 -0.0061208
v  -0.00275069 0.0156059 -0.00874668
v  0.000303297 0.015844 -0.00886661
v  0.000751797 0.0129924 -0.00999337
v  0.00296259 0.0163021 -0.00733179
v  0.00364947 0.0136214 -0.00710535
v  0.0041089 0.012238 -0.00736541
v  0.00448829 -0.00195092 -0.00933027
v  0.0041241 0.0164641 -0.00485665
v  -0.000458632 -0.00515699 -0.00870085
v  -0.00336128 -0.00432348 -0.00881916
v  -0.00746167 -0.00346446 -0.00570309
v  -0.00847238 -0.00329679 -0.00383532
v  -0.00908726 -0.00315004 -0.00137049
v  -0.000278561 -0.00698787 -0.00855446
v  -0.00282294 -0.00836849 -0.00849384
v  -0.00645083 -0.0100289 -0.0052734
v  -0.00727344 -0.0104337 -0.00348461
v  -0.00769484 -0.010376 -0.00241446
v  -0.00374997 -0.00876331 -0.0020591
v  -0.00449318 -0.00113964 -0.0014357
v  -0.000873918 -0.00708252 -0.00138003
v  -0.00135022 -0.0028559 -0.00145209
v  -0.00464201 -0.000462101 -0.00106108
v  -0.00131309 -0.000808755 -0.00120884
v  -0.000984096 -0.000952655 -1.88263e-05
v  0.000457935 -0.00321555 -0.00713468
v  0.00591302 -0.00354504 -0.00520706
v  0.00100869 -0.00250655 -0.00546843
v  4.98623e-05 -0.00687796 -0.00709665
v  5.77828e-05 -0.00673628 -0.00516665
v  -0.00384235 0.0185004 -0.00232726
v  -0.000716746 0.0193887 -0.002294
v  0.00245333 0.0179635 -0.00503105
v  0.000146535 0.0170571 -0.00752181
v  -0.00266349 0.0170604 -0.00756377
v  -0.00482857 0.0170183 -0.0057019
v  -0.00508714 0.0173112 -0.00404334
v  -0.00114393 0.0189637 -0.00423443
v  0.00180364 0.0175064 -0.0065819
v  -0.00160712 0.0181793 -0.00612062
v  0.00609136 -0.00343895 0.000113089
v  -0.000892633 -0.00696939 0.00178015

# 1 UV coordinates
vt 4.61149 0.499573 0

# 214 vertex normals
vn 0.287728 0.338267 0.895962
vn 0.278359 -0.131687 0.951384
vn 0.752953 0.0108951 0.657949
vn -0.380047 0.251106 0.890194
vn -0.339946 -0.160192 0.926695
vn -0.823603 -0.0513626 0.564776
vn -0.935728 0.214454 0.279916
vn -0.958342 -0.0743126 0.275704
vn -0.964568 0.233344 0.122989
vn -0.813532 -0.123691 0.568194
vn -0.457228 -0.18308 0.870266
vn -0.959227 -0.116001 0.257637
vn -0.987457 -0.102725 0.119724
vn -0.982177 -0.155431 0.105502
vn 0.967711 0.0843226 0.237403
vn 0.996674 0.0813318 0.00289923
vn 0.991913 0.126713 0.0012207
vn 0.964812 0.122043 0.232826
vn 0.7369 0.013184 0.675832
vn 0.522843 -0.433668 0.733848
vn 0.766228 -0.5197 0.377819
vn 0.133396 -0.178655 0.974822
vn -0.461409 -0.27369 0.843898
vn 0.116153 -0.447401 0.886746
vn -0.814142 -0.29957 0.497391
vn -0.919919 -0.332652 0.207495
vn -0.948943 -0.307291 0.0710471
vn -0.806696 -0.567522 -0.164739
vn -0.932951 -0.265084 0.243507
vn -0.81399 -0.304056 0.494858
vn 0.110843 -0.711325 0.694052
vn 0.212287 -0.929106 0.302713
vn -0.536577 -0.308664 0.785333
vn 0.940611 0.276192 0.197302
vn 0.955596 0.294565 -0.00491345
vn 0.967925 0.251137 -0.00329596
vn -0.442457 0.371563 0.816157
vn -0.790368 0.309336 0.528733
vn -0.805902 0.21659 0.550951
vn -0.922605 0.30137 0.240699
vn -0.944792 0.319926 0.0705283
vn -0.858425 0.51204 0.029664
vn -0.847316 0.509293 0.150517
vn -0.348125 0.514145 0.783837
vn -0.74575 0.478469 0.463546
vn 0.213111 0.445296 0.869625
vn 0.172521 0.550554 0.816736
vn 0.787072 0.33491 0.517991
vn 0.806299 0.299875 0.509842
vn 0.305856 -0.918149 0.251808
vn 0.943877 0.253334 0.211798
vn 0.862484 0.456374 0.218573
vn -0.436598 -0.051149 0.89816
vn -0.781701 0.0478835 0.621784
vn -0.807123 -0.0597552 -0.587298
vn -0.936857 0.0661336 0.343303
vn -0.399884 -0.060274 0.914548
vn 0.506516 -0.0177007 0.862026
vn 0.487442 -0.268227 0.830897
vn -0.790246 -0.118107 0.601245
vn -0.923429 -0.137699 0.358165
vn -0.865169 -0.253914 -0.432356
vn -0.0218207 -0.161229 -0.986663
vn -0.0236824 -0.207343 -0.977966
vn -0.0771202 -0.183538 -0.979949
vn -0.20896 -0.748253 -0.629597
vn -0.104953 -0.846492 -0.521927
vn -0.625935 -0.779473 0.0242317
vn -0.295999 -0.954619 0.0325022
vn 0.763604 -0.611133 0.208319
vn 0.50502 -0.808801 0.301248
vn 0.961852 -0.0922269 0.257454
vn 0.977142 -0.164403 0.134648
vn -0.665641 0.746249 0.00589937
vn -0.298786 0.954132 -0.0189193
vn 0.285299 0.958379 -0.0106885
vn 0.495597 0.779856 0.382371
vn 0.23245 0.778181 0.583439
vn -0.0884666 0.685227 0.722937
vn -0.525974 0.658795 0.537904
vn -0.724992 0.667026 0.171648
vn -0.70618 0.707404 0.0298264
vn -0.382348 0.887042 0.258779
vn 0.175287 0.943221 0.282149
vn -0.386018 0.899639 0.204057
vn 0.119571 0.932079 0.341953
vn -0.360808 0.872457 0.3296
vn 0.941893 -0.335368 0.0175481
vn 0.911222 0.411756 -0.00939965
vn -0.944578 -0.328196 0.00613421
vn -0.984954 -0.172704 0.000396741
vn -0.991211 -0.132206 -0.0010376
vn -0.969878 0.243019 -0.0144047
vn -0.948882 0.315073 -0.0169072
vn 0.669751 0.741413 0.0417217
vn 0.760674 -0.0355846 -0.648122
vn 0.28959 -0.199133 -0.936186
vn 0.29838 0.273293 -0.914457
vn -0.369457 0.186499 -0.910306
vn -0.81695 -0.0921964 -0.569262
vn -0.799249 0.176153 -0.574572
vn -0.93231 0.193426 -0.305551
vn -0.955016 -0.0945768 -0.281015
vn -0.985992 -0.111606 -0.123722
vn -0.962951 0.223609 -0.150731
vn -0.806787 -0.164464 -0.567431
vn -0.329051 -0.226325 -0.916776
vn -0.956145 -0.134587 -0.260079
vn -0.980926 -0.162969 -0.105747
vn 0.970458 0.0676595 -0.231452
vn 0.967528 0.105563 -0.22956
vn 0.744957 -0.0344554 -0.666188
vn 0.77044 -0.545152 -0.330454
vn 0.144871 -0.247719 -0.957915
vn -0.451582 -0.333506 -0.82754
vn -0.447096 -0.245125 -0.860225
vn -0.808344 -0.334574 -0.484359
vn -0.917539 -0.347026 -0.194006
vn -0.948119 -0.312113 -0.0600604
vn -0.930113 -0.282266 -0.23484
vn -0.80871 -0.554704 0.195502
vn -0.808252 -0.338969 -0.481429
vn -0.527482 -0.364299 -0.767449
vn 0.2154 -0.948393 -0.232643
vn 0.118748 -0.75927 -0.639821
vn 0.126255 -0.509781 -0.850978
vn 0.942991 0.261727 -0.205481
vn 0.94641 0.237983 -0.218238
vn -0.432661 0.31196 -0.845851
vn -0.78396 0.270333 -0.558824
vn -0.919553 0.28309 -0.2725
vn -0.943693 0.313883 -0.104404
vn -0.857814 0.508225 -0.0764183
vn -0.845271 0.496811 -0.1966
vn -0.740013 0.443709 -0.505386
vn -0.338633 0.456557 -0.822688
vn 0.18244 0.490768 -0.851955
vn 0.223579 0.381939 -0.896695
vn 0.642201 0.471938 -0.603992
vn 0.793298 0.297342 -0.531266
vn 0.812372 0.262886 -0.520463
vn 0.531266 -0.485061 -0.694571
vn 0.865139 0.440046 -0.240455
vn 0.497299 -0.326792 -0.803644
vn -0.426008 -0.115574 -0.897275
vn -0.774255 0.00286871 -0.632832
vn -0.932737 0.0410169 -0.358135
vn -0.813929 -0.0178228 0.580645
vn 0.516556 -0.0790429 -0.852534
vn -0.389203 -0.125736 -0.912503
vn -0.783074 -0.161168 -0.600635
vn -0.919218 -0.163304 -0.358196
vn -0.870174 -0.222632 0.439528
vn -0.0334483 -0.0901822 0.995361
vn -0.0353099 -0.136723 0.989959
vn -0.109562 -0.0574053 0.992309
vn -0.0887783 -0.112949 0.989624
vn -0.21659 -0.701254 0.67919
vn -0.111515 -0.807001 0.579913
vn -0.123539 -0.991699 0.0348521
vn 0.765831 -0.624073 -0.154912
vn 0.308268 -0.933775 -0.181646
vn 0.508103 -0.82812 -0.236549
vn 0.964812 -0.11005 -0.238746
vn 0.978576 -0.173284 -0.111026
vn -0.66967 0.740959 -0.0502082
vn -0.270689 0.956541 -0.108423
vn 0.316604 0.940544 -0.123039
vn 0.646087 0.679482 -0.347673
vn 0.239783 0.734622 -0.634692
vn 0.0108696 0.743134 -0.669054
vn -0.519292 0.618376 -0.58987
vn -0.706027 0.665378 -0.242482
vn -0.668817 0.742836 -0.0296294
vn -0.268837 0.951552 -0.149247
vn 0.179249 0.920751 -0.346536
vn -0.355792 0.909249 -0.21605
vn 0.0887818 0.82869 -0.552621
vn 0.0101492 0.786626 -0.617347
vn 0.654958 -0.754997 0.0308847
vn -0.844569 0.534837 -0.0241706
vn 0.698987 0.712405 -0.0624261
vn 0.635151 0.514267 0.576281
vn -0.0979034 -0.128361 -0.986877
vn -0.669985 0.742292 -0.0110608
vn -0.271314 0.961798 0.0365041
vn 0.315612 0.947051 0.0590263
vn 0.642392 0.702768 0.305696
vn 0.217542 0.712149 0.667473
vn 0.00333702 0.789122 0.614228
vn -0.528564 0.601568 0.598946
vn -0.708173 0.681135 0.185862
vn -0.66891 0.742686 -0.031257
vn -0.269938 0.959749 0.0775573
vn 0.204089 0.960956 0.186845
vn -0.357909 0.92236 0.14544
vn 0.0829571 0.866213 0.49274
vn 0.00324386 0.828699 0.559685
vn 0.698501 0.715345 0.0194448
vn -0.665212 0.743641 -0.0670226
vn -0.298583 0.952891 -0.0533536
vn 0.28556 0.95679 -0.0548487
vn 0.500895 0.750506 -0.431099
vn 0.225749 0.662186 -0.714526
vn -0.0795427 0.631824 -0.77102
vn -0.521193 0.557075 -0.646549
vn -0.722535 0.652686 -0.227912
vn -0.705903 0.702651 -0.0893466
vn -0.378819 0.866318 -0.325561
vn 0.206851 0.945205 -0.252586
vn -0.383048 0.8825 -0.272889
vn 0.1236 0.90515 -0.406726
vn -0.356491 0.846511 -0.395391
vn 0.670398 0.73689 -0.0869386

# Mesh 'RFinger23_RFinger23' with 324 faces
g RFinger23_RFinger23
usemtl MainSkin
f  1/1/1 2/1/2 3/1/3
f  4/1/4 5/1/5 2/1/2
f  6/1/6 5/1/5 4/1/4
f  7/1/7 8/1/8 6/1/6
f  8/1/8 7/1/7 9/1/9
f  10/1/10 11/1/11 5/1/5
f  12/1/12 10/1/10 6/1/6
f  8/1/8 13/1/13 14/1/14
f  15/1/15 16/1/16 17/1/17
f  18/1/18 3/1/3 19/1/19
f  19/1/19 20/1/20 21/1/21
f  22/1/22 2/1/2 5/1/5
f  23/1/23 24/1/24 22/1/22
f  11/1/11 10/1/10 25/1/25
f  10/1/10 12/1/12 26/1/26
f  27/1/27 26/1/26 12/1/12
f  26/1/26 27/1/27 28/1/28
f  25/1/25 26/1/26 29/1/29
f  23/1/23 25/1/25 30/1/30
f  24/1/24 31/1/31 32/1/32
f  24/1/24 23/1/23 33/1/33
f  34/1/34 35/1/35 36/1/36
f  37/1/37 4/1/4 1/1/1
f  4/1/4 37/1/37 38/1/38
f  39/1/39 38/1/38 40/1/40
f  40/1/40 41/1/41 9/1/9
f  42/1/42 41/1/41 40/1/40
f  43/1/43 40/1/40 38/1/38
f  37/1/37 44/1/44 45/1/45
f  44/1/44 37/1/37 46/1/46
f  47/1/47 46/1/46 48/1/48
f  49/1/49 3/1/3 18/1/18
f  3/1/3 2/1/2 22/1/22
f  22/1/22 24/1/24 20/1/20
f  32/1/32 50/1/50 21/1/21
f  49/1/49 48/1/48 46/1/46
f  48/1/48 51/1/51 52/1/52
f  31/1/31 33/1/33 53/1/53
f  54/1/54 53/1/53 33/1/33
f  54/1/54 30/1/30 29/1/29
f  55/1/55 56/1/56 29/1/29
f  57/1/57 58/1/58 59/1/59
f  54/1/54 60/1/60 57/1/57
f  56/1/56 61/1/61 60/1/60
f  56/1/56 55/1/55 62/1/62
f  63/1/63 62/1/62 55/1/55
f  63/1/63 64/1/64 65/1/65
f  64/1/64 55/1/55 28/1/28
f  64/1/64 66/1/66 67/1/67
f  68/1/68 69/1/69 66/1/66
f  67/1/67 66/1/66 69/1/69
f  31/1/31 59/1/59 70/1/70
f  32/1/32 70/1/70 71/1/71
f  72/1/72 70/1/70 59/1/59
f  70/1/70 72/1/72 73/1/73
f  34/1/34 51/1/51 48/1/48
f  74/1/74 75/1/74 42/1/74
f  76/1/75 74/1/75 77/1/75
f  78/1/76 76/1/76 79/1/76
f  80/1/77 81/1/77 82/1/77
f  83/1/78 47/1/78 82/1/78
f  84/1/79 44/1/79 47/1/79
f  84/1/80 85/1/80 45/1/80
f  45/1/81 85/1/81 86/1/81
f  42/1/82 43/1/82 86/1/82
f  77/1/83 86/1/83 87/1/83
f  87/1/84 81/1/84 80/1/84
f  88/1/85 87/1/85 86/1/85
f  81/1/86 87/1/86 88/1/86
f  88/1/87 85/1/87 84/1/87
f  34/1/34 18/1/18 17/1/17
f  15/1/15 21/1/21 89/1/88
f  89/1/88 21/1/21 50/1/50
f  90/1/89 52/1/52 51/1/51
f  28/1/28 27/1/27 91/1/90
f  27/1/27 14/1/14 92/1/91
f  14/1/14 13/1/13 93/1/92
f  13/1/13 9/1/9 94/1/93
f  94/1/93 9/1/9 41/1/41
f  95/1/94 41/1/41 42/1/42
f  78/1/95 80/1/95 52/1/95
f  96/1/96 97/1/97 98/1/98
f  99/1/99 98/1/98 97/1/97
f  100/1/100 101/1/101 99/1/99
f  102/1/102 101/1/101 100/1/100
f  103/1/103 104/1/104 105/1/105
f  106/1/106 100/1/100 107/1/107
f  108/1/108 103/1/103 100/1/100
f  103/1/103 108/1/108 109/1/109
f  110/1/110 111/1/111 17/1/17
f  111/1/111 110/1/110 112/1/112
f  112/1/112 110/1/110 113/1/113
f  107/1/107 97/1/97 114/1/114
f  115/1/115 116/1/116 114/1/114
f  116/1/116 115/1/115 117/1/117
f  106/1/106 117/1/117 118/1/118
f  119/1/119 109/1/109 108/1/108
f  118/1/118 120/1/120 121/1/121
f  117/1/117 122/1/122 120/1/120
f  115/1/115 123/1/123 122/1/122
f  124/1/124 125/1/125 126/1/126
f  123/1/123 115/1/115 126/1/126
f  127/1/127 128/1/128 36/1/36
f  98/1/98 99/1/99 129/1/129
f  99/1/99 101/1/101 130/1/130
f  101/1/101 102/1/102 131/1/131
f  105/1/105 132/1/132 131/1/131
f  133/1/133 134/1/134 131/1/131
f  134/1/134 135/1/135 130/1/130
f  129/1/129 130/1/130 135/1/135
f  136/1/136 137/1/137 138/1/138
f  137/1/137 139/1/139 140/1/140
f  111/1/111 96/1/96 141/1/141
f  96/1/96 112/1/112 114/1/114
f  114/1/114 112/1/112 142/1/142
f  124/1/124 142/1/142 113/1/113
f  138/1/138 140/1/140 141/1/141
f  143/1/143 128/1/128 140/1/140
f  125/1/125 144/1/144 145/1/145
f  146/1/146 122/1/122 123/1/123
f  146/1/146 147/1/147 120/1/120
f  148/1/148 121/1/121 120/1/120
f  144/1/144 149/1/149 150/1/150
f  146/1/146 145/1/145 150/1/150
f  147/1/147 146/1/146 151/1/151
f  147/1/147 152/1/152 153/1/153
f  154/1/154 155/1/155 148/1/148
f  154/1/154 156/1/156 157/1/157
f  155/1/155 158/1/158 121/1/121
f  155/1/155 157/1/157 159/1/159
f  68/1/68 121/1/121 158/1/158
f  159/1/159 160/1/160 69/1/69
f  125/1/125 124/1/124 161/1/161
f  124/1/124 162/1/162 163/1/163
f  164/1/164 149/1/149 144/1/144
f  161/1/161 163/1/163 165/1/165
f  140/1/140 128/1/128 127/1/127
f  74/1/166 166/1/166 133/1/166
f  76/1/167 167/1/167 166/1/167
f  78/1/168 168/1/168 167/1/168
f  168/1/169 143/1/169 139/1/169
f  139/1/170 137/1/170 169/1/170
f  170/1/171 169/1/171 137/1/171
f  135/1/172 171/1/172 170/1/172
f  135/1/173 134/1/173 172/1/173
f  133/1/174 166/1/174 172/1/174
f  166/1/175 167/1/175 173/1/175
f  168/1/176 174/1/176 173/1/176
f  175/1/177 171/1/177 172/1/177
f  174/1/178 169/1/178 175/1/178
f  175/1/179 169/1/179 170/1/179
f  127/1/127 35/1/35 17/1/17
f  110/1/110 16/1/16 89/1/88
f  89/1/88 176/1/180 162/1/162
f  90/1/89 36/1/36 128/1/128
f  121/1/121 68/1/68 91/1/90
f  119/1/119 91/1/90 92/1/91
f  109/1/109 92/1/91 93/1/92
f  104/1/104 93/1/92 94/1/93
f  94/1/93 95/1/94 132/1/132
f  95/1/94 75/1/181 133/1/133
f  78/1/182 90/1/182 143/1/182
f  49/1/49 1/1/1 3/1/3
f  1/1/1 4/1/4 2/1/2
f  39/1/39 6/1/6 4/1/4
f  39/1/39 7/1/7 6/1/6
f  13/1/13 8/1/8 9/1/9
f  6/1/6 10/1/10 5/1/5
f  8/1/8 12/1/12 6/1/6
f  12/1/12 8/1/8 14/1/14
f  18/1/18 15/1/15 17/1/17
f  15/1/15 18/1/18 19/1/19
f  15/1/15 19/1/19 21/1/21
f  11/1/11 22/1/22 5/1/5
f  11/1/11 23/1/23 22/1/22
f  23/1/23 11/1/11 25/1/25
f  25/1/25 10/1/10 26/1/26
f  14/1/14 27/1/27 12/1/12
f  29/1/29 26/1/26 28/1/28
f  30/1/30 25/1/25 29/1/29
f  33/1/33 23/1/23 30/1/30
f  20/1/20 24/1/24 32/1/32
f  31/1/31 24/1/24 33/1/33
f  51/1/51 34/1/34 36/1/36
f  46/1/46 37/1/37 1/1/1
f  39/1/39 4/1/4 38/1/38
f  7/1/7 39/1/39 40/1/40
f  7/1/7 40/1/40 9/1/9
f  43/1/43 42/1/42 40/1/40
f  45/1/45 43/1/43 38/1/38
f  38/1/38 37/1/37 45/1/45
f  47/1/47 44/1/44 46/1/46
f  82/1/183 47/1/47 48/1/48
f  34/1/34 49/1/49 18/1/18
f  19/1/19 3/1/3 22/1/22
f  19/1/19 22/1/22 20/1/20
f  20/1/20 32/1/32 21/1/21
f  1/1/1 49/1/49 46/1/46
f  82/1/183 48/1/48 52/1/52
f  59/1/59 31/1/31 53/1/53
f  30/1/30 54/1/54 33/1/33
f  56/1/56 54/1/54 29/1/29
f  28/1/28 55/1/55 29/1/29
f  53/1/53 57/1/57 59/1/59
f  53/1/53 54/1/54 57/1/57
f  54/1/54 56/1/56 60/1/60
f  61/1/61 56/1/56 62/1/62
f  64/1/64 63/1/63 55/1/55
f  177/1/184 63/1/63 65/1/65
f  66/1/66 64/1/64 28/1/28
f  65/1/65 64/1/64 67/1/67
f  28/1/28 68/1/68 66/1/66
f  160/1/160 67/1/67 69/1/69
f  32/1/32 31/1/31 70/1/70
f  50/1/50 32/1/32 71/1/71
f  58/1/58 72/1/72 59/1/59
f  71/1/71 70/1/70 73/1/73
f  49/1/49 34/1/34 48/1/48
f  77/1/185 74/1/185 42/1/185
f  79/1/186 76/1/186 77/1/186
f  80/1/187 78/1/187 79/1/187
f  52/1/188 80/1/188 82/1/188
f  81/1/189 83/1/189 82/1/189
f  83/1/190 84/1/190 47/1/190
f  44/1/191 84/1/191 45/1/191
f  43/1/192 45/1/192 86/1/192
f  77/1/193 42/1/193 86/1/193
f  79/1/194 77/1/194 87/1/194
f  79/1/195 87/1/195 80/1/195
f  85/1/196 88/1/196 86/1/196
f  83/1/197 81/1/197 88/1/197
f  83/1/198 88/1/198 84/1/198
f  35/1/35 34/1/34 17/1/17
f  16/1/16 15/1/15 89/1/88
f  176/1/180 89/1/88 50/1/50
f  36/1/36 90/1/89 51/1/51
f  68/1/68 28/1/28 91/1/90
f  91/1/90 27/1/27 92/1/91
f  92/1/91 14/1/14 93/1/92
f  93/1/92 13/1/13 94/1/93
f  95/1/94 94/1/93 41/1/41
f  75/1/181 95/1/94 42/1/42
f  90/1/199 78/1/199 52/1/199
f  141/1/141 96/1/96 98/1/98
f  107/1/107 99/1/99 97/1/97
f  107/1/107 100/1/100 99/1/99
f  103/1/103 102/1/102 100/1/100
f  102/1/102 103/1/103 105/1/105
f  116/1/116 106/1/106 107/1/107
f  106/1/106 108/1/108 100/1/100
f  104/1/104 103/1/103 109/1/109
f  16/1/16 110/1/110 17/1/17
f  96/1/96 111/1/111 112/1/112
f  142/1/142 112/1/112 113/1/113
f  116/1/116 107/1/107 114/1/114
f  126/1/126 115/1/115 114/1/114
f  106/1/106 116/1/116 117/1/117
f  108/1/108 106/1/106 118/1/118
f  118/1/118 119/1/119 108/1/108
f  119/1/119 118/1/118 121/1/121
f  118/1/118 117/1/117 120/1/120
f  117/1/117 115/1/115 122/1/122
f  142/1/142 124/1/124 126/1/126
f  125/1/125 123/1/123 126/1/126
f  35/1/35 127/1/127 36/1/36
f  138/1/138 98/1/98 129/1/129
f  129/1/129 99/1/99 130/1/130
f  130/1/130 101/1/101 131/1/131
f  102/1/102 105/1/105 131/1/131
f  132/1/132 133/1/133 131/1/131
f  131/1/131 134/1/134 130/1/130
f  136/1/136 129/1/129 135/1/135
f  129/1/129 136/1/136 138/1/138
f  138/1/138 137/1/137 140/1/140
f  127/1/127 111/1/111 141/1/141
f  97/1/97 96/1/96 114/1/114
f  126/1/126 114/1/114 142/1/142
f  162/1/162 124/1/124 113/1/113
f  98/1/98 138/1/138 141/1/141
f  139/1/139 143/1/143 140/1/140
f  123/1/123 125/1/125 145/1/145
f  145/1/145 146/1/146 123/1/123
f  122/1/122 146/1/146 120/1/120
f  147/1/147 148/1/148 120/1/120
f  145/1/145 144/1/144 150/1/150
f  151/1/151 146/1/146 150/1/150
f  152/1/152 147/1/147 151/1/151
f  148/1/148 147/1/147 153/1/153
f  153/1/153 154/1/154 148/1/148
f  155/1/155 154/1/154 157/1/157
f  148/1/148 155/1/155 121/1/121
f  158/1/158 155/1/155 159/1/159
f  69/1/69 68/1/68 158/1/158
f  158/1/158 159/1/159 69/1/69
f  144/1/144 125/1/125 161/1/161
f  161/1/161 124/1/124 163/1/163
f  161/1/161 164/1/164 144/1/144
f  164/1/164 161/1/161 165/1/165
f  141/1/141 140/1/140 127/1/127
f  75/1/200 74/1/200 133/1/200
f  74/1/201 76/1/201 166/1/201
f  76/1/202 78/1/202 167/1/202
f  174/1/203 168/1/203 139/1/203
f  174/1/204 139/1/204 169/1/204
f  136/1/205 170/1/205 137/1/205
f  136/1/206 135/1/206 170/1/206
f  171/1/207 135/1/207 172/1/207
f  134/1/208 133/1/208 172/1/208
f  172/1/209 166/1/209 173/1/209
f  167/1/210 168/1/210 173/1/210
f  173/1/211 175/1/211 172/1/211
f  173/1/212 174/1/212 175/1/212
f  171/1/213 175/1/213 170/1/213
f  111/1/111 127/1/127 17/1/17
f  113/1/113 110/1/110 89/1/88
f  113/1/113 89/1/88 162/1/162
f  143/1/143 90/1/89 128/1/128
f  119/1/119 121/1/121 91/1/90
f  109/1/109 119/1/119 92/1/91
f  104/1/104 109/1/109 93/1/92
f  105/1/105 104/1/104 94/1/93
f  105/1/105 94/1/93 132/1/132
f  132/1/132 95/1/94 133/1/133
f  168/1/214 78/1/214 143/1/214

