# File produced by Open Asset Import Library (http://www.assimp.sf.net)
# (assimp v3.2.0)

mtllib RFinger31.mtl

# 170 vertex positions
v  -0.00110441 -0.00540727 0.0122101
v  -0.00500291 -0.00391001 0.00992608
v  -0.00565416 -0.0138975 0.00973272
v  0.00421894 -0.0123175 0.0114363
v  0.00440556 -0.006881 0.011567
v  0.00871664 -0.00833398 0.00709182
v  0.00845098 -0.0117708 0.00716507
v  0.00939202 -0.0118373 0.00356412
v  0.00959879 -0.00849718 0.00379193
v  0.00973684 -0.00857222 0.000767248
v  0.00804514 -0.00678432 0.00678891
v  0.00417673 -0.00564593 0.0111552
v  0.00899184 -0.00729805 0.00389653
v  0.0092904 -0.00753075 0.000742696
v  -0.00729227 -0.00294363 0.00532722
v  -0.00669611 -0.00207901 0.00505805
v  -0.00782263 -0.00212902 0.00105876
v  -0.00442958 -0.00282699 0.00940418
v  -0.00354654 0.000601655 0.0103297
v  -0.00614768 0.00194955 0.0069406
v  0.00458694 -0.00216609 0.0114988
v  0.000199282 0.000727926 0.0124336
v  -0.00110572 -0.00402099 0.011663
v  0.00826728 -0.00458461 0.00666761
v  0.00905466 -0.00528139 0.00400484
v  0.00934774 -0.00552487 0.000693399
v  0.00763929 -0.00346261 0.000903739
v  0.00754243 -0.00317276 0.00373232
v  0.00675869 -0.00244141 0.005844
v  0.000917084 0.00208157 0.0108255
v  -0.0023787 0.000377147 0.00905204
v  0.00372487 3.0772e-05 0.00925952
v  -0.00741643 -0.0152193 0.00512666
v  -0.00802958 -0.0141482 0.00539988
v  -0.00914979 -0.0142976 0.000950753
v  0.00398224 -0.0132847 0.0109479
v  -0.00184691 -0.0131885 0.0120886
v  0.00772208 -0.012849 0.00683677
v  0.00890708 -0.0125341 0.00353378
v  0.00896424 -0.0126507 0.000750974
v  0.0095191 -0.0118766 0.000741419
v  0.00880754 -0.0146173 0.000699548
v  0.00850827 -0.0150445 0.00335044
v  0.00377917 -0.0173875 0.0111617
v  0.00746453 -0.0155917 0.00674218
v  -0.00183403 -0.0140833 0.0116161
v  -0.00165361 -0.0202365 0.0119838
v  -0.00533372 -0.0148091 0.00912982
v  -0.00528031 0.00266325 0.00645494
v  -0.00830197 -0.0229647 0.00546539
v  -0.00571221 -0.0219156 0.0097596
v  0.00707221 -0.0163583 0.00303328
v  0.00752646 -0.0161062 0.00063141
v  0.00615245 -0.0170531 0.0059917
v  -0.000680452 -0.0211215 0.0111912
v  0.00315803 -0.0187316 0.00928342
v  -0.00511205 -0.0230055 0.00970089
v  -0.00753915 -0.023823 0.00528073
v  -0.00948393 -0.0233733 0.000808625
v  0.00433308 0.00287264 0.00915271
v  0.00805575 0.00175536 0.00559258
v  0.00886679 0.00156897 0.00362301
v  0.00922811 0.00145316 0.00110102
v  0.00398552 0.00755238 0.00909746
v  0.00138807 0.00611973 0.00934166
v  0.00148177 0.0040049 0.00937343
v  0.00736529 0.00935572 0.00561356
v  0.00802928 0.0098362 0.00377238
v  0.00834083 0.00978237 0.00266159
v  0.00429779 0.00818276 0.00262284
v  0.00455987 -0.000579898 0.00152361
v  0.00153232 0.00157428 0.00194812
v  0.00463516 -0.00135177 0.00109982
v  0.00135994 -0.00076079 0.00160247
v  0.00745291 -0.00342971 -0.000412281
v  0.00443411 -0.00132567 -8.68111e-05
v  0.000312186 0.00188982 0.00780398
v  -0.000437242 0.00117016 0.00616455
v  0.000913309 0.00606567 0.00791878
v  0.000708036 0.00597346 0.00599182
v  -0.00845235 -0.00305444 0.00110012
v  -0.00783676 0.00152087 0.00112969
v  -0.00600976 0.00274616 0.000980034
v  -0.00865114 -0.0152213 0.000886236
v  0.00928986 -0.00567019 -0.000629151
v  0.00922429 -0.00770265 -0.000661531
v  0.00965863 -0.00871128 -0.000722667
v  0.00942492 -0.0118886 -0.000760663
v  0.00890952 -0.0127234 -0.000728135
v  0.00876892 -0.0145334 -0.00074911
v  -0.00332135 -0.00553769 -0.0112833
v  -0.00405627 -0.0133189 -0.0113203
v  -0.00735736 -0.0139972 -0.00831747
v  0.00202686 -0.0124463 -0.0117839
v  0.0072726 -0.00841892 -0.00820917
v  0.00698555 -0.0118568 -0.00836158
v  0.00858343 -0.0118858 -0.00500297
v  0.00875682 -0.00854576 -0.00513834
v  0.00945753 -0.00858867 -0.00219434
v  0.00667554 -0.00686473 -0.00772595
v  0.00220537 -0.00701082 -0.011742
v  0.00814408 -0.00734806 -0.005081
v  0.00902748 -0.00754619 -0.0020476
v  -0.00746488 -0.00212431 -0.00308019
v  -0.00810349 -0.00299102 -0.00326657
v  -0.00605363 -0.00292218 -0.00780451
v  -0.00726366 0.00188404 -0.00488073
v  -0.00321543 -0.00414514 -0.0106931
v  0.0020619 -0.00577044 -0.0112467
v  0.00241297 -0.00229365 -0.0115291
v  0.00692439 -0.00466394 -0.00756484
v  0.00819325 -0.00533104 -0.0051226
v  0.0090999 -0.00554007 -0.00193357
v  0.00676644 -0.00321817 -0.00449121
v  0.00739008 -0.0034771 -0.001742
v  0.00560367 -0.0025084 -0.00639093
v  0.00199377 -7.18016e-05 -0.00908428
v  -0.00396204 0.000283738 -0.00772208
v  -0.00105017 0.00196546 -0.0100176
v  -0.00206125 0.000595569 -0.0115147
v  -0.00888204 -0.0141985 -0.00362444
v  -0.00823176 -0.0152671 -0.00351268
v  0.00188291 -0.0134076 -0.011297
v  0.00632763 -0.0129312 -0.00794262
v  0.00810993 -0.0125808 -0.00490785
v  0.00868666 -0.0126668 -0.00218964
v  0.00853479 -0.0146334 -0.00218344
v  0.0077439 -0.0150892 -0.00474864
v  0.00608206 -0.0156724 -0.00790512
v  0.00162917 -0.0175136 -0.0116244
v  -0.00387162 -0.0203665 -0.0115207
v  -0.0039587 -0.014208 -0.0108926
v  -0.00744873 -0.0220183 -0.00863767
v  -0.00693393 -0.0149032 -0.00782007
v  -0.0067187 -0.00401133 -0.00825214
v  -0.00534683 0.00049585 -0.00874895
v  0.00728464 -0.0161206 -0.0019322
v  0.00638855 -0.0163988 -0.00421727
v  0.00492781 -0.0171243 -0.00697708
v  0.00136542 -0.0188373 -0.00971401
v  -0.00277114 -0.0212449 -0.0109584
v  -0.00685143 -0.0231078 -0.00873393
v  -0.00841284 -0.0238745 -0.00396717
v  -0.00921398 -0.0245187 0.000761347
v  -0.000216898 0.00390542 -0.0086236
v  0.00262052 0.00277209 -0.00898576
v  0.00693941 0.00168979 -0.00622785
v  0.00810528 0.00152433 -0.00445247
v  0.00893181 0.00143623 -0.00204712
v  -0.000295292 0.00602168 -0.00849521
v  0.00230694 0.00745451 -0.0086872
v  0.00628543 0.00929189 -0.00583172
v  0.00728393 0.00979137 -0.00412869
v  0.00779694 0.00974971 -0.00309735
v  0.00382727 0.00815505 -0.00236112
v  0.00425911 -0.000597395 -0.00166368
v  0.000947028 0.00643075 -0.00139564
v  0.00121349 0.00155538 -0.00143147
v  0.00440907 -0.00136518 -0.00129056
v  0.00110108 -0.00077677 -0.00114769
v  0.000852335 -0.000496904 0.00026828
v  -0.00107944 0.00180864 -0.00694328
v  -0.00631827 0.00260174 -0.00453925
v  -0.00151127 0.00110728 -0.00521958
v  -0.000496269 0.00598287 -0.00701004
v  -0.00033703 0.00591177 -0.00508225
v  -0.00919318 -0.0230176 -0.00397348
v  0.00923592 -0.0118927 -0.0022549
v  0.00732797 -0.0161921 -0.000644503
v  0.00128156 0.00645083 0.00214857

# 1 UV coordinates
vt 4.61149 0.499573 0

# 170 vertex normals
vn -0.142979 0.196875 0.969909
vn -0.654317 0.288552 0.698965
vn -0.680044 -0.258644 0.685995
vn 0.439283 -0.271157 0.85641
vn 0.474777 0.173223 0.86285
vn 0.872585 0.163549 0.460219
vn 0.830958 -0.301706 0.46733
vn 0.931852 -0.332743 0.144444
vn 0.973266 0.179052 0.143742
vn 0.98349 0.180334 -0.0132755
vn 0.86816 0.174108 0.464644
vn 0.48497 0.146031 0.862239
vn 0.963439 0.206244 0.170904
vn 0.981079 0.193518 0.00183105
vn -0.864101 0.347728 0.363811
vn -0.881222 0.292398 0.371319
vn -0.943846 0.318644 0.0869472
vn -0.66509 0.26484 0.698202
vn -0.532182 0.507859 0.677328
vn -0.679678 0.58034 0.448561
vn 0.582415 0.226966 0.780541
vn -0.0382091 0.535569 0.843593
vn -0.1948 0.177038 0.964721
vn 0.8905 0.250801 0.379559
vn 0.951598 0.272591 0.14188
vn 0.948149 0.317423 -0.0141301
vn 0.815668 0.528123 -0.236
vn 0.962584 0.223609 0.152867
vn 0.881222 0.254097 0.398572
vn -0.00274664 0.823359 0.567461
vn -0.15302 0.950713 0.26957
vn 0.680502 0.337809 0.650197
vn -0.903623 -0.214087 0.370922
vn -0.899899 -0.238777 0.364879
vn -0.968657 -0.230476 0.0923795
vn 0.472182 -0.288766 0.83282
vn -0.181738 -0.251534 0.950621
vn 0.82165 -0.346538 0.452498
vn 0.90878 -0.384625 0.161718
vn 0.937742 -0.347118 0.0117191
vn 0.945372 -0.325938 0.00213629
vn 0.918119 -0.396222 -0.00567639
vn 0.891476 -0.435987 0.123142
vn 0.531114 -0.318888 0.784967
vn 0.836726 -0.398328 0.375713
vn -0.190405 -0.257118 0.947417
vn -0.106052 -0.275216 0.955473
vn -0.702902 -0.244972 0.667745
vn -0.210364 0.940031 0.26841
vn -0.888974 -0.211829 0.405957
vn -0.645833 -0.245582 0.722892
vn 0.705069 -0.707602 0.046266
vn 0.736686 -0.67571 -0.0262154
vn 0.680441 -0.710746 0.17835
vn 0.260353 -0.612384 0.746422
vn 0.603717 -0.671621 0.429426
vn -0.43086 -0.542985 0.720756
vn -0.758141 -0.504349 0.413312
vn -0.97528 -0.200201 0.0934172
vn 0.51851 0.0420239 0.85403
vn 0.830226 -0.0668355 0.553362
vn 0.960082 -0.0942411 0.263253
vn 0.750359 0.00833154 -0.660939
vn 0.495071 0.0475783 0.867519
vn -0.411237 0.04709 0.910276
vn -0.41728 0.264596 0.869381
vn 0.849818 0.0768151 0.521409
vn 0.959197 0.0848109 0.269601
vn 0.851436 0.176672 -0.493789
vn -0.0617084 0.128147 -0.989807
vn -0.0548723 0.168584 -0.98413
vn -0.00149536 0.141301 -0.989959
vn 0.210303 0.694784 -0.687765
vn 0.116855 0.809229 -0.575732
vn 0.670095 0.739189 -0.0673848
vn 0.384472 0.922178 -0.0415967
vn -0.73925 0.622822 0.255928
vn -0.430555 0.835597 0.341105
vn -0.932615 0.124363 0.338694
vn -0.958617 0.187811 0.213843
vn -0.941588 0.325114 0.0876492
vn -0.900784 0.425977 0.0841395
vn -0.570788 0.819575 0.0497451
vn -0.971832 -0.216468 0.0930814
vn 0.949248 0.301096 -0.0905789
vn 0.974578 0.203528 -0.0933561
vn 0.983612 0.154088 -0.0933255
vn 0.943114 -0.320749 -0.0872829
vn 0.942503 -0.32255 -0.0871303
vn 0.925504 -0.368816 -0.0858486
vn -0.321024 0.227668 -0.919279
vn -0.358287 -0.223701 -0.9064
vn -0.800195 -0.240547 -0.549333
vn 0.273904 -0.244362 -0.930174
vn 0.768212 0.18067 -0.614155
vn 0.733085 -0.285897 -0.617084
vn 0.891446 -0.326365 -0.31428
vn 0.927274 0.187078 -0.324198
vn 0.967742 0.183294 -0.172826
vn 0.761864 0.193548 -0.618122
vn 0.301492 0.202521 -0.9317
vn 0.911618 0.2154 -0.349986
vn 0.962371 0.196753 -0.187353
vn -0.931944 0.301004 -0.202033
vn -0.913328 0.355663 -0.198157
vn -0.7781 0.286264 -0.559099
vn -0.746727 0.585223 -0.315989
vn -0.36845 0.210303 -0.905515
vn 0.312326 0.179235 -0.93289
vn 0.419965 0.249458 -0.872555
vn 0.799646 0.264046 -0.539231
vn 0.905728 0.279397 -0.318674
vn 0.93289 0.319437 -0.166234
vn 0.913572 0.232154 -0.333811
vn 0.852534 0.517411 0.0733359
vn 0.784936 0.27018 -0.557512
vn 0.539231 0.359966 -0.761315
vn -0.202368 0.948882 -0.242073
vn -0.111332 0.826624 -0.551592
vn -0.195532 0.546922 -0.81399
vn -0.954711 -0.230171 -0.188482
vn -0.95941 -0.205237 -0.193365
vn 0.311991 -0.258949 -0.91409
vn 0.729057 -0.330271 -0.599445
vn 0.866878 -0.377422 -0.325602
vn 0.920865 -0.344066 -0.183264
vn 0.904569 -0.394177 -0.162328
vn 0.856197 -0.430402 -0.285745
vn 0.757256 -0.386334 -0.526566
vn 0.379955 -0.296793 -0.876064
vn -0.283456 -0.248177 -0.926298
vn -0.369091 -0.224983 -0.90173
vn -0.773156 -0.227393 -0.591998
vn -0.820978 -0.224891 -0.524735
vn -0.768883 0.306619 -0.561022
vn -0.645924 0.517563 -0.561113
vn 0.72985 -0.675375 -0.105533
vn 0.687002 -0.706229 -0.170934
vn 0.640584 -0.707389 -0.298685
vn 0.521226 -0.663656 -0.536515
vn 0.122166 -0.597095 -0.792779
vn -0.562395 -0.525895 -0.63802
vn -0.827021 -0.496536 -0.263497
vn -0.877224 -0.473128 0.0812402
vn -0.567675 0.293252 -0.769219
vn 0.348643 0.0745262 -0.934263
vn 0.71276 -0.0448317 -0.699942
vn 0.895444 -0.0820643 -0.437483
vn 0.860042 -0.00900292 0.510086
vn -0.581011 0.0802331 -0.8099
vn 0.3249 0.0821863 -0.942167
vn 0.738151 0.0994598 -0.667226
vn 0.891598 0.0982391 -0.44203
vn 0.924161 0.162542 0.345653
vn 0.125797 0.0907315 0.987884
vn 0.131504 0.132206 0.982452
vn 0.201758 0.057802 0.977722
vn 0.184942 0.104648 0.977142
vn 0.343821 0.683432 0.643941
vn 0.226783 0.803735 0.550005
vn 0.201727 0.979125 -0.0241706
vn -0.769799 0.626881 -0.119999
vn -0.261574 0.937986 -0.227424
vn -0.494339 0.830104 -0.257881
vn -0.978454 0.135319 -0.155766
vn -0.980804 0.192236 -0.0325022
vn -0.951567 -0.20191 -0.231727
vn 0.929807 -0.32313 -0.176
vn 0.754234 -0.653066 -0.0675985
vn 0.0148625 0.0954009 -0.9953

# Mesh 'RFinger31_RFinger31' with 296 faces
g RFinger31_RFinger31
usemtl MainSkin
f  1/1/1 2/1/2 3/1/3
f  4/1/4 5/1/5 1/1/1
f  6/1/6 5/1/5 4/1/4
f  7/1/7 8/1/8 9/1/9
f  10/1/10 9/1/9 8/1/8
f  11/1/11 12/1/12 5/1/5
f  13/1/13 11/1/11 6/1/6
f  9/1/9 10/1/10 14/1/14
f  15/1/15 16/1/16 17/1/17
f  15/1/15 2/1/2 18/1/18
f  18/1/18 19/1/19 20/1/20
f  1/1/1 5/1/5 12/1/12
f  21/1/21 22/1/22 23/1/23
f  12/1/12 11/1/11 24/1/24
f  11/1/11 13/1/13 25/1/25
f  26/1/26 25/1/25 13/1/13
f  25/1/25 26/1/26 27/1/27
f  24/1/24 25/1/25 28/1/28
f  21/1/21 24/1/24 29/1/29
f  22/1/22 30/1/30 31/1/31
f  22/1/22 21/1/21 32/1/32
f  33/1/33 34/1/34 35/1/35
f  36/1/36 4/1/4 37/1/37
f  4/1/4 36/1/36 38/1/38
f  7/1/7 38/1/38 39/1/39
f  39/1/39 40/1/40 41/1/41
f  42/1/42 40/1/40 39/1/39
f  43/1/43 39/1/39 38/1/38
f  36/1/36 44/1/44 45/1/45
f  44/1/44 36/1/36 46/1/46
f  47/1/47 46/1/46 48/1/48
f  2/1/2 15/1/15 34/1/34
f  2/1/2 1/1/1 23/1/23
f  23/1/23 22/1/22 19/1/19
f  31/1/31 49/1/49 20/1/20
f  3/1/3 48/1/48 46/1/46
f  33/1/33 50/1/50 51/1/51
f  43/1/43 52/1/52 53/1/53
f  52/1/52 43/1/43 45/1/45
f  54/1/54 45/1/45 44/1/44
f  47/1/47 55/1/55 56/1/56
f  47/1/47 51/1/51 57/1/57
f  58/1/58 50/1/50 59/1/59
f  51/1/51 50/1/50 58/1/58
f  30/1/30 32/1/32 60/1/60
f  61/1/61 60/1/60 32/1/32
f  62/1/62 61/1/61 29/1/29
f  63/1/63 62/1/62 28/1/28
f  64/1/64 65/1/65 66/1/66
f  61/1/61 67/1/67 64/1/64
f  62/1/62 68/1/68 67/1/67
f  62/1/62 63/1/63 69/1/69
f  70/1/70 69/1/69 63/1/63
f  70/1/70 71/1/71 72/1/72
f  71/1/71 63/1/63 27/1/27
f  71/1/71 73/1/73 74/1/74
f  75/1/75 76/1/76 73/1/73
f  74/1/74 73/1/73 76/1/76
f  30/1/30 66/1/66 77/1/77
f  31/1/31 77/1/77 78/1/78
f  79/1/79 77/1/77 66/1/66
f  77/1/77 79/1/79 80/1/80
f  34/1/34 33/1/33 48/1/48
f  34/1/34 15/1/15 81/1/81
f  16/1/16 20/1/20 82/1/82
f  83/1/83 82/1/82 20/1/20
f  50/1/50 33/1/33 84/1/84
f  75/1/75 27/1/27 26/1/26
f  85/1/85 26/1/26 14/1/14
f  86/1/86 14/1/14 10/1/10
f  87/1/87 10/1/10 41/1/41
f  88/1/88 41/1/41 40/1/40
f  89/1/89 40/1/40 42/1/42
f  90/1/90 42/1/42 53/1/53
f  91/1/91 92/1/92 93/1/93
f  94/1/94 92/1/92 91/1/91
f  95/1/95 96/1/96 94/1/94
f  97/1/97 96/1/96 95/1/95
f  97/1/97 98/1/98 99/1/99
f  100/1/100 95/1/95 101/1/101
f  102/1/102 98/1/98 95/1/95
f  98/1/98 102/1/102 103/1/103
f  104/1/104 105/1/105 81/1/81
f  105/1/105 104/1/104 106/1/106
f  106/1/106 104/1/104 107/1/107
f  91/1/91 108/1/108 109/1/109
f  110/1/110 109/1/109 108/1/108
f  109/1/109 110/1/110 111/1/111
f  100/1/100 111/1/111 112/1/112
f  113/1/113 103/1/103 102/1/102
f  112/1/112 114/1/114 115/1/115
f  111/1/111 116/1/116 114/1/114
f  110/1/110 117/1/117 116/1/116
f  118/1/118 119/1/119 120/1/120
f  117/1/117 110/1/110 120/1/120
f  121/1/121 122/1/122 84/1/84
f  92/1/92 94/1/94 123/1/123
f  94/1/94 96/1/96 124/1/124
f  96/1/96 97/1/97 125/1/125
f  126/1/126 125/1/125 97/1/97
f  127/1/127 128/1/128 125/1/125
f  128/1/128 129/1/129 124/1/124
f  123/1/123 124/1/124 129/1/129
f  130/1/130 131/1/131 132/1/132
f  131/1/131 133/1/133 134/1/134
f  135/1/135 93/1/93 121/1/121
f  135/1/135 106/1/106 108/1/108
f  108/1/108 106/1/106 136/1/136
f  118/1/118 136/1/136 107/1/107
f  132/1/132 134/1/134 93/1/93
f  122/1/122 134/1/134 133/1/133
f  128/1/128 127/1/127 137/1/137
f  138/1/138 139/1/139 129/1/129
f  139/1/139 140/1/140 130/1/130
f  140/1/140 141/1/141 131/1/131
f  131/1/131 141/1/141 142/1/142
f  143/1/143 144/1/144 59/1/59
f  133/1/133 142/1/142 143/1/143
f  119/1/119 145/1/145 146/1/146
f  147/1/147 116/1/116 117/1/117
f  116/1/116 147/1/147 148/1/148
f  149/1/149 115/1/115 114/1/114
f  145/1/145 150/1/150 151/1/151
f  147/1/147 146/1/146 151/1/151
f  148/1/148 147/1/147 152/1/152
f  148/1/148 153/1/153 154/1/154
f  155/1/155 156/1/156 149/1/149
f  155/1/155 157/1/157 158/1/158
f  156/1/156 159/1/159 115/1/115
f  156/1/156 158/1/158 160/1/160
f  75/1/75 115/1/115 159/1/159
f  160/1/160 161/1/161 76/1/76
f  119/1/119 118/1/118 162/1/162
f  118/1/118 163/1/163 164/1/164
f  165/1/165 150/1/150 145/1/145
f  162/1/162 164/1/164 166/1/166
f  134/1/134 122/1/122 121/1/121
f  121/1/121 35/1/35 81/1/81
f  104/1/104 17/1/17 82/1/82
f  82/1/82 83/1/83 163/1/163
f  167/1/167 59/1/59 84/1/84
f  75/1/75 85/1/85 113/1/113
f  85/1/85 86/1/86 103/1/103
f  86/1/86 87/1/87 99/1/99
f  87/1/87 88/1/88 168/1/168
f  168/1/168 88/1/88 89/1/89
f  126/1/126 89/1/89 90/1/90
f  90/1/90 169/1/169 137/1/137
f  37/1/37 1/1/1 3/1/3
f  37/1/37 4/1/4 1/1/1
f  7/1/7 6/1/6 4/1/4
f  6/1/6 7/1/7 9/1/9
f  41/1/41 10/1/10 8/1/8
f  6/1/6 11/1/11 5/1/5
f  9/1/9 13/1/13 6/1/6
f  13/1/13 9/1/9 14/1/14
f  81/1/81 15/1/15 17/1/17
f  16/1/16 15/1/15 18/1/18
f  16/1/16 18/1/18 20/1/20
f  23/1/23 1/1/1 12/1/12
f  12/1/12 21/1/21 23/1/23
f  21/1/21 12/1/12 24/1/24
f  24/1/24 11/1/11 25/1/25
f  14/1/14 26/1/26 13/1/13
f  28/1/28 25/1/25 27/1/27
f  29/1/29 24/1/24 28/1/28
f  32/1/32 21/1/21 29/1/29
f  19/1/19 22/1/22 31/1/31
f  30/1/30 22/1/22 32/1/32
f  84/1/84 33/1/33 35/1/35
f  46/1/46 36/1/36 37/1/37
f  7/1/7 4/1/4 38/1/38
f  8/1/8 7/1/7 39/1/39
f  8/1/8 39/1/39 41/1/41
f  43/1/43 42/1/42 39/1/39
f  45/1/45 43/1/43 38/1/38
f  38/1/38 36/1/36 45/1/45
f  47/1/47 44/1/44 46/1/46
f  51/1/51 47/1/47 48/1/48
f  3/1/3 2/1/2 34/1/34
f  18/1/18 2/1/2 23/1/23
f  18/1/18 23/1/23 19/1/19
f  19/1/19 31/1/31 20/1/20
f  37/1/37 3/1/3 46/1/46
f  48/1/48 33/1/33 51/1/51
f  42/1/42 43/1/43 53/1/53
f  54/1/54 52/1/52 45/1/45
f  56/1/56 54/1/54 44/1/44
f  44/1/44 47/1/47 56/1/56
f  55/1/55 47/1/47 57/1/57
f  144/1/144 58/1/58 59/1/59
f  57/1/57 51/1/51 58/1/58
f  66/1/66 30/1/30 60/1/60
f  29/1/29 61/1/61 32/1/32
f  28/1/28 62/1/62 29/1/29
f  27/1/27 63/1/63 28/1/28
f  60/1/60 64/1/64 66/1/66
f  60/1/60 61/1/61 64/1/64
f  61/1/61 62/1/62 67/1/67
f  68/1/68 62/1/62 69/1/69
f  71/1/71 70/1/70 63/1/63
f  170/1/170 70/1/70 72/1/72
f  73/1/73 71/1/71 27/1/27
f  72/1/72 71/1/71 74/1/74
f  27/1/27 75/1/75 73/1/73
f  161/1/161 74/1/74 76/1/76
f  31/1/31 30/1/30 77/1/77
f  49/1/49 31/1/31 78/1/78
f  65/1/65 79/1/79 66/1/66
f  78/1/78 77/1/77 80/1/80
f  3/1/3 34/1/34 48/1/48
f  35/1/35 34/1/34 81/1/81
f  17/1/17 16/1/16 82/1/82
f  49/1/49 83/1/83 20/1/20
f  59/1/59 50/1/50 84/1/84
f  85/1/85 75/1/75 26/1/26
f  86/1/86 85/1/85 14/1/14
f  87/1/87 86/1/86 10/1/10
f  88/1/88 87/1/87 41/1/41
f  89/1/89 88/1/88 40/1/40
f  90/1/90 89/1/89 42/1/42
f  169/1/169 90/1/90 53/1/53
f  135/1/135 91/1/91 93/1/93
f  101/1/101 94/1/94 91/1/91
f  101/1/101 95/1/95 94/1/94
f  98/1/98 97/1/97 95/1/95
f  168/1/168 97/1/97 99/1/99
f  109/1/109 100/1/100 101/1/101
f  100/1/100 102/1/102 95/1/95
f  99/1/99 98/1/98 103/1/103
f  17/1/17 104/1/104 81/1/81
f  135/1/135 105/1/105 106/1/106
f  136/1/136 106/1/106 107/1/107
f  101/1/101 91/1/91 109/1/109
f  120/1/120 110/1/110 108/1/108
f  100/1/100 109/1/109 111/1/111
f  102/1/102 100/1/100 112/1/112
f  112/1/112 113/1/113 102/1/102
f  113/1/113 112/1/112 115/1/115
f  112/1/112 111/1/111 114/1/114
f  111/1/111 110/1/110 116/1/116
f  136/1/136 118/1/118 120/1/120
f  119/1/119 117/1/117 120/1/120
f  35/1/35 121/1/121 84/1/84
f  132/1/132 92/1/92 123/1/123
f  123/1/123 94/1/94 124/1/124
f  124/1/124 96/1/96 125/1/125
f  168/1/168 126/1/126 97/1/97
f  126/1/126 127/1/127 125/1/125
f  125/1/125 128/1/128 124/1/124
f  130/1/130 123/1/123 129/1/129
f  123/1/123 130/1/130 132/1/132
f  132/1/132 131/1/131 134/1/134
f  105/1/105 135/1/135 121/1/121
f  91/1/91 135/1/135 108/1/108
f  120/1/120 108/1/108 136/1/136
f  163/1/163 118/1/118 107/1/107
f  92/1/92 132/1/132 93/1/93
f  167/1/167 122/1/122 133/1/133
f  138/1/138 128/1/128 137/1/137
f  128/1/128 138/1/138 129/1/129
f  129/1/129 139/1/139 130/1/130
f  130/1/130 140/1/140 131/1/131
f  133/1/133 131/1/131 142/1/142
f  167/1/167 143/1/143 59/1/59
f  167/1/167 133/1/133 143/1/143
f  117/1/117 119/1/119 146/1/146
f  146/1/146 147/1/147 117/1/117
f  114/1/114 116/1/116 148/1/148
f  148/1/148 149/1/149 114/1/114
f  146/1/146 145/1/145 151/1/151
f  152/1/152 147/1/147 151/1/151
f  153/1/153 148/1/148 152/1/152
f  149/1/149 148/1/148 154/1/154
f  154/1/154 155/1/155 149/1/149
f  156/1/156 155/1/155 158/1/158
f  149/1/149 156/1/156 115/1/115
f  159/1/159 156/1/156 160/1/160
f  76/1/76 75/1/75 159/1/159
f  159/1/159 160/1/160 76/1/76
f  145/1/145 119/1/119 162/1/162
f  162/1/162 118/1/118 164/1/164
f  162/1/162 165/1/165 145/1/145
f  165/1/165 162/1/162 166/1/166
f  93/1/93 134/1/134 121/1/121
f  105/1/105 121/1/121 81/1/81
f  107/1/107 104/1/104 82/1/82
f  107/1/107 82/1/82 163/1/163
f  122/1/122 167/1/167 84/1/84
f  115/1/115 75/1/75 113/1/113
f  113/1/113 85/1/85 103/1/103
f  103/1/103 86/1/86 99/1/99
f  99/1/99 87/1/87 168/1/168
f  126/1/126 168/1/168 89/1/89
f  127/1/127 126/1/126 90/1/90
f  127/1/127 90/1/90 137/1/137

