# File produced by Open Asset Import Library (http://www.assimp.sf.net)
# (assimp v3.2.0)

mtllib RThumb3.mtl

# 177 vertex positions
v  -0.0129842 -0.00696689 0.00930101
v  -0.00531328 -0.00145405 0.0102834
v  -0.00632197 0.00131857 0.00827575
v  -0.00929981 -0.00978172 0.00947374
v  -0.00371408 -0.00614214 0.0105603
v  -0.00270522 -0.0112446 0.00699907
v  -0.00440407 -0.013394 0.00427943
v  -0.00209945 -0.0123582 0.00425094
v  -0.00396806 -0.01393 0.00206631
v  -0.00202978 -0.0104972 0.00700945
v  -0.00319832 -0.00610292 0.0101059
v  -0.00130498 -0.011592 0.00422549
v  -0.00174773 -0.012909 0.00209743
v  -0.00108069 -0.0120451 0.00203556
v  -0.00566071 0.00382262 0.00327271
v  -0.00527382 0.0042389 -0.000624435
v  -0.00640696 0.00334459 -0.000694572
v  -0.0065133 0.00323868 0.00332612
v  -0.00568235 0.00188082 0.00820845
v  -0.00301534 0.00297588 0.00901109
v  -0.00301611 0.00541341 0.00528657
v  -0.00452858 -0.00138277 0.0100021
v  -9.28598e-05 -0.00436264 0.0103014
v  -0.000998174 -8.53371e-06 0.010409
v  0.000461789 -0.00910151 0.00711256
v  0.00083538 -0.0102705 0.00449628
v  0.000918931 -0.0109746 0.0018099
v  0.00159198 -0.00912297 0.00147134
v  0.00134999 -0.00860941 0.00424451
v  0.00114393 -0.00739163 0.00621164
v  0.000452674 0.000114935 0.0102729
v  -0.00235003 0.00178146 0.00794113
v  0.000756497 -0.00334668 0.00914001
v  -0.0150759 -0.0044049 0.00250488
v  -0.0152633 -0.00436759 -0.00121403
v  -0.0157901 -0.00530165 -0.00123143
v  -0.0104043 -0.0105887 0.00871456
v  -0.00657827 -0.0129345 0.00638479
v  -0.00548345 -0.0126691 0.00654262
v  -0.00532603 -0.0136978 0.00402415
v  -0.00469893 -0.0141159 0.00168544
v  -0.0113122 -0.0160372 0.000761857
v  -0.011688 -0.0158271 0.0024631
v  -0.0140118 -0.01242 0.00727302
v  -0.0123233 -0.01512 0.00483233
v  -0.0137696 -0.00806016 0.00853354
v  -0.0158216 -0.00994813 0.00718045
v  -0.0154959 -0.00594121 0.00542456
v  -0.0145949 -0.00482053 0.00578111
v  -0.00195467 0.00500673 0.00497121
v  -0.0158543 -0.00539821 0.00260359
v  -0.0178982 -0.00704306 0.0029
v  0.00314838 -0.00245291 0.00921035
v  0.00490987 -0.00640744 0.00629079
v  0.00597316 -0.00797594 0.00205809
v  0.00550312 -0.00736362 0.00448221
v  0.00632232 0.00013114 0.00922471
v  0.00382018 0.00156885 0.00899911
v  0.00235003 0.000453097 0.00898933
v  0.00997853 -0.00209635 0.00640303
v  0.0109487 -0.00259036 0.004713
v  0.0112389 -0.00298542 0.00367075
v  0.00785363 -0.000479834 0.00292385
v  0.00186539 -0.00512624 0.00165141
v  0.00167346 -0.00155079 0.00162971
v  0.00141227 -0.00561196 0.00122607
v  -4.9917e-05 -0.00259775 0.00119799
v  0.00168121 -0.00909477 0.000342339
v  0.00147438 -0.00556534 0.000222944
v  0.000402856 0.000203493 0.00719678
v  -0.000298994 0.000291079 0.00544083
v  0.00371665 0.00178343 0.00752032
v  0.00380588 0.00170594 0.00558895
v  -0.0150515 -0.0149783 -0.000890771
v  -0.0112723 -0.0161039 -0.000541815
v  -0.0174215 -0.0129152 -0.001149
v  -0.0151784 -0.014902 0.000696693
v  -0.0182885 -0.00967151 -0.00131494
v  -0.0175583 -0.0127109 0.0003866
v  -0.0183127 -0.00925213 0.00304061
v  -0.017758 -0.00955623 0.00466383
v  -0.0174289 -0.00793499 0.00544751
v  -0.0166173 -0.0107252 0.00574201
v  -0.0151563 -0.0131171 0.0059588
v  -0.0137838 -0.0149447 0.00424731
v  -0.0137111 -0.0153264 0.00258785
v  -0.01719 -0.012842 0.00238043
v  -0.0164945 -0.0128143 0.00435662
v  -0.00362039 0.00564426 -0.000526112
v  -0.0175809 -0.00654226 -0.00134552
v  0.0010758 -0.0110286 0.000346921
v  -0.000914492 -0.0121939 0.00021382
v  -0.00151807 -0.0130097 0.000186347
v  -0.00372881 -0.0140631 3.18941e-05
v  -0.00483602 -0.0142202 -5.68051e-05
v  -0.00484025 0.000809448 -0.00939345
v  -0.00352627 -0.00206804 -0.0110441
v  -0.0112791 -0.00755238 -0.0110385
v  -0.00763148 -0.0103544 -0.0104339
v  -0.00154793 -0.0116428 -0.00681734
v  -0.00436884 -0.0130522 -0.00674891
v  -0.00368518 -0.0136414 -0.00430024
v  -0.00141215 -0.0125937 -0.00394797
v  -0.00142568 -0.013019 -0.00173801
v  -0.00362539 -0.0140481 -0.00201881
v  -0.000876644 -0.0108933 -0.00675839
v  -0.00192523 -0.00675631 -0.0107828
v  -0.000629806 -0.0118232 -0.00383484
v  -0.000774066 -0.01215 -0.00161535
v  -0.00500852 0.00359815 -0.00450224
v  -0.00584328 0.00300848 -0.00466233
v  -0.00421917 0.00137824 -0.00925362
v  -0.00205892 0.00508457 -0.0061354
v  -0.0027988 -0.00197673 -0.0106412
v  0.00161081 -0.00494802 -0.0100271
v  -0.00149214 -0.00668895 -0.0102515
v  0.00160426 -0.00949419 -0.0065251
v  0.00153327 -0.0105098 -0.00382113
v  0.00116503 -0.0110584 -0.00112241
v  0.00200599 -0.0088343 -0.00358224
v  0.00178075 -0.00918752 -0.000782127
v  0.00213641 -0.00773269 -0.00562215
v  0.00226021 -0.00386399 -0.00880033
v  -0.000978045 0.00130939 -0.00843054
v  0.00216538 -0.000472939 -0.0101648
v  0.000757028 -0.000611384 -0.0105329
v  -0.0144601 -0.0046162 -0.00484168
v  -0.0152157 -0.00561732 -0.00501174
v  -0.00885111 -0.0111226 -0.00982416
v  -0.00547636 -0.0133135 -0.00676018
v  -0.00463807 -0.0139346 -0.0041855
v  -0.00441098 -0.0142146 -0.0017547
v  -0.0110945 -0.0161123 -0.0018357
v  -0.0111812 -0.0160004 -0.00358492
v  -0.0114103 -0.0154334 -0.00606316
v  -0.0126561 -0.0128856 -0.00890112
v  -0.0144447 -0.0104206 -0.00925183
v  -0.0121874 -0.00860405 -0.0103506
v  -0.0163075 -0.00831956 -0.00792789
v  -0.014396 -0.00631887 -0.0076986
v  -0.0134431 -0.0052169 -0.00796389
v  -0.00144982 0.00243848 -0.00966305
v  -0.01719 -0.00728709 -0.00554949
v  0.00382423 -5.33564e-05 -0.00860381
v  0.00463486 -0.00296378 -0.00852358
v  0.00586683 -0.00673586 -0.00513035
v  0.00614643 -0.00758481 -0.00319654
v  0.00620383 -0.00805497 -0.000696472
v  0.00528097 0.00106692 -0.008434
v  0.0077799 -0.000369226 -0.00815701
v  0.0109048 -0.00241375 -0.00464356
v  0.011578 -0.00280696 -0.00279087
v  0.0116886 -0.0031392 -0.00169384
v  0.00823849 -0.000612436 -0.00166458
v  0.00210011 -0.00520688 -0.00114268
v  0.00526959 0.000987175 -0.00123477
v  0.00192332 -0.00163656 -0.00135714
v  0.00157982 -0.00566882 -0.000771963
v  0.000147351 -0.0026651 -0.00115889
v  3.15498e-05 -0.00224757 6.15278e-06
v  0.00160539 -0.000209462 -0.00714958
v  -0.00106674 0.0047015 -0.00562525
v  0.000621071 -2.53399e-05 -0.00554347
v  0.00493437 0.00136501 -0.00700706
v  0.00470132 0.00139886 -0.00508624
v  -0.0149114 -0.0149934 -0.00247854
v  -0.0172995 -0.0128003 -0.00269502
v  -0.0175856 -0.00950235 -0.00562996
v  -0.0154712 -0.011119 -0.00792402
v  -0.0140063 -0.0135117 -0.00775766
v  -0.0129459 -0.0152322 -0.00574005
v  -0.0131535 -0.0155184 -0.00407314
v  -0.016606 -0.0130426 -0.00458944
v  -0.0167705 -0.00989646 -0.00711882
v  -0.0155908 -0.0131243 -0.00641984
v  -0.00154853 0.00507689 -0.000336166
v  0.00500578 0.00107789 0.00191516

# 1 UV coordinates
vt 4.61149 0.499573 0

# 214 vertex normals
vn -0.488327 0.114353 0.865108
vn -0.0863674 0.355571 0.930631
vn -0.438826 0.668874 0.599994
vn -0.0655232 -0.40791 0.910642
vn 0.261666 -0.156346 0.952391
vn 0.441542 -0.643513 0.625202
vn 0.289621 -0.893124 0.344096
vn 0.547563 -0.761193 0.347423
vn 0.297403 -0.935758 0.189367
vn 0.497665 -0.596881 0.629292
vn 0.3455 -0.247017 0.905301
vn 0.584521 -0.74105 0.330302
vn 0.59566 -0.77926 0.194616
vn 0.6386 -0.747887 0.181127
vn -0.58974 0.790887 0.163274
vn -0.589129 0.804743 -0.072573
vn -0.625233 0.776818 -0.0748008
vn -0.620075 0.768395 0.158177
vn -0.433424 0.654958 0.618976
vn 0.0554216 0.710257 0.701712
vn 0.0217292 0.943541 0.330485
vn 0.0278329 0.258217 0.965667
vn 0.426313 -0.204474 0.88113
vn 0.270608 0.379772 0.884579
vn 0.651692 -0.508927 0.562334
vn 0.751274 -0.596729 0.281808
vn 0.752495 -0.641865 0.147404
vn 0.913114 -0.396924 -0.0929593
vn 0.698538 -0.641347 0.317301
vn 0.655629 -0.506577 0.559893
vn 0.508896 0.503464 0.698233
vn 0.663381 0.683279 0.304941
vn 0.498581 -0.25309 0.829035
vn -0.736717 0.665182 0.121403
vn -0.748833 0.657643 -0.0816981
vn -0.718375 0.69097 -0.0801111
vn -0.131443 -0.528001 0.838984
vn 0.119114 -0.806207 0.579455
vn 0.204901 -0.769646 0.604663
vn 0.210974 -0.929563 0.302255
vn 0.216315 -0.967101 0.133854
vn 0.00997955 -0.99649 0.0827967
vn -0.00021363 -0.979247 0.202521
vn -0.30018 -0.524216 0.796899
vn -0.0444654 -0.860347 0.507706
vn -0.539048 -0.00650042 0.842219
vn -0.604541 -0.0989715 0.790368
vn -0.724631 0.520707 0.451338
vn -0.704367 0.554979 0.442488
vn 0.608112 0.754387 0.247017
vn -0.719779 0.680654 0.136082
vn -0.850612 0.505448 0.144749
vn 0.220862 -0.297159 0.928922
vn 0.33195 -0.656911 0.676901
vn 0.504715 -0.685629 -0.524522
vn 0.412977 -0.813013 0.410382
vn 0.208533 -0.260292 0.942717
vn -0.297403 0.485092 0.822291
vn -0.0723594 0.598559 0.797754
vn 0.478927 -0.578265 0.660451
vn 0.578692 -0.693991 0.428327
vn 0.691611 -0.62505 -0.361797
vn 0.203986 0.0141301 -0.978851
vn 0.243751 0.037141 -0.969115
vn 0.251473 -0.0208136 -0.96762
vn 0.781365 0.181433 -0.597064
vn 0.804743 0.326975 -0.495438
vn 0.988708 -0.122288 0.0863674
vn 0.965331 0.250374 0.0737021
vn 0.110446 0.980316 0.163518
vn 0.408368 0.868984 0.279366
vn -0.437483 0.879482 0.187292
vn -0.377087 0.923856 0.065157
vn -0.288597 -0.956612 0.040057
vn -0.655506 -0.755019 -0.0160874
vn -0.964164 -0.26031 -0.0512498
vn -0.943877 0.03266 0.32868
vn -0.816505 -0.179596 0.548693
vn -0.577838 -0.396356 0.713446
vn -0.316809 -0.764122 0.561916
vn -0.199492 -0.956841 0.211323
vn -0.235727 -0.969458 0.0677096
vn -0.570385 -0.776308 0.26834
vn -0.910319 -0.330504 0.249172
vn -0.576128 -0.788903 0.213796
vn -0.875129 -0.368889 0.313161
vn -0.573172 -0.746637 0.33765
vn -0.20661 0.977355 -0.045442
vn -0.82519 0.558306 -0.0852687
vn 0.771661 -0.630604 0.0827967
vn 0.660634 -0.746727 0.0768761
vn 0.629505 -0.773339 0.0750755
vn 0.299631 -0.952574 0.0525223
vn 0.227485 -0.972625 0.047029
vn -0.982852 0.182948 -0.0230794
vn -0.329997 0.631245 -0.701865
vn 0.0710471 0.30137 -0.950835
vn -0.336985 0.0623798 -0.939421
vn 0.0849025 -0.459609 -0.88403
vn 0.536424 -0.676015 -0.505173
vn 0.29902 -0.801874 -0.517228
vn 0.338603 -0.909909 -0.239479
vn 0.594287 -0.777001 -0.207495
vn 0.616138 -0.786126 -0.0480361
vn 0.3202 -0.943632 -0.0834681
vn 0.592578 -0.629414 -0.50264
vn 0.415723 -0.209204 -0.885067
vn 0.627766 -0.755883 -0.185736
vn 0.656209 -0.75396 -0.0294198
vn -0.550676 0.777337 -0.304056
vn -0.581561 0.755059 -0.302713
vn -0.321757 0.616321 -0.718741
vn 0.0809045 0.923246 -0.375469
vn 0.189093 0.202673 -0.960784
vn 0.565874 -0.252541 -0.784845
vn 0.490097 -0.296762 -0.819575
vn 0.733573 -0.537217 -0.416211
vn 0.784814 -0.608264 -0.118412
vn 0.763543 -0.645497 0.0166936
vn 0.738548 -0.655019 -0.15949
vn 0.883053 -0.386456 0.266091
vn 0.737083 -0.534684 -0.413251
vn 0.628315 -0.297739 -0.718711
vn 0.708182 0.667928 -0.228675
vn 0.620411 0.465285 -0.631306
vn 0.415906 0.329814 -0.847468
vn -0.703055 0.653646 -0.280068
vn -0.68392 0.668294 -0.292551
vn 0.00741595 -0.575701 -0.817621
vn 0.209937 -0.837428 -0.504562
vn 0.253731 -0.944334 -0.209327
vn 0.230689 -0.972167 -0.0405285
vn 0.0188604 -0.999542 -0.0229499
vn 0.0288094 -0.989227 -0.143468
vn 0.0364085 -0.88815 -0.458083
vn -0.16599 -0.57033 -0.804437
vn -0.465224 -0.146824 -0.872921
vn -0.391491 -0.0571611 -0.918363
vn -0.702841 0.266823 -0.659383
vn -0.637043 0.490585 -0.594501
vn -0.618275 0.525468 -0.58446
vn 0.174902 0.669332 -0.722037
vn -0.812342 0.492141 -0.312815
vn 0.0639668 0.551805 -0.831477
vn 0.370892 -0.348674 -0.860714
vn 0.436781 -0.692892 -0.573656
vn 0.471541 -0.833186 -0.288766
vn 0.407086 -0.652028 0.639607
vn -0.154241 0.435774 -0.886715
vn 0.361187 -0.312845 -0.878414
vn 0.579272 -0.61272 -0.537583
vn 0.638508 -0.71456 -0.285714
vn 0.618671 -0.599933 0.507248
vn 0.0383617 0.0710776 0.996704
vn 0.0792871 0.0936003 0.992431
vn 0.050386 -0.0109256 0.998657
vn 0.0869472 0.0356761 0.995544
vn 0.671896 0.219062 0.70748
vn 0.712729 0.358562 0.602832
vn 0.906827 0.416547 0.0640278
vn 0.14066 0.969909 -0.198553
vn 0.644459 0.741905 -0.185003
vn 0.453383 0.853511 -0.256752
vn -0.396008 0.865261 -0.307321
vn -0.356517 0.916837 -0.179693
vn -0.278848 -0.960211 -0.0154797
vn -0.667187 -0.737098 -0.107464
vn -0.959001 -0.230252 -0.165231
vn -0.89594 0.174842 -0.408317
vn -0.714913 -0.214499 -0.6655
vn -0.600862 -0.415352 -0.68297
vn -0.222623 -0.796476 -0.562197
vn -0.184749 -0.961602 -0.202952
vn -0.282046 -0.959388 0.00493908
vn -0.661615 -0.735053 -0.1482
vn -0.857989 -0.348371 -0.377482
vn -0.576505 -0.790306 -0.207506
vn -0.720868 -0.387849 -0.574389
vn -0.640419 -0.436043 -0.632242
vn 0.299539 0.95407 -0.00234991
vn -0.0135807 -0.999512 0.0275887
vn -0.967556 0.21754 -0.128498
vn -0.801386 0.300638 0.517075
vn 0.215705 -0.0677816 -0.97409
vn -0.282014 -0.959121 0.0235535
vn -0.679467 -0.732773 0.0369809
vn -0.974236 -0.224945 0.016242
vn -0.950488 0.193806 0.242924
vn -0.757223 -0.153251 0.634924
vn -0.70807 -0.378476 0.596148
vn -0.270158 -0.733127 0.624131
vn -0.221075 -0.949192 0.223964
vn -0.281777 -0.959474 0.00332767
vn -0.680742 -0.728375 0.077849
vn -0.93509 -0.32032 0.151663
vn -0.606842 -0.779995 0.15281
vn -0.808417 -0.357577 0.467548
vn -0.738662 -0.402163 0.540965
vn -0.974398 0.219884 -0.0468951
vn -0.282511 -0.958709 -0.0326207
vn -0.652623 -0.756004 -0.0504171
vn -0.96047 -0.261575 -0.0952721
vn -0.876021 0.00982946 -0.482174
vn -0.641443 -0.192657 -0.742586
vn -0.453225 -0.439225 -0.775673
vn -0.166259 -0.768941 -0.617323
vn -0.166155 -0.968217 -0.186946
vn -0.225137 -0.972989 -0.0510424
vn -0.521804 -0.79313 -0.314111
vn -0.898471 -0.332791 -0.286356
vn -0.536331 -0.802439 -0.261612
vn -0.812308 -0.390663 -0.433057
vn -0.512665 -0.767437 -0.384988
vn -0.972122 0.179111 -0.151321

# Mesh 'RThumb3_RThumb3' with 324 faces
g RThumb3_RThumb3
usemtl MainSkin
f  1/1/1 2/1/2 3/1/3
f  4/1/4 5/1/5 2/1/2
f  6/1/6 5/1/5 4/1/4
f  7/1/7 8/1/8 6/1/6
f  8/1/8 7/1/7 9/1/9
f  10/1/10 11/1/11 5/1/5
f  12/1/12 10/1/10 6/1/6
f  8/1/8 13/1/13 14/1/14
f  15/1/15 16/1/16 17/1/17
f  18/1/18 3/1/3 19/1/19
f  19/1/19 20/1/20 21/1/21
f  22/1/22 2/1/2 5/1/5
f  23/1/23 24/1/24 22/1/22
f  11/1/11 10/1/10 25/1/25
f  10/1/10 12/1/12 26/1/26
f  27/1/27 26/1/26 12/1/12
f  26/1/26 27/1/27 28/1/28
f  25/1/25 26/1/26 29/1/29
f  23/1/23 25/1/25 30/1/30
f  24/1/24 31/1/31 32/1/32
f  24/1/24 23/1/23 33/1/33
f  34/1/34 35/1/35 36/1/36
f  37/1/37 4/1/4 1/1/1
f  4/1/4 37/1/37 38/1/38
f  39/1/39 38/1/38 40/1/40
f  40/1/40 41/1/41 9/1/9
f  42/1/42 41/1/41 40/1/40
f  43/1/43 40/1/40 38/1/38
f  37/1/37 44/1/44 45/1/45
f  44/1/44 37/1/37 46/1/46
f  47/1/47 46/1/46 48/1/48
f  49/1/49 3/1/3 18/1/18
f  3/1/3 2/1/2 22/1/22
f  22/1/22 24/1/24 20/1/20
f  32/1/32 50/1/50 21/1/21
f  49/1/49 48/1/48 46/1/46
f  48/1/48 51/1/51 52/1/52
f  31/1/31 33/1/33 53/1/53
f  54/1/54 53/1/53 33/1/33
f  54/1/54 30/1/30 29/1/29
f  55/1/55 56/1/56 29/1/29
f  57/1/57 58/1/58 59/1/59
f  54/1/54 60/1/60 57/1/57
f  56/1/56 61/1/61 60/1/60
f  56/1/56 55/1/55 62/1/62
f  63/1/63 62/1/62 55/1/55
f  63/1/63 64/1/64 65/1/65
f  64/1/64 55/1/55 28/1/28
f  64/1/64 66/1/66 67/1/67
f  68/1/68 69/1/69 66/1/66
f  67/1/67 66/1/66 69/1/69
f  31/1/31 59/1/59 70/1/70
f  32/1/32 70/1/70 71/1/71
f  72/1/72 70/1/70 59/1/59
f  70/1/70 72/1/72 73/1/73
f  34/1/34 51/1/51 48/1/48
f  74/1/74 75/1/74 42/1/74
f  76/1/75 74/1/75 77/1/75
f  78/1/76 76/1/76 79/1/76
f  80/1/77 81/1/77 82/1/77
f  83/1/78 47/1/78 82/1/78
f  84/1/79 44/1/79 47/1/79
f  84/1/80 85/1/80 45/1/80
f  45/1/81 85/1/81 86/1/81
f  42/1/82 43/1/82 86/1/82
f  77/1/83 86/1/83 87/1/83
f  87/1/84 81/1/84 80/1/84
f  88/1/85 87/1/85 86/1/85
f  81/1/86 87/1/86 88/1/86
f  88/1/87 85/1/87 84/1/87
f  34/1/34 18/1/18 17/1/17
f  15/1/15 21/1/21 89/1/88
f  89/1/88 21/1/21 50/1/50
f  90/1/89 52/1/52 51/1/51
f  28/1/28 27/1/27 91/1/90
f  27/1/27 14/1/14 92/1/91
f  14/1/14 13/1/13 93/1/92
f  13/1/13 9/1/9 94/1/93
f  94/1/93 9/1/9 41/1/41
f  95/1/94 41/1/41 42/1/42
f  78/1/95 80/1/95 52/1/95
f  96/1/96 97/1/97 98/1/98
f  99/1/99 98/1/98 97/1/97
f  100/1/100 101/1/101 99/1/99
f  102/1/102 101/1/101 100/1/100
f  103/1/103 104/1/104 105/1/105
f  106/1/106 100/1/100 107/1/107
f  108/1/108 103/1/103 100/1/100
f  103/1/103 108/1/108 109/1/109
f  110/1/110 111/1/111 17/1/17
f  111/1/111 110/1/110 112/1/112
f  112/1/112 110/1/110 113/1/113
f  107/1/107 97/1/97 114/1/114
f  115/1/115 116/1/116 114/1/114
f  116/1/116 115/1/115 117/1/117
f  106/1/106 117/1/117 118/1/118
f  119/1/119 109/1/109 108/1/108
f  118/1/118 120/1/120 121/1/121
f  117/1/117 122/1/122 120/1/120
f  115/1/115 123/1/123 122/1/122
f  124/1/124 125/1/125 126/1/126
f  123/1/123 115/1/115 126/1/126
f  127/1/127 128/1/128 36/1/36
f  98/1/98 99/1/99 129/1/129
f  99/1/99 101/1/101 130/1/130
f  101/1/101 102/1/102 131/1/131
f  105/1/105 132/1/132 131/1/131
f  133/1/133 134/1/134 131/1/131
f  134/1/134 135/1/135 130/1/130
f  129/1/129 130/1/130 135/1/135
f  136/1/136 137/1/137 138/1/138
f  137/1/137 139/1/139 140/1/140
f  111/1/111 96/1/96 141/1/141
f  96/1/96 112/1/112 114/1/114
f  114/1/114 112/1/112 142/1/142
f  124/1/124 142/1/142 113/1/113
f  138/1/138 140/1/140 141/1/141
f  143/1/143 128/1/128 140/1/140
f  125/1/125 144/1/144 145/1/145
f  146/1/146 122/1/122 123/1/123
f  146/1/146 147/1/147 120/1/120
f  148/1/148 121/1/121 120/1/120
f  144/1/144 149/1/149 150/1/150
f  146/1/146 145/1/145 150/1/150
f  147/1/147 146/1/146 151/1/151
f  147/1/147 152/1/152 153/1/153
f  154/1/154 155/1/155 148/1/148
f  154/1/154 156/1/156 157/1/157
f  155/1/155 158/1/158 121/1/121
f  155/1/155 157/1/157 159/1/159
f  68/1/68 121/1/121 158/1/158
f  159/1/159 160/1/160 69/1/69
f  125/1/125 124/1/124 161/1/161
f  124/1/124 162/1/162 163/1/163
f  164/1/164 149/1/149 144/1/144
f  161/1/161 163/1/163 165/1/165
f  140/1/140 128/1/128 127/1/127
f  74/1/166 166/1/166 133/1/166
f  76/1/167 167/1/167 166/1/167
f  78/1/168 168/1/168 167/1/168
f  168/1/169 143/1/169 139/1/169
f  139/1/170 137/1/170 169/1/170
f  170/1/171 169/1/171 137/1/171
f  135/1/172 171/1/172 170/1/172
f  135/1/173 134/1/173 172/1/173
f  133/1/174 166/1/174 172/1/174
f  166/1/175 167/1/175 173/1/175
f  168/1/176 174/1/176 173/1/176
f  175/1/177 171/1/177 172/1/177
f  174/1/178 169/1/178 175/1/178
f  175/1/179 169/1/179 170/1/179
f  127/1/127 35/1/35 17/1/17
f  110/1/110 16/1/16 89/1/88
f  89/1/88 176/1/180 162/1/162
f  90/1/89 36/1/36 128/1/128
f  121/1/121 68/1/68 91/1/90
f  119/1/119 91/1/90 92/1/91
f  109/1/109 92/1/91 93/1/92
f  104/1/104 93/1/92 94/1/93
f  94/1/93 95/1/94 132/1/132
f  95/1/94 75/1/181 133/1/133
f  78/1/182 90/1/182 143/1/182
f  49/1/49 1/1/1 3/1/3
f  1/1/1 4/1/4 2/1/2
f  39/1/39 6/1/6 4/1/4
f  39/1/39 7/1/7 6/1/6
f  13/1/13 8/1/8 9/1/9
f  6/1/6 10/1/10 5/1/5
f  8/1/8 12/1/12 6/1/6
f  12/1/12 8/1/8 14/1/14
f  18/1/18 15/1/15 17/1/17
f  15/1/15 18/1/18 19/1/19
f  15/1/15 19/1/19 21/1/21
f  11/1/11 22/1/22 5/1/5
f  11/1/11 23/1/23 22/1/22
f  23/1/23 11/1/11 25/1/25
f  25/1/25 10/1/10 26/1/26
f  14/1/14 27/1/27 12/1/12
f  29/1/29 26/1/26 28/1/28
f  30/1/30 25/1/25 29/1/29
f  33/1/33 23/1/23 30/1/30
f  20/1/20 24/1/24 32/1/32
f  31/1/31 24/1/24 33/1/33
f  51/1/51 34/1/34 36/1/36
f  46/1/46 37/1/37 1/1/1
f  39/1/39 4/1/4 38/1/38
f  7/1/7 39/1/39 40/1/40
f  7/1/7 40/1/40 9/1/9
f  43/1/43 42/1/42 40/1/40
f  45/1/45 43/1/43 38/1/38
f  38/1/38 37/1/37 45/1/45
f  47/1/47 44/1/44 46/1/46
f  82/1/183 47/1/47 48/1/48
f  34/1/34 49/1/49 18/1/18
f  19/1/19 3/1/3 22/1/22
f  19/1/19 22/1/22 20/1/20
f  20/1/20 32/1/32 21/1/21
f  1/1/1 49/1/49 46/1/46
f  82/1/183 48/1/48 52/1/52
f  59/1/59 31/1/31 53/1/53
f  30/1/30 54/1/54 33/1/33
f  56/1/56 54/1/54 29/1/29
f  28/1/28 55/1/55 29/1/29
f  53/1/53 57/1/57 59/1/59
f  53/1/53 54/1/54 57/1/57
f  54/1/54 56/1/56 60/1/60
f  61/1/61 56/1/56 62/1/62
f  64/1/64 63/1/63 55/1/55
f  177/1/184 63/1/63 65/1/65
f  66/1/66 64/1/64 28/1/28
f  65/1/65 64/1/64 67/1/67
f  28/1/28 68/1/68 66/1/66
f  160/1/160 67/1/67 69/1/69
f  32/1/32 31/1/31 70/1/70
f  50/1/50 32/1/32 71/1/71
f  58/1/58 72/1/72 59/1/59
f  71/1/71 70/1/70 73/1/73
f  49/1/49 34/1/34 48/1/48
f  77/1/185 74/1/185 42/1/185
f  79/1/186 76/1/186 77/1/186
f  80/1/187 78/1/187 79/1/187
f  52/1/188 80/1/188 82/1/188
f  81/1/189 83/1/189 82/1/189
f  83/1/190 84/1/190 47/1/190
f  44/1/191 84/1/191 45/1/191
f  43/1/192 45/1/192 86/1/192
f  77/1/193 42/1/193 86/1/193
f  79/1/194 77/1/194 87/1/194
f  79/1/195 87/1/195 80/1/195
f  85/1/196 88/1/196 86/1/196
f  83/1/197 81/1/197 88/1/197
f  83/1/198 88/1/198 84/1/198
f  35/1/35 34/1/34 17/1/17
f  16/1/16 15/1/15 89/1/88
f  176/1/180 89/1/88 50/1/50
f  36/1/36 90/1/89 51/1/51
f  68/1/68 28/1/28 91/1/90
f  91/1/90 27/1/27 92/1/91
f  92/1/91 14/1/14 93/1/92
f  93/1/92 13/1/13 94/1/93
f  95/1/94 94/1/93 41/1/41
f  75/1/181 95/1/94 42/1/42
f  90/1/199 78/1/199 52/1/199
f  141/1/141 96/1/96 98/1/98
f  107/1/107 99/1/99 97/1/97
f  107/1/107 100/1/100 99/1/99
f  103/1/103 102/1/102 100/1/100
f  102/1/102 103/1/103 105/1/105
f  116/1/116 106/1/106 107/1/107
f  106/1/106 108/1/108 100/1/100
f  104/1/104 103/1/103 109/1/109
f  16/1/16 110/1/110 17/1/17
f  96/1/96 111/1/111 112/1/112
f  142/1/142 112/1/112 113/1/113
f  116/1/116 107/1/107 114/1/114
f  126/1/126 115/1/115 114/1/114
f  106/1/106 116/1/116 117/1/117
f  108/1/108 106/1/106 118/1/118
f  118/1/118 119/1/119 108/1/108
f  119/1/119 118/1/118 121/1/121
f  118/1/118 117/1/117 120/1/120
f  117/1/117 115/1/115 122/1/122
f  142/1/142 124/1/124 126/1/126
f  125/1/125 123/1/123 126/1/126
f  35/1/35 127/1/127 36/1/36
f  138/1/138 98/1/98 129/1/129
f  129/1/129 99/1/99 130/1/130
f  130/1/130 101/1/101 131/1/131
f  102/1/102 105/1/105 131/1/131
f  132/1/132 133/1/133 131/1/131
f  131/1/131 134/1/134 130/1/130
f  136/1/136 129/1/129 135/1/135
f  129/1/129 136/1/136 138/1/138
f  138/1/138 137/1/137 140/1/140
f  127/1/127 111/1/111 141/1/141
f  97/1/97 96/1/96 114/1/114
f  126/1/126 114/1/114 142/1/142
f  162/1/162 124/1/124 113/1/113
f  98/1/98 138/1/138 141/1/141
f  139/1/139 143/1/143 140/1/140
f  123/1/123 125/1/125 145/1/145
f  145/1/145 146/1/146 123/1/123
f  122/1/122 146/1/146 120/1/120
f  147/1/147 148/1/148 120/1/120
f  145/1/145 144/1/144 150/1/150
f  151/1/151 146/1/146 150/1/150
f  152/1/152 147/1/147 151/1/151
f  148/1/148 147/1/147 153/1/153
f  153/1/153 154/1/154 148/1/148
f  155/1/155 154/1/154 157/1/157
f  148/1/148 155/1/155 121/1/121
f  158/1/158 155/1/155 159/1/159
f  69/1/69 68/1/68 158/1/158
f  158/1/158 159/1/159 69/1/69
f  144/1/144 125/1/125 161/1/161
f  161/1/161 124/1/124 163/1/163
f  161/1/161 164/1/164 144/1/144
f  164/1/164 161/1/161 165/1/165
f  141/1/141 140/1/140 127/1/127
f  75/1/200 74/1/200 133/1/200
f  74/1/201 76/1/201 166/1/201
f  76/1/202 78/1/202 167/1/202
f  174/1/203 168/1/203 139/1/203
f  174/1/204 139/1/204 169/1/204
f  136/1/205 170/1/205 137/1/205
f  136/1/206 135/1/206 170/1/206
f  171/1/207 135/1/207 172/1/207
f  134/1/208 133/1/208 172/1/208
f  172/1/209 166/1/209 173/1/209
f  167/1/210 168/1/210 173/1/210
f  173/1/211 175/1/211 172/1/211
f  173/1/212 174/1/212 175/1/212
f  171/1/213 175/1/213 170/1/213
f  111/1/111 127/1/127 17/1/17
f  113/1/113 110/1/110 89/1/88
f  113/1/113 89/1/88 162/1/162
f  143/1/143 90/1/89 128/1/128
f  119/1/119 121/1/121 91/1/90
f  109/1/109 119/1/119 92/1/91
f  104/1/104 109/1/109 93/1/92
f  105/1/105 104/1/104 94/1/93
f  105/1/105 94/1/93 132/1/132
f  132/1/132 95/1/94 133/1/133
f  168/1/214 78/1/214 143/1/214

