# File produced by Open Asset Import Library (http://www.assimp.sf.net)
# (assimp v3.2.0)

mtllib RThumb2.mtl

# 170 vertex positions
v  -0.00757778 -0.000107575 0.012034
v  -0.00866014 0.00335318 0.00895047
v  -0.016301 -0.00308084 0.00829422
v  -0.00891572 -0.00875759 0.0123079
v  -0.00487256 -0.00513226 0.0126506
v  -0.00224572 -0.00985998 0.00926358
v  -0.00492823 -0.0120237 0.00916392
v  -0.00369209 -0.0132732 0.00588244
v  -0.00117397 -0.0110893 0.00625789
v  -0.00058255 -0.0116884 0.00334841
v  -0.00151175 -0.00836211 0.00886124
v  -0.00405311 -0.0041815 0.012236
v  -0.000726137 -0.00981784 0.00625557
v  -0.000118842 -0.0106586 0.00325316
v  -0.00863558 0.00496149 0.00397682
v  -0.00756347 0.00509238 0.00388199
v  -0.00761437 0.0052644 -0.000269332
v  -0.00739849 0.00361299 0.00861162
v  -0.0044952 0.00548071 0.00982589
v  -0.00462246 0.00775272 0.00596714
v  -0.00131989 -0.00202894 0.0127759
v  -0.0023036 0.00321817 0.0127502
v  -0.00647283 0.000765372 0.0115459
v  0.00025338 -0.0070253 0.00886494
v  0.000758436 -0.00845957 0.00643933
v  0.00138312 -0.00932729 0.00328213
v  0.00170672 -0.00666374 0.00315243
v  0.00133431 -0.00597537 0.00588775
v  0.000957793 -0.00460172 0.00777972
v  -0.000550744 0.00340003 0.0113981
v  -0.003649 0.00430661 0.00885034
v  0.000111894 -0.000238282 0.0104679
v  -0.017585 -0.00342172 0.00336438
v  -0.0172651 -0.00220883 0.00352043
v  -0.0173014 -0.00217646 -0.00106966
v  -0.00968474 -0.00932705 0.0117474
v  -0.0136921 -0.00494891 0.0114962
v  -0.00613374 -0.012296 0.00864035
v  -0.00451368 -0.0134122 0.00571758
v  -0.00405037 -0.0139464 0.00302291
v  -0.00311899 -0.0138099 0.00316787
v  -0.00557136 -0.0151951 0.00287408
v  -0.00656563 -0.0148824 0.00536668
v  -0.0128346 -0.0119724 0.0117778
v  -0.0082767 -0.0140131 0.00840139
v  -0.014246 -0.00564361 0.0110116
v  -0.0186568 -0.00994861 0.0112164
v  -0.0166391 -0.00402498 0.00775445
v  -0.00344026 0.00755501 0.0057205
v  -0.0238527 -0.00806844 0.00324142
v  -0.0221602 -0.00854945 0.00805306
v  -0.00841331 -0.0148124 0.00468117
v  -0.00748897 -0.0153188 0.00246125
v  -0.0100698 -0.014197 0.00731909
v  -0.0185076 -0.0113665 0.0106456
v  -0.0138774 -0.0127343 0.00976473
v  -0.0225417 -0.00973415 0.00810176
v  -0.0239352 -0.00922823 0.00321311
v  -0.02408 -0.0082013 -0.00157315
v  0.00259632 0.00126791 0.0105962
v  0.00490862 -0.00267482 0.00797146
v  0.00567251 -0.00367194 0.0062412
v  0.00629043 -0.00438303 0.00387114
v  0.00577015 0.0047248 0.0106093
v  0.00296271 0.00562179 0.0101941
v  0.00148511 0.00410563 0.0101799
v  0.00995928 0.00304556 0.00807101
v  0.0110858 0.00263053 0.00645214
v  0.0114571 0.0022071 0.00544387
v  0.00762111 0.00397456 0.00441045
v  0.00164062 -0.00240088 0.00312614
v  0.00111634 0.00129509 0.00289911
v  0.00120836 -0.00304818 0.00270754
v  -0.000628342 -0.000239534 0.00244903
v  0.0018481 -0.00670415 0.00183099
v  0.00131136 -0.00306362 0.00150818
v  -0.000537479 0.00324917 0.00831437
v  -0.00125635 0.00304329 0.00652331
v  0.00286919 0.00571066 0.00869864
v  0.00301921 0.00550687 0.0067752
v  -0.0087111 0.00508171 -0.00040565
v  -0.00498939 0.00779498 -8.81925e-05
v  -0.0028609 0.00731701 0.000232223
v  -0.0176287 -0.00317567 -0.00104505
v  0.00148171 -0.00958258 0.00197881
v  -3.00437e-05 -0.0109385 0.00186771
v  -0.00046223 -0.0119498 0.0018779
v  -0.00291491 -0.0139743 0.0016858
v  -0.0038684 -0.0141774 0.00157046
v  -0.00527066 -0.0153252 0.00145996
v  -0.00483817 -0.00211209 -0.0113187
v  -0.0109629 -0.00694627 -0.0117727
v  -0.0141957 -0.00462061 -0.00964779
v  -0.00620848 -0.0107381 -0.0107734
v  -0.000461501 -0.0111654 -0.0059458
v  -0.00311762 -0.0133482 -0.00626987
v  -0.00269383 -0.0140046 -0.00263339
v  -0.000131406 -0.0118511 -0.00261873
v  -0.000237059 -0.0119413 0.000404622
v  0.000181053 -0.00960052 -0.0055666
v  -0.00215518 -0.00712091 -0.010519
v  0.00032026 -0.0105836 -0.00266832
v  0.000206834 -0.0108969 0.000479691
v  -0.0066151 0.00439852 -0.00420773
v  -0.00763333 0.00422865 -0.00456554
v  -0.0053916 0.00214511 -0.00849402
v  -0.00324422 0.0067445 -0.0057835
v  -0.00386596 -0.00114202 -0.0106763
v  -0.00144148 -0.00609237 -0.010032
v  0.00136501 -0.00399286 -0.0101143
v  0.00191295 -0.00823998 -0.00528222
v  0.00182342 -0.00923759 -0.00263339
v  0.00168902 -0.00955188 0.00067088
v  0.00229347 -0.00667685 -0.00228655
v  0.00201571 -0.0068897 0.000522655
v  0.0023849 -0.00564468 -0.00438195
v  0.00225037 -0.00180382 -0.00776613
v  -0.00169343 0.00287557 -0.00782353
v  0.00187922 0.00162172 -0.00932032
v  0.000489034 0.00117576 -0.0110549
v  -0.0162135 -0.00297832 -0.00545007
v  -0.0165775 -0.00415873 -0.00522327
v  -0.00709051 -0.0112246 -0.0103643
v  -0.00441027 -0.0135572 -0.00605053
v  -0.00352961 -0.014132 -0.00267369
v  -0.00370735 -0.0141971 9.99402e-05
v  -0.00523573 -0.0154407 8.18726e-06
v  -0.00562108 -0.0155732 -0.00268388
v  -0.00656837 -0.0152622 -0.00615823
v  -0.010177 -0.0139165 -0.0108718
v  -0.0159155 -0.0119537 -0.0121473
v  -0.0116215 -0.00756347 -0.0113623
v  -0.0200155 -0.0101192 -0.0102342
v  -0.0146631 -0.00547075 -0.00909412
v  -0.00654083 0.00180215 -0.00911897
v  -0.00227028 0.00385296 -0.00913841
v  -0.00719005 -0.0155377 -8.69948e-05
v  -0.00756764 -0.0154316 -0.00252581
v  -0.0085575 -0.0153025 -0.0055722
v  -0.0116622 -0.0143554 -0.00911891
v  -0.0159254 -0.0132562 -0.0113714
v  -0.0203918 -0.0113072 -0.0102226
v  -0.0228575 -0.0100166 -0.0059796
v  -0.0247229 -0.00918782 -0.00159222
v  0.00358379 0.00257069 -0.00770944
v  0.00471097 -0.000278923 -0.00743383
v  0.00628644 -0.00368267 -0.00377834
v  0.00661469 -0.00436121 -0.00178581
v  0.00665843 -0.00465178 0.00074209
v  0.00504321 0.00410074 -0.00753599
v  0.00784445 0.00320822 -0.00706887
v  0.0112939 0.00206864 -0.00330573
v  0.0120066 0.00195563 -0.00140154
v  0.0121279 0.0017156 -0.000280742
v  0.00820213 0.0035494 -0.000543744
v  0.00201249 -0.00267267 -4.20571e-05
v  0.00486326 0.00455397 -0.000333471
v  0.00151044 0.0010066 -0.000460291
v  0.00148666 -0.00325185 0.000331271
v  -0.000307737 -0.00047512 -0.000284571
v  -0.000529288 0.000104473 0.00104213
v  0.00118268 0.00199139 -0.0063445
v  -0.00215882 0.00661695 -0.00520795
v  7.15233e-05 0.00207204 -0.00479263
v  0.00460953 0.00443751 -0.00614095
v  0.00431037 0.0045619 -0.00423258
v  -0.0227527 -0.00887382 -0.00614107
v  -0.00276953 -0.0140649 0.000189406
v  -0.00744909 -0.0154263 0.00117224
v  0.00445038 0.00485653 0.00318962

# 1 UV coordinates
vt 4.61149 0.499573 0

# 170 vertex normals
vn -0.129795 0.381115 0.915342
vn -0.352977 0.767266 0.535386
vn -0.76458 0.4073 0.499466
vn -0.0621051 -0.37141 0.926359
vn 0.282571 -0.0900601 0.954985
vn 0.6133 -0.439253 0.656392
vn 0.246895 -0.728599 0.638874
vn 0.350505 -0.869594 0.347697
vn 0.749352 -0.547166 0.372875
vn 0.785852 -0.576861 0.222694
vn 0.617237 -0.428205 0.659993
vn 0.269723 -0.116123 0.955901
vn 0.757591 -0.517411 0.397839
vn 0.79104 -0.563829 0.237281
vn -0.387829 0.907224 0.162542
vn -0.440687 0.882504 0.164098
vn -0.411115 0.902798 -0.126041
vn -0.377178 0.758507 0.531388
vn -0.10889 0.828089 0.549882
vn -0.112278 0.948729 0.295389
vn 0.408033 -0.14182 0.901852
vn 0.208472 0.520798 0.827815
vn -0.177618 0.403516 0.897549
vn 0.703269 -0.403943 0.584979
vn 0.803156 -0.467696 0.368969
vn 0.861995 -0.457595 0.217933
vn 0.967589 -0.251534 -0.0219428
vn 0.772942 -0.507553 0.380657
vn 0.696005 -0.392254 0.601367
vn 0.491378 0.652486 0.576861
vn 0.538621 0.802606 0.256294
vn 0.57741 -0.154698 0.80163
vn -0.822901 0.550005 0.14243
vn -0.837214 0.529496 0.136662
vn -0.826868 0.543596 -0.143956
vn -0.0487381 -0.410413 0.910581
vn -0.477248 0.0974151 0.873318
vn 0.210913 -0.754997 0.620838
vn 0.294412 -0.886288 0.357433
vn 0.368297 -0.903378 0.219611
vn 0.390484 -0.895657 0.212775
vn 0.322855 -0.925779 0.196509
vn 0.252724 -0.915036 0.31431
vn -0.0227057 -0.480117 0.876888
vn 0.197455 -0.812738 0.548113
vn -0.486465 0.0992156 0.868038
vn -0.445143 0.028077 0.894986
vn -0.766503 0.43025 0.476791
vn 0.493026 0.83581 0.241401
vn -0.817957 0.546373 0.179968
vn -0.739128 0.397473 0.543718
vn -0.0538651 -0.980773 0.187414
vn 0.00350958 -0.992096 0.125339
vn -0.0966826 -0.94583 0.309885
vn -0.408185 -0.495254 0.766839
vn -0.165197 -0.827113 0.537187
vn -0.811823 0.0398266 0.582476
vn -0.94464 0.253334 0.208441
vn -0.809503 0.569262 -0.143529
vn 0.218055 -0.212683 0.952452
vn 0.401013 -0.553758 0.729728
vn 0.520463 -0.707999 0.477279
vn 0.62508 -0.625691 -0.466597
vn 0.204047 -0.190191 0.960295
vn -0.40553 0.459883 0.789941
vn -0.244301 0.607685 0.755669
vn 0.524064 -0.473617 0.707785
vn 0.64861 -0.58327 0.488937
vn 0.783624 -0.556932 -0.275216
vn 0.233406 -0.0150456 -0.972259
vn 0.266213 0.00872826 -0.963866
vn 0.282907 -0.0487991 -0.957884
vn 0.769524 0.226142 -0.597186
vn 0.770012 0.38789 -0.506546
vn 0.993164 0.0220954 0.114536
vn 0.931638 0.354717 0.0786157
vn -0.085696 0.991699 0.095584
vn 0.257851 0.931272 0.257271
vn -0.590686 0.798639 0.115024
vn -0.539048 0.842189 -0.0103152
vn -0.405042 0.905728 -0.124607
vn -0.304147 0.945585 -0.115299
vn 0.20658 0.976623 -0.0591143
vn -0.818964 0.555589 -0.143559
vn 0.864895 -0.481002 0.143406
vn 0.811457 -0.566485 0.143498
vn 0.781579 -0.606922 0.144108
vn 0.409131 -0.903775 0.125462
vn 0.407422 -0.904569 0.125431
vn 0.362346 -0.924101 0.12125
vn 0.120579 0.248115 -0.961181
vn -0.233924 -0.0338755 -0.971648
vn -0.604816 0.321635 -0.728507
vn 0.174963 -0.5009 -0.847621
vn 0.753349 -0.512925 -0.411512
vn 0.392163 -0.809259 -0.43733
vn 0.412397 -0.90463 -0.107334
vn 0.810419 -0.578478 -0.0923185
vn 0.806787 -0.587329 0.0640583
vn 0.759209 -0.500137 -0.416425
vn 0.517716 -0.213385 -0.828486
vn 0.825312 -0.551714 -0.120151
vn 0.815638 -0.576434 0.0491043
vn -0.363048 0.839259 -0.404675
vn -0.311747 0.864223 -0.394818
vn -0.206183 0.666768 -0.716147
vn -0.0130924 0.886196 -0.463118
vn 0.0739769 0.27195 -0.959441
vn 0.508225 -0.237312 -0.827876
vn 0.619526 -0.256508 -0.741844
vn 0.820978 -0.466781 -0.328715
vn 0.862087 -0.498856 -0.0890835
vn 0.881191 -0.467971 0.0666219
vn 0.83578 -0.539171 -0.103458
vn 0.92758 -0.239143 0.286966
vn 0.819025 -0.454848 -0.349712
vn 0.758446 -0.248756 -0.602374
vn 0.598315 0.760399 -0.25251
vn 0.626759 0.56563 -0.535905
vn 0.416089 0.394147 -0.819422
vn -0.765923 0.492172 -0.413648
vn -0.750053 0.511917 -0.418683
vn 0.186712 -0.5356 -0.823542
vn 0.354045 -0.834284 -0.422529
vn 0.361095 -0.924009 -0.125706
vn 0.395062 -0.918271 0.0262459
vn 0.344066 -0.938017 0.0412
vn 0.308298 -0.946898 -0.0911282
vn 0.318766 -0.882046 -0.346904
vn 0.197363 -0.604297 -0.771905
vn -0.19837 -0.106815 -0.974273
vn -0.242836 -0.026368 -0.969695
vn -0.569506 0.305093 -0.763237
vn -0.611744 0.35081 -0.708975
vn -0.184973 0.67394 -0.715232
vn 0.0495926 0.73159 -0.679891
vn 0.0137638 -0.99881 0.0466627
vn -0.0250251 -0.999298 -0.0278329
vn -0.0332346 -0.986053 -0.162877
vn -0.037141 -0.906491 -0.420514
vn -0.206732 -0.615223 -0.760735
vn -0.637745 -0.0567644 -0.768151
vn -0.860653 0.207129 -0.465133
vn -0.940153 0.310099 -0.141087
vn -0.0230109 0.490799 -0.870937
vn 0.456618 -0.335307 -0.82403
vn 0.568682 -0.641347 -0.515
vn 0.614826 -0.757775 -0.21839
vn 0.470687 -0.541612 0.696463
vn -0.17893 0.347758 -0.920316
vn 0.447859 -0.314341 -0.837001
vn 0.684255 -0.555284 -0.472671
vn 0.743889 -0.631703 -0.217994
vn 0.667806 -0.493606 0.557115
vn -0.0317392 0.119724 0.992279
vn 0.00311285 0.143406 0.989654
vn -0.00332647 0.0415967 0.999115
vn 0.0195318 0.085696 0.996124
vn 0.605853 0.321299 0.727775
vn 0.632679 0.473251 0.612964
vn 0.848506 0.526353 0.0545976
vn -0.0341197 0.960326 -0.276742
vn 0.548448 0.797144 -0.25248
vn 0.321299 0.883847 -0.339885
vn -0.522569 0.765252 -0.375805
vn -0.505417 0.824366 -0.254829
vn -0.735405 0.502945 -0.454054
vn 0.414869 -0.909146 0.0360423
vn 0.0391858 -0.995148 0.089938
vn 0.261452 -0.0928067 -0.960723

# Mesh 'RThumb2_RThumb2' with 296 faces
g RThumb2_RThumb2
usemtl MainSkin
f  1/1/1 2/1/2 3/1/3
f  4/1/4 5/1/5 1/1/1
f  6/1/6 5/1/5 4/1/4
f  7/1/7 8/1/8 9/1/9
f  10/1/10 9/1/9 8/1/8
f  11/1/11 12/1/12 5/1/5
f  13/1/13 11/1/11 6/1/6
f  9/1/9 10/1/10 14/1/14
f  15/1/15 16/1/16 17/1/17
f  15/1/15 2/1/2 18/1/18
f  18/1/18 19/1/19 20/1/20
f  1/1/1 5/1/5 12/1/12
f  21/1/21 22/1/22 23/1/23
f  12/1/12 11/1/11 24/1/24
f  11/1/11 13/1/13 25/1/25
f  26/1/26 25/1/25 13/1/13
f  25/1/25 26/1/26 27/1/27
f  24/1/24 25/1/25 28/1/28
f  21/1/21 24/1/24 29/1/29
f  22/1/22 30/1/30 31/1/31
f  22/1/22 21/1/21 32/1/32
f  33/1/33 34/1/34 35/1/35
f  36/1/36 4/1/4 37/1/37
f  4/1/4 36/1/36 38/1/38
f  7/1/7 38/1/38 39/1/39
f  39/1/39 40/1/40 41/1/41
f  42/1/42 40/1/40 39/1/39
f  43/1/43 39/1/39 38/1/38
f  36/1/36 44/1/44 45/1/45
f  44/1/44 36/1/36 46/1/46
f  47/1/47 46/1/46 48/1/48
f  2/1/2 15/1/15 34/1/34
f  2/1/2 1/1/1 23/1/23
f  23/1/23 22/1/22 19/1/19
f  31/1/31 49/1/49 20/1/20
f  3/1/3 48/1/48 46/1/46
f  33/1/33 50/1/50 51/1/51
f  43/1/43 52/1/52 53/1/53
f  52/1/52 43/1/43 45/1/45
f  54/1/54 45/1/45 44/1/44
f  47/1/47 55/1/55 56/1/56
f  47/1/47 51/1/51 57/1/57
f  58/1/58 50/1/50 59/1/59
f  51/1/51 50/1/50 58/1/58
f  30/1/30 32/1/32 60/1/60
f  61/1/61 60/1/60 32/1/32
f  62/1/62 61/1/61 29/1/29
f  63/1/63 62/1/62 28/1/28
f  64/1/64 65/1/65 66/1/66
f  61/1/61 67/1/67 64/1/64
f  62/1/62 68/1/68 67/1/67
f  62/1/62 63/1/63 69/1/69
f  70/1/70 69/1/69 63/1/63
f  70/1/70 71/1/71 72/1/72
f  71/1/71 63/1/63 27/1/27
f  71/1/71 73/1/73 74/1/74
f  75/1/75 76/1/76 73/1/73
f  74/1/74 73/1/73 76/1/76
f  30/1/30 66/1/66 77/1/77
f  31/1/31 77/1/77 78/1/78
f  79/1/79 77/1/77 66/1/66
f  77/1/77 79/1/79 80/1/80
f  34/1/34 33/1/33 48/1/48
f  34/1/34 15/1/15 81/1/81
f  16/1/16 20/1/20 82/1/82
f  83/1/83 82/1/82 20/1/20
f  50/1/50 33/1/33 84/1/84
f  75/1/75 27/1/27 26/1/26
f  85/1/85 26/1/26 14/1/14
f  86/1/86 14/1/14 10/1/10
f  87/1/87 10/1/10 41/1/41
f  88/1/88 41/1/41 40/1/40
f  89/1/89 40/1/40 42/1/42
f  90/1/90 42/1/42 53/1/53
f  91/1/91 92/1/92 93/1/93
f  94/1/94 92/1/92 91/1/91
f  95/1/95 96/1/96 94/1/94
f  97/1/97 96/1/96 95/1/95
f  97/1/97 98/1/98 99/1/99
f  100/1/100 95/1/95 101/1/101
f  102/1/102 98/1/98 95/1/95
f  98/1/98 102/1/102 103/1/103
f  104/1/104 105/1/105 81/1/81
f  105/1/105 104/1/104 106/1/106
f  106/1/106 104/1/104 107/1/107
f  91/1/91 108/1/108 109/1/109
f  110/1/110 109/1/109 108/1/108
f  109/1/109 110/1/110 111/1/111
f  100/1/100 111/1/111 112/1/112
f  113/1/113 103/1/103 102/1/102
f  112/1/112 114/1/114 115/1/115
f  111/1/111 116/1/116 114/1/114
f  110/1/110 117/1/117 116/1/116
f  118/1/118 119/1/119 120/1/120
f  117/1/117 110/1/110 120/1/120
f  121/1/121 122/1/122 84/1/84
f  92/1/92 94/1/94 123/1/123
f  94/1/94 96/1/96 124/1/124
f  96/1/96 97/1/97 125/1/125
f  126/1/126 125/1/125 97/1/97
f  127/1/127 128/1/128 125/1/125
f  128/1/128 129/1/129 124/1/124
f  123/1/123 124/1/124 129/1/129
f  130/1/130 131/1/131 132/1/132
f  131/1/131 133/1/133 134/1/134
f  135/1/135 93/1/93 121/1/121
f  135/1/135 106/1/106 108/1/108
f  108/1/108 106/1/106 136/1/136
f  118/1/118 136/1/136 107/1/107
f  132/1/132 134/1/134 93/1/93
f  122/1/122 134/1/134 133/1/133
f  128/1/128 127/1/127 137/1/137
f  138/1/138 139/1/139 129/1/129
f  139/1/139 140/1/140 130/1/130
f  140/1/140 141/1/141 131/1/131
f  131/1/131 141/1/141 142/1/142
f  143/1/143 144/1/144 59/1/59
f  133/1/133 142/1/142 143/1/143
f  119/1/119 145/1/145 146/1/146
f  147/1/147 116/1/116 117/1/117
f  116/1/116 147/1/147 148/1/148
f  149/1/149 115/1/115 114/1/114
f  145/1/145 150/1/150 151/1/151
f  147/1/147 146/1/146 151/1/151
f  148/1/148 147/1/147 152/1/152
f  148/1/148 153/1/153 154/1/154
f  155/1/155 156/1/156 149/1/149
f  155/1/155 157/1/157 158/1/158
f  156/1/156 159/1/159 115/1/115
f  156/1/156 158/1/158 160/1/160
f  75/1/75 115/1/115 159/1/159
f  160/1/160 161/1/161 76/1/76
f  119/1/119 118/1/118 162/1/162
f  118/1/118 163/1/163 164/1/164
f  165/1/165 150/1/150 145/1/145
f  162/1/162 164/1/164 166/1/166
f  134/1/134 122/1/122 121/1/121
f  121/1/121 35/1/35 81/1/81
f  104/1/104 17/1/17 82/1/82
f  82/1/82 83/1/83 163/1/163
f  167/1/167 59/1/59 84/1/84
f  75/1/75 85/1/85 113/1/113
f  85/1/85 86/1/86 103/1/103
f  86/1/86 87/1/87 99/1/99
f  87/1/87 88/1/88 168/1/168
f  168/1/168 88/1/88 89/1/89
f  126/1/126 89/1/89 90/1/90
f  90/1/90 169/1/169 137/1/137
f  37/1/37 1/1/1 3/1/3
f  37/1/37 4/1/4 1/1/1
f  7/1/7 6/1/6 4/1/4
f  6/1/6 7/1/7 9/1/9
f  41/1/41 10/1/10 8/1/8
f  6/1/6 11/1/11 5/1/5
f  9/1/9 13/1/13 6/1/6
f  13/1/13 9/1/9 14/1/14
f  81/1/81 15/1/15 17/1/17
f  16/1/16 15/1/15 18/1/18
f  16/1/16 18/1/18 20/1/20
f  23/1/23 1/1/1 12/1/12
f  12/1/12 21/1/21 23/1/23
f  21/1/21 12/1/12 24/1/24
f  24/1/24 11/1/11 25/1/25
f  14/1/14 26/1/26 13/1/13
f  28/1/28 25/1/25 27/1/27
f  29/1/29 24/1/24 28/1/28
f  32/1/32 21/1/21 29/1/29
f  19/1/19 22/1/22 31/1/31
f  30/1/30 22/1/22 32/1/32
f  84/1/84 33/1/33 35/1/35
f  46/1/46 36/1/36 37/1/37
f  7/1/7 4/1/4 38/1/38
f  8/1/8 7/1/7 39/1/39
f  8/1/8 39/1/39 41/1/41
f  43/1/43 42/1/42 39/1/39
f  45/1/45 43/1/43 38/1/38
f  38/1/38 36/1/36 45/1/45
f  47/1/47 44/1/44 46/1/46
f  51/1/51 47/1/47 48/1/48
f  3/1/3 2/1/2 34/1/34
f  18/1/18 2/1/2 23/1/23
f  18/1/18 23/1/23 19/1/19
f  19/1/19 31/1/31 20/1/20
f  37/1/37 3/1/3 46/1/46
f  48/1/48 33/1/33 51/1/51
f  42/1/42 43/1/43 53/1/53
f  54/1/54 52/1/52 45/1/45
f  56/1/56 54/1/54 44/1/44
f  44/1/44 47/1/47 56/1/56
f  55/1/55 47/1/47 57/1/57
f  144/1/144 58/1/58 59/1/59
f  57/1/57 51/1/51 58/1/58
f  66/1/66 30/1/30 60/1/60
f  29/1/29 61/1/61 32/1/32
f  28/1/28 62/1/62 29/1/29
f  27/1/27 63/1/63 28/1/28
f  60/1/60 64/1/64 66/1/66
f  60/1/60 61/1/61 64/1/64
f  61/1/61 62/1/62 67/1/67
f  68/1/68 62/1/62 69/1/69
f  71/1/71 70/1/70 63/1/63
f  170/1/170 70/1/70 72/1/72
f  73/1/73 71/1/71 27/1/27
f  72/1/72 71/1/71 74/1/74
f  27/1/27 75/1/75 73/1/73
f  161/1/161 74/1/74 76/1/76
f  31/1/31 30/1/30 77/1/77
f  49/1/49 31/1/31 78/1/78
f  65/1/65 79/1/79 66/1/66
f  78/1/78 77/1/77 80/1/80
f  3/1/3 34/1/34 48/1/48
f  35/1/35 34/1/34 81/1/81
f  17/1/17 16/1/16 82/1/82
f  49/1/49 83/1/83 20/1/20
f  59/1/59 50/1/50 84/1/84
f  85/1/85 75/1/75 26/1/26
f  86/1/86 85/1/85 14/1/14
f  87/1/87 86/1/86 10/1/10
f  88/1/88 87/1/87 41/1/41
f  89/1/89 88/1/88 40/1/40
f  90/1/90 89/1/89 42/1/42
f  169/1/169 90/1/90 53/1/53
f  135/1/135 91/1/91 93/1/93
f  101/1/101 94/1/94 91/1/91
f  101/1/101 95/1/95 94/1/94
f  98/1/98 97/1/97 95/1/95
f  168/1/168 97/1/97 99/1/99
f  109/1/109 100/1/100 101/1/101
f  100/1/100 102/1/102 95/1/95
f  99/1/99 98/1/98 103/1/103
f  17/1/17 104/1/104 81/1/81
f  135/1/135 105/1/105 106/1/106
f  136/1/136 106/1/106 107/1/107
f  101/1/101 91/1/91 109/1/109
f  120/1/120 110/1/110 108/1/108
f  100/1/100 109/1/109 111/1/111
f  102/1/102 100/1/100 112/1/112
f  112/1/112 113/1/113 102/1/102
f  113/1/113 112/1/112 115/1/115
f  112/1/112 111/1/111 114/1/114
f  111/1/111 110/1/110 116/1/116
f  136/1/136 118/1/118 120/1/120
f  119/1/119 117/1/117 120/1/120
f  35/1/35 121/1/121 84/1/84
f  132/1/132 92/1/92 123/1/123
f  123/1/123 94/1/94 124/1/124
f  124/1/124 96/1/96 125/1/125
f  168/1/168 126/1/126 97/1/97
f  126/1/126 127/1/127 125/1/125
f  125/1/125 128/1/128 124/1/124
f  130/1/130 123/1/123 129/1/129
f  123/1/123 130/1/130 132/1/132
f  132/1/132 131/1/131 134/1/134
f  105/1/105 135/1/135 121/1/121
f  91/1/91 135/1/135 108/1/108
f  120/1/120 108/1/108 136/1/136
f  163/1/163 118/1/118 107/1/107
f  92/1/92 132/1/132 93/1/93
f  167/1/167 122/1/122 133/1/133
f  138/1/138 128/1/128 137/1/137
f  128/1/128 138/1/138 129/1/129
f  129/1/129 139/1/139 130/1/130
f  130/1/130 140/1/140 131/1/131
f  133/1/133 131/1/131 142/1/142
f  167/1/167 143/1/143 59/1/59
f  167/1/167 133/1/133 143/1/143
f  117/1/117 119/1/119 146/1/146
f  146/1/146 147/1/147 117/1/117
f  114/1/114 116/1/116 148/1/148
f  148/1/148 149/1/149 114/1/114
f  146/1/146 145/1/145 151/1/151
f  152/1/152 147/1/147 151/1/151
f  153/1/153 148/1/148 152/1/152
f  149/1/149 148/1/148 154/1/154
f  154/1/154 155/1/155 149/1/149
f  156/1/156 155/1/155 158/1/158
f  149/1/149 156/1/156 115/1/115
f  159/1/159 156/1/156 160/1/160
f  76/1/76 75/1/75 159/1/159
f  159/1/159 160/1/160 76/1/76
f  145/1/145 119/1/119 162/1/162
f  162/1/162 118/1/118 164/1/164
f  162/1/162 165/1/165 145/1/145
f  165/1/165 162/1/162 166/1/166
f  93/1/93 134/1/134 121/1/121
f  105/1/105 121/1/121 81/1/81
f  107/1/107 104/1/104 82/1/82
f  107/1/107 82/1/82 163/1/163
f  122/1/122 167/1/167 84/1/84
f  115/1/115 75/1/75 113/1/113
f  113/1/113 85/1/85 103/1/103
f  103/1/103 86/1/86 99/1/99
f  99/1/99 87/1/87 168/1/168
f  126/1/126 168/1/168 89/1/89
f  127/1/127 126/1/126 90/1/90
f  127/1/127 90/1/90 137/1/137

