# Exported using automatic converter by Erwin Coumans
mtllib TrunkYaw.mtl
#object TrunkYaw_TrunkYaw

v 0.143677 -0.052056 -0.058473
v 0.144677 -0.048451 -0.098694
v 0.148447 -0.033135 -0.096950
v 0.149670 -0.029467 -0.179007
v 0.147524 -0.042096 -0.178013
v 0.149329 -0.039306 -0.217109
v 0.138392 -0.065827 -0.065058
v 0.145903 -0.045041 -0.138922
v 0.142049 -0.058912 -0.139465
v 0.144011 -0.057363 -0.172818
v 0.135473 -0.078263 -0.171298
v 0.138506 -0.077733 -0.201523
v 0.140145 -0.062017 -0.102242
v 0.129853 -0.081594 -0.108011
v 0.121481 -0.100498 -0.169819
v 0.132599 -0.079268 -0.141082
v 0.115312 -0.099878 -0.080007
v 0.117158 -0.099362 -0.110341
v 0.119186 -0.099406 -0.140652
v 0.098559 -0.118801 -0.137868
v 0.099640 -0.121018 -0.167563
v 0.097965 -0.117229 -0.108961
v 0.074672 -0.133556 -0.165753
v 0.074881 -0.131416 -0.135474
v 0.074180 -0.135821 -0.196025
v 0.051487 -0.137706 -0.165183
v 0.074431 -0.129612 -0.105804
v 0.051539 -0.134474 -0.103168
v 0.051201 -0.136189 -0.134115
v 0.020376 -0.134078 -0.130700
v 0.020070 -0.134600 -0.163711
v 0.019088 -0.134921 -0.196732
v -0.007507 -0.122067 -0.162743
v 0.017040 -0.131875 -0.065695
v -0.009647 -0.122802 -0.060483
v -0.008873 -0.122691 -0.094068
v -0.006908 -0.121568 -0.197832
v -0.032463 -0.097479 -0.163021
v -0.036144 -0.098225 -0.090437
v -0.034316 -0.097964 -0.126360
v -0.046099 -0.075727 -0.127265
v -0.044613 -0.075400 -0.164272
v -0.047435 -0.076237 -0.089849
v -0.037979 -0.098376 -0.054513
v -0.043058 -0.075148 -0.201277
v -0.051397 -0.052950 -0.169106
v -0.054078 -0.053409 -0.090960
v -0.052880 -0.052821 -0.130687
v -0.055944 -0.044299 -0.091716
v -0.052221 -0.043036 -0.215210
v -0.053385 -0.043711 -0.173968
v -0.054680 -0.032274 -0.177298
v -0.055002 -0.033482 -0.050198
v -0.056853 0.000029 -0.049736
v -0.059255 0.000029 -0.092371
v -0.057482 -0.033241 -0.092601
v -0.049778 -0.053376 -0.207521
v 0.149066 -0.031049 -0.138319
v 0.151667 0.000029 -0.178510
v 0.147824 -0.035465 -0.055592
v 0.150856 0.000029 -0.095384
v -0.053197 -0.031902 -0.219716
v -0.056385 0.000029 -0.177885
v 0.148447 0.033193 -0.096950
v 0.144677 0.048509 -0.098694
v 0.143677 0.052114 -0.058473
v 0.149329 0.039364 -0.217109
v 0.147524 0.042154 -0.178013
v 0.149670 0.029525 -0.179007
v 0.140145 0.062075 -0.102242
v 0.138392 0.065885 -0.065058
v 0.145903 0.045099 -0.138922
v 0.144011 0.057421 -0.172818
v 0.138506 0.077791 -0.201522
v 0.135473 0.078321 -0.171298
v 0.142049 0.058970 -0.139465
v 0.132599 0.079326 -0.141081
v 0.129853 0.081652 -0.108011
v 0.121481 0.100556 -0.169819
v 0.115312 0.099936 -0.080007
v 0.127316 0.084609 -0.074955
v 0.119186 0.099464 -0.140651
v 0.099640 0.121075 -0.167563
v 0.098559 0.118859 -0.137867
v 0.097965 0.117287 -0.108961
v 0.117158 0.099420 -0.110340
v 0.074672 0.133614 -0.165753
v 0.074881 0.131474 -0.135474
v 0.074431 0.129670 -0.105804
v 0.051487 0.137763 -0.165183
v 0.074180 0.135879 -0.196025
v 0.051201 0.136247 -0.134115
v 0.051539 0.134531 -0.103167
v 0.020070 0.134657 -0.163711
v 0.020376 0.134135 -0.130700
v 0.019111 0.133154 -0.098187
v 0.019088 0.134979 -0.196731
v -0.006908 0.121626 -0.197831
v -0.007507 0.122125 -0.162743
v 0.017040 0.131933 -0.065695
v -0.008873 0.122749 -0.094067
v -0.030617 0.096958 -0.199681
v -0.032463 0.097536 -0.163021
v -0.034316 0.098022 -0.126360
v -0.036144 0.098283 -0.090437
v -0.044613 0.075457 -0.164272
v -0.046099 0.075785 -0.127264
v -0.034913 0.096172 -0.054347
v -0.047435 0.076295 -0.089849
v -0.051397 0.053008 -0.169106
v -0.043058 0.075206 -0.201277
v -0.054078 0.053467 -0.090960
v -0.052880 0.052878 -0.130687
v -0.054603 0.044268 -0.132726
v -0.055944 0.044357 -0.091716
v -0.054680 0.032331 -0.177298
v -0.053385 0.043769 -0.173968
v -0.052221 0.043094 -0.215210
v -0.055002 0.033540 -0.050198
v -0.057482 0.033298 -0.092601
v -0.059255 0.000029 -0.092371
v -0.049778 0.053434 -0.207521
v 0.149066 0.031107 -0.138319
v 0.147824 0.035523 -0.055592
v -0.056385 0.000029 -0.177885
v -0.053197 0.031959 -0.219716
v 0.127316 -0.084551 -0.074955
v 0.097605 -0.115956 -0.080028
v 0.073642 -0.127958 -0.076127
v 0.052197 -0.132653 -0.072227
v 0.019111 -0.133096 -0.098188
v -0.008152 -0.122482 -0.127654
v -0.051410 -0.053443 -0.051112
v -0.053599 -0.043514 -0.050580
v -0.056127 -0.032697 -0.134880
v -0.054603 -0.044211 -0.132726
v 0.151287 0.000029 -0.136703
v 0.097605 0.116014 -0.080027
v 0.073642 0.128016 -0.076127
v 0.052197 0.132711 -0.072227
v -0.008152 0.122540 -0.127653
v -0.009647 0.122860 -0.060482
v -0.051410 0.053500 -0.051112
v -0.045125 0.075544 -0.052290
v -0.053599 0.043571 -0.050580
v -0.056127 0.032755 -0.134880
v -0.057836 0.000029 -0.134880
v 0.146086 -0.056335 -0.206197
v 0.123918 -0.102035 -0.198965
v 0.100921 -0.123488 -0.197236
v 0.052038 -0.139135 -0.196255
v -0.030617 -0.096900 -0.199681
v 0.150274 -0.028083 -0.219705
v 0.152023 0.000029 -0.220318
v -0.057836 0.000029 -0.134880
v 0.146086 0.056393 -0.206197
v 0.123918 0.102092 -0.198965
v 0.100921 0.123546 -0.197235
v 0.052038 0.139193 -0.196255
v 0.150274 0.028141 -0.219705
v -0.045125 -0.075486 -0.052290
v 0.150396 0.000029 -0.054066
v -0.054926 0.000029 -0.220890
v -0.056853 0.000029 -0.049736
v -0.054926 0.000029 -0.220890
usemtl FlexibleSkin

vn 0.959014 -0.283273 0.001434
vn 0.960753 -0.277322 0.005493
vn 0.987915 -0.154729 0.007507
vn 0.993500 -0.112552 0.015320
vn 0.982391 -0.184393 0.029298
vn 0.989013 -0.144658 0.029847
vn 0.916471 -0.400006 0.003113
vn 0.970611 -0.239967 0.017457
vn 0.937742 -0.345836 0.031251
vn 0.954070 -0.295480 0.048830
vn 0.889035 -0.452345 0.070559
vn 0.903165 -0.422498 0.075961
vn 0.919340 -0.393231 0.011292
vn 0.849818 -0.526475 0.024110
vn 0.772118 -0.629841 0.084140
vn 0.870937 -0.488907 0.048952
vn 0.743736 -0.667837 0.028291
vn 0.750053 -0.660268 0.037751
vn 0.763695 -0.642537 0.062166
vn 0.582263 -0.810327 0.065432
vn 0.573687 -0.815058 0.080813
vn 0.579455 -0.813471 0.049715
vn 0.316477 -0.946196 0.067110
vn 0.337352 -0.939299 0.062014
vn 0.300516 -0.951293 0.068606
vn 0.039338 -0.998199 0.044771
vn 0.343303 -0.937468 0.056856
vn 0.087863 -0.994812 0.050813
vn 0.065645 -0.996704 0.047456
vn -0.222632 -0.974700 0.018921
vn -0.258431 -0.965880 0.015107
vn -0.283029 -0.958983 0.013703
vn -0.566698 -0.823725 -0.017335
vn -0.207068 -0.978088 0.020936
vn -0.528489 -0.848781 -0.015168
vn -0.518296 -0.855037 -0.014252
vn -0.584643 -0.811060 -0.018036
vn -0.795923 -0.604053 -0.040040
vn -0.803461 -0.594867 -0.023652
vn -0.793664 -0.607105 -0.038209
vn -0.923826 -0.380596 -0.040620
vn -0.918943 -0.392041 -0.042268
vn -0.935972 -0.352031 -0.000366
vn -0.827845 -0.560869 -0.007691
vn -0.920133 -0.389233 -0.042482
vn -0.964538 -0.261269 -0.036622
vn -0.969787 -0.243385 0.015107
vn -0.967864 -0.248909 -0.035127
vn -0.985046 -0.171697 0.013611
vn -0.987548 -0.153539 -0.033448
vn -0.983459 -0.177801 -0.033723
vn -0.995697 -0.086184 -0.033631
vn -0.993774 -0.095279 0.057588
vn -0.998352 0.000000 0.057131
vn -0.999909 0.000000 0.012238
vn -0.995331 -0.095767 0.010987
vn -0.963775 -0.264138 -0.036408
vn 0.989776 -0.142155 0.011048
vn 0.999939 0.000000 0.010529
vn 0.987884 -0.154912 0.006531
vn 0.999939 0.000000 0.010926
vn -0.996338 -0.078433 -0.033845
vn -0.999390 0.000000 -0.034394
vn 0.987915 0.154729 0.007507
vn 0.960753 0.277322 0.005493
vn 0.959014 0.283273 0.001434
vn 0.989013 0.144658 0.029847
vn 0.982391 0.184393 0.029298
vn 0.993500 0.112552 0.015320
vn 0.919340 0.393231 0.011292
vn 0.916471 0.400006 0.003113
vn 0.970611 0.239967 0.017457
vn 0.954070 0.295480 0.048830
vn 0.903165 0.422498 0.075961
vn 0.889035 0.452345 0.070559
vn 0.937742 0.345836 0.031251
vn 0.870937 0.488907 0.048952
vn 0.849818 0.526475 0.024110
vn 0.772118 0.629871 0.084078
vn 0.743736 0.667837 0.028291
vn 0.842341 0.538774 0.013153
vn 0.763695 0.642537 0.062136
vn 0.573687 0.815027 0.080813
vn 0.582263 0.810358 0.065432
vn 0.579455 0.813471 0.049715
vn 0.750053 0.660268 0.037751
vn 0.316477 0.946196 0.067110
vn 0.337352 0.939299 0.061983
vn 0.343303 0.937498 0.056856
vn 0.039308 0.998199 0.044771
vn 0.300516 0.951293 0.068606
vn 0.065645 0.996704 0.047456
vn 0.087832 0.994812 0.050813
vn -0.258431 0.965880 0.015107
vn -0.222602 0.974700 0.018921
vn -0.194189 0.980682 0.023194
vn -0.283029 0.958983 0.013733
vn -0.584643 0.811060 -0.018006
vn -0.566698 0.823725 -0.017335
vn -0.207068 0.978088 0.020936
vn -0.527024 0.849818 -0.001770
vn -0.799219 0.599628 -0.040712
vn -0.795923 0.604053 -0.040040
vn -0.793695 0.607105 -0.038209
vn -0.799158 0.601062 0.003449
vn -0.918943 0.392041 -0.042268
vn -0.923826 0.380596 -0.040620
vn -0.813227 0.580157 0.045137
vn -0.928526 0.370952 0.012665
vn -0.964538 0.261269 -0.036622
vn -0.920133 0.389233 -0.042482
vn -0.969787 0.243385 0.015107
vn -0.967864 0.248878 -0.035127
vn -0.984375 0.172887 -0.033235
vn -0.985046 0.171697 0.013611
vn -0.995697 0.086154 -0.033631
vn -0.983459 0.177801 -0.033723
vn -0.987548 0.153539 -0.033448
vn -0.993774 0.095309 0.057588
vn -0.995331 0.095798 0.010987
vn -0.999909 0.000000 0.012238
vn -0.963775 0.264138 -0.036408
vn 0.989776 0.142155 0.011048
vn 0.987884 0.154912 0.006531
vn -0.999390 0.000000 -0.034394
vn -0.996338 0.078433 -0.033845
vn 0.842341 -0.538774 0.013153
vn 0.571032 -0.819697 0.044618
vn 0.330332 -0.942198 0.055391
vn 0.086184 -0.994903 0.051759
vn -0.194220 -0.980682 0.023194
vn -0.540361 -0.841243 -0.016114
vn -0.968383 -0.241188 0.063295
vn -0.983459 -0.170721 0.060152
vn -0.995086 -0.093142 -0.033326
vn -0.984375 -0.172887 -0.033235
vn 0.999939 0.000000 0.010712
vn 0.571032 0.819697 0.044618
vn 0.330332 0.942228 0.055391
vn 0.086184 0.994903 0.051759
vn -0.540361 0.841273 -0.016114
vn -0.549547 0.835292 0.015046
vn -0.968413 0.241157 0.063295
vn -0.929899 0.362346 0.062593
vn -0.983459 0.170721 0.060152
vn -0.995086 0.093142 -0.033326
vn -0.999420 0.000000 -0.033601
vn 0.967772 -0.246315 0.051973
vn 0.779900 -0.619282 0.090548
vn 0.569933 -0.817194 0.085726
vn 0.025697 -0.998688 0.044130
vn -0.799219 -0.599628 -0.040712
vn 0.995636 -0.091708 0.016236
vn 0.999939 0.000000 0.010529
vn -0.999420 0.000000 -0.033601
vn 0.967772 0.246315 0.051973
vn 0.779900 0.619282 0.090548
vn 0.569933 0.817194 0.085726
vn 0.025697 0.998688 0.044160
vn 0.995636 0.091708 0.016236
vn -0.944395 -0.326579 0.038026
vn 0.999939 0.000000 0.011017
vn -0.999390 0.000000 -0.034639
vn -0.998352 0.000000 0.057131
vn -0.999390 0.000000 -0.034639

vt 0.567291 0.418446
vt 0.562832 0.469928
vt 0.542592 0.467790
vt 0.537864 0.573103
vt 0.554294 0.571841
vt 0.550313 0.621869
vt 0.586147 0.426729
vt 0.558429 0.521619
vt 0.576970 0.522264
vt 0.574411 0.565195
vt 0.603400 0.563108
vt 0.601390 0.601954
vt 0.581220 0.474364
vt 0.609701 0.481489
vt 0.637119 0.560747
vt 0.605892 0.524121
vt 0.638969 0.445115
vt 0.637805 0.484005
vt 0.637057 0.523083
vt 0.673379 0.518395
vt 0.675480 0.556620
vt 0.671397 0.481251
vt 0.711117 0.552376
vt 0.707636 0.513645
vt 0.715067 0.590993
vt 0.741132 0.549517
vt 0.705249 0.475646
vt 0.734900 0.470349
vt 0.738382 0.509828
vt 0.777396 0.502263
vt 0.781192 0.544283
vt 0.785901 0.586219
vt 0.819638 0.539638
vt 0.775137 0.419110
vt 0.810405 0.409346
vt 0.813257 0.452142
vt 0.823193 0.584323
vt 0.864268 0.536369
vt 0.859495 0.443708
vt 0.861736 0.489568
vt 0.893865 0.488595
vt 0.896482 0.535806
vt 0.890930 0.440889
vt 0.857376 0.397837
vt 0.898986 0.583031
vt 0.926736 0.540209
vt 0.921312 0.440534
vt 0.924563 0.491172
vt 0.933218 0.440836
vt 0.942597 0.598302
vt 0.939132 0.545731
vt 0.954033 0.549201
vt 0.944083 0.387298
vt 0.987314 0.384510
vt 0.989977 0.438748
vt 0.947512 0.441200
vt 0.928498 0.589271
vt 0.539976 0.520884
vt 0.499982 0.572455
vt 0.545458 0.414869
vt 0.499981 0.465857
vt 0.957149 0.603305
vt 0.995318 0.547859
vt 0.457371 0.467791
vt 0.437131 0.469931
vt 0.432669 0.418449
vt 0.449650 0.621868
vt 0.445670 0.571841
vt 0.462099 0.573103
vt 0.418743 0.474367
vt 0.413814 0.426734
vt 0.441534 0.521621
vt 0.425553 0.565196
vt 0.398575 0.601953
vt 0.396566 0.563109
vt 0.422993 0.522266
vt 0.394073 0.524123
vt 0.390263 0.481493
vt 0.362848 0.560748
vt 0.360995 0.445122
vt 0.385925 0.439103
vt 0.362909 0.523086
vt 0.324488 0.556621
vt 0.326589 0.518399
vt 0.328570 0.481257
vt 0.362161 0.484010
vt 0.288854 0.552378
vt 0.292334 0.513649
vt 0.294721 0.475654
vt 0.258841 0.549519
vt 0.284904 0.590992
vt 0.261590 0.509833
vt 0.265072 0.470357
vt 0.218784 0.544286
vt 0.222580 0.502270
vt 0.224242 0.460720
vt 0.214075 0.586219
vt 0.176786 0.584322
vt 0.180342 0.539641
vt 0.224837 0.419124
vt 0.186721 0.452153
vt 0.133057 0.583169
vt 0.135716 0.536373
vt 0.138247 0.489576
vt 0.140489 0.443721
vt 0.103506 0.535810
vt 0.106122 0.488604
vt 0.142607 0.397855
vt 0.109057 0.440904
vt 0.073255 0.540212
vt 0.101002 0.583029
vt 0.078678 0.440549
vt 0.075428 0.491181
vt 0.064094 0.493159
vt 0.066774 0.440851
vt 0.045962 0.549203
vt 0.060861 0.545734
vt 0.057396 0.598298
vt 0.055910 0.387320
vt 0.052482 0.441215
vt 0.010022 0.438763
vt 0.071494 0.589268
vt 0.459987 0.520885
vt 0.454502 0.414871
vt 0.004682 0.547862
vt 0.042847 0.603301
vt 0.614038 0.439098
vt 0.669463 0.444246
vt 0.703399 0.437693
vt 0.731036 0.430942
vt 0.775733 0.460710
vt 0.816243 0.494935
vt 0.917544 0.389920
vt 0.930810 0.388503
vt 0.950851 0.495104
vt 0.935899 0.493150
vt 0.499981 0.518840
vt 0.330502 0.444254
vt 0.296570 0.437703
vt 0.268935 0.430954
vt 0.183736 0.494943
vt 0.189573 0.409362
vt 0.082445 0.389941
vt 0.112142 0.393207
vt 0.069181 0.388525
vt 0.049144 0.495113
vt 0.007364 0.492995
vt 0.572431 0.607970
vt 0.637537 0.598251
vt 0.677612 0.594711
vt 0.743589 0.589191
vt 0.866928 0.583170
vt 0.535961 0.625162
vt 0.499981 0.625933
vt 0.992635 0.492986
vt 0.427533 0.607969
vt 0.362430 0.598250
vt 0.322357 0.594710
vt 0.256384 0.589191
vt 0.464002 0.625161
vt 0.887844 0.393187
vt 0.499980 0.412998
vt 0.998000 0.602733
vt 0.012684 0.384532
vt 0.002000 0.602729
s off
f 1/1/1 2/2/2 3/3/3
f 4/4/4 5/5/5 6/6/6
f 2/2/2 1/1/1 7/7/7
f 8/8/8 9/9/9 10/10/10
f 10/10/10 11/11/11 12/12/12
f 9/9/9 13/13/13 14/14/14
f 15/15/15 11/11/11 16/16/16
f 17/17/17 18/18/18 14/14/14
f 19/19/19 20/20/20 21/21/21
f 18/18/18 22/22/22 20/20/20
f 23/23/23 21/21/21 20/20/20
f 24/24/24 20/20/20 22/22/22
f 25/25/25 23/23/23 26/26/26
f 27/27/27 28/28/28 29/29/29
f 29/29/29 30/30/30 31/31/31
f 30/30/30 29/29/29 28/28/28
f 32/32/32 31/31/31 33/33/33
f 34/34/34 35/35/35 36/36/36
f 37/37/37 33/33/33 38/38/38
f 36/36/36 39/39/39 40/40/40
f 41/41/41 42/42/42 38/38/38
f 43/43/43 39/39/39 44/44/44
f 45/45/45 42/42/42 46/46/46
f 41/41/41 43/43/43 47/47/47
f 48/48/48 47/47/47 49/49/49
f 50/50/50 51/51/51 52/52/52
f 53/53/53 54/54/54 55/55/55
f 53/53/53 56/56/56 49/49/49
f 57/57/57 46/46/46 51/51/51
f 58/58/58 4/4/4 59/59/59
f 60/60/60 3/3/3 61/61/61
f 62/62/62 52/52/52 63/63/63
f 64/64/64 65/65/65 66/66/66
f 67/67/67 68/68/68 69/69/69
f 65/65/65 70/70/70 71/71/71
f 72/72/72 68/68/68 73/73/73
f 74/74/74 75/75/75 73/73/73
f 76/76/76 77/77/77 78/78/78
f 77/77/77 75/75/75 79/79/79
f 80/80/80 81/81/81 78/78/78
f 82/82/82 79/79/79 83/83/83
f 84/84/84 85/85/85 86/86/86
f 84/84/84 83/83/83 87/87/87
f 88/88/88 89/89/89 85/85/85
f 90/90/90 87/87/87 91/91/91
f 92/92/92 93/93/93 89/89/89
f 92/92/92 90/90/90 94/94/94
f 95/95/95 96/96/96 93/93/93
f 97/97/97 98/98/98 99/99/99
f 100/100/100 96/96/96 101/101/101
f 98/98/98 102/102/102 103/103/103
f 104/104/104 105/105/105 101/101/101
f 103/103/103 106/106/106 107/107/107
f 108/108/108 105/105/105 109/109/109
f 110/110/110 106/106/106 111/111/111
f 112/112/112 109/109/109 107/107/107
f 113/113/113 114/114/114 115/115/115
f 116/116/116 117/117/117 118/118/118
f 119/119/119 120/120/120 121/121/121
f 115/115/115 120/120/120 119/119/119
f 117/117/117 110/110/110 122/122/122
f 59/59/59 69/69/69 123/123/123
f 61/61/61 64/64/64 124/124/124
f 125/125/125 116/116/116 126/126/126
f 58/58/58 3/3/3 2/2/2
f 13/13/13 9/9/9 8/8/8
f 13/13/13 7/7/7 127/127/127
f 19/19/19 16/16/16 14/14/14
f 17/17/17 128/128/128 22/22/22
f 128/128/128 129/129/129 27/27/27
f 129/129/129 130/130/130 28/28/28
f 130/130/130 34/34/34 131/131/131
f 132/132/132 30/30/30 131/131/131
f 35/35/35 44/44/44 39/39/39
f 41/41/41 40/40/40 39/39/39
f 133/133/133 47/47/47 43/43/43
f 47/47/47 133/133/133 134/134/134
f 135/135/135 56/56/56 55/55/55
f 56/56/56 135/135/135 136/136/136
f 3/3/3 58/58/58 137/137/137
f 123/123/123 72/72/72 65/65/65
f 72/72/72 76/76/76 70/70/70
f 81/81/81 71/71/71 70/70/70
f 78/78/78 77/77/77 82/82/82
f 85/85/85 138/138/138 80/80/80
f 89/89/89 139/139/139 138/138/138
f 93/93/93 140/140/140 139/139/139
f 96/96/96 100/100/100 140/140/140
f 96/96/96 95/95/95 141/141/141
f 105/105/105 108/108/108 142/142/142
f 107/107/107 109/109/109 105/105/105
f 143/143/143 144/144/144 109/109/109
f 145/145/145 143/143/143 112/112/112
f 146/146/146 147/147/147 121/121/121
f 114/114/114 146/146/146 120/120/120
f 137/137/137 123/123/123 64/64/64
f 58/58/58 8/8/8 5/5/5
f 148/148/148 6/6/6 5/5/5
f 9/9/9 16/16/16 11/11/11
f 149/149/149 12/12/12 11/11/11
f 150/150/150 149/149/149 15/15/15
f 25/25/25 150/150/150 21/21/21
f 24/24/24 29/29/29 26/26/26
f 32/32/32 151/151/151 26/26/26
f 30/30/30 132/132/132 33/33/33
f 132/132/132 40/40/40 38/38/38
f 42/42/42 45/45/45 152/152/152
f 42/42/42 41/41/41 48/48/48
f 51/51/51 136/136/136 135/135/135
f 46/46/46 48/48/48 136/136/136
f 153/153/153 154/154/154 59/59/59
f 52/52/52 135/135/135 155/155/155
f 68/68/68 72/72/72 123/123/123
f 68/68/68 67/67/67 156/156/156
f 75/75/75 77/77/77 76/76/76
f 75/75/75 74/74/74 157/157/157
f 79/79/79 157/157/157 158/158/158
f 83/83/83 158/158/158 91/91/91
f 90/90/90 92/92/92 88/88/88
f 90/90/90 159/159/159 97/97/97
f 99/99/99 141/141/141 95/95/95
f 103/103/103 104/104/104 141/141/141
f 102/102/102 111/111/111 106/106/106
f 113/113/113 107/107/107 106/106/106
f 146/146/146 114/114/114 117/117/117
f 114/114/114 113/113/113 110/110/110
f 59/59/59 154/154/154 160/160/160
f 147/147/147 146/146/146 116/116/116
f 60/60/60 1/1/1 3/3/3
f 153/153/153 4/4/4 6/6/6
f 13/13/13 2/2/2 7/7/7
f 5/5/5 8/8/8 10/10/10
f 148/148/148 10/10/10 12/12/12
f 16/16/16 9/9/9 14/14/14
f 19/19/19 15/15/15 16/16/16
f 127/127/127 17/17/17 14/14/14
f 15/15/15 19/19/19 21/21/21
f 19/19/19 18/18/18 20/20/20
f 24/24/24 23/23/23 20/20/20
f 27/27/27 24/24/24 22/22/22
f 151/151/151 25/25/25 26/26/26
f 24/24/24 27/27/27 29/29/29
f 26/26/26 29/29/29 31/31/31
f 131/131/131 30/30/30 28/28/28
f 37/37/37 32/32/32 33/33/33
f 131/131/131 34/34/34 36/36/36
f 152/152/152 37/37/37 38/38/38
f 132/132/132 36/36/36 40/40/40
f 40/40/40 41/41/41 38/38/38
f 161/161/161 43/43/43 44/44/44
f 57/57/57 45/45/45 46/46/46
f 48/48/48 41/41/41 47/47/47
f 136/136/136 48/48/48 49/49/49
f 62/62/62 50/50/50 52/52/52
f 56/56/56 53/53/53 55/55/55
f 134/134/134 53/53/53 49/49/49
f 50/50/50 57/57/57 51/51/51
f 137/137/137 58/58/58 59/59/59
f 162/162/162 60/60/60 61/61/61
f 163/163/163 62/62/62 63/63/63
f 124/124/124 64/64/64 66/66/66
f 160/160/160 67/67/67 69/69/69
f 66/66/66 65/65/65 71/71/71
f 76/76/76 72/72/72 73/73/73
f 156/156/156 74/74/74 73/73/73
f 70/70/70 76/76/76 78/78/78
f 82/82/82 77/77/77 79/79/79
f 86/86/86 80/80/80 78/78/78
f 84/84/84 82/82/82 83/83/83
f 82/82/82 84/84/84 86/86/86
f 88/88/88 84/84/84 87/87/87
f 84/84/84 88/88/88 85/85/85
f 159/159/159 90/90/90 91/91/91
f 88/88/88 92/92/92 89/89/89
f 95/95/95 92/92/92 94/94/94
f 92/92/92 95/95/95 93/93/93
f 94/94/94 97/97/97 99/99/99
f 142/142/142 100/100/100 101/101/101
f 99/99/99 98/98/98 103/103/103
f 141/141/141 104/104/104 101/101/101
f 104/104/104 103/103/103 107/107/107
f 144/144/144 108/108/108 109/109/109
f 122/122/122 110/110/110 111/111/111
f 113/113/113 112/112/112 107/107/107
f 112/112/112 113/113/113 115/115/115
f 126/126/126 116/116/116 118/118/118
f 164/164/164 119/119/119 121/121/121
f 145/145/145 115/115/115 119/119/119
f 118/118/118 117/117/117 122/122/122
f 137/137/137 59/59/59 123/123/123
f 162/162/162 61/61/61 124/124/124
f 165/165/165 125/125/125 126/126/126
f 8/8/8 58/58/58 2/2/2
f 2/2/2 13/13/13 8/8/8
f 14/14/14 13/13/13 127/127/127
f 18/18/18 19/19/19 14/14/14
f 18/18/18 17/17/17 22/22/22
f 22/22/22 128/128/128 27/27/27
f 27/27/27 129/129/129 28/28/28
f 28/28/28 130/130/130 131/131/131
f 36/36/36 132/132/132 131/131/131
f 36/36/36 35/35/35 39/39/39
f 43/43/43 41/41/41 39/39/39
f 161/161/161 133/133/133 43/43/43
f 49/49/49 47/47/47 134/134/134
f 155/155/155 135/135/135 55/55/55
f 49/49/49 56/56/56 136/136/136
f 61/61/61 3/3/3 137/137/137
f 64/64/64 123/123/123 65/65/65
f 65/65/65 72/72/72 70/70/70
f 78/78/78 81/81/81 70/70/70
f 86/86/86 78/78/78 82/82/82
f 86/86/86 85/85/85 80/80/80
f 85/85/85 89/89/89 138/138/138
f 89/89/89 93/93/93 139/139/139
f 93/93/93 96/96/96 140/140/140
f 101/101/101 96/96/96 141/141/141
f 101/101/101 105/105/105 142/142/142
f 104/104/104 107/107/107 105/105/105
f 112/112/112 143/143/143 109/109/109
f 115/115/115 145/145/145 112/112/112
f 120/120/120 146/146/146 121/121/121
f 115/115/115 114/114/114 120/120/120
f 61/61/61 137/137/137 64/64/64
f 4/4/4 58/58/58 5/5/5
f 10/10/10 148/148/148 5/5/5
f 10/10/10 9/9/9 11/11/11
f 15/15/15 149/149/149 11/11/11
f 21/21/21 150/150/150 15/15/15
f 23/23/23 25/25/25 21/21/21
f 23/23/23 24/24/24 26/26/26
f 31/31/31 32/32/32 26/26/26
f 31/31/31 30/30/30 33/33/33
f 33/33/33 132/132/132 38/38/38
f 38/38/38 42/42/42 152/152/152
f 46/46/46 42/42/42 48/48/48
f 52/52/52 51/51/51 135/135/135
f 51/51/51 46/46/46 136/136/136
f 4/4/4 153/153/153 59/59/59
f 63/63/63 52/52/52 155/155/155
f 69/69/69 68/68/68 123/123/123
f 73/73/73 68/68/68 156/156/156
f 73/73/73 75/75/75 76/76/76
f 79/79/79 75/75/75 157/157/157
f 83/83/83 79/79/79 158/158/158
f 87/87/87 83/83/83 91/91/91
f 87/87/87 90/90/90 88/88/88
f 94/94/94 90/90/90 97/97/97
f 94/94/94 99/99/99 95/95/95
f 99/99/99 103/103/103 141/141/141
f 103/103/103 102/102/102 106/106/106
f 110/110/110 113/113/113 106/106/106
f 116/116/116 146/146/146 117/117/117
f 117/117/117 114/114/114 110/110/110
f 69/69/69 59/59/59 160/160/160
f 125/125/125 147/147/147 116/116/116
