# Blender v2.79 (sub 0) OBJ File: ''
# www.blender.org
mtllib LShoulderRoll.mtl
o LShoulderRoll_shiny.001
v 1.557470 0.144833 0.150986
v 1.560650 -0.125807 0.140012
v 1.516770 -0.056988 0.243775
v 1.602870 0.137697 0.016505
v 1.616360 0.141631 -0.033652
v 1.618630 -0.147136 -0.043745
v 1.544920 0.408388 0.182870
v 1.578720 0.445679 0.093388
v 1.607690 0.459525 -0.000494
v 1.528180 0.136308 0.221268
v 1.490700 0.018662 0.293519
v 1.496080 0.303665 0.284891
v 1.649550 0.140836 -0.164859
v 1.640380 0.410769 -0.147529
v 1.694850 0.270691 -0.243313
v 1.711100 0.112067 -0.271462
v 1.642590 -0.117504 -0.152811
v 1.301730 -0.042344 0.355743
v 1.275160 0.128801 0.401249
v 1.319260 0.129408 0.385310
v 1.356410 -0.141103 0.266553
v 1.341120 -0.026299 0.346945
v 1.443040 -0.197271 0.125104
v 1.389490 -0.120958 0.265648
v 1.522480 -0.203664 -0.008069
v 1.465730 -0.179823 0.136171
v 1.553310 -0.194987 -0.063039
v 1.540980 -0.193735 0.000752
v 1.659410 -0.105062 -0.253226
v 1.590420 -0.175761 -0.129625
v 1.609440 -0.165708 -0.112739
v 1.714240 0.104089 -0.363313
v 1.679710 -0.097252 -0.241026
v 1.700470 0.298488 -0.318029
v 1.742400 0.107569 -0.346350
v 1.639860 0.431801 -0.167953
v 1.619400 0.439532 -0.184176
v 1.545830 0.499414 -0.002310
v 1.519470 0.510837 -0.001566
v 1.568830 0.484956 -0.086999
v 1.482320 0.493666 0.107138
v 1.461320 0.507024 0.101140
v 1.435370 0.464179 0.190897
v 1.406530 0.485147 0.187381
v 1.354960 0.362346 0.324878
v 1.322990 0.384882 0.327551
v 1.679710 -0.097252 -0.241026
v 1.681700 -0.081215 -0.220906
v 1.742160 0.110885 -0.326282
v 1.717630 0.294976 -0.302688
v 1.742400 0.107569 -0.346350
v 1.639860 0.431801 -0.167953
v 1.716860 0.286195 -0.281491
v 1.545830 0.499414 -0.002310
v 1.589050 0.479120 -0.080473
v 1.595090 0.451913 -0.070525
v 1.482320 0.493666 0.107138
v 1.549650 0.469829 0.008170
v 1.491400 0.467625 0.109066
v 1.446340 0.437534 0.187103
v 1.378180 0.334012 0.305173
v 1.351610 0.134796 0.351188
v 1.367580 -0.004652 0.323132
v 1.465730 -0.179823 0.136171
v 1.409700 -0.093043 0.250578
v 1.540980 -0.193735 0.000752
v 1.476340 -0.153990 0.135143
v 1.570140 -0.186495 -0.052115
v 1.552730 -0.162969 0.002834
v 1.609440 -0.165708 -0.112739
v 1.614310 -0.143635 -0.103815
v 1.589050 0.479120 -0.080473
v 1.619400 0.439532 -0.184176
v 1.623460 0.446775 -0.065884
v 1.632570 -0.132160 -0.113326
v 1.580340 -0.156791 -0.044978
v 1.570140 -0.186495 -0.052115
v 1.606260 -0.151328 0.001409
v 1.478680 0.135942 0.318149
v 1.641960 0.414972 -0.152767
v 1.717630 0.294976 -0.302688
v 1.639860 0.431801 -0.167953
vt 0.626314 0.272386
vt 0.604100 0.330819
vt 0.636811 0.347270
vt 0.666033 0.269236
vt 0.692129 0.349238
vt 0.680616 0.266181
vt 0.604958 0.201509
vt 0.629288 0.186333
vt 0.656112 0.177470
vt 0.606061 0.277435
vt 0.587317 0.311610
vt 0.580570 0.235620
vt 0.719643 0.261307
vt 0.740584 0.219694
vt 0.702216 0.183158
vt 0.725095 0.338871
vt 0.756531 0.264745
vt 0.531989 0.336908
vt 0.529575 0.287999
vt 0.516932 0.289277
vt 0.559482 0.372032
vt 0.543189 0.331294
vt 0.598573 0.417500
vt 0.570869 0.364767
vt 0.633677 0.459125
vt 0.606556 0.410244
vt 0.647333 0.477138
vt 0.640379 0.454505
vt 0.691333 0.548394
vt 0.671418 0.494657
vt 0.663222 0.500176
vt 0.718387 0.628463
vt 0.699887 0.546512
vt 0.727610 0.697815
vt 0.729889 0.626958
vt 0.727564 0.772636
vt 0.717659 0.772342
vt 0.613778 0.111563
vt 0.623410 0.083872
vt 0.604348 0.111042
vt 0.590669 0.147041
vt 0.582941 0.143215
vt 0.572142 0.176991
vt 0.562173 0.170411
vt 0.538414 0.221990
vt 0.529337 0.216381
vt 0.752913 0.328430
vt 0.775012 0.262612
vt 0.746633 0.323913
vt 0.758530 0.209621
vt 0.781027 0.262921
vt 0.707310 0.175741
vt 0.752883 0.213404
vt 0.647059 0.152242
vt 0.675256 0.168190
vt 0.677438 0.159040
vt 0.603832 0.159386
vt 0.645365 0.162735
vt 0.606462 0.168636
vt 0.577958 0.185093
vt 0.548235 0.227860
vt 0.553598 0.324999
vt 0.542179 0.285140
vt 0.623565 0.380536
vt 0.579095 0.354524
vt 0.674385 0.377913
vt 0.624720 0.371343
vt 0.694299 0.370744
vt 0.673762 0.367131
vt 0.713088 0.356366
vt 0.709606 0.349688
vt 0.630263 0.086153
vt 0.644041 0.051179
vt 0.675819 0.177221
vt 0.712848 0.343653
vt 0.691013 0.361030
vt 0.653914 0.472581
vt 0.678920 0.351416
vt 0.577328 0.281061
vt 0.703652 0.181588
vt 0.735798 0.697814
vt 0.651295 0.056330
vn 0.9372 -0.0080 0.3486
vn 0.6169 -0.4167 0.6677
vn 0.7001 -0.5533 0.4514
vn 0.9570 0.0024 0.2902
vn 0.7673 -0.6303 0.1184
vn 0.9689 -0.0074 0.2472
vn 0.6533 0.4787 0.5865
vn 0.7131 0.5963 0.3687
vn 0.7095 0.6870 0.1570
vn 0.9083 -0.0077 0.4182
vn 0.5959 -0.2148 0.7738
vn 0.5814 0.2744 0.7660
vn 0.9305 -0.0073 0.3663
vn 0.8639 0.0041 0.5037
vn 0.9787 -0.2054 0.0065
vn 0.7017 -0.6451 0.3023
vn 0.8640 -0.0109 0.5033
vn 0.5629 -0.2836 0.7763
vn 0.5072 0.0276 0.8614
vn 0.5249 0.0106 0.8511
vn 0.6818 -0.3826 0.6235
vn 0.5217 -0.2711 0.8089
vn 0.6717 -0.5478 0.4987
vn 0.5690 -0.4702 0.6746
vn 0.6436 -0.7032 0.3020
vn 0.0974 -0.9473 0.3053
vn 0.6727 -0.7123 0.2004
vn 0.0297 -0.9995 -0.0059
vn 0.7854 -0.5947 -0.1714
vn 0.1977 -0.9366 -0.2893
vn 0.7566 -0.6332 0.1633
vn 0.7053 -0.1465 -0.6936
vn 0.1004 -0.6955 -0.7115
vn 0.8621 0.3934 -0.3194
vn -0.1863 -0.0949 -0.9779
vn 0.5603 0.4488 -0.6962
vn 0.7433 0.4709 -0.4751
vn -0.0154 0.9892 -0.1460
vn 0.4259 0.8956 -0.1285
vn 0.5709 0.7902 0.2230
vn 0.1054 0.9657 0.2373
vn 0.5739 0.6851 0.4487
vn 0.6086 0.4962 0.6192
vn 0.6149 0.4996 0.6102
vn 0.5249 0.2943 0.7987
vn 0.5857 0.3380 0.7367
vn 0.8653 0.0663 0.4968
vn 0.9741 -0.0185 0.2254
vn 0.9266 -0.1930 0.3229
vn 0.8133 -0.0818 0.5761
vn 0.8142 0.0201 0.5803
vn 0.8443 -0.0554 0.5330
vn 0.9484 0.1419 0.2836
vn 0.8544 -0.2306 0.4657
vn 0.6316 0.7650 0.1261
vn 0.8374 -0.1444 0.5271
vn 0.8772 -0.0224 0.4796
vn 0.6233 0.7104 0.3269
vn 0.6035 0.6201 0.5013
vn 0.5697 0.4942 0.6567
vn 0.5628 0.2523 0.7871
vn 0.5513 -0.2266 0.8030
vn 0.5400 0.0209 0.8414
vn 0.8758 0.0451 0.4805
vn 0.5664 -0.4219 0.7080
vn 0.8760 0.0508 0.4796
vn 0.5969 -0.5916 0.5420
vn 0.8584 0.0038 0.5130
vn 0.6052 -0.7199 0.3398
vn 0.8434 0.0633 0.5335
vn 0.6955 -0.6940 0.1863
vn -0.1546 0.8843 -0.4405
vn 0.4537 0.8842 0.1109
vn 0.7722 0.6329 0.0557
vn 0.8585 -0.5042 0.0936
vn 0.6183 -0.7581 0.2074
vn 0.1010 -0.9799 -0.1721
vn 0.7264 -0.6521 0.2170
vn 0.5820 0.0036 0.8132
vn 0.9573 0.2428 0.1567
vn 0.2538 0.4992 -0.8285
vn 0.1943 0.9801 0.0403
usemtl shiny_white
s 1
f 1/1/1 3/2/2 2/3/3
f 4/4/4 6/5/5 5/6/6
f 7/7/7 1/1/1 8/8/8
f 5/6/6 9/9/9 4/4/4
f 8/8/8 4/4/4 9/9/9
f 2/3/3 4/4/4 1/1/1
f 10/10/10 11/11/11 3/2/2
f 12/12/12 10/10/10 7/7/7
f 13/13/13 15/14/14 14/15/15
f 13/13/13 17/16/16 16/17/17
f 18/18/18 20/19/19 19/20/20
f 21/21/21 22/22/22 18/18/18
f 23/23/23 24/24/24 21/21/21
f 25/25/25 26/26/26 23/23/23
f 27/27/27 28/28/28 25/25/25
f 29/29/29 31/30/30 30/31/31
f 32/32/32 33/33/33 29/29/29
f 34/34/34 35/35/35 32/32/32
f 36/36/36 34/34/34 37/37/37
f 38/38/38 40/39/39 39/40/40
f 41/41/41 39/40/40 42/42/42
f 42/42/42 43/43/43 41/41/41
f 44/44/44 45/45/45 43/43/43
f 19/20/20 45/45/45 46/46/46
f 47/47/47 49/48/48 48/49/49
f 50/50/50 49/48/48 51/51/51
f 52/52/52 53/53/53 50/50/50
f 54/54/54 56/55/55 55/56/56
f 57/57/57 58/58/58 54/54/54
f 43/43/43 59/59/59 57/57/57
f 45/45/45 60/60/60 43/43/43
f 20/19/19 61/61/61 45/45/45
f 20/19/19 63/62/62 62/63/63
f 24/24/24 63/62/62 22/22/22
f 64/64/64 65/65/65 24/24/24
f 66/66/66 67/67/67 64/64/64
f 68/68/68 69/69/69 66/66/66
f 70/70/70 48/49/49 71/71/71
f 72/72/72 73/73/73 40/39/39
f 56/55/55 52/52/52 55/56/56
f 5/6/6 14/15/15 74/74/74
f 5/6/6 75/75/75 13/13/13
f 70/70/70 76/76/76 68/68/68
f 27/27/27 31/30/30 77/77/77
f 67/67/67 3/2/2 65/65/65
f 76/76/76 78/78/78 69/69/69
f 59/59/59 7/7/7 8/8/8
f 56/55/55 9/9/9 74/74/74
f 58/58/58 8/8/8 9/9/9
f 69/69/69 2/3/3 67/67/67
f 65/65/65 11/11/11 63/62/62
f 63/62/62 79/79/79 62/63/63
f 60/60/60 12/12/12 7/7/7
f 61/61/61 79/79/79 12/12/12
f 80/80/80 15/14/14 53/53/53
f 53/53/53 16/17/17 49/48/48
f 48/49/49 16/17/17 17/16/16
f 71/71/71 17/16/16 75/75/75
f 80/80/80 74/74/74 14/15/15
f 71/71/71 6/5/5 76/76/76
f 10/10/10 3/2/2 1/1/1
f 78/78/78 6/5/5 4/4/4
f 10/10/10 1/1/1 7/7/7
f 74/74/74 9/9/9 5/6/6
f 1/1/1 4/4/4 8/8/8
f 78/78/78 4/4/4 2/3/3
f 79/79/79 11/11/11 10/10/10
f 79/79/79 10/10/10 12/12/12
f 16/17/17 15/14/14 13/13/13
f 75/75/75 17/16/16 13/13/13
f 22/22/22 20/19/19 18/18/18
f 24/24/24 22/22/22 21/21/21
f 26/26/26 24/24/24 23/23/23
f 28/28/28 26/26/26 25/25/25
f 77/77/77 28/28/28 27/27/27
f 33/33/33 31/30/30 29/29/29
f 35/35/35 33/33/33 32/32/32
f 81/81/81 35/35/35 34/34/34
f 81/81/81 34/34/34 36/36/36
f 72/72/72 40/39/39 38/38/38
f 38/38/38 39/40/40 41/41/41
f 44/44/44 43/43/43 42/42/42
f 46/46/46 45/45/45 44/44/44
f 20/19/19 45/45/45 19/20/20
f 51/51/51 49/48/48 47/47/47
f 53/53/53 49/48/48 50/50/50
f 80/80/80 53/53/53 52/52/52
f 58/58/58 56/55/55 54/54/54
f 59/59/59 58/58/58 57/57/57
f 60/60/60 59/59/59 43/43/43
f 61/61/61 60/60/60 45/45/45
f 62/63/63 61/61/61 20/19/19
f 22/22/22 63/62/62 20/19/19
f 65/65/65 63/62/62 24/24/24
f 67/67/67 65/65/65 64/64/64
f 69/69/69 67/67/67 66/66/66
f 76/76/76 69/69/69 68/68/68
f 47/47/47 48/49/49 70/70/70
f 82/82/82 73/73/73 72/72/72
f 80/80/80 52/52/52 56/55/55
f 13/13/13 14/15/15 5/6/6
f 6/5/5 75/75/75 5/6/6
f 71/71/71 76/76/76 70/70/70
f 30/31/31 31/30/30 27/27/27
f 2/3/3 3/2/2 67/67/67
f 6/5/5 78/78/78 76/76/76
f 60/60/60 7/7/7 59/59/59
f 58/58/58 9/9/9 56/55/55
f 59/59/59 8/8/8 58/58/58
f 78/78/78 2/3/3 69/69/69
f 3/2/2 11/11/11 65/65/65
f 11/11/11 79/79/79 63/62/62
f 61/61/61 12/12/12 60/60/60
f 62/63/63 79/79/79 61/61/61
f 14/15/15 15/14/14 80/80/80
f 15/14/14 16/17/17 53/53/53
f 49/48/48 16/17/17 48/49/49
f 48/49/49 17/16/16 71/71/71
f 56/55/55 74/74/74 80/80/80
f 75/75/75 6/5/5 71/71/71
