# Exported using automatic converter by Erwin Coumans
mtllib RElbowRoll.mtl
#object RElbowRoll_JULIETTE_AV_BRAS_.027

v 0.849512 -0.168628 0.251604
v 0.471882 -0.185848 0.297708
v 0.478766 -0.249825 0.249620
v 0.603000 -0.224389 -0.265346
v 0.849512 -0.168629 -0.249466
v 0.849512 -0.214288 -0.211993
v 0.472885 -0.364750 0.025835
v 0.473032 -0.346664 -0.103880
v 0.849512 -0.296753 -0.057714
v 0.809537 0.053341 -0.308037
v 0.849512 0.057558 -0.294457
v 0.849512 -0.001226 -0.300246
v 0.577596 0.035133 0.304876
v 0.525836 -0.015492 0.342736
v 0.849512 -0.001226 0.302385
v 0.849512 -0.168629 -0.249466
v 0.723670 -0.109323 -0.310932
v 0.483461 -0.131083 0.322334
v 0.835129 0.133016 -0.276445
v 0.849512 0.114082 -0.277310
v 0.653592 0.113042 0.300022
v 0.849512 0.057558 0.296595
v 0.849511 0.300090 0.001070
v 0.795925 0.289922 0.102696
v 0.849511 0.277154 0.116378
v 0.087619 -0.185197 0.289086
v 0.087650 -0.272428 0.224203
v 0.087077 -0.198490 -0.279556
v 0.529746 -0.285259 -0.212442
v 0.400077 0.207333 -0.294090
v 0.849511 0.211837 -0.211993
v 0.375143 0.225197 0.267314
v 0.245748 0.139343 0.315604
v 0.085761 -0.376284 -0.000698
v 0.084064 -0.347248 -0.123027
v 0.601821 0.337670 -0.021020
v 0.849511 0.300090 0.001070
v 0.849511 0.294301 -0.057714
v 0.084479 -0.345666 0.118215
v 0.472556 -0.330458 0.139470
v 0.747579 0.253512 0.186969
v 0.550221 0.327202 0.095724
v 0.180631 0.067761 -0.343891
v 0.780884 -0.019259 -0.318335
v 0.166744 0.054453 0.331183
v 0.114122 -0.051784 0.330971
v 0.091382 -0.128171 -0.325014
v 0.094258 -0.116247 0.317638
v 0.287734 0.135057 -0.332801
v 0.082204 -0.278063 -0.228115
v 0.136171 -0.027003 -0.348740
v 0.473348 0.287603 0.194395
v 0.711280 0.182733 0.265265
v 0.495882 0.278773 -0.213051
v 0.849511 0.277154 -0.114239
v 0.527692 0.301162 -0.162456
v 0.559502 0.323551 -0.111860
v 0.849511 0.277154 -0.114239
v 0.849511 0.249308 -0.166332
v 0.849511 0.277154 0.116378
v 0.849511 0.249308 0.168471
v 0.849511 0.277154 0.116378
v 0.849511 0.211837 0.214132
v 0.849511 0.211837 0.214132
v 0.849511 0.249308 0.168471
v 0.849512 0.114083 0.279449
v 0.849512 0.166177 0.251604
v 0.849511 0.211837 0.214132
v 0.849512 -0.060010 0.296595
v 0.849512 -0.116534 0.279449
v 0.849512 -0.251759 0.168472
v 0.849512 -0.279606 0.116378
v 0.849512 -0.214288 0.214132
v 0.849512 -0.296753 0.059853
v 0.849512 -0.302541 0.001069
v 0.849512 -0.279606 -0.114239
v 0.849512 -0.251760 -0.166333
v 0.849512 -0.060010 -0.294457
v 0.849512 -0.116534 -0.277310
v 0.849512 0.166177 -0.249465
v 0.849512 0.166177 -0.249465
v 0.849512 0.114082 -0.277310
v 0.849512 0.166177 -0.249465
v 0.849512 -0.010759 -0.000827
v 0.849512 -0.060010 -0.294457
v 0.849512 -0.001226 -0.300246
v 0.849512 -0.010759 -0.000827
v 0.849512 -0.116534 -0.277310
v 0.849512 -0.060010 -0.294457
v 0.849512 -0.010759 -0.000827
v 0.849512 -0.251760 -0.166333
v 0.849512 -0.214288 -0.211993
v 0.849512 -0.010759 -0.000827
v 0.849512 -0.296753 -0.057714
v 0.849512 -0.279606 -0.114239
v 0.849512 -0.010759 -0.000827
v 0.849512 -0.296753 0.059853
v 0.849512 -0.302541 0.001069
v 0.849512 -0.010759 -0.000827
v 0.849512 -0.279606 0.116378
v 0.849512 -0.296753 0.059853
v 0.849512 -0.010759 -0.000827
v 0.849512 -0.251759 0.168472
v 0.849512 -0.279606 0.116378
v 0.849512 -0.010759 -0.000827
v 0.849512 -0.214288 0.214132
v 0.849512 -0.251759 0.168472
v 0.849512 -0.010759 -0.000827
v 0.849512 -0.060010 0.296595
v 0.849512 -0.116534 0.279449
v 0.849512 -0.010759 -0.000827
v 0.849512 -0.001226 0.302385
v 0.849512 -0.060010 0.296595
v 0.849512 -0.010759 -0.000827
v 0.849512 0.166177 0.251604
v 0.849512 0.114083 0.279449
v 0.849512 -0.010759 -0.000827
v 0.849511 0.249308 0.168471
v 0.849511 0.211837 0.214132
v 0.849512 -0.010759 -0.000827
v 0.849511 0.277154 0.116378
v 0.849511 0.249308 0.168471
v 0.849512 -0.010759 -0.000827
v 0.849512 0.166177 -0.249465
v 0.849511 0.211837 -0.211993
v 0.849512 -0.010759 -0.000827
v 0.849511 0.294301 -0.057714
v 0.849511 0.300090 0.001070
v 0.849512 -0.010759 -0.000827
v 0.849511 0.211837 0.214132
v 0.849512 0.166177 0.251604
v 0.849512 -0.010759 -0.000827
v 0.849512 -0.279606 -0.114239
v 0.849512 -0.251760 -0.166333
v 0.849512 -0.010759 -0.000827
v 0.849511 0.277154 -0.114239
v 0.849511 0.294301 -0.057714
v 0.849512 -0.010759 -0.000827
v 0.849511 0.211837 -0.211993
v 0.849511 0.249308 -0.166332
v 0.849512 -0.010759 -0.000827
v 0.849511 0.300090 0.001070
v 0.849511 0.277154 0.116378
v 0.849512 -0.010759 -0.000827
v 0.849511 0.249308 -0.166332
v 0.849511 0.277154 -0.114239
v 0.849512 -0.010759 -0.000827
v 0.849512 0.114083 0.279449
v 0.849512 0.057558 0.296595
v 0.849512 -0.010759 -0.000827
v 0.849512 0.057558 -0.294457
v 0.849512 0.114082 -0.277310
v 0.849512 -0.010759 -0.000827
v 0.849512 -0.116534 0.279449
v 0.849512 -0.168628 0.251604
v 0.849512 -0.010759 -0.000827
v 0.849512 -0.168629 -0.249466
v 0.849512 -0.116534 -0.277310
v 0.849512 -0.010759 -0.000827
v 0.849512 0.057558 0.296595
v 0.849512 -0.001226 0.302385
v 0.849512 -0.010759 -0.000827
v 0.849512 -0.001226 -0.300246
v 0.849512 0.057558 -0.294457
v 0.849512 -0.010759 -0.000827
v 0.849512 -0.302541 0.001069
v 0.849512 -0.296753 -0.057714
v 0.849512 -0.010759 -0.000827
v 0.849512 -0.214288 -0.211993
v 0.849512 -0.168629 -0.249466
v 0.849512 -0.010759 -0.000827
v 0.849512 -0.168628 0.251604
v 0.849512 -0.214288 0.214132
v 0.849512 -0.010759 -0.000827
v 0.849512 0.114083 0.279449
v 0.559502 0.323551 -0.111860
v 0.849511 0.249308 -0.166332
v 0.849511 0.294301 -0.057714
v 0.495882 0.278773 -0.213051
usemtl milky_white

vn 0.001273 -0.005304 0.008381
vn 0.000464 -0.005128 0.008572
vn 0.000627 -0.007111 0.007002
vn 0.000959 -0.005838 -0.008062
vn 0.001792 -0.005982 -0.007810
vn 0.001742 -0.007312 -0.006595
vn 0.000862 -0.009940 0.000670
vn 0.000771 -0.009423 -0.003257
vn 0.001552 -0.009671 -0.002013
vn 0.001749 0.001450 -0.009738
vn 0.002812 0.001784 -0.009429
vn 0.002727 -0.000056 -0.009621
vn 0.000493 0.002057 0.009774
vn 0.000450 0.000332 0.009984
vn 0.000926 0.001347 0.009865
vn 0.001792 -0.005982 -0.007810
vn 0.001183 -0.003421 -0.009322
vn 0.000470 -0.003137 0.009483
vn 0.002618 0.003879 -0.008837
vn 0.003402 0.003088 -0.008882
vn 0.000727 0.002644 0.009616
vn 0.000551 0.002348 0.009705
vn 0.001506 0.009885 0.000092
vn 0.001353 0.009435 0.003023
vn 0.001402 0.009254 0.003521
vn -0.001399 -0.004950 0.008575
vn -0.001615 -0.007130 0.006823
vn -0.002119 -0.005154 -0.008303
vn 0.000768 -0.007698 -0.006336
vn 0.000080 0.006462 -0.007631
vn 0.001224 0.006150 -0.007790
vn -0.000177 0.006356 0.007718
vn -0.000721 0.003600 0.009301
vn -0.001616 -0.009866 0.000222
vn -0.001926 -0.009073 -0.003737
vn 0.001186 0.009927 -0.000215
vn 0.001506 0.009885 0.000092
vn 0.001452 0.009529 -0.002663
vn -0.001703 -0.008904 0.004221
vn 0.000726 -0.008968 0.004363
vn 0.001278 0.007959 0.005918
vn 0.000784 0.009528 0.002930
vn 0.000584 0.001002 -0.009932
vn 0.001509 -0.000645 -0.009864
vn -0.001299 0.002388 0.009623
vn -0.001482 -0.000016 0.009890
vn -0.002219 -0.002858 -0.009322
vn -0.001389 -0.002558 0.009567
vn -0.000704 0.004568 -0.008868
vn -0.002245 -0.007001 -0.006778
vn -0.002062 0.000406 -0.009776
vn 0.000207 0.008347 0.005502
vn 0.001834 0.004786 0.008586
vn 0.000413 0.008172 -0.005748
vn 0.001395 0.008959 -0.004218
vn 0.000467 0.009101 -0.004116
vn 0.000803 0.009504 -0.003005
vn 0.001395 0.008959 -0.004218
vn 0.001361 0.007978 -0.005873
vn 0.001402 0.009254 0.003521
vn 0.001149 0.008197 0.005611
vn 0.001402 0.009254 0.003521
vn 0.002982 0.002167 0.009295
vn 0.000717 0.007710 0.006327
vn 0.001149 0.008197 0.005611
vn 0.000738 0.003101 0.009478
vn 0.000468 0.005729 0.008183
vn 0.000189 0.006343 0.007729
vn 0.001239 -0.001950 0.009729
vn 0.001243 -0.003699 0.009207
vn 0.001386 -0.008212 0.005536
vn 0.001465 -0.009140 0.003783
vn 0.001318 -0.006900 0.007117
vn 0.001567 -0.009672 0.002000
vn 0.001596 -0.009870 -0.000183
vn 0.001556 -0.009165 -0.003684
vn 0.001608 -0.008314 -0.005319
vn 0.002406 -0.002018 -0.009494
vn 0.002041 -0.004046 -0.008914
vn -0.000126 0.006343 -0.007729
vn 0.004935 0.004100 -0.007670
vn 0.010000 0.000000 -0.000000
vn 0.010000 0.000000 -0.000000
vn 0.010000 0.000000 -0.000000
vn 0.010000 0.000000 0.000000
vn 0.010000 0.000000 0.000000
vn 0.010000 0.000000 0.000000
vn 0.010000 0.000000 0.000000
vn 0.010000 0.000000 0.000000
vn 0.010000 0.000000 0.000000
vn 0.010000 0.000000 -0.000000
vn 0.010000 0.000000 -0.000000
vn 0.010000 0.000000 -0.000000
vn 0.010000 0.000000 0.000000
vn 0.010000 0.000000 0.000000
vn 0.010000 0.000000 0.000000
vn 0.010000 0.000000 -0.000000
vn 0.010000 0.000000 -0.000000
vn 0.010000 0.000000 -0.000000
vn 0.010000 0.000000 -0.000000
vn 0.010000 0.000000 -0.000000
vn 0.010000 0.000000 -0.000000
vn 0.010000 0.000000 -0.000000
vn 0.010000 0.000000 -0.000000
vn 0.010000 0.000000 -0.000000
vn 0.010000 0.000000 0.000000
vn 0.010000 0.000000 0.000000
vn 0.010000 0.000000 0.000000
vn 0.010000 0.000000 -0.000000
vn 0.010000 0.000000 -0.000000
vn 0.010000 0.000000 -0.000000
vn 0.010000 0.000000 0.000000
vn 0.010000 0.000000 0.000000
vn 0.010000 0.000000 0.000000
vn 0.010000 0.000000 0.000000
vn 0.010000 0.000000 0.000000
vn 0.010000 0.000000 0.000000
vn 0.010000 0.000000 -0.000000
vn 0.010000 0.000000 -0.000000
vn 0.010000 0.000000 -0.000000
vn 0.010000 0.000000 0.000000
vn 0.010000 0.000000 0.000000
vn 0.010000 0.000000 0.000000
vn 0.010000 0.000000 0.000000
vn 0.010000 0.000000 0.000000
vn 0.010000 0.000000 0.000000
vn 0.010000 0.000000 -0.000000
vn 0.010000 0.000000 -0.000000
vn 0.010000 0.000000 -0.000000
vn 0.010000 0.000000 -0.000000
vn 0.010000 0.000000 -0.000000
vn 0.010000 0.000000 -0.000000
vn 0.010000 0.000000 0.000000
vn 0.010000 0.000000 0.000000
vn 0.010000 0.000000 0.000000
vn 0.010000 0.000000 -0.000000
vn 0.010000 0.000000 -0.000000
vn 0.010000 0.000000 -0.000000
vn 0.010000 0.000000 0.000000
vn 0.010000 0.000000 0.000000
vn 0.010000 0.000000 0.000000
vn 0.010000 0.000000 0.000000
vn 0.010000 0.000000 0.000000
vn 0.010000 0.000000 0.000000
vn 0.010000 0.000000 -0.000000
vn 0.010000 0.000000 -0.000000
vn 0.010000 0.000000 -0.000000
vn 0.010000 0.000000 0.000000
vn 0.010000 0.000000 0.000000
vn 0.010000 0.000000 0.000000
vn 0.010000 0.000000 -0.000000
vn 0.010000 0.000000 -0.000000
vn 0.010000 0.000000 -0.000000
vn 0.010000 0.000000 -0.000000
vn 0.010000 0.000000 -0.000000
vn 0.010000 0.000000 -0.000000
vn 0.010000 0.000000 0.000000
vn 0.010000 0.000000 0.000000
vn 0.010000 0.000000 0.000000
vn 0.010000 0.000000 0.000000
vn 0.010000 0.000000 0.000000
vn 0.010000 0.000000 0.000000
vn 0.010000 0.000000 0.000000
vn 0.010000 0.000000 0.000000
vn 0.010000 0.000000 0.000000
vn 0.010000 0.000000 0.000000
vn 0.010000 0.000000 0.000000
vn 0.010000 0.000000 0.000000
vn 0.010000 0.000000 -0.000000
vn 0.010000 0.000000 -0.000000
vn 0.010000 0.000000 -0.000000
vn 0.010000 0.000000 0.000000
vn 0.010000 0.000000 0.000000
vn 0.010000 0.000000 0.000000
vn 0.000738 0.003101 0.009478
vn 0.000803 0.009504 -0.003005
vn 0.001361 0.007978 -0.005873
vn 0.001452 0.009529 -0.002663
vn 0.000413 0.008172 -0.005748

vt 0.410479 0.468176
vt 0.420415 0.377248
vt 0.445832 0.383039
vt 0.621683 0.459147
vt 0.607202 0.525644
vt 0.585459 0.504264
vt 0.527417 0.394219
vt 0.568516 0.402647
vt 0.548554 0.485640
vt 0.690668 0.548626
vt 0.677618 0.592360
vt 0.657284 0.578991
vt 0.340174 0.406636
vt 0.361261 0.389306
vt 0.351698 0.478014
vt 0.607202 0.525644
vt 0.649052 0.507199
vt 0.400624 0.378841
vt 0.713784 0.565187
vt 0.697402 0.605191
vt 0.312319 0.430223
vt 0.333290 0.489244
vt 0.177988 0.555947
vt 0.215814 0.479378
vt 0.216030 0.548748
vt 0.438363 0.248879
vt 0.475944 0.254903
vt 0.673701 0.299525
vt 0.602903 0.429718
vt 0.778217 0.437552
vt 0.733228 0.572241
vt 0.281564 0.333151
vt 0.316752 0.291705
vt 0.561162 0.270459
vt 0.602779 0.279714
vt 0.169633 0.413590
vt 0.172847 0.497326
vt 0.136164 0.498198
vt 0.520030 0.261634
vt 0.489764 0.387626
vt 0.248379 0.460924
vt 0.211478 0.388973
vt 0.753785 0.354720
vt 0.671195 0.532914
vt 0.348072 0.265205
vt 0.387818 0.251155
vt 0.699856 0.308485
vt 0.411903 0.247420
vt 0.764745 0.394444
vt 0.643671 0.289870
vt 0.728457 0.331905
vt 0.248346 0.363900
vt 0.285111 0.448583
vt 0.799359 0.479447
vt 0.000000 0.000000
vt 0.000000 1.000000
vt 1.000000 1.000000
vt 1.000000 1.000000
vt 1.000000 0.000000
vt 0.233719 0.541379
vt 0.265300 0.528567
vt 0.251408 0.534010
vt 0.293712 0.514962
vt 0.293712 0.514962
vt 0.279193 0.523125
vt 0.308232 0.506800
vt 0.300972 0.510881
vt 0.293712 0.514962
vt 0.371805 0.473782
vt 0.391911 0.469550
vt 0.454088 0.471574
vt 0.475235 0.472823
vt 0.432942 0.470326
vt 0.494011 0.475922
vt 0.512788 0.479021
vt 0.560855 0.491848
vt 0.573157 0.498056
vt 0.643750 0.566145
vt 0.630216 0.553299
vt 0.715315 0.588716
vt 0.715315 0.588716
vt 0.000000 0.000000
vt 1.000000 0.000000
vt 1.000000 1.000000
vt 0.000000 0.000000
vt 1.000000 0.000000
vt 1.000000 1.000000
vt 0.000000 0.000000
vt 1.000000 0.000000
vt 1.000000 1.000000
vt 0.000000 0.000000
vt 1.000000 0.000000
vt 1.000000 1.000000
vt 0.000000 0.000000
vt 1.000000 0.000000
vt 1.000000 1.000000
vt 0.000000 0.000000
vt 1.000000 0.000000
vt 1.000000 1.000000
vt 0.000000 0.000000
vt 1.000000 0.000000
vt 1.000000 1.000000
vt 0.000000 0.000000
vt 1.000000 0.000000
vt 1.000000 1.000000
vt 0.000000 0.000000
vt 1.000000 0.000000
vt 1.000000 1.000000
vt 0.000000 0.000000
vt 1.000000 0.000000
vt 1.000000 1.000000
vt 0.000000 0.000000
vt 1.000000 0.000000
vt 1.000000 1.000000
vt 0.000000 0.000000
vt 1.000000 0.000000
vt 1.000000 1.000000
vt 0.000000 0.000000
vt 1.000000 0.000000
vt 1.000000 1.000000
vt 0.000000 0.000000
vt 1.000000 0.000000
vt 1.000000 1.000000
vt 0.000000 0.000000
vt 1.000000 0.000000
vt 1.000000 1.000000
vt 0.000000 0.000000
vt 1.000000 0.000000
vt 1.000000 1.000000
vt 0.000000 0.000000
vt 1.000000 0.000000
vt 1.000000 1.000000
vt 0.000000 0.000000
vt 1.000000 0.000000
vt 1.000000 1.000000
vt 0.000000 0.000000
vt 1.000000 0.000000
vt 1.000000 1.000000
vt 0.000000 0.000000
vt 1.000000 0.000000
vt 1.000000 1.000000
vt 0.000000 0.000000
vt 1.000000 0.000000
vt 1.000000 1.000000
vt 0.000000 0.000000
vt 1.000000 0.000000
vt 1.000000 1.000000
vt 0.000000 0.000000
vt 1.000000 0.000000
vt 1.000000 1.000000
vt 0.000000 0.000000
vt 1.000000 0.000000
vt 1.000000 1.000000
vt 0.000000 0.000000
vt 1.000000 0.000000
vt 1.000000 1.000000
vt 0.000000 0.000000
vt 1.000000 0.000000
vt 1.000000 1.000000
vt 0.000000 0.000000
vt 1.000000 0.000000
vt 1.000000 1.000000
vt 0.000000 0.000000
vt 1.000000 0.000000
vt 1.000000 1.000000
vt 0.000000 0.000000
vt 1.000000 0.000000
vt 1.000000 1.000000
vt 0.000000 0.000000
vt 1.000000 0.000000
vt 1.000000 1.000000
vt 0.000000 0.000000
vt 1.000000 0.000000
vt 1.000000 1.000000
vt 0.308232 0.506800
vt 0.135804 0.387155
vt 0.755270 0.582624
vt 1.000000 0.000000
vt 0.000000 0.000000
s off
f 1/1/1 2/2/2 3/3/3
f 4/4/4 5/5/5 6/6/6
f 7/7/7 8/8/8 9/9/9
f 10/10/10 11/11/11 12/12/12
f 13/13/13 14/14/14 15/15/15
f 16/16/16 4/4/4 17/17/17
f 18/18/18 2/2/2 1/1/1
f 19/19/19 20/20/20 11/11/11
f 21/21/21 13/13/13 22/22/22
f 23/23/23 24/24/24 25/25/25
f 26/26/26 27/27/27 3/3/3
f 28/28/28 4/4/4 29/29/29
f 30/30/30 31/31/31 19/19/19
f 32/32/32 33/33/33 21/21/21
f 34/34/34 35/35/35 8/8/8
f 36/36/36 37/37/37 38/38/38
f 27/27/27 39/39/39 40/40/40
f 41/41/41 24/24/24 42/42/42
f 43/43/43 10/10/10 44/44/44
f 45/45/45 46/46/46 14/14/14
f 47/47/47 17/17/17 4/4/4
f 48/48/48 26/26/26 2/2/2
f 49/49/49 19/19/19 10/10/10
f 33/33/33 45/45/45 13/13/13
f 8/8/8 35/35/35 50/50/50
f 46/46/46 48/48/48 18/18/18
f 51/51/51 44/44/44 17/17/17
f 39/39/39 34/34/34 7/7/7
f 52/52/52 32/32/32 53/53/53
f 24/24/24 37/37/37 36/36/36
f 31/31/31 30/30/30 54/54/54
f 55/55/55 56/56/56 57/57/57
f 56/56/56 58/58/58 59/59/59
f 60/60/60 24/24/24 41/41/41
f 61/61/61 41/41/41 53/53/53
f 61/61/61 62/62/62 41/41/41
f 63/63/63 53/53/53 21/21/21
f 64/64/64 65/65/65 53/53/53
f 66/66/66 67/67/67 21/21/21
f 67/67/67 68/68/68 21/21/21
f 69/69/69 14/14/14 18/18/18
f 70/70/70 69/69/69 18/18/18
f 69/69/69 15/15/15 14/14/14
f 71/71/71 3/3/3 40/40/40
f 72/72/72 71/71/71 40/40/40
f 71/71/71 73/73/73 3/3/3
f 74/74/74 40/40/40 7/7/7
f 75/75/75 74/74/74 7/7/7
f 74/74/74 72/72/72 40/40/40
f 76/76/76 8/8/8 29/29/29
f 6/6/6 77/77/77 29/29/29
f 76/76/76 9/9/9 8/8/8
f 78/78/78 17/17/17 44/44/44
f 12/12/12 78/78/78 44/44/44
f 78/78/78 79/79/79 17/17/17
f 31/31/31 80/80/80 19/19/19
f 81/81/81 20/20/20 19/19/19
f 82/82/82 83/83/83 84/84/84
f 85/85/85 86/86/86 87/87/87
f 88/88/88 89/89/89 90/90/90
f 91/91/91 92/92/92 93/93/93
f 94/94/94 95/95/95 96/96/96
f 97/97/97 98/98/98 99/99/99
f 100/100/100 101/101/101 102/102/102
f 103/103/103 104/104/104 105/105/105
f 106/106/106 107/107/107 108/108/108
f 109/109/109 110/110/110 111/111/111
f 112/112/112 113/113/113 114/114/114
f 115/115/115 116/116/116 117/117/117
f 118/118/118 119/119/119 120/120/120
f 121/121/121 122/122/122 123/123/123
f 124/124/124 125/125/125 126/126/126
f 127/127/127 128/128/128 129/129/129
f 130/130/130 131/131/131 132/132/132
f 133/133/133 134/134/134 135/135/135
f 136/136/136 137/137/137 138/138/138
f 139/139/139 140/140/140 141/141/141
f 142/142/142 143/143/143 144/144/144
f 145/145/145 146/146/146 147/147/147
f 148/148/148 149/149/149 150/150/150
f 151/151/151 152/152/152 153/153/153
f 154/154/154 155/155/155 156/156/156
f 157/157/157 158/158/158 159/159/159
f 160/160/160 161/161/161 162/162/162
f 163/163/163 164/164/164 165/165/165
f 166/166/166 167/167/167 168/168/168
f 169/169/169 170/170/170 171/171/171
f 172/172/172 173/173/173 174/174/174
f 73/73/73 1/1/1 3/3/3
f 29/29/29 4/4/4 6/6/6
f 75/75/75 7/7/7 9/9/9
f 44/44/44 10/10/10 12/12/12
f 22/22/22 13/13/13 15/15/15
f 79/79/79 16/16/16 17/17/17
f 70/70/70 18/18/18 1/1/1
f 10/10/10 19/19/19 11/11/11
f 175/175/175 21/21/21 22/22/22
f 2/2/2 26/26/26 3/3/3
f 50/50/50 28/28/28 29/29/29
f 49/49/49 30/30/30 19/19/19
f 53/53/53 32/32/32 21/21/21
f 7/7/7 34/34/34 8/8/8
f 176/176/176 36/36/36 38/38/38
f 3/3/3 27/27/27 40/40/40
f 52/52/52 41/41/41 42/42/42
f 51/51/51 43/43/43 44/44/44
f 13/13/13 45/45/45 14/14/14
f 28/28/28 47/47/47 4/4/4
f 18/18/18 48/48/48 2/2/2
f 43/43/43 49/49/49 10/10/10
f 21/21/21 33/33/33 13/13/13
f 29/29/29 8/8/8 50/50/50
f 14/14/14 46/46/46 18/18/18
f 47/47/47 51/51/51 17/17/17
f 40/40/40 39/39/39 7/7/7
f 41/41/41 52/52/52 53/53/53
f 42/42/42 24/24/24 36/36/36
f 177/177/177 31/31/31 54/54/54
f 178/178/178 55/55/55 57/57/57
f 179/179/179 56/56/56 59/59/59
f 77/77/77 76/76/76 29/29/29
