# Exported using automatic converter by Erwin Coumans
mtllib RShoulderRoll.mtl
#object RShoulderRoll_JULIETTE_BRAS_GA

v 1.557470 -0.144833 0.150986
v 1.560650 0.125807 0.140012
v 1.516770 0.056988 0.243775
v 1.602870 -0.137697 0.016505
v 1.616360 -0.141631 -0.033652
v 1.618630 0.147136 -0.043745
v 1.544920 -0.408388 0.182870
v 1.578720 -0.445679 0.093388
v 1.607690 -0.459525 -0.000494
v 1.528180 -0.136308 0.221268
v 1.490700 -0.018662 0.293519
v 1.496080 -0.303665 0.284891
v 1.649550 -0.140836 -0.164859
v 1.640380 -0.410769 -0.147529
v 1.694850 -0.270691 -0.243313
v 1.711100 -0.112067 -0.271462
v 1.642590 0.117504 -0.152811
v 1.301730 0.042344 0.355743
v 1.275160 -0.128801 0.401249
v 1.319260 -0.129408 0.385310
v 1.356410 0.141103 0.266553
v 1.341120 0.026299 0.346945
v 1.443040 0.197271 0.125104
v 1.389490 0.120958 0.265648
v 1.522480 0.203664 -0.008069
v 1.465730 0.179823 0.136171
v 1.553310 0.194987 -0.063039
v 1.540980 0.193735 0.000752
v 1.659410 0.105062 -0.253226
v 1.590420 0.175761 -0.129625
v 1.609440 0.165708 -0.112739
v 1.714240 -0.104089 -0.363313
v 1.679710 0.097252 -0.241026
v 1.700470 -0.298488 -0.318029
v 1.742400 -0.107569 -0.346350
v 1.639860 -0.431801 -0.167953
v 1.619400 -0.439532 -0.184176
v 1.545830 -0.499414 -0.002310
v 1.519470 -0.510837 -0.001566
v 1.568830 -0.484956 -0.086999
v 1.482320 -0.493666 0.107138
v 1.461320 -0.507024 0.101140
v 1.435370 -0.464179 0.190897
v 1.406530 -0.485147 0.187381
v 1.354960 -0.362346 0.324878
v 1.322990 -0.384882 0.327551
v 1.679710 0.097252 -0.241026
v 1.681700 0.081215 -0.220906
v 1.742160 -0.110885 -0.326282
v 1.717630 -0.294976 -0.302688
v 1.742400 -0.107569 -0.346350
v 1.639860 -0.431801 -0.167953
v 1.716860 -0.286195 -0.281491
v 1.545830 -0.499414 -0.002310
v 1.589050 -0.479120 -0.080473
v 1.595090 -0.451913 -0.070525
v 1.482320 -0.493666 0.107138
v 1.549650 -0.469829 0.008170
v 1.491400 -0.467625 0.109066
v 1.446340 -0.437534 0.187103
v 1.378180 -0.334012 0.305173
v 1.351610 -0.134796 0.351188
v 1.367580 0.004652 0.323132
v 1.465730 0.179823 0.136171
v 1.409700 0.093043 0.250578
v 1.540980 0.193735 0.000752
v 1.476340 0.153990 0.135143
v 1.570140 0.186495 -0.052115
v 1.552730 0.162969 0.002834
v 1.609440 0.165708 -0.112739
v 1.614310 0.143635 -0.103815
v 1.589050 -0.479120 -0.080473
v 1.619400 -0.439532 -0.184176
v 1.623460 -0.446775 -0.065884
v 1.632570 0.132160 -0.113326
v 1.580340 0.156791 -0.044978
v 1.570140 0.186495 -0.052115
v 1.606260 0.151328 0.001409
v 1.478680 -0.135942 0.318149
v 1.641960 -0.414972 -0.152767
v 1.717630 -0.294976 -0.302688
v 1.639860 -0.431801 -0.167953
usemtl shiny_white

vn 0.009375 0.000031 0.003478
vn 0.006958 0.005607 0.004489
vn 0.006416 0.004068 0.006502
vn 0.009586 0.000019 0.002847
vn 0.009705 0.000001 0.002409
vn 0.007844 0.006084 0.001204
vn 0.006661 -0.004722 0.005773
vn 0.007188 -0.005817 0.003807
vn 0.007284 -0.006663 0.001596
vn 0.009093 0.000015 0.004161
vn 0.005979 0.002148 0.007722
vn 0.005860 -0.002727 0.007630
vn 0.009316 0.000010 0.003635
vn 0.009100 -0.003641 0.001980
vn 0.008699 -0.000045 0.004931
vn 0.008745 0.000019 0.004850
vn 0.008318 0.005325 0.001566
vn 0.001584 0.004578 0.008748
vn 0.001661 -0.000143 0.009860
vn 0.004939 -0.000044 0.008695
vn 0.001477 0.007902 0.005947
vn 0.005237 0.002627 0.008103
vn 0.001664 0.009444 0.002835
vn 0.005709 0.004682 0.006744
vn 0.001723 0.009849 0.000178
vn 0.006213 0.005953 0.005095
vn 0.001735 0.009754 -0.001362
vn 0.006551 0.006719 0.003454
vn 0.003083 0.007496 -0.005856
vn 0.002141 0.009387 -0.002701
vn 0.007235 0.006762 0.001386
vn 0.003902 0.001552 -0.009075
vn 0.007939 0.005736 -0.002016
vn 0.003941 -0.005083 -0.007657
vn 0.008778 0.001106 -0.004660
vn 0.007598 -0.006483 -0.000476
vn 0.003156 -0.008298 -0.004602
vn 0.006673 -0.006953 0.002666
vn 0.002810 -0.009588 0.000416
vn 0.002667 -0.009363 -0.002285
vn 0.006414 -0.006057 0.004708
vn 0.002828 -0.009084 0.003078
vn 0.006139 -0.005005 0.006103
vn 0.002503 -0.008083 0.005329
vn 0.005287 -0.003024 0.007931
vn 0.002019 -0.005418 0.008159
vn 0.007939 0.005736 -0.002016
vn 0.009253 0.001947 0.003253
vn 0.009722 0.000399 0.002305
vn 0.008475 -0.004174 -0.003278
vn 0.008778 0.001106 -0.004660
vn 0.007598 -0.006483 -0.000476
vn 0.009475 -0.001456 0.002846
vn 0.006673 -0.006953 0.002666
vn 0.006982 -0.007069 0.001128
vn 0.006682 -0.007337 0.001229
vn 0.006414 -0.006057 0.004708
vn 0.006243 -0.007109 0.003237
vn 0.006073 -0.006166 0.005010
vn 0.005773 -0.004922 0.006514
vn 0.005594 -0.002515 0.007898
vn 0.005302 -0.000060 0.008478
vn 0.005492 0.002160 0.008072
vn 0.006213 0.005953 0.005095
vn 0.005638 0.004283 0.007061
vn 0.006551 0.006719 0.003454
vn 0.005968 0.005928 0.005407
vn 0.006769 0.006960 0.002393
vn 0.006095 0.007142 0.003442
vn 0.007235 0.006762 0.001386
vn 0.006895 0.007088 0.001489
vn 0.006982 -0.007069 0.001128
vn 0.003156 -0.008298 -0.004602
vn 0.007877 -0.006157 0.000193
vn 0.008179 0.005718 0.000632
vn 0.006261 0.007485 0.002182
vn 0.006769 0.006960 0.002393
vn 0.007369 0.006347 0.002324
vn 0.005839 -0.000044 0.008118
vn 0.008874 -0.003753 0.002674
vn 0.008475 -0.004174 -0.003278
vn 0.007598 -0.006483 -0.000476

vt 0.626314 0.272386
vt 0.636811 0.347270
vt 0.604100 0.330819
vt 0.666033 0.269236
vt 0.680616 0.266181
vt 0.692129 0.349238
vt 0.604958 0.201509
vt 0.629288 0.186333
vt 0.656112 0.177470
vt 0.606061 0.277435
vt 0.587317 0.311610
vt 0.580570 0.235620
vt 0.719643 0.261307
vt 0.702216 0.183158
vt 0.740584 0.219694
vt 0.756531 0.264745
vt 0.725095 0.338871
vt 0.531989 0.336908
vt 0.516932 0.289277
vt 0.529575 0.287999
vt 0.559482 0.372032
vt 0.543189 0.331294
vt 0.598573 0.417500
vt 0.570869 0.364767
vt 0.633677 0.459125
vt 0.606556 0.410244
vt 0.647333 0.477138
vt 0.640379 0.454505
vt 0.691333 0.548394
vt 0.663222 0.500176
vt 0.671418 0.494657
vt 0.718387 0.628463
vt 0.699887 0.546512
vt 0.727610 0.697815
vt 0.729889 0.626958
vt 0.727564 0.772636
vt 0.717659 0.772342
vt 0.613778 0.111563
vt 0.604348 0.111042
vt 0.623410 0.083872
vt 0.590669 0.147041
vt 0.582941 0.143215
vt 0.572142 0.176991
vt 0.562173 0.170411
vt 0.538414 0.221990
vt 0.529337 0.216381
vt 0.752913 0.328430
vt 0.746633 0.323913
vt 0.775012 0.262612
vt 0.758530 0.209621
vt 0.781027 0.262921
vt 0.707310 0.175741
vt 0.752883 0.213404
vt 0.647059 0.152242
vt 0.677438 0.159040
vt 0.675256 0.168190
vt 0.603832 0.159386
vt 0.645365 0.162735
vt 0.606462 0.168636
vt 0.577958 0.185093
vt 0.548235 0.227860
vt 0.542179 0.285140
vt 0.553598 0.324999
vt 0.623565 0.380536
vt 0.579095 0.354524
vt 0.674385 0.377913
vt 0.624720 0.371343
vt 0.694299 0.370744
vt 0.673762 0.367131
vt 0.713088 0.356366
vt 0.709606 0.349688
vt 0.630263 0.086153
vt 0.644041 0.051179
vt 0.675819 0.177221
vt 0.712848 0.343653
vt 0.691013 0.361030
vt 0.653914 0.472581
vt 0.678920 0.351416
vt 0.577328 0.281061
vt 0.703652 0.181588
vt 0.735798 0.697814
vt 0.651295 0.056330
s off
f 1/1/1 2/2/2 3/3/3
f 4/4/4 5/5/5 6/6/6
f 7/7/7 8/8/8 1/1/1
f 5/5/5 4/4/4 9/9/9
f 8/8/8 9/9/9 4/4/4
f 2/2/2 1/1/1 4/4/4
f 10/10/10 3/3/3 11/11/11
f 12/12/12 7/7/7 10/10/10
f 13/13/13 14/14/14 15/15/15
f 13/13/13 16/16/16 17/17/17
f 18/18/18 19/19/19 20/20/20
f 21/21/21 18/18/18 22/22/22
f 23/23/23 21/21/21 24/24/24
f 25/25/25 23/23/23 26/26/26
f 27/27/27 25/25/25 28/28/28
f 29/29/29 30/30/30 31/31/31
f 32/32/32 29/29/29 33/33/33
f 34/34/34 32/32/32 35/35/35
f 36/36/36 37/37/37 34/34/34
f 38/38/38 39/39/39 40/40/40
f 41/41/41 42/42/42 39/39/39
f 42/42/42 41/41/41 43/43/43
f 44/44/44 43/43/43 45/45/45
f 19/19/19 46/46/46 45/45/45
f 47/47/47 48/48/48 49/49/49
f 50/50/50 51/51/51 49/49/49
f 52/52/52 50/50/50 53/53/53
f 54/54/54 55/55/55 56/56/56
f 57/57/57 54/54/54 58/58/58
f 43/43/43 57/57/57 59/59/59
f 45/45/45 43/43/43 60/60/60
f 20/20/20 45/45/45 61/61/61
f 20/20/20 62/62/62 63/63/63
f 24/24/24 22/22/22 63/63/63
f 64/64/64 24/24/24 65/65/65
f 66/66/66 64/64/64 67/67/67
f 68/68/68 66/66/66 69/69/69
f 70/70/70 71/71/71 48/48/48
f 72/72/72 40/40/40 73/73/73
f 56/56/56 55/55/55 52/52/52
f 5/5/5 74/74/74 14/14/14
f 5/5/5 13/13/13 75/75/75
f 70/70/70 68/68/68 76/76/76
f 27/27/27 77/77/77 31/31/31
f 67/67/67 65/65/65 3/3/3
f 76/76/76 69/69/69 78/78/78
f 59/59/59 8/8/8 7/7/7
f 56/56/56 74/74/74 9/9/9
f 58/58/58 9/9/9 8/8/8
f 69/69/69 67/67/67 2/2/2
f 65/65/65 63/63/63 11/11/11
f 63/63/63 62/62/62 79/79/79
f 60/60/60 7/7/7 12/12/12
f 61/61/61 12/12/12 79/79/79
f 80/80/80 53/53/53 15/15/15
f 53/53/53 49/49/49 16/16/16
f 48/48/48 17/17/17 16/16/16
f 71/71/71 75/75/75 17/17/17
f 80/80/80 14/14/14 74/74/74
f 71/71/71 76/76/76 6/6/6
f 10/10/10 1/1/1 3/3/3
f 78/78/78 4/4/4 6/6/6
f 10/10/10 7/7/7 1/1/1
f 74/74/74 5/5/5 9/9/9
f 1/1/1 8/8/8 4/4/4
f 78/78/78 2/2/2 4/4/4
f 79/79/79 10/10/10 11/11/11
f 79/79/79 12/12/12 10/10/10
f 16/16/16 13/13/13 15/15/15
f 75/75/75 13/13/13 17/17/17
f 22/22/22 18/18/18 20/20/20
f 24/24/24 21/21/21 22/22/22
f 26/26/26 23/23/23 24/24/24
f 28/28/28 25/25/25 26/26/26
f 77/77/77 27/27/27 28/28/28
f 33/33/33 29/29/29 31/31/31
f 35/35/35 32/32/32 33/33/33
f 81/81/81 34/34/34 35/35/35
f 81/81/81 36/36/36 34/34/34
f 72/72/72 38/38/38 40/40/40
f 38/38/38 41/41/41 39/39/39
f 44/44/44 42/42/42 43/43/43
f 46/46/46 44/44/44 45/45/45
f 20/20/20 19/19/19 45/45/45
f 51/51/51 47/47/47 49/49/49
f 53/53/53 50/50/50 49/49/49
f 80/80/80 52/52/52 53/53/53
f 58/58/58 54/54/54 56/56/56
f 59/59/59 57/57/57 58/58/58
f 60/60/60 43/43/43 59/59/59
f 61/61/61 45/45/45 60/60/60
f 62/62/62 20/20/20 61/61/61
f 22/22/22 20/20/20 63/63/63
f 65/65/65 24/24/24 63/63/63
f 67/67/67 64/64/64 65/65/65
f 69/69/69 66/66/66 67/67/67
f 76/76/76 68/68/68 69/69/69
f 47/47/47 70/70/70 48/48/48
f 82/82/82 72/72/72 73/73/73
f 80/80/80 56/56/56 52/52/52
f 13/13/13 5/5/5 14/14/14
f 6/6/6 5/5/5 75/75/75
f 71/71/71 70/70/70 76/76/76
f 30/30/30 27/27/27 31/31/31
f 2/2/2 67/67/67 3/3/3
f 6/6/6 76/76/76 78/78/78
f 60/60/60 59/59/59 7/7/7
f 58/58/58 56/56/56 9/9/9
f 59/59/59 58/58/58 8/8/8
f 78/78/78 69/69/69 2/2/2
f 3/3/3 65/65/65 11/11/11
f 11/11/11 63/63/63 79/79/79
f 61/61/61 60/60/60 12/12/12
f 62/62/62 61/61/61 79/79/79
f 14/14/14 80/80/80 15/15/15
f 15/15/15 53/53/53 16/16/16
f 49/49/49 48/48/48 16/16/16
f 48/48/48 71/71/71 17/17/17
f 56/56/56 80/80/80 74/74/74
f 75/75/75 71/71/71 6/6/6
