# File produced by Open Asset Import Library (http://www.assimp.sf.net)
# (assimp v3.2.0)

mtllib HeadYaw.mtl

# 8 vertex positions
v  -0.126 -0.126 -0.124771
v  0.126 -0.126 -0.124771
v  0.126 -0.126 0.127229
v  -0.126 0.126 -0.124771
v  -0.126 0.126 0.127228
v  0.126 0.126 0.127228
v  0.126 0.126 -0.124772
v  -0.126 -0.126 0.127229

# 8 UV coordinates
vt 0.111148 0.136811 0
vt 0.111786 0.138902 0
vt 0.0713367 0.174969 0
vt 0.111749 0.134545 0
vt 0.143851 0.106891 0
vt 0.144728 0.171428 0
vt 0.113867 0.136909 0
vt 0.0713385 0.0850315 0

# 4 vertex normals
vn -0.00707083 -0.00707083 0
vn 0.00707083 -0.00707083 0
vn -0.00707083 0.00707083 0
vn 0.00707083 0.00707083 0

# Mesh 'HeadYaw_Neck' with 8 faces
g HeadYaw_Neck
usemtl HeadYawuv
f  1/1/1 2/2/2 3/3/2
f  4/4/3 5/5/3 6/6/4
f  2/2/2 7/7/4 6/6/4
f  4/4/3 1/1/1 8/8/1
f  8/8/1 1/1/1 3/3/2
f  7/7/4 4/4/3 6/6/4
f  3/3/2 2/2/2 6/6/4
f  5/5/3 4/4/3 8/8/1

