# File produced by Open Asset Import Library (http://www.assimp.sf.net)
# (assimp v3.2.0)

mtllib LAnklePitch.mtl

# 70 vertex positions
v  0.412825 0.11758 0.145024
v  0.412825 0.11758 0.192024
v  0.412825 -0.12342 0.192024
v  0.222906 0.11758 0.394589
v  0.222905 -0.12342 0.394589
v  0.323263 -0.12342 0.319463
v  0.105447 -0.12342 0.438399
v  -0.0195957 -0.12342 0.447342
v  0.105447 0.11758 0.438399
v  -0.142093 0.11758 0.420695
v  -0.142093 -0.12342 0.420695
v  -0.252121 0.11758 0.360615
v  -0.252121 -0.12342 0.360615
v  -0.340765 -0.12342 0.27197
v  -0.400845 0.11758 0.161942
v  -0.400845 -0.12342 0.161942
v  -0.428493 -0.12342 0.0832779
v  0.323263 0.11758 0.319463
v  0.37739 -0.12342 0.256104
v  0.37739 0.11758 0.256104
v  0.387966 0.144168 0.145933
v  0.387966 0.144168 0.189925
v  0.304136 0.144168 0.309207
v  0.210201 0.144168 0.379525
v  0.10026 0.144168 0.420531
v  -0.0167802 0.144168 0.428902
v  -0.0195957 0.11758 0.447342
v  -0.131438 0.144168 0.40396
v  -0.234424 0.144168 0.347725
v  -0.317395 0.144168 0.264754
v  -0.340765 0.11758 0.27197
v  -0.37363 0.144168 0.161768
v  -0.399572 0.144168 0.0832776
v  0.353455 0.144168 0.252271
v  -0.311175 0.0662228 -0.158037
v  -0.311175 0.121024 -0.12142
v  0.293825 0.121024 -0.12142
v  -0.311175 0.0015799 -0.170896
v  0.293825 0.0662227 -0.158037
v  -0.311175 -0.063063 -0.158037
v  0.293825 0.00157982 -0.170896
v  -0.311175 -0.117865 -0.12142
v  0.293825 -0.063063 -0.158037
v  -0.311175 0.143931 -0.0940195
v  0.293825 0.143931 -0.0940195
v  -0.311175 -0.140772 -0.0940195
v  0.293825 -0.117865 -0.12142
v  0.293825 -0.140772 -0.0940195
v  0.412825 -0.12342 0.145024
v  0.387965 -0.141008 0.189925
v  0.304136 -0.141008 0.309207
v  0.353455 -0.141008 0.252271
v  0.210201 -0.141008 0.379526
v  0.10026 -0.141008 0.420531
v  -0.0167803 -0.141008 0.428902
v  -0.131438 -0.141008 0.40396
v  -0.234424 -0.141008 0.347725
v  -0.317395 -0.141008 0.264754
v  -0.37363 -0.141008 0.161768
v  -0.399572 -0.141008 0.0832779
v  -0.311175 0.144168 0.0859805
v  0.293825 -0.141008 0.0859805
v  0.293825 0.144168 0.0859805
v  -0.311175 -0.141008 0.0859805
v  -0.428493 0.11758 0.0832779
v  0.387965 -0.141008 0.145933
v  -0.311175 0.144168 0.15598
v  0.293825 -0.141008 0.15598
v  0.293825 0.144168 0.15598
v  -0.311175 -0.141008 0.15598

# 128 UV coordinates
vt 0.139472 0.892676 0
vt 0.135837 0.892261 0
vt 0.135678 0.874287 0
vt 0.113935 0.892841 0
vt 0.113824 0.874529 0
vt 0.123494 0.874246 0
vt 0.104303 0.87469 0
vt 0.0947818 0.874771 0
vt 0.104284 0.892985 0
vt 0.0848836 0.89314 0
vt 0.0851229 0.874766 0
vt 0.0750776 0.893134 0
vt 0.0754222 0.874727 0
vt 0.0656803 0.874605 0
vt 0.055352 0.8933 0
vt 0.0557447 0.874157 0
vt 0.0488872 0.873703 0
vt 0.123742 0.892717 0
vt 0.129981 0.874177 0
vt 0.130246 0.892534 0
vt 0.138992 0.895621 0
vt 0.135421 0.89513 0
vt 0.123226 0.895443 0
vt 0.113643 0.895468 0
vt 0.10421 0.895509 0
vt 0.0947926 0.895663 0
vt 0.0946428 0.893078 0
vt 0.0852339 0.895788 0
vt 0.0756071 0.895865 0
vt 0.0659565 0.895951 0
vt 0.0652516 0.893118 0
vt 0.0563343 0.896247 0
vt 0.0495064 0.89665 0
vt 0.129492 0.895341 0
vt 0.0554874 0.81202 0
vt 0.0554874 0.806884 0
vt 0.102634 0.806884 0
vt 0.0554873 0.817156 0
vt 0.102634 0.81202 0
vt 0.0554873 0.822293 0
vt 0.102634 0.817157 0
vt 0.0554873 0.827429 0
vt 0.102634 0.822293 0
vt 0.0554874 0.804101 0
vt 0.102634 0.804101 0
vt 0.0554874 0.830212 0
vt 0.102634 0.827429 0
vt 0.13044 0.767209 0
vt 0.132224 0.769345 0
vt 0.110038 0.769337 0
vt 0.111824 0.767202 0
vt 0.116095 0.76435 0
vt 0.12617 0.764354 0
vt 0.121133 0.76335 0
vt 0.111816 0.805031 0
vt 0.110031 0.802896 0
vt 0.132217 0.802896 0
vt 0.130433 0.805031 0
vt 0.126162 0.807884 0
vt 0.116087 0.807884 0
vt 0.121124 0.808886 0
vt 0.139472 0.873721 0
vt 0.13518 0.871828 0
vt 0.122874 0.872094 0
vt 0.129105 0.871897 0
vt 0.113453 0.87248 0
vt 0.104175 0.872733 0
vt 0.0948985 0.872752 0
vt 0.0854666 0.872683 0
vt 0.0759709 0.87255 0
vt 0.0664309 0.872297 0
vt 0.0568063 0.871701 0
vt 0.049903 0.871004 0
vt 0.0961183 0.767198 0
vt 0.0694947 0.765294 0
vt 0.07843 0.76335 0
vt 0.103438 0.772678 0
vt 0.061469 0.769676 0
vt 0.107282 0.777115 0
vt 0.055003 0.776142 0
vt 0.0554875 0.790073 0
vt 0.102634 0.830212 0
vt 0.102633 0.844239 0
vt 0.132238 0.783372 0
vt 0.110015 0.783364 0
vt 0.110013 0.788868 0
vt 0.130164 0.82522 0
vt 0.132236 0.827473 0
vt 0.110013 0.827473 0
vt 0.130164 0.818245 0
vt 0.111383 0.818245 0
vt 0.110013 0.816306 0
vt 0.102634 0.790074 0
vt 0.0554876 0.784618 0
vt 0.0554873 0.844239 0
vt 0.102633 0.849694 0
vt 0.132236 0.788827 0
vt 0.132236 0.818286 0
vt 0.132236 0.825178 0
vt 0.110013 0.825178 0
vt 0.0506205 0.784167 0
vt 0.0554873 0.849694 0
vt 0.0506203 0.850145 0
vt 0.102635 0.784619 0
vt 0.110013 0.808928 0
vt 0.132236 0.808928 0
vt 0.109971 0.781974 0
vt 0.10997 0.848911 0
vt 0.10997 0.852339 0
vt 0.0550026 0.85817 0
vt 0.10728 0.857198 0
vt 0.103437 0.861634 0
vt 0.0614683 0.864636 0
vt 0.0961168 0.867114 0
vt 0.0875493 0.87031 0
vt 0.0784287 0.870962 0
vt 0.0485987 0.893496 0
vt 0.138922 0.871144 0
vt 0.0875508 0.764003 0
vt 0.132236 0.788868 0
vt 0.111383 0.82522 0
vt 0.132236 0.816306 0
vt 0.110013 0.788819 0
vt 0.110013 0.818286 0
vt 0.0485987 0.790284 0
vt 0.0485987 0.844028 0
vt 0.109971 0.785402 0
vt 0.0694938 0.869018 0

# 71 vertex normals
vn 0.00931303 0.00364147 0
vn 0.00909574 0.00346904 0.00228645
vn 0.0087524 -0.00430708 0.00220038
vn 0.00460585 0.00301431 0.00834834
vn 0.00444777 -0.00391705 0.00805414
vn 0.00628529 -0.00406964 0.0066277
vn 0.00197821 -0.00382702 0.00902432
vn -0.00067629 -0.00383099 0.00921201
vn 0.00204596 0.00292581 0.0093408
vn -0.00337138 0.00302499 0.00891507
vn -0.00325663 -0.00392773 0.00860012
vn -0.00572954 0.00319437 0.00754753
vn -0.00551927 -0.00409436 0.00726432
vn -0.00727256 -0.00429731 0.00535173
vn -0.00852534 0.00367351 0.00371624
vn -0.00815577 -0.00456313 0.00355785
vn -0.00854732 -0.00425214 0.00297617
vn 0.00652516 0.00315714 0.00688833
vn 0.0074807 -0.00424421 0.00510117
vn 0.00778649 0.00333384 0.0053151
vn 0.0073043 0.00682943 0
vn 0.00707785 0.00677724 0.00199225
vn 0.00533677 0.00607379 0.00588397
vn 0.00379742 0.00586688 0.00715232
vn 0.00171209 0.00572314 0.00801935
vn -0.000547807 0.00572954 0.00817744
vn -0.000697958 0.00292947 0.00953551
vn -0.00273202 0.00588427 0.00760948
vn -0.00460189 0.00616169 0.00639149
vn -0.00596729 0.00651601 0.00468276
vn -0.00757012 0.00340922 0.00557329
vn -0.00660451 0.00686606 0.00303812
vn -0.00669179 0.00707175 0.00228187
vn 0.00625935 0.00633625 0.00454604
vn 0 0.00382672 -0.00923856
vn 0 0.00668172 -0.0074398
vn 0 0 -0.01
vn 0 -0.00382672 -0.00923856
vn 0 -0.00668172 -0.0074398
vn 0 0.00939756 -0.00341777
vn 0 -0.00939756 -0.00341777
vn 0.01 0 0
vn 0.00999969 0 0
vn -0.01 0 0
vn 0.00890378 -0.00455153 0
vn 0.00560778 -0.00812128 0.00161016
vn 0.00438032 -0.00755882 0.00486557
vn 0.00507309 -0.00777306 0.0037196
vn 0.00314341 -0.00738212 0.00596789
vn 0.00142857 -0.00725761 0.00672903
vn -0.000450148 -0.0072631 0.00685873
vn -0.00225196 -0.00739738 0.00634053
vn -0.00375103 -0.00763085 0.00526231
vn -0.00478591 -0.00791711 0.0037962
vn -0.00521104 -0.00818476 0.00241859
vn -0.0052208 -0.00834071 0.00178014
vn 0 0.01 0
vn 0 0.00999969 0
vn 0 0.00999969 -4.27259e-06
vn 0 -0.00999969 -6.40889e-06
vn -0.000365001 0 -0.00999329
vn -0.000798364 0 -0.00996795
vn 0 0.00999969 -6.40889e-06
vn 0 -0.00999969 -4.27259e-06
vn 0 -0.01 0
vn 0.000305185 0 -0.00999512
vn -0.00106113 0 -0.00994324
vn 0 -0.00999969 0
vn -0.00884854 0.00349895 0.00307505
vn 0.00577532 -0.0081634 0
vn -0.000835901 0 -0.0099649

# Mesh 'LAnklePitch_LAnkle' with 136 faces
g LAnklePitch_LAnkle
usemtl RanklePitchUV
f  1/1/1 2/2/2 3/3/3
f  4/4/4 5/5/5 6/6/6
f  7/7/7 5/5/5 4/4/4
f  8/8/8 7/7/7 9/9/9
f  10/10/10 11/11/11 8/8/8
f  12/12/12 13/13/13 11/11/11
f  14/14/14 13/13/13 12/12/12
f  15/15/15 16/16/16 14/14/14
f  17/17/17 16/16/16 15/15/15
f  18/18/18 6/6/6 19/19/19
f  2/2/2 20/20/20 19/19/19
f  1/1/1 21/21/21 22/22/22
f  23/23/23 24/24/24 4/4/4
f  24/24/24 25/25/25 9/9/9
f  9/9/9 25/25/25 26/26/26
f  27/27/27 26/26/26 28/28/28
f  10/10/10 28/28/28 29/29/29
f  12/12/12 29/29/29 30/30/30
f  31/31/31 30/30/30 32/32/32
f  15/15/15 32/32/32 33/33/33
f  34/34/34 23/23/23 18/18/18
f  22/22/22 34/34/34 20/20/20
f  35/35/35 36/36/36 37/37/36
f  38/38/37 35/35/35 39/39/35
f  40/40/38 38/38/37 41/41/37
f  42/42/39 40/40/38 43/43/38
f  36/36/36 44/44/40 45/45/40
f  46/46/41 42/42/39 47/47/39
f  37/48/42 45/49/43 48/50/42
f  37/48/42 47/51/42 43/52/42
f  39/53/42 43/52/42 41/54/42
f  42/55/44 46/56/44 44/57/44
f  36/58/44 35/59/44 40/60/44
f  35/59/44 38/61/44 40/60/44
f  49/62/45 3/3/3 50/63/46
f  6/6/6 51/64/47 52/65/48
f  19/19/19 52/65/48 50/63/46
f  5/5/5 53/66/49 51/64/47
f  7/7/7 54/67/50 53/66/49
f  7/7/7 8/8/8 55/68/51
f  8/8/8 11/11/11 56/69/52
f  11/11/11 13/13/13 57/70/53
f  13/13/13 14/14/14 58/71/54
f  14/14/14 16/16/16 59/72/55
f  16/16/16 17/17/17 60/73/56
f  24/74/57 28/75/58 26/76/57
f  24/74/57 23/77/57 29/78/58
f  34/79/57 30/80/57 29/78/58
f  45/45/40 44/44/40 61/81/59
f  46/46/41 48/82/41 62/83/60
f  63/84/42 62/85/43 48/50/42
f  44/57/44 46/56/44 64/86/44
f  65/87/37 33/88/37 60/89/37
f  1/90/61 49/91/61 66/92/62
f  63/93/63 61/81/59 67/94/57
f  64/95/64 62/83/60 68/96/65
f  62/85/43 63/84/42 69/97/42
f  33/98/66 61/99/66 64/100/66
f  32/101/57 67/94/57 61/81/59
f  64/95/64 70/102/65 59/103/65
f  30/80/57 67/94/57 32/101/57
f  30/80/57 34/79/57 69/104/57
f  66/92/62 68/105/67 69/106/67
f  69/104/57 34/79/57 22/107/57
f  68/96/65 66/108/68 50/109/65
f  59/103/65 70/102/65 58/110/68
f  58/110/68 70/102/65 68/96/65
f  52/111/65 51/112/68 57/113/65
f  57/113/65 51/112/68 53/114/65
f  53/114/65 54/115/65 55/116/65
f  49/62/45 1/1/1 3/3/3
f  18/18/18 4/4/4 6/6/6
f  9/9/9 7/7/7 4/4/4
f  27/27/27 8/8/8 9/9/9
f  27/27/27 10/10/10 8/8/8
f  10/10/10 12/12/12 11/11/11
f  31/31/31 14/14/14 12/12/12
f  31/31/31 15/15/15 14/14/14
f  65/117/69 17/17/17 15/15/15
f  20/20/20 18/18/18 19/19/19
f  3/3/3 2/2/2 19/19/19
f  2/2/2 1/1/1 22/22/22
f  18/18/18 23/23/23 4/4/4
f  4/4/4 24/24/24 9/9/9
f  27/27/27 9/9/9 26/26/26
f  10/10/10 27/27/27 28/28/28
f  12/12/12 10/10/10 29/29/29
f  31/31/31 12/12/12 30/30/30
f  15/15/15 31/31/31 32/32/32
f  65/117/69 15/15/15 33/33/33
f  20/20/20 34/34/34 18/18/18
f  2/2/2 22/22/22 20/20/20
f  39/39/35 35/35/35 37/37/36
f  41/41/37 38/38/37 39/39/35
f  43/43/38 40/40/38 41/41/37
f  47/47/39 42/42/39 43/43/38
f  37/37/36 36/36/36 45/45/40
f  48/82/41 46/46/41 47/47/39
f  47/51/42 37/48/42 48/50/42
f  39/53/42 37/48/42 43/52/42
f  36/58/44 42/55/44 44/57/44
f  42/55/44 36/58/44 40/60/44
f  66/118/70 49/62/45 50/63/46
f  19/19/19 6/6/6 52/65/48
f  3/3/3 19/19/19 50/63/46
f  6/6/6 5/5/5 51/64/47
f  5/5/5 7/7/7 53/66/49
f  54/67/50 7/7/7 55/68/51
f  55/68/51 8/8/8 56/69/52
f  56/69/52 11/11/11 57/70/53
f  57/70/53 13/13/13 58/71/54
f  58/71/54 14/14/14 59/72/55
f  59/72/55 16/16/16 60/73/56
f  25/119/58 24/74/57 26/76/57
f  28/75/58 24/74/57 29/78/58
f  23/77/57 34/79/57 29/78/58
f  63/93/63 45/45/40 61/81/59
f  64/95/64 46/46/41 62/83/60
f  45/49/43 63/84/42 48/50/42
f  61/120/44 44/57/44 64/86/44
f  17/121/37 65/87/37 60/89/37
f  21/122/71 1/90/61 66/92/62
f  69/104/57 63/93/63 67/94/57
f  70/102/65 64/95/64 68/96/65
f  68/123/42 62/85/43 69/97/42
f  60/124/66 33/98/66 64/100/66
f  33/125/57 32/101/57 61/81/59
f  60/126/65 64/95/64 59/103/65
f  67/94/57 30/80/57 69/104/57
f  21/122/71 66/92/62 69/106/67
f  21/127/58 69/104/57 22/107/57
f  52/111/65 68/96/65 50/109/65
f  52/111/65 58/110/68 68/96/65
f  58/110/68 52/111/65 57/113/65
f  56/128/65 57/113/65 53/114/65
f  56/128/65 53/114/65 55/116/65

