# File produced by Open Asset Import Library (http://www.assimp.sf.net)
# (assimp v3.2.0)

mtllib LHipRoll.mtl

# 48 vertex positions
v  -0.427 -0.111272 0.121121
v  -0.427 -0.13625 0.0928442
v  0.086 -0.13625 0.0928442
v  -0.427 -0.0579955 0.15672
v  0.086 -0.111272 0.121121
v  0.086 -0.0579955 0.15672
v  0.086 0.00484875 0.16922
v  -0.427 0.00484878 0.16922
v  0.086 0.067693 0.15672
v  -0.427 0.12097 0.121121
v  -0.427 0.0676931 0.15672
v  -0.427 0.145948 0.0928442
v  0.086 0.12097 0.121121
v  -0.427 -0.13625 -0.173156
v  0.086 0.145948 0.0928442
v  0.086 0.145948 -0.173156
v  -0.270967 0.125849 -0.211878
v  -0.270967 0.144849 -0.187878
v  -0.241831 0.144849 -0.223831
v  -0.241831 0.125849 -0.24783
v  -0.130878 0.144849 -0.297967
v  -0.130878 0.125849 -0.321967
v  -1e-08 0.144849 -0.324
v  0.130878 0.125849 -0.321967
v  -1e-08 0.125849 -0.348
v  0.241831 0.125849 -0.24783
v  0.130878 0.144849 -0.297967
v  -0.426967 0.125849 -0.211878
v  0.241831 0.144849 -0.223831
v  -0.426967 0.144849 -0.187878
v  -0.427 0.145948 -0.173156
v  -0.426967 -0.116151 -0.211878
v  -0.270967 -0.116151 -0.211878
v  -0.270967 -0.135151 -0.187878
v  0.241831 -0.116151 -0.24783
v  0.241831 -0.135151 -0.223831
v  0.130878 -0.135151 -0.297967
v  0.130878 -0.116151 -0.321967
v  -2e-08 -0.135151 -0.324
v  -0.130878 -0.135151 -0.297967
v  -0.130878 -0.116151 -0.321967
v  -0.241831 -0.135151 -0.223831
v  -0.241831 -0.116151 -0.24783
v  -2e-08 -0.116151 -0.348
v  -0.426967 -0.135151 -0.187878
v  0.086 -0.13625 -0.173156
v  0.241831 0.144849 -0.173831
v  0.241831 -0.135151 -0.173831

# 92 UV coordinates
vt 0.115628 0.874309 0
vt 0.111801 0.874309 0
vt 0.1118 0.822265 0
vt 0.122129 0.874309 0
vt 0.115628 0.822265 0
vt 0.122128 0.822265 0
vt 0.128629 0.822265 0
vt 0.128629 0.874309 0
vt 0.135129 0.822265 0
vt 0.141631 0.874309 0
vt 0.13513 0.874309 0
vt 0.145458 0.874309 0
vt 0.14163 0.822264 0
vt 0.0848147 0.87431 0
vt 0.145457 0.822264 0
vt 0.172443 0.822264 0
vt 0.088958 0.877633 0
vt 0.0882703 0.874358 0
vt 0.0927226 0.876057 0
vt 0.0937765 0.878867 0
vt 0.106377 0.877398 0
vt 0.1071 0.88045 0
vt 0.120394 0.877902 0
vt 0.133231 0.881623 0
vt 0.120248 0.881148 0
vt 0.145807 0.882659 0
vt 0.134394 0.87871 0
vt 0.0725106 0.877949 0
vt 0.177589 0.855523 0
vt 0.185107 0.81771 0
vt 0.187749 0.830987 0
vt 0.173942 0.858479 0
vt 0.177584 0.806454 0
vt 0.173942 0.874305 0
vt 0.172444 0.874309 0
vt 0.0701286 0.902424 0
vt 0.0875822 0.905667 0
vt 0.0863944 0.909085 0
vt 0.145957 0.904116 0
vt 0.148136 0.906544 0
vt 0.134275 0.907597 0
vt 0.133226 0.904608 0
vt 0.120152 0.90774 0
vt 0.105927 0.907445 0
vt 0.106884 0.904369 0
vt 0.0915112 0.907784 0
vt 0.0929537 0.904854 0
vt 0.120179 0.904461 0
vt 0.0833169 0.874306 0
vt 0.0833167 0.85848 0
vt 0.0695087 0.830989 0
vt 0.0721506 0.817712 0
vt 0.0796695 0.855524 0
vt 0.150223 0.874358 0
vt 0.174775 0.874358 0
vt 0.176702 0.876793 0
vt 0.176814 0.878286 0
vt 0.148184 0.878286 0
vt 0.148296 0.876793 0
vt 0.148184 0.905272 0
vt 0.176814 0.905272 0
vt 0.17428 0.908141 0
vt 0.150718 0.908141 0
vt 0.168875 0.911753 0
vt 0.156123 0.911753 0
vt 0.162499 0.913021 0
vt 0.176862 0.901344 0
vt 0.176862 0.874358 0
vt 0.205491 0.874358 0
vt 0.205491 0.901344 0
vt 0.202957 0.904212 0
vt 0.179396 0.904212 0
vt 0.197552 0.907824 0
vt 0.184801 0.907824 0
vt 0.191176 0.909092 0
vt 0.148136 0.880283 0
vt 0.0981861 0.909133 0
vt 0.126593 0.909133 0
vt 0.126593 0.914206 0
vt 0.0695087 0.924942 0
vt 0.0696203 0.909133 0
vt 0.0980267 0.909133 0
vt 0.0796726 0.806456 0
vt 0.0847451 0.806456 0
vt 0.0848141 0.822265 0
vt 0.172512 0.806454 0
vt 0.0724138 0.875076 0
vt 0.185109 0.844266 0
vt 0.0695087 0.90549 0
vt 0.072149 0.844267 0
vt 0.0981861 0.914206 0
vt 0.0981382 0.924942 0

# 53 vertex normals
vn 0 -0.00657979 0.00753014
vn 0 -0.0093527 0.00353923
vn 0 -0.00382672 0.00923856
vn 0 0 0.00999969
vn 0 0.00382672 0.00923856
vn 0 0.00657979 0.00753014
vn 0 0.0093527 0.00353923
vn 0 -0.00999298 -0.000372021
vn 3.35704e-06 0.00999878 -0.000137944
vn -0.00435499 0.00442823 -0.00783715
vn -0.00235511 0.00761986 -0.00603229
vn -0.0053679 0.00661489 -0.00523667
vn -0.0061388 0.00364635 -0.00700095
vn -0.00278146 0.00753075 -0.00596179
vn -0.00339854 0.00402173 -0.00850124
vn 0 0.0078402 -0.00620686
vn 0.00339854 0.00402173 -0.00850124
vn 0 0.00415571 -0.00909543
vn 0.00804804 0.00303079 -0.005103
vn 0.00278146 0.00753075 -0.00596179
vn 0 0.00435469 -0.00900174
vn 0 0.01 0
vn 0 0.00998321 -0.000578325
vn 3.66222e-06 0.00999878 -0.000138859
vn 0 0.00997223 -0.000744346
vn 0 0.00999298 -0.000372021
vn 0 -0.00435469 -0.00900174
vn -0.00435499 -0.00442823 -0.00783715
vn -0.00235511 -0.00761986 -0.00603229
vn 0.00804804 -0.00303079 -0.005103
vn 0.00789331 -0.00481338 -0.00381054
vn 0.00278146 -0.00753075 -0.00596179
vn 0.00339854 -0.00402142 -0.00850124
vn 0 -0.0078402 -0.00620686
vn -0.00278146 -0.00753075 -0.00596179
vn -0.00339854 -0.00402142 -0.00850124
vn -0.0053679 -0.00661489 -0.00523667
vn -0.0061388 -0.00364635 -0.00700095
vn 0 -0.00415571 -0.00909543
vn 0 -0.00997223 -0.000744346
vn 0 -0.00998321 -0.000578325
vn 0 -0.01 0
vn -0.01 0 0
vn -0.00999969 0 -1.43433e-05
vn -0.00999969 0 -1.09863e-05
vn 0.00999969 0 0
vn 0.01 0 0
vn 0.00789331 0.00481338 -0.00381054
vn 4.3031e-05 0 0.00999969
vn 3.66222e-06 -0.00999878 -0.000138859
vn 5.18815e-06 -0.00999786 -0.000199896
vn 3.35704e-06 -0.00999878 -0.000137944
vn 5.18815e-06 0.00999786 -0.000199896

# Mesh 'LHipRoll_LUpperThigh' with 92 faces
g LHipRoll_LUpperThigh
usemtl LHipRollUV
f  1/1/1 2/2/2 3/3/2
f  4/4/3 1/1/1 5/5/1
f  4/4/3 6/6/3 7/7/4
f  8/8/4 7/7/4 9/9/5
f  10/10/6 11/11/5 9/9/5
f  12/12/7 10/10/6 13/13/6
f  3/3/2 2/2/2 14/14/8
f  12/12/7 15/15/7 16/16/9
f  17/17/10 18/18/11 19/19/12
f  20/20/13 19/19/12 21/21/14
f  22/22/15 21/21/14 23/23/16
f  24/24/17 25/25/18 23/23/16
f  26/26/19 24/24/17 27/27/20
f  18/18/11 17/17/10 28/28/21
f  19/29/22 27/30/22 23/31/22
f  18/32/23 29/33/24 27/30/22
f  18/32/23 30/34/25 31/35/26
f  32/36/27 33/37/28 34/38/29
f  35/39/30 36/40/31 37/41/32
f  38/42/33 37/41/32 39/43/34
f  39/43/34 40/44/35 41/45/36
f  40/44/35 42/46/37 43/47/38
f  42/46/37 34/38/29 33/37/28
f  22/22/15 25/25/18 44/48/39
f  25/25/18 24/24/17 38/42/33
f  24/24/17 26/26/19 35/39/30
f  20/20/13 22/22/15 41/45/36
f  17/17/10 20/20/13 43/47/38
f  17/17/10 33/37/28 32/36/27
f  14/14/8 45/49/40 34/50/41
f  39/51/42 37/52/42 42/53/42
f  34/50/41 42/53/42 37/52/42
f  28/54/43 32/55/43 45/56/44
f  14/57/45 31/58/45 30/59/44
f  12/60/43 31/58/45 14/57/45
f  2/61/43 1/62/43 10/63/43
f  4/64/43 11/65/43 10/63/43
f  4/64/43 8/66/43 11/65/43
f  3/67/46 46/68/47 16/69/47
f  3/67/46 15/70/47 13/71/47
f  5/72/47 13/71/47 9/73/47
f  6/74/47 9/73/47 7/75/47
f  29/76/48 36/40/31 35/39/30
f  36/77/47 29/78/47 47/79/47
f  46/80/49 48/81/49 47/82/49
f  36/83/50 48/84/51 46/85/52
f  16/16/9 47/86/53 29/33/24
f  5/5/1 1/1/1 3/3/2
f  6/6/3 4/4/3 5/5/1
f  8/8/4 4/4/3 7/7/4
f  11/11/5 8/8/4 9/9/5
f  13/13/6 10/10/6 9/9/5
f  15/15/7 12/12/7 13/13/6
f  46/85/52 3/3/2 14/14/8
f  31/35/26 12/12/7 16/16/9
f  20/20/13 17/17/10 19/19/12
f  22/22/15 20/20/13 21/21/14
f  25/25/18 22/22/15 23/23/16
f  27/27/20 24/24/17 23/23/16
f  29/76/48 26/26/19 27/27/20
f  30/87/16 18/18/11 28/28/21
f  21/88/22 19/29/22 23/31/22
f  19/29/22 18/32/23 27/30/22
f  16/16/9 18/32/23 31/35/26
f  45/89/34 32/36/27 34/38/29
f  38/42/33 35/39/30 37/41/32
f  44/48/39 38/42/33 39/43/34
f  44/48/39 39/43/34 41/45/36
f  41/45/36 40/44/35 43/47/38
f  43/47/38 42/46/37 33/37/28
f  41/45/36 22/22/15 44/48/39
f  44/48/39 25/25/18 38/42/33
f  38/42/33 24/24/17 35/39/30
f  43/47/38 20/20/13 41/45/36
f  33/37/28 17/17/10 43/47/38
f  28/28/21 17/17/10 32/36/27
f  46/85/52 14/14/8 34/50/41
f  40/90/42 39/51/42 42/53/42
f  36/83/50 34/50/41 37/52/42
f  30/59/44 28/54/43 45/56/44
f  45/56/44 14/57/45 30/59/44
f  2/61/43 12/60/43 14/57/45
f  12/60/43 2/61/43 10/63/43
f  1/62/43 4/64/43 10/63/43
f  15/70/47 3/67/46 16/69/47
f  5/72/47 3/67/46 13/71/47
f  6/74/47 5/72/47 9/73/47
f  26/26/19 29/76/48 35/39/30
f  48/91/47 36/77/47 47/79/47
f  16/92/49 46/80/49 47/82/49
f  34/50/41 36/83/50 46/85/52
f  18/32/23 16/16/9 29/33/24

