# File produced by Open Asset Import Library (http://www.assimp.sf.net)
# (assimp v3.2.0)

mtllib LShoulderPitch.mtl

# 126 vertex positions
v  0.151817 -0.244746 -0.276635
v  0.0680293 -0.225746 -0.307886
v  0.0680293 -0.255631 -0.307886
v  0.189528 -0.244746 0.250635
v  0.252762 -0.244746 0.187401
v  0.252762 -0.255631 0.187401
v  0.295619 -0.244746 0.108914
v  0.314628 -0.244746 0.0215315
v  0.314628 -0.255631 0.0215315
v  -0.126845 -0.118308 0.274871
v  -0.126845 -0.255631 0.274871
v  -0.216885 -0.255631 0.22128
v  -0.297448 -0.255631 -0.110679
v  -0.241505 -0.255631 -0.189166
v  -0.211505 -0.0633295 -0.189166
v  -0.31339 -0.255631 -0.0232962
v  -0.247448 -0.0399876 -0.110679
v  -0.23183 -0.0501297 0.14969
v  -0.28183 -0.255631 0.14969
v  -0.30804 -0.255631 0.0659021
v  -0.186885 -0.0793176 0.22128
v  -0.049768 -0.170214 0.306122
v  -0.049768 -0.255631 0.306122
v  0.0274646 -0.209177 0.312501
v  0.0274646 -0.255631 0.312501
v  0.189528 -0.255631 0.250635
v  0.112941 -0.255631 0.293492
v  0.112941 -0.238096 0.293492
v  0.276997 -0.244746 -0.151454
v  0.276997 -0.255631 -0.151454
v  0.308249 -0.255631 -0.0676668
v  0.223406 -0.244746 -0.223044
v  0.223406 -0.255631 -0.223044
v  -0.0113685 -0.190575 -0.314266
v  -0.0113685 -0.255631 -0.314266
v  -0.0926472 -0.140516 -0.295257
v  -0.0926472 -0.255631 -0.295257
v  -0.25804 -0.0331091 0.065902
v  -0.158472 -0.0977691 -0.2524
v  -0.158472 -0.255631 -0.2524
v  0.295619 -0.255631 0.108914
v  0.151817 -0.255631 -0.276635
v  0.308249 -0.244746 -0.0676668
v  0.158891 -0.24591 -0.291148
v  0.0706929 -0.22591 -0.324044
v  0.265148 -0.24591 0.197311
v  0.33027 -0.24591 0.0227111
v  -0.134438 -0.112817 0.289384
v  -0.223553 -0.0549451 -0.199076
v  -0.261388 -0.0303748 -0.116457
v  -0.27817 -0.0194769 -0.0244759
v  -0.26339 -0.0296346 -0.0232962
v  -0.244949 -0.0410506 0.157615
v  -0.231833 -0.0501297 0.14969
v  -0.197638 -0.0717748 0.232972
v  -0.0533042 -0.167455 0.32228
v  0.0279932 -0.208469 0.328995
v  0.198586 -0.24591 0.263873
v  0.117968 -0.23891 0.308986
v  0.323555 -0.24591 -0.0711817
v  0.290659 -0.24591 -0.159379
v  -0.0128837 -0.188888 -0.33076
v  -0.0984402 -0.136194 -0.31075
v  -0.272538 -0.0231343 0.069417
v  -0.16773 -0.0911974 -0.265637
v  0.310261 -0.24591 0.114693
v  0.234248 -0.24591 -0.234736
v  0.234248 -0.25791 -0.234736
v  0.323555 -0.25791 -0.0711817
v  0.290659 -0.25791 -0.159379
v  0.0706929 -0.24591 -0.324044
v  -0.0168837 -0.193888 -0.33076
v  -0.0222862 -0.212842 -0.33076
v  -0.104363 -0.165464 -0.31075
v  0.024441 -0.219409 0.328995
v  0.115968 -0.24591 0.308986
v  0.0239865 -0.24591 0.328995
v  -0.0613042 -0.179455 0.32228
v  -0.145185 -0.1522 0.289384
v  -0.270503 -0.11148 0.15761
v  -0.216854 -0.128914 0.232972
v  -0.301791 -0.101316 0.069417
v  -0.308177 -0.0992408 -0.0244759
v  -0.289147 -0.105424 -0.116457
v  -0.246242 -0.119365 -0.199076
v  -0.182938 -0.139934 -0.265637
v  -0.230501 -0.18358 0.232972
v  -0.286364 -0.175729 0.157615
v  -0.31894 -0.17115 0.069417
v  -0.305775 -0.173001 -0.116457
v  -0.32559 -0.170216 -0.0244759
v  -0.261101 -0.179279 -0.199076
v  -0.195187 -0.188543 -0.265637
v  -0.113372 -0.200041 -0.31075
v  -0.0685381 -0.206342 0.32228
v  -0.155877 -0.194067 0.289384
v  -0.289873 -0.24591 0.157615
v  -0.233461 -0.24591 0.232972
v  -0.322769 -0.24591 0.069417
v  -0.329484 -0.24591 -0.0244759
v  -0.309475 -0.24591 -0.116457
v  -0.264362 -0.24591 -0.199076
v  -0.1978 -0.24591 -0.265637
v  -0.115181 -0.24591 -0.31075
v  -0.0231999 -0.24591 -0.33076
v  -0.0699064 -0.24591 0.32228
v  -0.158104 -0.24591 0.289384
v  -0.289873 -0.25791 0.157615
v  -0.322769 -0.25791 0.069417
v  -0.329484 -0.25791 -0.0244759
v  -0.309475 -0.25791 -0.116457
v  -0.264362 -0.25791 -0.199076
v  -0.1978 -0.25791 -0.265637
v  -0.115181 -0.25791 -0.31075
v  -0.0231999 -0.25791 -0.33076
v  0.0706929 -0.25791 -0.324044
v  0.158891 -0.25791 -0.291148
v  0.310261 -0.25791 0.114693
v  0.33027 -0.25791 0.0227111
v  0.198586 -0.25791 0.263873
v  0.265148 -0.25791 0.197311
v  0.115968 -0.25791 0.308986
v  0.0239865 -0.25791 0.328995
v  -0.158104 -0.25791 0.289384
v  -0.0699064 -0.25791 0.32228
v  -0.233461 -0.25791 0.232972

# 169 UV coordinates
vt 0.106512 0.224393 0
vt 0.0967973 0.229144 0
vt 0.0965986 0.225564 0
vt 0.114255 0.16796 0
vt 0.120916 0.17512 0
vt 0.119935 0.175811 0
vt 0.125213 0.183794 0
vt 0.126797 0.193359 0
vt 0.125592 0.193385 0
vt 0.0677087 0.151624 0
vt 0.0796745 0.166478 0
vt 0.0711616 0.172824 0
vt 0.0636114 0.199982 0
vt 0.0681702 0.207356 0
vt 0.0464771 0.218688 0
vt 0.062504 0.193085 0
vt 0.0394861 0.206595 0
vt 0.0436738 0.168011 0
vt 0.0656882 0.179357 0
vt 0.0632043 0.18594 0
vt 0.0539026 0.157576 0
vt 0.0840261 0.15213 0
vt 0.0877689 0.162854 0
vt 0.0962676 0.156183 0
vt 0.0961119 0.162014 0
vt 0.113501 0.168913 0
vt 0.105435 0.164159 0
vt 0.106165 0.162267 0
vt 0.121333 0.212039 0
vt 0.120334 0.211369 0
vt 0.12431 0.202761 0
vt 0.11487 0.219182 0
vt 0.114123 0.218283 0
vt 0.0855379 0.2326 0
vt 0.0881411 0.224794 0
vt 0.0706757 0.2326 0
vt 0.0802468 0.221171 0
vt 0.0381353 0.18054 0
vt 0.0573893 0.227816 0
vt 0.0742808 0.21558 0
vt 0.124078 0.18417 0
vt 0.106022 0.223222 0
vt 0.12551 0.203112 0
vt 0.168148 0.151624 0
vt 0.178024 0.15473 0
vt 0.177185 0.15628 0
vt 0.126846 0.186738 0
vt 0.128581 0.186757 0
vt 0.129448 0.196549 0
vt 0.133009 0.167516 0
vt 0.134426 0.168447 0
vt 0.130252 0.177169 0
vt 0.15781 0.223013 0
vt 0.157943 0.221125 0
vt 0.167716 0.221133 0
vt 0.199038 0.18772 0
vt 0.197519 0.19776 0
vt 0.195686 0.197151 0
vt 0.19324 0.206984 0
vt 0.191617 0.205915 0
vt 0.177927 0.220144 0
vt 0.177061 0.218413 0
vt 0.185242 0.213198 0
vt 0.168095 0.223013 0
vt 0.147044 0.219478 0
vt 0.147691 0.217753 0
vt 0.138442 0.214342 0
vt 0.139504 0.212891 0
vt 0.127742 0.197022 0
vt 0.132829 0.205501 0
vt 0.13135 0.206499 0
vt 0.148952 0.156044 0
vt 0.140818 0.16122 0
vt 0.139731 0.159917 0
vt 0.158197 0.153337 0
vt 0.148287 0.154473 0
vt 0.186269 0.160138 0
vt 0.185009 0.161411 0
vt 0.193557 0.16841 0
vt 0.191927 0.169266 0
vt 0.186534 0.214651 0
vt 0.19768 0.177668 0
vt 0.197131 0.187612 0
vt 0.195843 0.178061 0
vt 0.128618 0.176679 0
vt 0.158017 0.151624 0
vt 0.167815 0.153334 0
vt 0.12675 0.0947654 0
vt 0.127941 0.0939783 0
vt 0.132431 0.103905 0
vt 0.13375 0.114596 0
vt 0.132371 0.114555 0
vt 0.131082 0.104275 0
vt 0.120297 0.0857809 0
vt 0.10985 0.0811719 0
vt 0.110485 0.0786911 0
vt 0.0992362 0.0739203 0
vt 0.0997093 0.0732196 0
vt 0.0987272 0.0763491 0
vt 0.0870706 0.0722776 0
vt 0.086503 0.0680624 0
vt 0.0890329 0.15022 0
vt 0.100091 0.149504 0
vt 0.0890379 0.151574 0
vt 0.0998732 0.148713 0
vt 0.110307 0.146934 0
vt 0.089848 0.147408 0
vt 0.0778897 0.149778 0
vt 0.0778006 0.151574 0
vt 0.067358 0.144885 0
vt 0.0523706 0.125889 0
vt 0.0584647 0.136574 0
vt 0.0515028 0.141954 0
vt 0.0495933 0.113944 0
vt 0.0418985 0.129881 0
vt 0.050366 0.101691 0
vt 0.0371532 0.114712 0
vt 0.0383698 0.0988486 0
vt 0.0448169 0.0840927 0
vt 0.055247 0.0903434 0
vt 0.0566741 0.0728799 0
vt 0.0634791 0.0809126 0
vt 0.0716513 0.0674003 0
vt 0.0745314 0.0745819 0
vt 0.0639748 0.149366 0
vt 0.0640394 0.132624 0
vt 0.0598903 0.123243 0
vt 0.058052 0.113388 0
vt 0.0623748 0.0946119 0
vt 0.0590171 0.103741 0
vt 0.0684822 0.0865785 0
vt 0.0770298 0.0803908 0
vt 0.0874494 0.0768163 0
vt 0.0790277 0.146756 0
vt 0.0705251 0.140784 0
vt 0.0667813 0.121367 0
vt 0.0697305 0.129682 0
vt 0.0650487 0.113189 0
vt 0.0656709 0.105235 0
vt 0.0684803 0.0977935 0
vt 0.073343 0.0911205 0
vt 0.0801933 0.0855997 0
vt 0.088837 0.0817769 0
vt 0.0988521 0.0801932 0
vt 0.0813152 0.143312 0
vt 0.0745482 0.137235 0
vt 0.0678534 0.12105 0
vt 0.0660927 0.11311 0
vt 0.0666752 0.105451 0
vt 0.0693988 0.0982862 0
vt 0.0741378 0.0918775 0
vt 0.080805 0.0866039 0
vt 0.0891943 0.0829886 0
vt 0.0989007 0.0815529 0
vt 0.109494 0.0825853 0
vt 0.11942 0.0870283 0
vt 0.131948 0.125028 0
vt 0.126061 0.133704 0
vt 0.130683 0.124613 0
vt 0.127204 0.134532 0
vt 0.11964 0.14197 0
vt 0.10985 0.145593 0
vt 0.118853 0.140898 0
vt 0.0998466 0.147373 0
vt 0.090199 0.146211 0
vt 0.0754609 0.136463 0
vt 0.081966 0.142348 0
vt 0.0707356 0.129189 0
vt 0.0371532 0.193672 0

# 150 vertex normals
vn -0.00471328 0 0.00881924
vn -0.00191381 0 0.00981506
vn -0.00216834 0 0.00976196
vn -0.00600818 0 -0.00799371
vn -0.00800531 0 -0.00599262
vn -0.00936949 0 -0.00349437
vn -0.00997437 0 -0.000713217
vn 0.00508713 -0.000365916 -0.00860134
vn 0.00476424 -0.000274666 -0.0087875
vn 0.00684561 -0.00113285 -0.00720054
vn 0.00916807 -0.00195379 0.00348186
vn 0.0077044 -0.00116123 0.0062682
vn 0.0077813 -0.00121128 0.0061626
vn 0.00973785 -0.00218757 0.00061922
vn 0.00918058 -0.00195929 0.00344615
vn 0.00867733 -0.00194281 -0.00457472
vn 0.00865535 -0.00193518 -0.00461867
vn 0.00958068 -0.00218451 -0.00185339
vn 0.00694388 -0.00118656 -0.00709738
vn 0.00278329 0 -0.00960479
vn 0.00231666 0 -0.00972777
vn -0.000319834 0 -0.00999481
vn -0.000681478 0 -0.0099765
vn -0.00603412 0 -0.00797418
vn -0.00356456 0 -0.00934294
vn -0.00340434 0 -0.00940245
vn -0.00877651 0 0.00479232
vn -0.00977142 0 0.00212561
vn -0.00707083 0 0.00707083
vn 0.00120182 0 0.00992737
vn 0.000747093 0 0.00997192
vn 0.00445875 0 0.00895077
vn 0.0039256 0 0.00919706
vn 0.00958617 -0.00218451 -0.00182501
vn 0.00629353 -0.000373546 0.00776177
vn 0.0061095 -0.000288705 0.00791131
vn -0.00479232 0 0.00877651
vn 0.00130955 0.00991241 -0.000156255
vn 0.00311441 0.00949339 0.000416883
vn 0.00304941 0.00951476 0.00040559
vn 0.000584735 0.00997314 0.000439771
vn 0.000587481 0.00997314 0.00043672
vn 0.000743736 0.00996551 0.000367137
vn 0.000737937 0.00997253 5.27966e-05
vn 0.000737937 0.00997253 5.21862e-05
vn 0.000691549 0.00997253 0.000256355
vn 0.00560594 0.00827815 -0.000198675
vn 0.005609 0.00827631 -0.000196539
vn 0.00560198 0.0082812 -0.00019013
vn 0.00562304 0.00826746 0.000158086
vn 0.00565081 0.00824946 9.09448e-05
vn 0.0056505 0.00824976 9.21655e-05
vn 0.00566301 0.00824183 1.83105e-05
vn 0.00566301 0.00824183 1.86157e-05
vn 0.0056389 0.00825709 -0.000125736
vn 0.00563829 0.0082577 -0.000127262
vn 0.00565874 0.00824427 -5.58484e-05
vn 0.00560381 0.00827998 -0.000187994
vn 0.0051207 0.00858242 -0.000344553
vn 0.00507187 0.00861049 -0.000360118
vn 0.00385449 0.00921262 -0.000518814
vn 0.00380474 0.00923307 -0.000517899
vn 0.000756858 0.0099646 0.000357982
vn 0.00202551 0.00979156 -0.000142826
vn 0.00208441 0.00977874 -0.000162358
vn 0.000646077 0.00997284 -0.000350352
vn 0.000722373 0.00997253 -0.000155949
vn 0.000722068 0.00997253 -0.000157475
vn 0.000516983 0.00997314 -0.000513016
vn 0.000644246 0.00997284 -0.000353404
vn 0.00469741 0.00881527 0.000469985
vn 0.00464217 0.00884396 0.00047792
vn 0.00543779 0.00838649 0.000305795
vn 0.00542405 0.00839503 0.00031373
vn 0.00565905 0.00824427 -5.5238e-05
vn 0.00558061 0.00829493 0.00021485
vn 0.00562181 0.00826838 0.000159917
vn 0.00557878 0.00829615 0.000216986
vn 0.000690634 0.00997253 0.000258492
vn 0.000513016 0.00997314 -0.000516373
vn 0.00126621 0.0099176 -0.000177923
vn 0.00707083 0 -0.00707083
vn 0.00877651 0 -0.00479232
vn 0.00977142 0 -0.00212561
vn 0.00471328 0 -0.00881924
vn 0.00212622 -3.05185e-06 -0.00977111
vn 0.0018601 -2.80768e-05 -0.00982513
vn -0.000863674 0.000179143 -0.00996094
vn -0.000556657 -8.54518e-06 -0.00998444
vn -0.000813928 0.0001236 -0.00996582
vn -0.00336955 0.000903348 -0.00937162
vn -0.00368694 0.00101352 -0.00923978
vn 0.000539262 -0.000123294 0.00998444
vn 0.00350597 -0.000803247 0.00933042
vn 0.00057802 -0.000190435 0.00998138
vn 0.00337046 -0.000333872 0.00940886
vn 0.00596545 -3.23492e-05 0.00802545
vn 0.000696737 -3.32647e-05 0.00997558
vn -0.00211951 0.000706503 0.009747
vn -0.00186834 0.000778832 0.00979278
vn -0.0046028 0.00134403 0.00877529
vn -0.00842341 0.00255287 0.00474563
vn -0.00683706 0.00199164 0.00702048
vn -0.006863 0.00230323 0.0068984
vn -0.00934355 0.00287698 0.00210181
vn -0.00832331 0.00300577 0.00465621
vn -0.00953093 0.0029429 -0.000704977
vn -0.00917081 0.00341319 0.00206
vn -0.00934324 0.00349589 -0.000690939
vn -0.0088287 0.003249 -0.00339
vn -0.00897214 0.00274636 -0.00345744
vn -0.00766381 0.00268868 -0.00583361
vn -0.00770745 0.00229988 -0.00594134
vn -0.00593829 0.00185736 -0.0078283
vn -0.0058269 0.00163213 -0.00796106
vn -0.00477523 0.001554 0.00864742
vn -0.00703421 0.00103519 0.00703177
vn -0.00870022 0.00127903 0.00476089
vn -0.0096707 0.00142125 0.00211035
vn -0.00927854 0.00136387 -0.00347026
vn -0.00986877 0.00145024 -0.000708029
vn -0.00794702 0.00116855 -0.00595599
vn -0.00597949 0.000880764 -0.00796655
vn -0.00353435 0.000524307 -0.00933958
vn -0.00219428 0.000328073 0.00975066
vn -0.00480514 0.000709555 0.00874081
vn -0.00878109 0.000218207 0.0047792
vn -0.00708335 0.000167851 0.00705649
vn -0.00976958 0.00024842 0.0021189
vn -0.00997131 0.000254524 -0.000711081
vn -0.0093701 0.000235603 -0.00348399
vn -0.00801355 0.000195013 -0.00597827
vn -0.00600818 0.000137028 -0.00799219
vn -0.00351299 7.11077e-05 -0.00936216
vn -0.00072634 1.5564e-05 -0.00997345
vn -0.0021427 4.02844e-05 0.00976745
vn -0.00481033 0.000104068 0.00876614
vn -0.00599262 0 -0.00800531
vn -0.00349437 0 -0.00936949
vn -0.000713217 0 -0.00997437
vn 0.00212561 0 -0.00977142
vn 0.00479232 0 -0.00877651
vn 0.00997437 0 0.000713217
vn 0.00936949 0 0.00349437
vn 0.00800531 0 0.00599262
vn 0.00599262 0 0.00800531
vn 0.00349437 0 0.00936949
vn 0.000713217 0 0.00997437
vn -0.00212561 0 0.00977142
vn 0.00973846 -0.00218757 0.000609149

# Mesh 'LShoulderPitch_LShoulderPadMobile' with 206 faces
g LShoulderPitch_LShoulderPadMobile
usemtl NaoMat_MainSkin
f  1/1/1 2/2/2 3/3/3
f  4/4/4 5/5/5 6/6/5
f  7/7/6 8/8/7 9/9/7
f  10/10/8 11/11/9 12/12/10
f  13/13/11 14/14/12 15/15/13
f  16/16/14 13/13/11 17/17/15
f  18/18/16 19/19/17 20/20/18
f  21/21/19 12/12/10 19/19/17
f  22/22/20 23/23/21 11/11/9
f  24/24/22 25/25/23 23/23/21
f  4/4/4 26/26/24 27/27/25
f  28/28/26 27/27/25 25/25/23
f  29/29/27 30/30/27 31/31/28
f  32/32/29 33/33/29 30/30/27
f  2/2/2 34/34/30 35/35/31
f  34/34/30 36/36/32 37/37/33
f  38/38/34 20/20/18 16/16/14
f  39/39/35 15/15/13 14/14/12
f  36/36/32 39/39/35 40/40/36
f  5/5/5 7/7/6 41/41/6
f  32/32/29 1/1/1 42/42/37
f  8/8/7 43/43/28 31/31/28
f  44/44/38 45/45/39 2/46/40
f  46/47/41 5/48/42 4/49/43
f  47/50/44 8/51/45 7/52/46
f  48/53/47 10/54/48 21/55/49
f  49/56/50 50/57/51 17/58/52
f  50/57/51 51/59/53 52/60/54
f  53/61/55 54/62/56 38/63/57
f  55/64/58 21/55/49 54/62/56
f  56/65/59 22/66/60 10/54/48
f  57/67/61 24/68/62 22/66/60
f  58/69/63 4/49/43 28/70/64
f  59/71/65 28/70/64 24/68/62
f  29/72/66 43/73/67 60/74/68
f  32/75/69 29/72/66 61/76/70
f  45/45/39 62/77/71 34/78/72
f  62/77/71 63/79/73 36/80/74
f  64/81/75 38/63/57 52/60/54
f  65/82/76 49/56/50 15/83/77
f  63/79/73 65/82/76 39/84/78
f  66/85/79 7/52/46 5/48/42
f  67/86/80 44/44/38 1/87/81
f  47/50/44 60/74/68 43/73/67
f  68/88/82 67/89/82 61/90/83
f  60/91/84 69/92/84 70/93/83
f  44/94/85 71/95/86 45/96/87
f  45/96/87 72/97/88 62/98/89
f  45/96/87 73/99/90 72/97/88
f  74/100/91 63/101/92 62/98/89
f  75/102/93 59/103/94 57/104/95
f  76/105/96 58/106/97 59/103/94
f  77/107/98 76/105/96 59/103/94
f  78/108/99 57/104/95 56/109/100
f  79/110/101 78/108/99 56/109/100
f  80/111/102 81/112/103 55/113/104
f  82/114/105 80/111/102 53/115/106
f  83/116/107 82/114/105 64/117/108
f  83/116/107 51/118/109 50/119/110
f  84/120/111 50/119/110 49/121/112
f  85/122/113 49/121/112 65/123/114
f  86/124/115 65/123/114 63/101/92
f  48/125/116 55/113/104 81/112/103
f  87/126/117 81/112/103 80/111/102
f  88/127/118 80/111/102 82/114/105
f  89/128/119 82/114/105 83/116/107
f  90/129/120 91/130/121 83/116/107
f  92/131/122 90/129/120 84/120/111
f  93/132/123 92/131/122 85/122/113
f  94/133/124 93/132/123 86/124/115
f  73/99/90 94/133/124 74/100/91
f  75/102/93 57/104/95 78/108/99
f  95/134/125 78/108/99 79/110/101
f  96/135/126 79/110/101 81/112/103
f  97/136/127 98/137/128 87/126/117
f  99/138/129 97/136/127 88/127/118
f  100/139/130 99/138/129 89/128/119
f  100/139/130 91/130/121 90/129/120
f  101/140/131 90/129/120 92/131/122
f  102/141/132 92/131/122 93/132/123
f  103/142/133 93/132/123 94/133/124
f  104/143/134 94/133/124 73/99/90
f  105/144/135 73/99/90 45/96/87
f  75/102/93 95/134/125 106/145/136
f  107/146/137 106/145/136 95/134/125
f  98/137/128 107/146/137 96/135/126
f  98/137/128 97/136/127 108/147/27
f  109/148/28 108/147/27 97/136/127
f  110/149/7 109/148/28 99/138/129
f  111/150/6 110/149/7 100/139/130
f  112/151/5 111/150/6 101/140/131
f  113/152/138 112/151/5 102/141/132
f  114/153/139 113/152/138 103/142/133
f  115/154/140 114/153/139 104/143/134
f  116/155/141 115/154/140 105/144/135
f  117/156/142 116/155/141 71/95/86
f  117/156/142 44/94/85 67/89/82
f  69/92/84 60/91/84 47/157/143
f  118/158/144 119/159/143 47/157/143
f  118/158/144 66/160/144 46/161/145
f  120/162/146 121/163/145 46/161/145
f  120/162/146 58/106/97 76/105/96
f  122/164/147 76/105/96 77/107/98
f  123/165/148 77/107/98 106/145/136
f  124/166/37 125/167/149 106/145/136
f  98/137/128 126/168/29 124/166/37
f  42/42/37 1/1/1 3/3/3
f  26/26/24 4/4/4 6/6/5
f  41/41/6 7/7/6 9/9/7
f  21/21/19 10/10/8 12/12/10
f  17/17/15 13/13/11 15/15/13
f  52/169/150 16/16/14 17/17/15
f  38/38/34 18/18/16 20/20/18
f  18/18/16 21/21/19 19/19/17
f  10/10/8 22/22/20 11/11/9
f  22/22/20 24/24/22 23/23/21
f  28/28/26 4/4/4 27/27/25
f  24/24/22 28/28/26 25/25/23
f  43/43/28 29/29/27 31/31/28
f  29/29/27 32/32/29 30/30/27
f  3/3/3 2/2/2 35/35/31
f  35/35/31 34/34/30 37/37/33
f  52/169/150 38/38/34 16/16/14
f  40/40/36 39/39/35 14/14/12
f  37/37/33 36/36/32 40/40/36
f  6/6/5 5/5/5 41/41/6
f  33/33/29 32/32/29 42/42/37
f  9/9/7 8/8/7 31/31/28
f  1/87/81 44/44/38 2/46/40
f  58/69/63 46/47/41 4/49/43
f  66/85/79 47/50/44 7/52/46
f  55/64/58 48/53/47 21/55/49
f  15/83/77 49/56/50 17/58/52
f  17/58/52 50/57/51 52/60/54
f  64/81/75 53/61/55 38/63/57
f  53/61/55 55/64/58 54/62/56
f  48/53/47 56/65/59 10/54/48
f  56/65/59 57/67/61 22/66/60
f  59/71/65 58/69/63 28/70/64
f  57/67/61 59/71/65 24/68/62
f  61/76/70 29/72/66 60/74/68
f  67/86/80 32/75/69 61/76/70
f  2/46/40 45/45/39 34/78/72
f  34/78/72 62/77/71 36/80/74
f  51/59/53 64/81/75 52/60/54
f  39/84/78 65/82/76 15/83/77
f  36/80/74 63/79/73 39/84/78
f  46/47/41 66/85/79 5/48/42
f  32/75/69 67/86/80 1/87/81
f  8/51/45 47/50/44 43/73/67
f  70/93/83 68/88/82 61/90/83
f  61/90/83 60/91/84 70/93/83
f  72/97/88 74/100/91 62/98/89
f  75/102/93 77/107/98 59/103/94
f  48/125/116 79/110/101 56/109/100
f  53/115/106 80/111/102 55/113/104
f  64/117/108 82/114/105 53/115/106
f  51/118/109 83/116/107 64/117/108
f  84/120/111 83/116/107 50/119/110
f  85/122/113 84/120/111 49/121/112
f  86/124/115 85/122/113 65/123/114
f  74/100/91 86/124/115 63/101/92
f  79/110/101 48/125/116 81/112/103
f  88/127/118 87/126/117 80/111/102
f  89/128/119 88/127/118 82/114/105
f  91/130/121 89/128/119 83/116/107
f  84/120/111 90/129/120 83/116/107
f  85/122/113 92/131/122 84/120/111
f  86/124/115 93/132/123 85/122/113
f  74/100/91 94/133/124 86/124/115
f  72/97/88 73/99/90 74/100/91
f  95/134/125 75/102/93 78/108/99
f  96/135/126 95/134/125 79/110/101
f  87/126/117 96/135/126 81/112/103
f  88/127/118 97/136/127 87/126/117
f  89/128/119 99/138/129 88/127/118
f  91/130/121 100/139/130 89/128/119
f  101/140/131 100/139/130 90/129/120
f  102/141/132 101/140/131 92/131/122
f  103/142/133 102/141/132 93/132/123
f  104/143/134 103/142/133 94/133/124
f  105/144/135 104/143/134 73/99/90
f  71/95/86 105/144/135 45/96/87
f  77/107/98 75/102/93 106/145/136
f  96/135/126 107/146/137 95/134/125
f  87/126/117 98/137/128 96/135/126
f  126/168/29 98/137/128 108/147/27
f  99/138/129 109/148/28 97/136/127
f  100/139/130 110/149/7 99/138/129
f  101/140/131 111/150/6 100/139/130
f  102/141/132 112/151/5 101/140/131
f  103/142/133 113/152/138 102/141/132
f  104/143/134 114/153/139 103/142/133
f  105/144/135 115/154/140 104/143/134
f  71/95/86 116/155/141 105/144/135
f  44/94/85 117/156/142 71/95/86
f  68/88/82 117/156/142 67/89/82
f  119/159/143 69/92/84 47/157/143
f  66/160/144 118/158/144 47/157/143
f  121/163/145 118/158/144 46/161/145
f  58/106/97 120/162/146 46/161/145
f  122/164/147 120/162/146 76/105/96
f  123/165/148 122/164/147 77/107/98
f  125/167/149 123/165/148 106/145/136
f  107/146/137 124/166/37 106/145/136
f  107/146/137 98/137/128 124/166/37

