# File produced by Open Asset Import Library (http://www.assimp.sf.net)
# (assimp v3.2.0)

mtllib RAnklePitch.mtl

# 70 vertex positions
v  0.412825 0.12342 0.192024
v  0.412825 -0.11758 0.192024
v  0.412825 -0.11758 0.145024
v  0.222906 -0.11758 0.394589
v  0.323263 -0.11758 0.319463
v  0.323263 0.12342 0.319463
v  0.105447 -0.11758 0.438399
v  0.222905 0.12342 0.394589
v  -0.0195957 -0.11758 0.447342
v  0.105447 0.12342 0.438399
v  -0.0195957 0.12342 0.447342
v  -0.142093 0.12342 0.420695
v  -0.142093 -0.11758 0.420695
v  -0.252121 0.12342 0.360615
v  -0.340765 -0.11758 0.27197
v  -0.252121 -0.11758 0.360615
v  -0.340765 0.12342 0.27197
v  -0.400845 0.12342 0.161942
v  -0.428493 -0.11758 0.0832779
v  -0.400845 -0.11758 0.161942
v  0.37739 -0.11758 0.256104
v  0.37739 0.12342 0.256104
v  0.387966 -0.144168 0.189925
v  0.387966 -0.144168 0.145933
v  0.210201 -0.144168 0.379526
v  0.304136 -0.144168 0.309207
v  0.10026 -0.144168 0.420531
v  -0.0167802 -0.144168 0.428902
v  -0.131438 -0.144168 0.40396
v  -0.234424 -0.144168 0.347725
v  -0.317395 -0.144168 0.264754
v  -0.37363 -0.144168 0.161768
v  -0.399572 -0.144168 0.0832779
v  0.353455 -0.144168 0.252271
v  -0.311175 -0.0662231 -0.158037
v  0.293825 -0.066223 -0.158037
v  0.293825 -0.121025 -0.12142
v  -0.311175 -0.0015802 -0.170896
v  0.293825 -0.00158016 -0.170896
v  -0.311175 0.0630627 -0.158037
v  0.293825 0.0630627 -0.158037
v  -0.311175 0.117864 -0.12142
v  0.293825 0.117864 -0.12142
v  -0.311175 -0.121025 -0.12142
v  0.293825 -0.143932 -0.0940195
v  -0.311175 0.140771 -0.0940195
v  0.293825 0.140771 -0.0940195
v  -0.311175 -0.143932 -0.0940195
v  0.387965 0.141008 0.189925
v  0.412825 0.12342 0.145024
v  0.353455 0.141008 0.252271
v  0.304136 0.141008 0.309207
v  0.210201 0.141008 0.379525
v  0.10026 0.141008 0.420531
v  -0.0167803 0.141008 0.428902
v  -0.131438 0.141008 0.40396
v  -0.234424 0.141008 0.347725
v  -0.317395 0.141008 0.264754
v  -0.37363 0.141008 0.161768
v  -0.399572 0.141008 0.0832776
v  0.293825 -0.144168 0.0859805
v  -0.311175 -0.144168 0.0859805
v  -0.311175 0.141008 0.0859805
v  0.293825 0.141008 0.0859805
v  0.387965 0.141008 0.145933
v  0.293825 -0.144168 0.15598
v  -0.311175 -0.144168 0.15598
v  -0.311175 0.141008 0.15598
v  0.293825 0.141008 0.15598
v  -0.428493 0.12342 0.0832779

# 128 UV coordinates
vt 0.100932 0.923455 0
vt 0.10109 0.908326 0
vt 0.10415 0.907981 0
vt 0.0826539 0.907808 0
vt 0.0909091 0.907926 0
vt 0.0906751 0.923474 0
vt 0.0745299 0.907674 0
vt 0.0825356 0.923223 0
vt 0.0664142 0.907583 0
vt 0.0745215 0.923074 0
vt 0.0665068 0.922993 0
vt 0.0583761 0.922985 0
vt 0.0581991 0.907517 0
vt 0.0502102 0.923005 0
vt 0.0416731 0.90751 0
vt 0.0499446 0.90751 0
vt 0.0420094 0.923094 0
vt 0.0336451 0.923458 0
vt 0.0276555 0.90717 0
vt 0.0333401 0.907344 0
vt 0.0963833 0.908088 0
vt 0.0961358 0.92354 0
vt 0.100743 0.90591 0
vt 0.10375 0.905501 0
vt 0.0824111 0.905596 0
vt 0.0904782 0.90563 0
vt 0.0744712 0.905549 0
vt 0.0665437 0.905406 0
vt 0.0584975 0.905289 0
vt 0.050394 0.905211 0
vt 0.0422702 0.905126 0
vt 0.0341709 0.904864 0
vt 0.0284238 0.904516 0
vt 0.0957524 0.905724 0
vt 0.033455 0.863512 0
vt 0.0731422 0.863511 0
vt 0.0731422 0.867835 0
vt 0.0334549 0.859189 0
vt 0.0731421 0.859188 0
vt 0.0334547 0.854865 0
vt 0.0731421 0.854864 0
vt 0.0334546 0.850541 0
vt 0.073142 0.850541 0
vt 0.0334551 0.867836 0
vt 0.0731422 0.870178 0
vt 0.0334545 0.848198 0
vt 0.0731419 0.848198 0
vt 0.080871 0.81714 0
vt 0.0965419 0.81714 0
vt 0.0980445 0.818938 0
vt 0.084466 0.814738 0
vt 0.0929469 0.814738 0
vt 0.0887064 0.813895 0
vt 0.0793684 0.84718 0
vt 0.0980445 0.84718 0
vt 0.0965419 0.848978 0
vt 0.080871 0.848978 0
vt 0.0929469 0.85138 0
vt 0.084466 0.85138 0
vt 0.0887064 0.852223 0
vt 0.100509 0.925525 0
vt 0.104125 0.923937 0
vt 0.0953956 0.925459 0
vt 0.0901504 0.925285 0
vt 0.0822206 0.924947 0
vt 0.0744114 0.924721 0
vt 0.0666024 0.924693 0
vt 0.0586626 0.924739 0
vt 0.0506692 0.924838 0
vt 0.0426382 0.925039 0
vt 0.0345355 0.925527 0
vt 0.0287235 0.926105 0
vt 0.0676572 0.901242 0
vt 0.0604453 0.903932 0
vt 0.0527677 0.904481 0
vt 0.0452464 0.902845 0
vt 0.0384906 0.899156 0
vt 0.0330478 0.893713 0
vt 0.0770541 0.892894 0
vt 0.0731424 0.881986 0
vt 0.0334556 0.881986 0
vt 0.0334542 0.836391 0
vt 0.0731417 0.83639 0
vt 0.09806 0.830746 0
vt 0.0793529 0.830746 0
vt 0.0793529 0.835373 0
vt 0.0980601 0.835373 0
vt 0.081097 0.867869 0
vt 0.0793529 0.865972 0
vt 0.09806 0.865972 0
vt 0.081097 0.852258 0
vt 0.0969063 0.852258 0
vt 0.0980601 0.85389 0
vt 0.0731425 0.886577 0
vt 0.0334557 0.886578 0
vt 0.0334541 0.831799 0
vt 0.0731416 0.831798 0
vt 0.09806 0.835338 0
vt 0.0793529 0.835337 0
vt 0.0793529 0.865937 0
vt 0.0793529 0.860136 0
vt 0.09806 0.860136 0
vt 0.0293588 0.886958 0
vt 0.027657 0.881809 0
vt 0.0293571 0.831419 0
vt 0.0793529 0.85389 0
vt 0.0980601 0.860101 0
vt 0.0793178 0.888804 0
vt 0.079317 0.829571 0
vt 0.0793172 0.832457 0
vt 0.0330459 0.824663 0
vt 0.0770531 0.825481 0
vt 0.0384886 0.81922 0
vt 0.0452443 0.815531 0
vt 0.0676556 0.817133 0
vt 0.0527657 0.813895 0
vt 0.0604434 0.814444 0
vt 0.027872 0.923831 0
vt 0.0334552 0.870179 0
vt 0.0793684 0.818938 0
vt 0.103658 0.926105 0
vt 0.073819 0.896629 0
vt 0.0969062 0.867869 0
vt 0.09806 0.865937 0
vt 0.0276555 0.836568 0
vt 0.0793529 0.860101 0
vt 0.0793178 0.885918 0
vt 0.0738177 0.821746 0

# 73 vertex normals
vn 0.0087524 0.00430708 0.00220038
vn 0.00909574 -0.00346904 0.00228645
vn 0.00931303 -0.00364147 0
vn 0.00460585 -0.00301431 0.00834834
vn 0.00652516 -0.00315714 0.00688833
vn 0.00628529 0.00406964 0.0066277
vn 0.00204596 -0.00292581 0.0093408
vn 0.00444777 0.00391705 0.00805414
vn -0.000697958 -0.00292947 0.00953551
vn 0.00197821 0.00382702 0.00902432
vn -0.00067629 0.00383099 0.00921201
vn -0.00325663 0.00392773 0.00860012
vn -0.00337138 -0.00302499 0.00891507
vn -0.00551927 0.00409436 0.00726432
vn -0.00757042 -0.00340922 0.00557329
vn -0.00572954 -0.00319437 0.00754753
vn -0.00727256 0.00429731 0.00535173
vn -0.00815577 0.00456313 0.00355785
vn -0.00884854 -0.00349895 0.00307505
vn -0.00852534 -0.00367351 0.00371624
vn 0.00778649 -0.00333384 0.0053151
vn 0.0074807 0.00424421 0.00510117
vn 0.00707785 -0.00677724 0.00199225
vn 0.0073043 -0.00682943 0
vn 0.00379742 -0.00586688 0.00715232
vn 0.00533677 -0.00607379 0.00588397
vn 0.00171209 -0.00572314 0.00801935
vn -0.000547807 -0.00572954 0.00817744
vn -0.00273202 -0.00588427 0.00760948
vn -0.00460189 -0.00616169 0.00639149
vn -0.00596729 -0.00651601 0.00468276
vn -0.00660451 -0.00686606 0.00303812
vn -0.00669179 -0.00707175 0.00228187
vn 0.00625935 -0.00633625 0.00454604
vn 0 -0.00382672 -0.00923856
vn 0 -0.00668172 -0.0074398
vn 0 0 -0.01
vn 0 0.00382672 -0.00923856
vn 0 0.00668172 -0.0074398
vn 0 -0.00939756 -0.00341777
vn 0 0.00939756 -0.00341777
vn 0.01 0 0
vn -0.01 0 0
vn 0.00560778 0.00812128 0.00161016
vn 0.00890378 0.00455153 0
vn 0.00507309 0.00777306 0.0037196
vn 0.00438032 0.00755882 0.00486557
vn 0.00314341 0.00738212 0.00596789
vn 0.00142857 0.00725761 0.00672903
vn -0.000450148 0.0072631 0.00685873
vn -0.00225196 0.00739738 0.00634053
vn -0.00375103 0.00763085 0.00526231
vn -0.00478591 0.00791711 0.0037962
vn -0.00521104 0.00818476 0.00241859
vn -0.0052208 0.00834071 0.00178014
vn 0 -0.01 0
vn 0 -0.00999969 0
vn 0 -0.00999969 -6.40889e-06
vn 0 -0.00999969 -4.27259e-06
vn 0 0.00999969 -4.27259e-06
vn 0 0.00999969 -6.40889e-06
vn 0.00999969 0 0
vn 0 0 0.01
vn 0 0 0.00999969
vn 0.000365001 0 0.00999329
vn 0.000798364 0 0.00996795
vn 0 0.01 0
vn -0.000305185 0 0.00999512
vn 0.000835901 0 0.0099649
vn 0.00106113 0 0.00994324
vn 0 0.00999969 0
vn -0.00854732 0.00425214 0.00297617
vn 0.00577532 0.0081634 0

# Mesh 'RAnklePitch_RAnkle' with 136 faces
g RAnklePitch_RAnkle
usemtl RAnklePitchUV
f  1/1/1 2/2/2 3/3/3
f  4/4/4 5/5/5 6/6/6
f  7/7/7 4/4/4 8/8/8
f  9/9/9 7/7/7 10/10/10
f  9/9/9 11/11/11 12/12/12
f  13/13/13 12/12/12 14/14/14
f  15/15/15 16/16/16 14/14/14
f  15/15/15 17/17/17 18/18/18
f  19/19/19 20/20/20 18/18/18
f  21/21/21 22/22/22 6/6/6
f  1/1/1 22/22/22 21/21/21
f  23/23/23 24/24/24 3/3/3
f  4/4/4 25/25/25 26/26/26
f  7/7/7 27/27/27 25/25/25
f  7/7/7 9/9/9 28/28/28
f  9/9/9 13/13/13 29/29/29
f  13/13/13 16/16/16 30/30/30
f  16/16/16 15/15/15 31/31/31
f  15/15/15 20/20/20 32/32/32
f  20/20/20 19/19/19 33/33/33
f  5/5/5 26/26/26 34/34/34
f  21/21/21 34/34/34 23/23/23
f  35/35/35 36/36/35 37/37/36
f  38/38/37 39/39/37 36/36/35
f  40/40/38 41/41/38 39/39/37
f  42/42/39 43/43/39 41/41/38
f  44/44/36 37/37/36 45/45/40
f  46/46/41 47/47/41 43/43/39
f  37/48/42 43/49/42 47/50/42
f  37/48/42 36/51/42 41/52/42
f  36/51/42 39/53/42 41/52/42
f  48/54/43 46/55/43 42/56/43
f  44/57/43 42/56/43 40/58/43
f  35/59/43 40/58/43 38/60/43
f  49/61/44 1/1/1 50/62/45
f  6/6/6 22/22/22 51/63/46
f  49/61/44 51/63/46 22/22/22
f  8/8/8 6/6/6 52/64/47
f  53/65/48 54/66/49 10/10/10
f  10/10/10 54/66/49 55/67/50
f  11/11/11 55/67/50 56/68/51
f  12/12/12 56/68/51 57/69/52
f  14/14/14 57/69/52 58/70/53
f  17/17/17 58/70/53 59/71/54
f  18/18/18 59/71/54 60/72/55
f  25/73/56 27/74/56 28/75/56
f  25/73/56 29/76/56 30/77/56
f  30/77/56 31/78/57 34/79/56
f  45/45/40 61/80/58 62/81/59
f  46/46/41 63/82/60 64/83/61
f  47/50/42 64/84/62 61/85/42
f  48/54/43 62/86/43 63/87/43
f  19/88/63 33/89/63 60/90/64
f  3/91/65 50/92/65 65/93/66
f  61/80/58 66/94/56 67/95/56
f  63/82/60 68/96/67 69/97/67
f  64/84/62 69/98/42 66/99/42
f  33/100/68 62/101/68 63/102/68
f  32/103/56 33/104/56 62/81/59
f  59/105/67 68/96/67 63/82/60
f  31/78/57 32/103/56 67/95/56
f  31/78/57 67/95/56 66/94/56
f  24/106/69 65/93/66 69/107/70
f  23/108/56 34/79/56 66/94/56
f  49/109/67 65/110/71 69/97/67
f  59/105/67 58/111/67 68/96/67
f  69/97/67 68/96/67 58/111/67
f  51/112/67 58/111/67 57/113/71
f  57/113/71 56/114/71 53/115/67
f  55/116/67 54/117/71 53/115/67
f  50/62/45 1/1/1 3/3/3
f  8/8/8 4/4/4 6/6/6
f  10/10/10 7/7/7 8/8/8
f  11/11/11 9/9/9 10/10/10
f  13/13/13 9/9/9 12/12/12
f  16/16/16 13/13/13 14/14/14
f  17/17/17 15/15/15 14/14/14
f  20/20/20 15/15/15 18/18/18
f  70/118/72 19/19/19 18/18/18
f  5/5/5 21/21/21 6/6/6
f  2/2/2 1/1/1 21/21/21
f  2/2/2 23/23/23 3/3/3
f  5/5/5 4/4/4 26/26/26
f  4/4/4 7/7/7 25/25/25
f  27/27/27 7/7/7 28/28/28
f  28/28/28 9/9/9 29/29/29
f  29/29/29 13/13/13 30/30/30
f  30/30/30 16/16/16 31/31/31
f  31/31/31 15/15/15 32/32/32
f  32/32/32 20/20/20 33/33/33
f  21/21/21 5/5/5 34/34/34
f  2/2/2 21/21/21 23/23/23
f  44/44/36 35/35/35 37/37/36
f  35/35/35 38/38/37 36/36/35
f  38/38/37 40/40/38 39/39/37
f  40/40/38 42/42/39 41/41/38
f  48/119/40 44/44/36 45/45/40
f  42/42/39 46/46/41 43/43/39
f  45/120/62 37/48/42 47/50/42
f  43/49/42 37/48/42 41/52/42
f  44/57/43 48/54/43 42/56/43
f  35/59/43 44/57/43 40/58/43
f  65/121/73 49/61/44 50/62/45
f  52/64/47 6/6/6 51/63/46
f  1/1/1 49/61/44 22/22/22
f  53/65/48 8/8/8 52/64/47
f  8/8/8 53/65/48 10/10/10
f  11/11/11 10/10/10 55/67/50
f  12/12/12 11/11/11 56/68/51
f  14/14/14 12/12/12 57/69/52
f  17/17/17 14/14/14 58/70/53
f  18/18/18 17/17/17 59/71/54
f  70/118/72 18/18/18 60/72/55
f  29/76/56 25/73/56 28/75/56
f  26/122/57 25/73/56 30/77/56
f  26/122/57 30/77/56 34/79/56
f  48/119/40 45/45/40 62/81/59
f  47/47/41 46/46/41 64/83/61
f  45/120/62 47/50/42 61/85/42
f  46/55/43 48/54/43 63/87/43
f  70/123/63 19/88/63 60/90/64
f  24/106/69 3/91/65 65/93/66
f  62/81/59 61/80/58 67/95/56
f  64/83/61 63/82/60 69/97/67
f  61/85/42 64/84/62 66/99/42
f  60/124/68 33/100/68 63/102/68
f  67/95/56 32/103/56 62/81/59
f  60/125/67 59/105/67 63/82/60
f  34/79/56 31/78/57 66/94/56
f  66/126/70 24/106/69 69/107/70
f  24/127/57 23/108/56 66/94/56
f  51/112/67 49/109/67 69/97/67
f  51/112/67 69/97/67 58/111/67
f  52/128/67 51/112/67 57/113/71
f  52/128/67 57/113/71 53/115/67
f  56/114/71 55/116/67 53/115/67

