# File produced by Open Asset Import Library (http://www.assimp.sf.net)
# (assimp v3.2.0)

mtllib RHipRoll.mtl

# 48 vertex positions
v  -0.427 0.111321 0.121121
v  0.086 0.111321 0.121121
v  0.086 0.136299 0.0928441
v  -0.427 0.0580442 0.156719
v  0.086 0.0580442 0.156719
v  0.086 -0.00480007 0.16922
v  0.086 -0.0676444 0.156719
v  -0.427 -0.00480011 0.16922
v  -0.427 -0.120921 0.121121
v  0.086 -0.120921 0.121121
v  -0.427 -0.145899 0.0928441
v  0.086 -0.145899 0.0928441
v  0.086 0.136299 -0.173156
v  -0.427 0.136299 -0.173156
v  -0.427 -0.145899 -0.173156
v  0.086 -0.145899 -0.173156
v  -0.270967 -0.1258 -0.211878
v  -0.241831 -0.1258 -0.247831
v  -0.241831 -0.1448 -0.223831
v  -0.130878 -0.1448 -0.297967
v  -1e-08 -0.1448 -0.324
v  -0.130878 -0.1258 -0.321967
v  0.130878 -0.1258 -0.321967
v  0.130878 -0.1448 -0.297967
v  0.241831 -0.1258 -0.247831
v  0.241831 -0.1448 -0.223831
v  -0.426967 -0.1258 -0.211878
v  -0.270967 -0.1448 -0.187878
v  -0.426967 -0.1448 -0.187878
v  -0.426967 0.1162 -0.211878
v  -0.426967 0.1352 -0.187878
v  -0.270967 0.1352 -0.187878
v  0.241831 0.1162 -0.247831
v  0.130878 0.1162 -0.321967
v  0.130878 0.1352 -0.297967
v  -2e-08 0.1162 -0.348
v  -2e-08 0.1352 -0.324
v  -0.130878 0.1162 -0.321967
v  -0.130878 0.1352 -0.297967
v  -0.241831 0.1162 -0.247831
v  -0.241831 0.1352 -0.223831
v  -0.270967 0.1162 -0.211878
v  -1e-08 -0.1258 -0.348
v  0.241831 0.1352 -0.223831
v  -0.427 0.136299 0.0928441
v  -0.427 -0.0676444 0.156719
v  0.241831 0.1352 -0.173831
v  0.241831 -0.1448 -0.173831

# 92 UV coordinates
vt 0.0315573 0.839948 0
vt 0.0995698 0.839947 0
vt 0.0995699 0.844949 0
vt 0.0315571 0.831453 0
vt 0.0995697 0.831452 0
vt 0.0995696 0.822957 0
vt 0.0995695 0.814462 0
vt 0.031557 0.822958 0
vt 0.0315568 0.805968 0
vt 0.0995694 0.805967 0
vt 0.0315567 0.800966 0
vt 0.0995693 0.800965 0
vt 0.0995703 0.880215 0
vt 0.0315577 0.880216 0
vt 0.0315563 0.7657 0
vt 0.0995688 0.7657 0
vt 0.161528 0.82624 0
vt 0.160515 0.81982 0
vt 0.16404 0.821536 0
vt 0.163972 0.803607 0
vt 0.165037 0.785308 0
vt 0.16009 0.802291 0
vt 0.161772 0.76815 0
vt 0.165705 0.766995 0
vt 0.161968 0.751661 0
vt 0.165345 0.748922 0
vt 0.159097 0.8476 0
vt 0.165705 0.827537 0
vt 0.0561056 0.758977 0
vt 0.0708162 0.749148 0
vt 0.088168 0.745698 0
vt 0.105519 0.749151 0
vt 0.120229 0.75898 0
vt 0.0522424 0.763743 0
vt 0.0315606 0.763743 0
vt 0.126963 0.847695 0
vt 0.122898 0.848125 0
vt 0.120293 0.825715 0
vt 0.134071 0.748831 0
vt 0.131867 0.765335 0
vt 0.128106 0.763604 0
vt 0.130457 0.782327 0
vt 0.126187 0.78196 0
vt 0.128944 0.799636 0
vt 0.124825 0.800503 0
vt 0.126604 0.8177 0
vt 0.122615 0.819218 0
vt 0.124886 0.824589 0
vt 0.160797 0.785099 0
vt 0.0522442 0.882173 0
vt 0.08817 0.900217 0
vt 0.0708182 0.896767 0
vt 0.0561074 0.886939 0
vt 0.12023 0.886934 0
vt 0.105521 0.896764 0
vt 0.157561 0.85137 0
vt 0.120439 0.85137 0
vt 0.122958 0.848188 0
vt 0.120293 0.853321 0
vt 0.120293 0.888587 0
vt 0.157707 0.853321 0
vt 0.157707 0.888587 0
vt 0.154395 0.892336 0
vt 0.123605 0.892336 0
vt 0.147332 0.897056 0
vt 0.130668 0.897056 0
vt 0.139 0.898713 0
vt 0.195183 0.883453 0
vt 0.157769 0.883453 0
vt 0.157769 0.848188 0
vt 0.191871 0.887202 0
vt 0.161081 0.887202 0
vt 0.184808 0.891922 0
vt 0.168144 0.891922 0
vt 0.176476 0.893579 0
vt 0.131178 0.745698 0
vt 0.157415 0.898776 0
vt 0.157415 0.905405 0
vt 0.120293 0.905405 0
vt 0.195183 0.914302 0
vt 0.157769 0.914302 0
vt 0.157915 0.893642 0
vt 0.120231 0.880305 0
vt 0.120229 0.765609 0
vt 0.0315573 0.84495 0
vt 0.0315569 0.814463 0
vt 0.162824 0.848079 0
vt 0.0315621 0.882173 0
vt 0.155042 0.848188 0
vt 0.195183 0.848188 0
vt 0.120293 0.898776 0
vt 0.195037 0.893642 0

# 54 vertex normals
vn 0 0.00657979 0.00753014
vn 0 0.0093527 0.00353923
vn 0 0.00382672 0.00923856
vn 0 0 0.01
vn 0 -0.00382672 0.00923856
vn 0 -0.00657979 0.00753014
vn 0 -0.0093527 0.00353923
vn 3.35704e-06 0.00999878 -0.000137944
vn 0 0.00999298 -0.000372021
vn 0 -0.00999298 -0.000372021
vn 3.35704e-06 -0.00999878 -0.000137944
vn -0.00435499 -0.00442823 -0.00783715
vn -0.0061388 -0.00364635 -0.00700095
vn -0.0053679 -0.00661489 -0.00523667
vn -0.00278146 -0.00753075 -0.00596179
vn 0 -0.0078402 -0.00620686
vn -0.00339854 -0.00402142 -0.00850124
vn 0.00339854 -0.00402142 -0.00850124
vn 0.00278146 -0.00753075 -0.00596179
vn 0.00804804 -0.00303079 -0.005103
vn 0.00789331 -0.00481338 -0.00381054
vn 0 -0.00435469 -0.00900174
vn -0.00235511 -0.00761986 -0.00603229
vn 0 -0.01 0
vn 3.66222e-06 -0.00999878 -0.000138859
vn 0 -0.00998321 -0.000578325
vn 0 -0.00997223 -0.000744346
vn 0 0.00435469 -0.00900174
vn 0 0.0078402 -0.00620686
vn -0.00235511 0.00761986 -0.00603229
vn 0.00804804 0.00303079 -0.005103
vn 0.00339854 0.00402173 -0.00850124
vn 0.00278146 0.00753075 -0.00596179
vn 0 0.00415571 -0.00909543
vn -0.00339854 0.00402142 -0.00850124
vn -0.00278146 0.00753075 -0.00596179
vn -0.0061388 0.00364635 -0.00700095
vn -0.0053679 0.00661489 -0.00523667
vn -0.00435499 0.00442823 -0.00783715
vn 0 -0.00415571 -0.00909543
vn 0 0.00998321 -0.000578325
vn 0 0.01 0
vn 3.66222e-06 0.00999878 -0.000138859
vn -0.00999969 0 -1.43433e-05
vn -0.01 0 0
vn -0.00999969 0 -1.09863e-05
vn -0.00999969 0 0
vn 0.01 0 0
vn 0.00999969 0 0
vn 0.00789331 0.00481338 -0.00381054
vn 4.3031e-05 0 0.00999969
vn 5.18815e-06 0.00999786 -0.000199896
vn 5.18815e-06 -0.00999786 -0.000199896
vn 0 0.00997223 -0.000744346

# Mesh 'RHipRoll_RUpperThigh' with 92 faces
g RHipRoll_RUpperThigh
usemtl RHipRollUV
f  1/1/1 2/2/1 3/3/2
f  1/1/1 4/4/3 5/5/3
f  6/6/4 5/5/3 4/4/3
f  7/7/5 6/6/4 8/8/4
f  9/9/6 10/10/6 7/7/5
f  11/11/7 12/12/7 10/10/6
f  3/3/2 13/13/8 14/14/9
f  15/15/10 16/16/11 12/12/7
f  17/17/12 18/18/13 19/19/14
f  20/20/15 19/19/14 18/18/13
f  21/21/16 20/20/15 22/22/17
f  23/23/18 24/24/19 21/21/16
f  25/25/20 26/26/21 24/24/19
f  27/27/22 17/17/12 28/28/23
f  19/29/24 20/30/24 21/31/24
f  24/32/24 26/33/25 28/34/26
f  15/15/10 29/35/27 28/34/26
f  30/36/28 31/37/29 32/38/30
f  33/39/31 34/40/32 35/41/33
f  34/40/32 36/42/34 37/43/29
f  38/44/35 39/45/36 37/43/29
f  40/46/37 41/47/38 39/45/36
f  42/48/39 32/38/30 41/47/38
f  38/44/35 36/42/34 43/49/40
f  43/49/40 36/42/34 34/40/32
f  23/23/18 34/40/32 33/39/31
f  18/18/13 40/46/37 38/44/35
f  17/17/12 42/48/39 40/46/37
f  17/17/12 27/27/22 30/36/28
f  14/14/9 13/13/8 32/50/41
f  37/51/42 39/52/42 41/53/42
f  32/50/41 44/54/43 35/55/42
f  29/56/44 31/57/44 30/58/45
f  14/59/46 31/57/44 29/56/44
f  45/60/47 14/59/46 15/61/46
f  45/60/47 11/62/45 9/63/45
f  1/64/45 9/63/45 46/65/45
f  4/66/45 46/65/45 8/67/45
f  3/68/48 12/69/48 16/70/48
f  3/68/48 2/71/48 10/72/48
f  5/73/48 7/74/48 10/72/48
f  5/73/48 6/75/49 7/74/48
f  25/25/20 33/39/31 44/76/50
f  44/77/48 47/78/48 48/79/48
f  13/80/51 16/81/51 48/82/51
f  13/13/8 47/83/52 44/54/43
f  26/33/25 48/84/53 16/16/11
f  45/85/2 1/1/1 3/3/2
f  2/2/1 1/1/1 5/5/3
f  8/8/4 6/6/4 4/4/3
f  46/86/5 7/7/5 8/8/4
f  46/86/5 9/9/6 7/7/5
f  9/9/6 11/11/7 10/10/6
f  45/85/2 3/3/2 14/14/9
f  11/11/7 15/15/10 12/12/7
f  28/28/23 17/17/12 19/19/14
f  22/22/17 20/20/15 18/18/13
f  43/49/40 21/21/16 22/22/17
f  43/49/40 23/23/18 21/21/16
f  23/23/18 25/25/20 24/24/19
f  29/87/16 27/27/22 28/28/23
f  24/32/24 19/29/24 21/31/24
f  19/29/24 24/32/24 28/34/26
f  16/16/11 15/15/10 28/34/26
f  42/48/39 30/36/28 32/38/30
f  44/76/50 33/39/31 35/41/33
f  35/41/33 34/40/32 37/43/29
f  36/42/34 38/44/35 37/43/29
f  38/44/35 40/46/37 39/45/36
f  40/46/37 42/48/39 41/47/38
f  22/22/17 38/44/35 43/49/40
f  23/23/18 43/49/40 34/40/32
f  25/25/20 23/23/18 33/39/31
f  22/22/17 18/18/13 38/44/35
f  18/18/13 17/17/12 40/46/37
f  42/48/39 17/17/12 30/36/28
f  31/88/54 14/14/9 32/50/41
f  35/55/42 37/51/42 41/53/42
f  41/53/42 32/50/41 35/55/42
f  27/89/45 29/56/44 30/58/45
f  15/61/46 14/59/46 29/56/44
f  11/62/45 45/60/47 15/61/46
f  1/64/45 45/60/47 9/63/45
f  4/66/45 1/64/45 46/65/45
f  13/90/48 3/68/48 16/70/48
f  12/69/48 3/68/48 10/72/48
f  2/71/48 5/73/48 10/72/48
f  26/26/21 25/25/20 44/76/50
f  26/91/48 44/77/48 48/79/48
f  47/92/51 13/80/51 48/82/51
f  32/50/41 13/13/8 44/54/43
f  28/34/26 26/33/25 16/16/11

